<?xml version="1.0" encoding="utf-8"?>
<!-- Generator: Adobe Illustrator 28.3.0, SVG Export Plug-In . SVG Version: 6.00 Build 0)  -->
<svg version="1.1" id="_圖層_1" xmlns="http://www.w3.org/2000/svg" xmlns:xlink="http://www.w3.org/1999/xlink" x="0px" y="0px"
	 viewBox="0 0 82.1 82.1" style="enable-background:new 0 0 82.1 82.1;" xml:space="preserve">
<style type="text/css">
	.st0{fill:#494949;}
</style>
<path class="st0" d="M21.7,41.1c0-4.6,1.7-9.1,4.8-12.6c1.9-2.1,3.6-4,4.9-5.3L49.3,4.9c2.4-2.6,6.4-2.8,9-0.4s2.8,6.4,0.4,9
	c-0.1,0.1-0.2,0.2-0.4,0.4L40.4,32c-1.2,1.2-2.8,3-4.4,4.8c-2.1,2.4-2.1,6,0,8.4c1.6,1.8,3.2,3.6,4.4,4.8l18,18.3
	c2.6,2.4,2.7,6.4,0.3,9c-2.4,2.6-6.4,2.7-9,0.3c-0.1-0.1-0.2-0.2-0.4-0.4L31.4,59c-1.3-1.3-3-3.2-4.9-5.3
	C23.4,50.2,21.7,45.7,21.7,41.1z"/>
</svg>
