<?xml version="1.0" encoding="UTF-8"?>
<svg id="_圖層_1" data-name="圖層 1" xmlns="http://www.w3.org/2000/svg" viewBox="0 0 257 230">
  <defs>
    <style>
      .cls-1 {
        fill: none;
        stroke: #fff;
        stroke-miterlimit: 10;
      }
    </style>
  </defs>
  <path class="cls-1" d="M37.81,68.13C7.48,104.5,5.18,201.66,118.37,205.09c162.1,4.91,127.89-152.4,57.46-170.89-64.63-16.97-104.47-6.27-138.01,33.94Z"/>
  <path class="cls-1" d="M45.97,78.46C15.63,114.83,13.34,211.99,126.52,215.42c162.1,4.91,127.89-152.4,57.46-170.89-64.63-16.97-104.47-6.27-138.01,33.94Z"/>
  <path class="cls-1" d="M220.12,173.84c30.33-36.36,32.63-133.53-80.55-136.96C-22.54,31.98,11.67,189.29,82.1,207.78c64.63,16.97,104.47,6.27,138.01-33.94Z"/>
</svg>