<?xml version="1.0" encoding="UTF-8"?>
<svg id="_圖層_1" data-name="圖層 1" xmlns="http://www.w3.org/2000/svg" viewBox="0 0 320.06 319.8">
  <defs>
    <style>
      .cls-1 {
        fill: #fff;
        stroke: #f29b9b;
      }

      .cls-1, .cls-2 {
        stroke-miterlimit: 10;
        stroke-width: 2px;
      }

      .cls-2 {
        fill: none;
        stroke: #abd6e4;
      }
    </style>
  </defs>
  <g>
    <path class="cls-1" d="M26.42,71.07c-43.33,61.12-46.62,224.42,115.07,230.19,231.55,8.25,182.69-256.14,82.08-287.22C131.26-14.49,74.34,3.49,26.42,71.07Z"/>
    <path class="cls-1" d="M38.08,88.42c-43.33,61.12-46.62,224.42,115.07,230.19,231.55,8.25,182.69-256.14,82.08-287.22C142.91,2.87,85.99,20.85,38.08,88.42Z"/>
    <path class="cls-1" d="M286.84,248.73c43.33-61.12,46.62-224.42-115.07-230.19C-59.78,10.3-10.92,274.69,89.69,305.77c92.31,28.52,149.23,10.54,197.15-57.04Z"/>
  </g>
  <g>
    <path class="cls-2" d="M26.42,71.07c-43.33,61.12-46.62,224.42,115.07,230.19,231.55,8.25,182.69-256.14,82.08-287.22C131.26-14.49,74.34,3.49,26.42,71.07Z"/>
    <path class="cls-2" d="M38.08,88.42c-43.33,61.12-46.62,224.42,115.07,230.19,231.55,8.25,182.69-256.14,82.08-287.22C142.91,2.87,85.99,20.85,38.08,88.42Z"/>
    <path class="cls-2" d="M286.84,248.73c43.33-61.12,46.62-224.42-115.07-230.19C-59.78,10.3-10.92,274.69,89.69,305.77c92.31,28.52,149.23,10.54,197.15-57.04Z"/>
  </g>
</svg>