<?xml version="1.0" encoding="utf-8"?>
<!-- Generator: Adobe Illustrator 28.3.0, SVG Export Plug-In . SVG Version: 6.00 Build 0)  -->
<svg version="1.1" id="Capa_1" xmlns="http://www.w3.org/2000/svg" xmlns:xlink="http://www.w3.org/1999/xlink" x="0px" y="0px"
	 viewBox="0 0 512 512" style="enable-background:new 0 0 512 512;" xml:space="preserve">
<style type="text/css">
	.st0{fill:#FFFFFF;}
</style>
<g>
	<path class="st0" d="M291.9,256L451.6,96.3c9.9-9.9,9.9-26,0-35.9c-9.9-9.9-26-9.9-35.9,0l0,0L256,220.1L96.3,60.4
		c-9.9-9.9-26-9.9-35.9,0s-9.9,26,0,35.9L220.1,256L60.4,415.7c-9.9,9.9-9.9,26,0,35.9s26,9.9,35.9,0L256,291.9l159.7,159.7
		c9.9,9.9,26,9.9,35.9,0c9.9-9.9,9.9-26,0-35.9L291.9,256z"/>
</g>
</svg>
