<?xml version="1.0" encoding="UTF-8"?>
<svg id="_圖層_1" data-name="圖層 1" xmlns="http://www.w3.org/2000/svg" viewBox="0 0 117 124">
  <defs>
    <style>
      .cls-1 {
        fill: none;
        stroke: #fff;
        stroke-linecap: round;
        stroke-linejoin: round;
      }
    </style>
  </defs>
  <path class="cls-1" d="M44.86,47.56s26.38-41.26,19.95-5.84c-.12.65-.81,3.75-.95,4.45,0,0,20.15-11.44,6.48,12.05,0,0,30.25,4.02,27.74,14.31-1.85,7.58-26.67,3.12-26.67,3.12,0,0,16.37,22.03-2.32,26.9-18.68,4.87-9.8-22.15-9.8-22.15,0,0-1.32,20.06-21.65,21.81s-4.73-16.38,2.19-17.87c0,0-16.07,7.99-19.29,1.34-3.23-6.65,1.62-11.52,11.51-17.92,0,0-18.63,4.88-19.19-6.57-.56-11.45,21.58-6.89,26.58-3.01-19.69-25.27-9.45-46.66,5.42-10.62Z"/>
  <path class="cls-1" d="M46.98,46.61s26.38-41.26,19.95-5.84c-.12.65-.81,3.75-.95,4.45,0,0,20.15-11.44,6.48,12.05,0,0,30.25,4.02,27.74,14.31-1.85,7.58-26.67,3.12-26.67,3.12,0,0,16.37,22.03-2.32,26.9s-9.8-22.15-9.8-22.15c0,0-1.32,20.06-21.65,21.81-20.33,1.75-4.73-16.38,2.19-17.87,0,0-16.07,7.99-19.29,1.34s1.62-11.52,11.51-17.92c0,0-18.63,4.88-19.19-6.57-.56-11.45,21.58-6.89,26.58-3.01-19.69-25.27-9.45-46.66,5.42-10.62Z"/>
  <path class="cls-1" d="M46.42,46.24s29.46-39.12,20.34-4.29c-.17.64-1.09,3.67-1.29,4.36,0,0,20.96-9.87,5.54,12.51,0,0,29.85,6.33,26.56,16.39-2.42,7.42-26.83,1.07-26.83,1.07,0,0,14.63,23.21-4.37,26.64-19,3.43-8.08-22.83-8.08-22.83,0,0-2.85,19.9-23.25,20.09-20.4.19-3.46-16.69,3.55-17.65,0,0-16.63,6.73-19.34-.14-2.71-6.88,2.5-11.36,12.85-16.99,0,0-18.94,3.44-18.63-8.02.32-11.46,22.04-5.22,26.73-.96-17.7-26.7-5.85-47.24,6.22-10.17Z"/>
</svg>