<?xml version="1.0" encoding="UTF-8"?>
<svg id="_圖層_1" data-name="圖層 1" xmlns="http://www.w3.org/2000/svg" xmlns:xlink="http://www.w3.org/1999/xlink" viewBox="0 0 1920.67 696.63">
  <defs>
    <style>
      .cls-1 {
        fill: #d1ebf2;
      }

      .cls-1, .cls-2 {
        stroke-width: 0px;
      }

      .cls-2, .cls-3 {
        fill: none;
      }

      .cls-3 {
        stroke: #f9f9f9;
        stroke-miterlimit: 10;
      }

      .cls-4 {
        clip-path: url(#clippath);
      }
    </style>
    <clipPath id="clippath">
      <rect class="cls-2" y="-448.37" width="1920" height="1591" transform="translate(1920 694.27) rotate(180)"/>
    </clipPath>
  </defs>
  <g>
    <path class="cls-1" d="M228.96,673.28c172.66-20.81,391.18-330.73,815.71-399.65,49.33-8.01,98.5-13.38,146.98-16.59-40.47-2.75-81.52-4.24-122.93-4.18-433.74.64-646.82,339.28-839.75,420.41Z"/>
    <path class="cls-1" d="M1191.65,257.05c311.97,21.24,589.28,118.57,728.35,175.44v-89.43c-63.96-19.71-377.63-109.26-728.35-86Z"/>
    <path class="cls-1" d="M228.96,673.28c-10.23,1.23-20.3,1.46-30.23.55-101.11-9.22-163.61-42.44-198.73-69.38v56.22c36.94,15.26,84.19,27.16,143.74,29.79,28.4,1.25,56.59-5.13,85.22-17.18Z"/>
    <path class="cls-1" d="M228.96,673.28c192.93-81.13,406.01-419.77,839.75-420.41,41.41-.06,82.46,1.42,122.93,4.18,350.72-23.26,664.39,66.29,728.35,86V-448.37H0V604.46c35.12,26.94,97.62,60.16,198.73,69.38,9.94.91,20.01.68,30.23-.55Z"/>
  </g>
  <g class="cls-4">
    <path class="cls-3" d="M1931.89,346.82s-437.55-146.18-887.22-73.18c-449.67,73-668.22,416.4-845.94,400.2-177.73-16.2-236.23-106.6-236.23-106.6"/>
    <path class="cls-3" d="M2014.5,474.13s-447-222-945.79-221.26c-498.12.74-705.21,447.26-924.97,437.59-194.95-8.58-258.3-116.56-258.3-116.56"/>
  </g>
</svg>