<?xml version="1.0" encoding="UTF-8"?>
<svg id="_圖層_1" data-name="圖層 1" xmlns="http://www.w3.org/2000/svg" viewBox="0 0 80 80">
  <defs>
    <style>
      .cls-1 {
        fill: #64c0d6;
      }

      .cls-1, .cls-2 {
        stroke-width: 0px;
      }

      .cls-2 {
        fill: #fff;
      }
    </style>
  </defs>
  <path class="cls-2" d="M67.43,15.58l-32.91-.2-4-.02h-.09s-.22,35.45-.22,35.45c-1.99-1.4-4.57-2.26-7.4-2.27-6.35-.04-11.53,4.16-11.56,9.38-.03,5.22,5.09,9.49,11.44,9.53s11.53-4.16,11.56-9.38l.22-35.68,32.91.2-.18,28.45c-1.99-1.4-4.57-2.26-7.4-2.27-6.35-.04-11.53,4.16-11.56,9.38-.03,5.22,5.09,9.49,11.44,9.53,6.35.04,11.53-4.16,11.56-9.38l.22-35.68.04-7-4.09-.03Z"/>
  <path class="cls-1" d="M64.65,12.56l-32.91-.2-4-.02h-.09s-.22,35.45-.22,35.45c-1.99-1.4-4.57-2.26-7.4-2.27-6.35-.04-11.53,4.16-11.56,9.38-.03,5.22,5.09,9.49,11.44,9.53,6.35.04,11.53-4.16,11.56-9.38l.22-35.68,32.91.2-.18,28.45c-1.99-1.4-4.57-2.26-7.4-2.27-6.35-.04-11.53,4.16-11.56,9.38-.03,5.22,5.09,9.49,11.44,9.53,6.35.04,11.53-4.16,11.56-9.38l.22-35.68.04-7-4.09-.03Z"/>
</svg>