<?xml version="1.0" encoding="UTF-8"?>
<svg id="_圖層_1" data-name="圖層 1" xmlns="http://www.w3.org/2000/svg" viewBox="0 0 104 94">
  <defs>
    <style>
      .cls-1 {
        fill: #64c0d6;
      }

      .cls-1, .cls-2 {
        stroke-width: 0px;
      }

      .cls-2 {
        fill: #fff;
      }
    </style>
  </defs>
  <path class="cls-1" d="M78.33,26l-32.47,5.35-3.95.65h-.09s5.76,34.99,5.76,34.99c-2.2-1.05-4.89-1.45-7.67-.99-6.27,1.03-10.66,6.05-9.81,11.2.85,5.15,6.62,8.49,12.88,7.46s10.66-6.05,9.81-11.2l-5.8-35.2,32.47-5.35,4.63,28.07c-2.2-1.05-4.89-1.45-7.67-.99-6.27,1.03-10.66,6.05-9.81,11.2.85,5.15,6.62,8.49,12.88,7.46s10.66-6.05,9.81-11.2l-5.8-35.2-1.14-6.91-4.03.66Z"/>
  <path class="cls-2" d="M74.33,23l-32.47,5.35-3.95.65h-.09s5.76,34.99,5.76,34.99c-2.2-1.05-4.89-1.45-7.67-.99-6.27,1.03-10.66,6.05-9.81,11.2.85,5.15,6.62,8.49,12.88,7.46s10.66-6.05,9.81-11.2l-5.8-35.2,32.47-5.35,4.63,28.07c-2.2-1.05-4.89-1.45-7.67-.99-6.27,1.03-10.66,6.05-9.81,11.2.85,5.15,6.62,8.49,12.88,7.46s10.66-6.05,9.81-11.2l-5.8-35.2-1.14-6.91-4.03.66Z"/>
</svg>