<?xml version="1.0" encoding="UTF-8"?>
<svg id="_圖層_1" data-name="圖層 1" xmlns="http://www.w3.org/2000/svg" viewBox="0 0 80 80">
  <defs>
    <style>
      .cls-1 {
        fill: #ffedac;
      }

      .cls-1, .cls-2 {
        stroke-width: 0px;
      }

      .cls-2 {
        fill: #f29b9b;
      }
    </style>
  </defs>
  <path class="cls-1" d="M48.73,14.81v35.45h0c-2-1.39-4.59-2.23-7.41-2.23-6.35,0-11.5,4.23-11.5,9.46,0,5.22,5.15,9.46,11.5,9.46,6.35,0,11.5-4.23,11.5-9.46V14.81s-4.09,0-4.09,0Z"/>
  <path class="cls-2" d="M46.1,13.06v35.45h0c-2-1.39-4.59-2.23-7.41-2.23-6.35,0-11.5,4.23-11.5,9.46,0,5.22,5.15,9.46,11.5,9.46,6.35,0,11.5-4.23,11.5-9.46V13.06s-4.09,0-4.09,0Z"/>
</svg>