<?xml version="1.0" encoding="UTF-8"?>
<svg id="_圖層_1" data-name="圖層 1" xmlns="http://www.w3.org/2000/svg" viewBox="0 0 80 80">
  <defs>
    <style>
      .cls-1 {
        fill: #64c0d6;
      }

      .cls-1, .cls-2 {
        stroke-width: 0px;
      }

      .cls-2 {
        fill: #fff;
      }
    </style>
  </defs>
  <path class="cls-1" d="M67.64,15.74h-32.91s-4,0-4,0h-.09v35.45c-2-1.39-4.59-2.23-7.41-2.23-6.35,0-11.5,4.23-11.5,9.46s5.15,9.46,11.5,9.46,11.5-4.23,11.5-9.46V22.74s32.91,0,32.91,0v28.45c-2-1.39-4.59-2.23-7.41-2.23-6.35,0-11.5,4.23-11.5,9.46,0,5.22,5.15,9.46,11.5,9.46s11.5-4.23,11.5-9.46V22.74s0-7,0-7h-4.09Z"/>
  <path class="cls-2" d="M64.18,12.13H31.27s-4,0-4,0h-.09v35.45c-2-1.39-4.59-2.23-7.41-2.23-6.35,0-11.5,4.23-11.5,9.46s5.15,9.46,11.5,9.46,11.5-4.23,11.5-9.46V19.13s32.91,0,32.91,0v28.45c-2-1.39-4.59-2.23-7.41-2.23-6.35,0-11.5,4.23-11.5,9.46,0,5.22,5.15,9.46,11.5,9.46s11.5-4.23,11.5-9.46V19.13s0-7,0-7h-4.09Z"/>
</svg>