<?xml version="1.0" encoding="UTF-8"?>
<svg id="people" data-name="圖層 1" xmlns="http://www.w3.org/2000/svg" xmlns:xlink="http://www.w3.org/1999/xlink" viewBox="0 0 741.33 890.32">
  <defs>
    <style>
     #people{
     animation: people 3s linear infinite;
  -moz-animation: people 3s linear infinite;
  -webkit-animation: people 3s linear infinite;
  animation-delay: 0.2s;
  -moz-animation-delay: 0.2s;
  -webkit-animation-delay: 0.2s;
    }
    @keyframes people {
  0% {
    rotate: 0deg;
  }

  25% {
    rotate: -3deg;
  }

  50% {
    rotate: 0deg;
  }

  75% {
    rotate: 3deg;
  }

  100% {
    rotate: 0deg;
  }
}
      .cls-1 {
        fill: #dbdbeb;
      }

      .cls-1, .cls-2, .cls-3, .cls-4, .cls-5, .cls-6, .cls-7, .cls-8, .cls-9, .cls-10, .cls-11, .cls-12, .cls-13, .cls-14, .cls-15, .cls-16, .cls-17, .cls-18, .cls-19, .cls-20, .cls-21, .cls-22, .cls-23 {
        stroke-width: 0px;
      }

      .cls-2 {
        fill: #acacbf;
      }

      .cls-3 {
        fill: url(#_未命名漸層_2);
      }

      .cls-3, .cls-17 {
        opacity: .3;
      }

      .cls-4 {
        fill: #f3bea2;
      }

      .cls-5 {
        fill: #3fb8ac;
      }

      .cls-6 {
        fill: #de8ea5;
      }

      .cls-7 {
        fill: #ffedac;
      }

      .cls-8 {
        fill: none;
      }

      .cls-9 {
        fill: #ffc77a;
      }

    .cls-10 {
  fill: #f29b9b;
  transform: translate(0px, -4px);
  animation: move 3s linear infinite;
  -moz-animation: move 3s linear infinite;
  -webkit-animation: move 3s linear infinite;
  animation-delay: 1.5s;
  -moz-animation-delay: 1.5s;
  -webkit-animation-delay: 1.5s;
}

@keyframes move {
  0% {
    transform: translate(0px, -4px);
  }

  25% {

    transform: translate(-2px, -7px);
  }
35% {

    transform: translate(-2px, -7px);
  }
  50% {

    transform: translate(0px, -4px);
  }

  70% {
    transform: translate(4px, -1px);
  }
85% {
    transform: translate(4px, -1px);
  }
  100% {

    transform: translate(0px, -4px);
  }
}

      .cls-24 {
        clip-path: url(#clippath-1);
      }

      .cls-11 {
        fill: #64c0d6;
      }

      .cls-12 {
        fill: #e0869e;
      }

      .cls-13 {
        fill: #bdd8d9;
      }

      .cls-14 {
        fill: #eba0b0;
      }

      .cls-15 {
        fill: #eb7777;
      }

      .cls-16 {
        fill: #269789;
      }

      .cls-17 {
        fill: url(#_未命名漸層_5);
      }

      .cls-18 {
        fill: #cf4281;
      }

      .cls-19 {
        fill: #f5ceba;
      }

      .cls-20 {
        fill: #f0a96e;
      }

      .cls-21 {
        fill: #fff;
      }

      .cls-22 {
        fill: #cc4253;
      }

      .cls-23 {
        fill: #2d2635;
      }
    </style>
    <clipPath id="clippath-1">
      <rect class="cls-8" x="783" y="-1164.5" width="1920" height="1591"/>
    </clipPath>
    <linearGradient id="_未命名漸層_5" data-name="未命名漸層 5" x1="1261.9" y1="148.15" x2="1261.9" y2="-736.03" gradientUnits="userSpaceOnUse">
      <stop offset="0" stop-color="#fff" stop-opacity="0"/>
      <stop offset="1" stop-color="#fff"/>
    </linearGradient>
    <linearGradient id="_未命名漸層_2" data-name="未命名漸層 2" x1="1034.9" y1="159.48" x2="1034.9" y2="-724.7" gradientUnits="userSpaceOnUse">
      <stop offset="0" stop-color="#fff" stop-opacity="0"/>
      <stop offset="1" stop-color="#fff"/>
    </linearGradient>
  </defs>
  <g class="cls-24">
    <path class="cls-17" d="M3124-531s-211-196.24-482.5-204.87c-271.5-8.63-419.5,327.37-893.5,403.37s-968-129.15-1120-229.58c-152-100.42-751.9-184.47-1116,315.58s-76.04,382.67-76.04,382.67h3760.04l-72-667.16Z"/>
    <path class="cls-3" d="M2897-519.66s-211-196.24-482.5-204.87c-271.5-8.63-419.5,327.37-893.5,403.37s-968-129.15-1120-229.58c-152-100.42-751.9-184.47-1116,315.58-364.1,500.05-76.04,382.67-76.04,382.67h3760.04l-72-667.16Z"/>
  </g>
  <g>
    <g>
      <path class="cls-10" d="M315.14,108.63c2.23-.92,4.47-1.84,6.71-2.76.53-.22.96-.74.77-1.35-.16-.51-.78-1-1.35-.77-2.24.92-4.47,1.84-6.71,2.76-.53.22-.96.74-.77,1.35.16.51.78,1,1.35.77Z"/>
      <path class="cls-10" d="M229.42,115.47c.02-4.94,1.19-9.82,3.43-14.22.64-1.26-1.25-2.37-1.9-1.11-2.42,4.75-3.71,9.99-3.73,15.33,0,1.41,2.19,1.41,2.2,0Z"/>
      <path class="cls-10" d="M224.05,116.64c.34.48.96.71,1.5.39.48-.28.74-1.01.39-1.5-1.92-2.72-3.22-5.78-3.85-9.04-.11-.58-.81-.91-1.35-.77-.61.17-.88.77-.77,1.35.67,3.43,2.06,6.71,4.07,9.57Z"/>
      <path class="cls-10" d="M710.3,245.63c-.04-8.3-.33-16.62-.83-24.91-.2-3.16-.44-6.34-.83-9.48-.42-3.29-1.08-6.67-3.07-9.31-.33-.44-.79-.9-1.34-.86-.7.07-1.08.86-1.3,1.51-2.06,6.56-2.59,13.59-1.51,20.35l-.42.07c-1.98-6.39-3.97-12.8-6.52-18.99-1.3-3.14-2.81-6.3-5.33-8.56-.31-.29-.64-.55-1.03-.57-1.03-.09-1.51,1.23-1.58,2.24-.2,3.27.46,6.52,1.16,9.72,1.06,4.74,2.23,9.44,3.52,14.1-.06,0-.11,0-.16.02-2.41-5.09-5.11-10.05-8.1-14.84-2.26-3.62-4.81-7.29-8.52-9.39-.88-.53-2.35-.75-2.68.24-.11.35-.02.72.07,1.05,2.17,8.12,5.27,15.99,9.19,23.42-.06,0-.12.01-.18.02-4.85-6.26-10.83-11.63-17.55-15.78-1.89-1.16-3.97-2.26-6.19-2.11-.35.02-.72.09-.99.31-.53.44-.46,1.23-.31,1.89.79,3.27,2.77,6.12,4.83,8.78,3.25,4.17,6.76,8.12,10.58,11.79-.61,1.65-.57,3.75-.37,5.57,1.56,15.58,3.62,31.1,6.23,46.55l-.15.02c-15.93,20.79-32.79,40.89-50.5,60.16-3.93-2.44-7.79-5-11.57-7.68v-.02c.09-1.29.11-2.61.04-3.91-.31-9.04-4.02-17.95-10.29-24.49-7.16-7.46-17.58-11.72-27.94-11.41,4.15-6.37,4.21-15.14.18-21.58-4.24-6.76-12.16-10.43-20.02-11.9-7.84-1.49-15.91-1.16-23.86-1.98-7.95-.79-16.15-2.92-21.97-8.38l-.07.04s-.04-.07-.07-.09c-.02.09-.07.2-.09.29-.83,2.38-1.84,4.7-3.02,6.92-2.36,4.45-5.4,8.55-8.97,12.11,3.57-3.56,6.61-7.66,8.97-12.11,1.18-2.23,2.2-4.54,3.02-6.92-.08-.1-.15-.21-.22-.31.09,0,.17.01.26.01,6.73,0,6.74-10.45,0-10.45-2.64,0-4.24,1.61-4.81,3.57-2.39-4.14-4.35-8.53-5.83-13.08-.27-.83-.52-1.66-.77-2.5.24.84.49,1.67.77,2.5,2.5,2.28,5.93,3.56,9.31,3.29.77-.07,1.51-.2,2.24-.42,3.8-1.08,7.09-4.06,8.38-7.81,4.59,5.11,11,8.58,17.8,9.59,3.99.59,8.23.31,11.85-1.4h0c.92-.42,1.8-.94,2.61-1.56,3.99-3.02,6.1-8.71,4.05-13.28.35.04.71.08,1.07.1.84.13,1.66.13,2.48.01,6.9-.37,13.59-4.19,16.86-10.44,4.26-8.13,2.36-18.19-4.25-24.44-5.82-5.5-13.77-8.11-19.45-13.75-3.44-3.41-4.85-7.61-5.27-12.37-.46-5.13-.51-10.2-2.8-14.93-4.69-9.68-15.76-14.59-26.07-12.01-1.48-7.42-6.15-14.06-12.55-18.08-6.85-4.31-15.43-5.1-23.06-2.5-3.93,1.34-7.51,3.55-10.47,6.46-6.39-10.13-18.21-17.28-30.11-15.85-11.57,1.41-21.71,12.4-20.68,23.88-7.65-1.22-15.69.35-22.18,4.69-6.82,4.56-11.4,11.53-13.29,19.46-2.03,8.53-1.73,17.95-7,25.38-4.97,7.01-12.98,11.48-16.36,19.68-1.85,4.48-1.53,9.24.62,13.56,2.12,4.27,5.72,7.5,9.46,10.35-.49,4.92-2.3,9.88-1.01,14.62,1.27,4.61,5.31,8.06,9.77,9.83,1.23.48,2.52.88,3.82,1.14,7.31,1.47,15.34-.61,20.83-5.71,2.28,4.02,6.3,6.98,10.75,8.16-.07-.05-.13-.11-.2-.16.07.05.13.11.2.16,1.29.37,2.63.57,3.99.59,5.99.11,11.94-3.09,15.1-8.16,4.26,4.68,12.71,4.15,16.68-.59h-.22c-3.6-.19-7.24-.89-10.63-2.15-.97-.36-1.92-.76-2.84-1.21-1.85-.9-3.59-1.99-5.18-3.26-1.19-.96-2.3-2.03-3.29-3.21-1.91-2.24-3.36-4.83-4.54-7.51-.91-2.05-1.65-4.14-2.26-6.27-.41-1.42-.75-2.86-1.05-4.31.29,1.45.64,2.89,1.05,4.31.61,2.13,1.36,4.23,2.26,6.27,1.19,2.68,2.63,5.27,4.54,7.51,1,1.18,2.1,2.25,3.29,3.21,1.59,1.28,3.33,2.36,5.18,3.26.92.45,1.87.85,2.84,1.21,3.39,1.25,7.03,1.95,10.63,2.15h.22c.64.04,1.27.04,1.91.04-.55,5.27-1.73,10.43-3.18,15.54h0c-.35,1.29-.72,2.59-1.12,3.88h0s-.13-.04-.13-.04c-.02.02-.04.07-.04.09l-.02.02c-.63.6-1.3,1.16-1.98,1.68-.82-1.27-2.21-2.16-4.18-2.16-4.07,0-5.67,3.82-4.82,6.84-2.36.82-4.81,1.45-7.26,1.94-6.65,1.34-13.45,1.84-20.02,3.56-8.65,2.28-16.86,6.8-22.48,13.76-5.6,6.96-8.3,16.48-6.01,25.13-10.69,4.02-19.73,12.25-24.71,22.5-4.59,9.42-5.75,20.43-3.27,30.62.15.13.31.24.46.37-.09.15-.18.33-.26.48-4.15,7.73-8.3,15.41-12.44,23.13l-.29-.15c-25.72-.31-51.47-.64-77.19-.94v-.22c-5.18-4.08-11.08-7.22-17.34-9.28-2.48-.81-5.07-1.47-7.66-1.16-1.67.2-3.29.81-4.78,1.6-2.11,1.13-4.03,2.65-5.44,4.59.04-.26.07-.53.08-.79.02-.79-.2-1.67-.7-2.22,1.16-1.32,2.24-2.72,3.03-4.3,2.74-5.4,1.73-12.44-2.39-16.88-4.13-4.41-11.11-5.9-16.68-3.56,1.73-4.43.68-9.83-2.61-13.3-3.27-3.45-8.6-4.78-13.13-3.29,7.68-7.75,16.18-14.68,25.28-20.7,7-4.59,14.44-8.69,20.54-14.44,6.08-5.75,10.82-13.63,10.56-21.99-.15-5.07-2.11-9.83-4.37-14.42.26-.03.51-.08.76-.12.16.43.31.86.47,1.28,1.45,3.95,7.81,2.24,6.35-1.75-.16-.42-.31-.85-.47-1.28.33-.16.63-.37.79-.7.22-.44.13-.97.02-1.45-1.54-7.07-3.42-14.05-5.71-20.9-.67-2.06-1.38-4.11-2.12-6.15.74,2.04,1.45,4.09,2.12,6.15.94-1.27,1.89-2.55,2.83-3.84-.35-.53-.7-1.06-1.03-1.6.34.54.68,1.07,1.03,1.6,2.24-3.14,4.41-6.32,6.52-9.55-1.19-.6-2.37-1.23-3.53-1.89,1.16.65,2.34,1.28,3.53,1.89,2.37,1.21,4.81,2.3,7.31,3.27,7.77,2.99,16.31,4.57,24.6,3.47,4.32-.57,8.63-1.93,12.01-4.54,5.11-3.97,7.44-10.32,8.95-16.42,3.39-13.62,3.88-27.62,3.25-41.65.21.07.42.13.62.2.54.2,1.23-.22,1.35-.77.14-.62-.19-1.14-.77-1.35-.44-.16-.88-.3-1.33-.42-.1-1.83-.21-3.65-.34-5.48.1-.02.2-.04.3-.05-.29.02.11-.01.16-.02.57-.06,1.13-.46,1.1-1.1-.02-.54-.49-1.16-1.1-1.1-.21.02-.42.07-.62.1-.38-5.06-.85-10.12-1.33-15.15l-.16-.57c.06-.04.11-.07.17-.11,4.36-1.33,8.33-3.94,10.86-7.6,1.1-1.56,1.62-4.15-.18-4.89-.55-.24-1.16-.2-1.76-.15-2.02.11-4.04.24-6.06.37,3.31-2.92,6.1-6.39,8.16-10.23,1.34-2.46,2.39-5.33,1.45-7.97-.22-.59-.57-1.19-1.14-1.51-1.03-.57-2.35-.09-3.47.33-8.74,3.29-18.66,1.95-27.7-.55-9.04-2.5-17.78-6.15-27.08-7.44-6.74-.94-13.67-.61-20.28.94-4.16.99-8.24,2.54-11.65,4.99,3.69-4.66,8.92-8.16,14.69-9.82,5.9-1.71,12.24-1.74,18.21-.38,6.27,1.42,12.02,4.35,17.87,6.93,6.6,2.9,13.56,5.42,20.88,5.01,1.4-.08,1.41-2.27,0-2.19-14.16.78-25.67-9.33-39.07-12.06-11.76-2.39-24.77.39-32.99,9.55-3.45,3.85-5.84,8.53-6.78,13.58l-.12-.02c-4.13-.77-8.52.77-11.61,3.47-2.16,1.87-3.76,4.26-4.89,6.84-.11,0-.23-.01-.34-.02-1.24-.05-1.39,1.62-.46,2.08-.16.47-.3.95-.43,1.43-.15.53-.29,1.08-.39,1.62,2.02-.12,4.05-.17,6.07-.16-2.02-.02-4.05.04-6.07.16-.33,1.56-.55,3.16-.61,4.78-.04,1.03-.02,2.04.04,3.05.29,4.98,1.76,9.85,3.73,14.55.72,1.69,1.51,3.38,2.35,5.03.88,1.76,1.8,3.49,2.74,5.2,2.88,5.29,5.82,10.51,7.92,16.09l.24-.07c.57,2.33,1.65,4.57,2.83,6.72l-.64.42c-3.86-6.17-8.08-12.14-12.6-17.89-5.79,2.44-11.59,4.87-17.38,7.31t-.02-.02h-.02c-.4-.46-.82-.91-1.24-1.34-.01-.54-.36-1.1-1.04-1.18-.06,0-.12,0-.18-.02-7.67-7.13-18.63-10.46-29.27-10.7-1.21-.02-2.41-.02-3.62.02l-.02-.26v-23.81c4.08-1.6,7.53-4.72,9.57-8.6.66-1.29,1.16-2.94.35-4.15-.88-1.29-2.7-1.36-4.26-1.29,1.05-1.56,2.13-3.14,2.74-4.92.61-1.78.77-3.8-.02-5.49-.73-1.53-2.3-2.68-3.97-2.69.04-.17.07-.35.1-.52,1.41-2.13,3.07-5.34,2.97-7.1-.13-2.26-1.16-4.43-2.83-5.95-.72-.66-2.88-1.45-4.65-1.84v-31.25c0-7.42,6.04-13.43,13.43-13.43s13.43,6.01,13.43,13.43v9.77c0,3.03,2.46,5.49,5.49,5.49s5.49-2.46,5.49-5.49v-9.77c0-13.45-10.95-24.41-24.41-24.41s-24.41,10.95-24.41,24.41v29.72h-.55c-4.78-.48-9.57,1.58-13.21,4.74-3.62,3.14-6.21,7.31-8.38,11.59-4.39,8.63-7.24,17.93-10.05,27.19l-.07.09c-.55-.31-1.12-.57-1.71-.75-1.4-.4-3.12-.11-4.02,1.03-1.58,2,.09,5.05-.68,7.48-4.15-.81-8.47-.83-12.64-.09-1.27.24-2.57.55-3.58,1.34-2.26,1.76-2.13,5.75.22,7.35-18.17,9.2-35.62,21.22-46.6,38.41-1.45,2.26-2.83,4.76-2.77,7.46.04,2.66,1.47,5.07,3.16,7.11,6.06,7.33,15.36,11,24.34,14.07,8.47,2.92,17.1,5.6,25.97,6.63-10.07,11.22-18.88,23.55-26.16,36.74-1.25,2.26-2.48,4.57-4.35,6.32-2.85,2.66-6.78,3.69-10.34,5.27-3.56,1.58-7.18,4.21-7.73,8.06-.57,3.82,2.04,7.33,4.5,10.32-3.69-.31-7.42,2.13-8.65,5.64-1.05,2.99-.18,6.5,2.02,8.74.99.13,1.98.29,2.94.44-16.4,25.53-26.82,55.13-27.72,85.45-1.1,37.01,11.85,73.07,28.47,106.12,20.7,41.18,47.37,79.34,78.91,112.93-3.48-.47-6.98,1.24-9.19,3.94-2.15-.02-4.3-.04-6.46-.06-2.7-.02-5.42-.04-8.14.04-1.51.04-3.01.11-4.52.22-2.48-4.54-7.2-7.48-11.87-9.79-5.16-2.52-10.65-4.63-16.35-4.89-5.55-.24-11.39,1.45-15.25,5.42,0,.09.02.2.09.29,10.47,18.52,21.86,36.54,34.09,53.95l.44-.31c10.75-2.47,21.54-4.75,32.37-6.8-.26,1.31-.52,2.61-.79,3.92-7.78,5.55-15.55,11.1-23.31,16.64l-.04.02c1.38,2.99,3.01,5.86,4.85,8.56,4.95-2.02,9.86-4.12,14.77-6.25-5.81,30.08-11.16,60.24-16.06,90.49,4.1,3.01,8.41,5.73,12.86,8.14-8.1,17.01-11.68,36.17-10.23,54.96l1.49-.02h128.73c.97-10.03-3.42-20.43-11.3-26.73-8.76-6.98-20.85-8.8-29.7-15.52,2.68-.48,5.31-1.08,7.95-1.76,1.29-.33,2.74-.86,3.16-2.11.57-1.71-1.21-3.23-2.74-4.19-2.77-1.69-5.53-3.4-8.32-5.09,2.72-.64,5.6-1.34,7.62-3.25,2.02-1.93,2.77-5.49.79-7.46-.99-1.01-2.48-1.45-3.29-2.59-.99-1.34-.68-3.18-.35-4.83,8.04-40.28,11.1-81.46,18.7-121.78,21.67-5.54,43.07-11.94,63.78-20.32,1.56,1.01,3.12,1.95,4.72,2.88,18.85,10.82,39.81,16.94,61.43,19.75-6.01,8.12-11.08,17.3-9.37,26.95.92,5.16,3.69,9.77,6.47,14.2,23.02,36.68,49.69,70.89,76.32,105.05,2.08,2.66,4.17,5.33,6.26,8.01l-.02.02c-.68,13.63-6.39,26.95-15.76,36.87-1.6,1.69-3.29,3.27-5,4.85-2.7,2.48-5.47,4.92-7.92,7.66-3.6,3.97-6.63,8.76-7.4,14.03h65.14c3.03-11.13,6.04-22.28,9.06-33.43l.15.04c1.43,10.32,2.9,20.63,4.35,30.95h13.06c-.35-8.25-.72-16.53-1.1-24.78-.33-7.57-.68-15.25-3.16-22.41-2.33-6.69-6.76-12.95-13.08-15.98-.2-.11-.37-.2-.57-.26.09-.15.18-.31.29-.46-8.06-20.85-16.11-41.66-24.17-62.51-7.59-19.67-15.96-40.32-31.94-53.8,7.81-8.85,15.45-17.84,22.94-26.95,8.3,7.57,18.74,12.31,29.02,16.94,12.49,5.64,25,11.28,37.69,16.48,8.01,3.29,16.4,6.43,25.02,6.43.5.02,1.01,0,1.51-.02,16.94-18.85,26.93-42.98,33.89-67.36,12.18-42.73,15.91-87.86,10.91-132.02-3.09-27.3-10.67-56.19-31.34-74.14,6.12-17.01,8.21-35.49,5.97-53.44,4.17,2.66,8.89,4.48,13.65,5.88,1.65.48,3.53.88,5.14.4.15-.24.33-.48.53-.72.13.11.26.22.4.31,12.66,9.33,25.9,17.91,39.6,25.68,4.04,2.28,8.43,4.57,13.06,4.19,4.43-.35,8.3-3.12,11.65-6.04,13.92-12.07,23.42-28.34,32.57-44.34,11.72-20.5,23.29-41.11,34.7-61.81,2.74-2.79,5.16-5.93,7.13-9.28,1.65-2.77,3.01-5.71,3.67-8.85,1.6-7.7-1.21-15.45-4.57-22.72ZM423.21,171.95s0,0,0,0c.23-2.38.46-4.75.67-7.13-.21,2.38-.44,4.76-.67,7.13ZM422.79,176.16c.06-.66.13-1.33.19-1.99,0,0,0,0,0,0-.07.66-.13,1.33-.2,1.99h0s-.11-.02-.11-.02l.11.02ZM512.32,187.03c.19.63.44,1.24.71,1.83h0c-.28-.59-.53-1.2-.71-1.83l-.2-.07.2.07ZM508.13,194.24h0c.36-.47.72-.94,1.05-1.43-.33.49-.69.96-1.05,1.43ZM548.67,212.22c-.14-.39-.3-.77-.46-1.15.16.38.32.77.46,1.16.3.82.55,1.65.77,2.49h0c-.22-.84-.47-1.67-.77-2.49ZM513.69,190.08h0c.21.35.44.69.68,1.02-.24-.33-.47-.67-.68-1.02ZM496.72,202.99c-.04.9-.05,1.8-.05,2.7,0-.9.01-1.8.05-2.7ZM496.74,208.8c-.04-.78-.06-1.56-.07-2.35,0,.78.03,1.56.07,2.35ZM477.73,277.02c.42.02.81.02,1.21.02,1.17-.02,2.31-.18,3.44-.43-1.13.24-2.27.4-3.44.43-.39,0-.79,0-1.21-.02-.55-.03-1.11-.08-1.65-.16.55.08,1.1.13,1.65.16ZM485.13,226.73c.26-.96.45-1.94.55-2.93-.1.99-.29,1.96-.55,2.93ZM484.4,223.19c-.16.15-.32.3-.48.44.16-.15.33-.29.48-.44ZM480.78,226.24c.22-.16.43-.33.64-.49-.21.17-.42.33-.64.49ZM482.35,225c.2-.17.4-.33.59-.5-.2.17-.4.34-.59.5ZM484.17,229.47c-.24.56-.51,1.11-.79,1.65.29-.54.55-1.09.79-1.65ZM463.19,234.03c-.91.18-1.83.32-2.75.44.36-.05.72-.09,1.08-.15.56-.09,1.12-.18,1.68-.29ZM468.17,232.75c-.4.13-.8.25-1.21.37.4-.12.81-.24,1.21-.37ZM466.36,233.28c-.41.11-.83.22-1.25.32.42-.1.83-.21,1.25-.32ZM464.6,233.73c-.46.11-.92.21-1.38.3.46-.09.92-.19,1.38-.3ZM471.11,231.68c-.79.32-1.59.61-2.4.89.81-.27,1.61-.57,2.4-.89ZM472.58,231.05c-.35.15-.69.31-1.04.46.35-.15.69-.3,1.04-.46ZM475.99,229.34c-.3.17-.61.33-.92.49.31-.16.61-.32.92-.49ZM474.3,230.24c-.32.16-.65.32-.97.48.33-.15.65-.31.97-.48ZM477.65,228.37c-.27.17-.55.32-.82.48.27-.16.55-.32.82-.48ZM479.78,226.96c-.2.14-.4.29-.61.43.21-.14.4-.29.61-.43ZM470.79,275.39c-.89-.35-1.77-.75-2.63-1.18.86.43,1.74.82,2.63,1.18ZM494.79,270.13c.9-.72,1.77-1.47,2.61-2.25-.84.78-1.72,1.53-2.61,2.25ZM496.79,209.62c.04.67.09,1.33.15,2-.06-.67-.11-1.33-.15-2ZM497.06,212.87c.04.42.1.83.15,1.25-.05-.42-.1-.83-.15-1.25ZM497.6,216.84c.03.19.06.39.1.58-.03-.19-.06-.39-.1-.58ZM498.05,219.27c.03.13.06.26.08.39-.02-.12-.05-.23-.08-.35,0-.01,0-.03,0-.04ZM498.62,221.85c.17.68.34,1.36.53,2.03-.19-.67-.36-1.35-.53-2.03ZM500.46,201.1c1.82-1.1,3.53-2.4,5.05-3.89.83-.81,1.61-1.68,2.34-2.59h0c-.73.91-1.5,1.78-2.34,2.59-1.53,1.49-3.23,2.8-5.05,3.89ZM535.21,198.57c-.98-.31-1.99-.54-3.01-.73h0c1.02.18,2.03.41,3.01.73,1.18.37,2.31.87,3.39,1.47-1.07-.6-2.2-1.09-3.39-1.47ZM541.64,202.13c.63.53,1.24,1.09,1.81,1.69-.57-.6-1.18-1.16-1.81-1.69ZM550.35,225.82c.11-1.51.14-3.03.07-4.54-.02-.35-.06-.7-.08-1.06h0c.03.35.07.7.08,1.06.07,1.51.04,3.03-.07,4.54ZM493.63,108c7.44.33,14.35,4.28,18.75,10.25,2.45,3.33,4.07,7.17,4.71,11.26.09.58.83.92,1.35.77,9.13-2.79,19.12.97,23.94,9.26,2.49,4.29,2.81,8.98,3.16,13.82.32,4.39.99,8.78,3.57,12.46,4.2,5.99,11.2,9.02,17.11,12.94,3.1,2.06,6.12,4.47,8.09,7.68,2.31,3.77,3.12,8.45,2.32,12.79-1.03,5.59-4.74,10.07-9.53,12.49,1.66-1.75,3.05-3.86,4-5.99,1.98-4.41,3.05-9.61,1.1-14.05-4.04-9.28-17.73-9.55-24.21-17.32-4.81-5.77-4.46-14.07-6.34-21.33-1.54-6.04-4.94-11.74-10.14-15.19-5.18-3.42-12.29-4.24-17.71-1.19-.39-9.26-5.88-18.13-13.98-22.63-6.28-3.49-13.96-4.2-20.85-2.22,4.38-2.66,9.51-4.04,14.69-3.81ZM423.89,164.69c.09-1.08.18-2.17.27-3.25-.08,1.08-.17,2.17-.27,3.25ZM411.81,228.98c.34-2.98,1.4-5.91,2.95-8.5.27-.45.55-.89.84-1.34.39-.6.76-1.21,1.12-1.82-.36.62-.73,1.22-1.12,1.82-.28.44-.57.89-.84,1.34-1.55,2.59-2.61,5.52-2.95,8.5ZM412.24,197.25c.38.75.81,1.48,1.26,2.2-.46-.72-.89-1.45-1.26-2.2ZM413.99,184.22c-.33.35-.62.72-.9,1.11.28-.39.58-.76.9-1.11.29-.31.6-.59.93-.86-.32.27-.64.55-.93.86ZM415.15,201.98c-.16-.25-.32-.5-.49-.75.16.25.33.5.49.75ZM412.31,186.58c.15-.28.32-.56.49-.83-.18.27-.34.55-.49.83ZM380.29,227.52h0c-.01-.28-.01-.55-.01-.83,0,.28,0,.55.01.83ZM382.57,235.93c.33.62.69,1.22,1.08,1.8-.4-.58-.75-1.18-1.08-1.8,0,0,0,0,0,0ZM405.26,171.12s.03,0,.04-.01c-1.98,1.45-3.56,3.45-4.53,5.71.95-2.25,2.52-4.24,4.48-5.7ZM400.78,176.82c-.16.37-.3.75-.42,1.13.12-.38.27-.76.42-1.13ZM417.63,206.89c.23.68.42,1.38.55,2.08-.13-.7-.32-1.39-.55-2.08ZM412.99,167.64s0,0,0,0c.19-.06.38-.13.57-.19-.19.06-.37.13-.56.19ZM365.09,192.38c2.82-7.81,10.53-12.36,15.48-18.66,5.2-6.61,5.97-14.71,7.31-22.72.66-3.93,1.53-7.87,3.33-11.46,1.71-3.4,4.06-6.44,6.92-8.95,4.85-4.27,11.04-6.6,17.37-6.94-8.45,1.58-16.22,6.91-19.82,14.69-4.85,10.45-2.24,23.75-9.17,32.92-3.01,3.99-7.46,6.63-11.35,9.79-3.88,3.16-7.46,7.44-7.53,12.44-.09,5.95,4.72,10.91,5.66,16.77.1.64.15,1.28.17,1.92-6-4.9-11.31-11.68-8.38-19.81ZM383.7,237.82c.4.6.84,1.17,1.32,1.71-.48-.54-.91-1.12-1.32-1.71ZM418.39,212.37c.08-.97.04-1.95-.11-2.92.15.97.19,1.95.11,2.92ZM420.38,179.78c-.55.45-1.16.84-1.77,1.21.62-.37,1.22-.76,1.77-1.21.57-.46,1.09-1.02,1.49-1.64.2-.31.37-.64.51-.97.14-.34.23-.68.29-1.03h0c-.05.35-.15.7-.29,1.03-.13.34-.31.66-.51.97-.4.62-.92,1.18-1.49,1.64ZM457.7,234.74c-.19.01-.37.03-.56.03.19,0,.37-.02.56-.03ZM459.81,234.56c-.28.03-.57.06-.86.09.29-.03.57-.05.86-.09ZM459.44,268.58c.73.59,1.47,1.16,2.23,1.71-.76-.55-1.51-1.11-2.23-1.71-3.99-3.26-7.35-7.25-9.24-12,.17-.54.33-1.08.49-1.62-.16.54-.32,1.09-.49,1.62,1.89,4.75,5.25,8.74,9.24,12ZM366.25,416.43c4.13-3.01,7.24-7.13,10.25-11.26,3.2-4.41,6.34-8.89,9.42-13.41.48.79.94,1.58,1.38,2.39,5.95.13,11.7-2.26,17.05-4.92.94-.46,1.87-.92,2.74-1.49,1.56-.99,2.94-2.26,4.06-3.71l.75-.72c1.91,2.28,4.02,4.39,6.32,6.28-3.18,1.43-5.57,4.48-6.19,7.9-.61,3.42.55,7.13,3.03,9.57,1.51,1.49,3.49,2.57,4.59,4.37-3.4,1.36-5.75,5-5.57,8.67.18,3.67,2.88,7.07,6.41,8.08-13.32.86-25.88,6.87-36.65,14.75-10.86,7.9-20.19,17.69-29.76,27.13-2.25,2.22-4.52,4.43-6.81,6.61-23.97-9.79-47.7-20.18-71.15-31.17-30.99-14.53-61.87-30.35-87.73-52.74.22-.02.44-.04.66-.09,2.55-.44,4.98-1.51,7.55-1.65-2.15,2.63.99,6.83,4.39,6.94,2.79.07,5.25-1.51,7.44-3.34,4.46,7.29,9.83,14.11,16.86,18.94,7.18,4.92,16.24,7.55,24.74,5.68,2.3-.5,4.81-1.6,5.51-3.84.46-1.45.07-3.12.79-4.43,3.8.9,8.25-.53,10.16-3.93.02-.04.04-.08.06-.12,22.9,7.13,46.07,14.05,69.98,15.57,10.32.64,21.4.04,29.74-6.06ZM240.39,205.79c-2.57-5.05-5.37-9.98-8.34-14.8,2.97,4.82,5.77,9.75,8.34,14.8,1.97,3.87,3.82,7.79,5.55,11.77-1.73-3.98-3.58-7.91-5.55-11.77ZM236.32,134.86c-.8-.17-1.6-.32-2.41-.46.8.15,1.61.3,2.41.46h0ZM235.91,168.65c.32-.02.64-.03.96-.02-.32-.01-.64,0-.96.02ZM255.92,172.74c-2.88-6.61-9.75-10.73-14.42-16.35-.91-1.08-1.73-2.24-2.46-3.44h0c.73,1.21,1.55,2.36,2.46,3.44,4.68,5.62,11.55,9.75,14.42,16.35.42.95.7,2.06.67,3.09.03-1.03-.25-2.14-.67-3.09ZM253.56,179.08c-.43.02-.87-.02-1.31-.13-.65-.16-1.27-.44-1.8-.81-.16-.11-.3-.25-.45-.37.15.12.29.26.45.37.53.37,1.15.65,1.8.81.43.1.88.15,1.31.13ZM236.08,135.73c-.4,1.55-.62,3.13-.64,4.72-.02.56.01,1.12.05,1.67-.04-.55-.07-1.11-.05-1.67.02-1.59.24-3.17.64-4.72ZM235.76,144.36c.06.34.12.68.2,1.03.18.88.45,1.76.76,2.62-.31-.87-.58-1.74-.76-2.62-.08-.34-.14-.68-.2-1.03h0ZM248.52,214.18h0c1.1.74,2.21,1.47,3.33,2.2-1.12-.72-2.23-1.46-3.33-2.2ZM224.29,133.15c-2.02-.15-4.05-.23-6.08-.25,2.03.02,4.06.1,6.08.25ZM228.02,178.29c.01.67.09,1.34.21,2.01-.11-.67-.2-1.34-.21-2.01ZM134.11,170.98l-.22-.81c3.69-2.15,7.35-4.3,11.04-6.45.68-.4,1.38-.83,1.76-1.51.61-1.21-.04-2.48-1.01-3.53,2.9-1.43,5.75-2.94,8.1-5.14.2-.18.4-.37.57-.57v13.21c-6.83,1.14-13.56,2.96-20.24,4.81ZM234.3,575.32c-1.73-12.2-5.33-24.28-6.87-36.55,3.26.89,6.53,1.77,9.8,2.65,1.16,9.71,3.95,19.16,8.07,28.1-3.66,1.93-7.33,3.87-10.99,5.8Z"/>
    </g>
    <g>
      <g>
        <g>
          <path class="cls-15" d="M488.96,593.58c-1.51,4.37-3.14,8.71-4.87,13.02-2.35-2.7-4.72-5.38-7.07-8.08-.99,4.54-8.38,5.66-10.67,1.65-1.43-2.5-.88-5.86-2.57-8.19-1.45-2-4.06-2.66-6.47-3.2-77.83-17.19-155.24-36.32-232.11-57.4,2.22,17.6,8.67,34.81,7.75,52.54-.48,9.2-2.94,18.15-5.07,27.11-11.17,47.01-13.72,95.65-23.18,143.04-.33,1.65-.64,3.49.35,4.83.81,1.14,2.3,1.58,3.29,2.59,1.98,1.98,1.23,5.53-.79,7.46-2.02,1.91-4.89,2.61-7.62,3.25,2.79,1.69,5.55,3.4,8.32,5.09,1.54.97,3.31,2.48,2.74,4.19-.42,1.25-1.87,1.78-3.16,2.11-2.63.68-5.27,1.27-7.95,1.76-26.71,4.96-55.11.31-78.99-12.69-4.46-2.41-8.76-5.14-12.86-8.14,6.43-39.66,13.63-79.19,21.62-118.57-4.08.72-6.89-4.83-5.36-8.65,1.54-3.84,5.49-6.04,9.15-7.95-5.73.77-11.54-4.32-11.54-10.12s5.79-10.89,11.52-10.12c-31.54-33.58-58.21-71.75-78.91-112.93-16.62-33.05-29.56-69.12-28.47-106.12.9-30.31,11.33-59.92,27.72-85.45,16.64,2.55,32.97,7.16,48.44,13.72.79,1.58,1.73,3.12,2.66,4.61,10.73,17.19,22.69,35.42,41.53,42.91,11,4.37,23.13,4.52,34.94,4.39-.09,4.48-4.06,9.2-1.54,12.88,1.32,1.95,3.95,2.48,6.34,2.22,25.86,22.39,56.74,38.21,87.73,52.74,62.47,29.28,126.91,54.32,192.75,74.93,2.13.66,4.52,1.29,6.47.24,1.43-.77,2.3-2.28,3.71-3.07,4.65-2.61,8.93,4.02,10.21,9.2,4.7-2.17,7.24-9.66,12.27-8.43,3.73.92,4.39,5.9,4.17,9.75-.18,3.07-.42,6.15-.7,9.2-2,21.69-6.65,43.11-13.81,63.67Z"/>
          <path class="cls-23" d="M563.06,470.32c.97,12.69-.66,25.44-2.77,38.01-2.68,15.87-6.17,31.63-10.43,47.17-4.85,17.58-10.86,35.21-21.2,50.22-13.23-4.04-26.47-8.1-39.7-12.14,7.16-20.57,11.81-41.99,13.81-63.67h.04c7.68-6.12,13.63-14.42,16.99-23.66,1.95-5.36,3.05-11.02,5.42-16.18,6.3-13.65,22.06-22.26,36.94-20.19l.9.44Z"/>
          <path class="cls-23" d="M229.59,800.86c7.88,6.3,12.27,16.7,11.3,26.73H112.17l-1.49.02c-1.45-18.79,2.13-37.95,10.23-54.96,23.88,12.99,52.28,17.65,78.99,12.69,8.85,6.72,20.94,8.54,29.7,15.52Z"/>
          <path class="cls-18" d="M476.75,525.27c-2.61,17.62-4.2,35.38-4.75,53.18-.04,1.41,2.15,1.41,2.19,0,.54-17.61,2.1-35.17,4.67-52.6.2-1.38-1.91-1.98-2.12-.58Z"/>
          <path class="cls-18" d="M487.77,530.97c-2.33,15.32-4.67,30.63-7,45.95-.21,1.38,1.9,1.98,2.12.58,2.33-15.32,4.67-30.63,7-45.95.21-1.38-1.9-1.98-2.12-.58Z"/>
          <path class="cls-22" d="M189.05,774.52c-18.12.78-36.3-2.4-53.09-9.25-4.78-1.95-9.43-4.22-13.93-6.75-1.23-.69-2.34,1.2-1.11,1.9,16.06,9.03,34.01,14.5,52.37,16,5.24.43,10.51.52,15.76.3,1.41-.06,1.41-2.26,0-2.19Z"/>
          <path class="cls-22" d="M197.59,762.67c-22.12-.46-44.13-3.4-65.6-8.75-1.37-.34-1.96,1.77-.58,2.12,21.65,5.4,43.87,8.37,66.18,8.83,1.41.03,1.41-2.17,0-2.19Z"/>
          <path class="cls-22" d="M461.54,540.18c-30.03-7.25-60.07-14.49-90.01-22.11-29.93-7.61-59.77-15.58-89.41-24.28-29.38-8.63-58.68-17.81-87.42-28.4-25.84-9.52-51.83-21.67-69.97-43.1-5.66-6.69-10.37-14.22-13.66-22.33,10.02-7.97,18.62-17.63,25.37-28.52.75-1.2-1.15-2.31-1.9-1.11-6.5,10.47-14.75,19.75-24.33,27.5-1.13-3.08-2.07-6.24-2.75-9.46-2.64-12.47-1.86-25.97,3.39-37.68,1.28-2.86,2.82-5.58,4.58-8.16.8-1.17-1.1-2.27-1.9-1.11-11.72,17.19-12.06,39.04-4.95,58.01-.07.33.06.66.32.9,1.76,4.53,3.94,8.88,6.5,12.96,14.63,23.29,38.9,37.96,63.72,48.36,13.94,5.84,28.31,10.69,42.63,15.51,14.95,5.02,29.99,9.8,45.09,14.37,30.1,9.11,60.44,17.41,90.89,25.28,30.57,7.9,61.26,15.36,91.95,22.77,3.75.91,7.51,1.81,11.26,2.72,1.37.33,1.96-1.78.58-2.12Z"/>
          <path class="cls-22" d="M222.64,530.25c-29.19-6.3-58.09-13.97-86.56-23.01-25.36-8.04-52.29-16.77-71.33-36.32-9.37-9.63-16.44-21.59-18.68-34.96-.23-1.39-2.35-.8-2.12.58,4.22,25.17,24.26,43.95,45.98,55.28,12.33,6.43,25.51,11.03,38.71,15.33,14.45,4.71,29.02,9.06,43.68,13.07,16.46,4.5,33.05,8.54,49.73,12.14,1.38.3,1.97-1.82.58-2.12Z"/>
        </g>
        <g>
          <path class="cls-5" d="M163.09,133.54v23.81l.02.26c-3.69.11-7.35.55-11,1.16v-13.21c4.57-4.72,6.23-12.09,4.13-18.31l-.46-.31c2.68-3.93,5.11-8.01,7.31-12.23v18.81Z"/>
          <path class="cls-11" d="M163.09,90.98v8.8c-.15.02-.31.07-.46.09-4.39,1.01-7.66,4.48-10.51,8.06v-48.2c0-13.45,10.95-24.41,24.41-24.41s24.41,10.95,24.41,24.41v9.77c0,3.03-2.46,5.49-5.49,5.49s-5.49-2.46-5.49-5.49v-9.77c0-7.42-6.04-13.43-13.43-13.43s-13.43,6.01-13.43,13.43v31.25Z"/>
          <path class="cls-4" d="M260.85,390.05c3.75,1.12,5.31,6.21,3.4,9.59-1.91,3.4-6.37,4.83-10.16,3.93-.72,1.32-.33,2.99-.79,4.43-.7,2.24-3.2,3.34-5.51,3.84-8.49,1.87-17.56-.77-24.74-5.68-7.02-4.83-12.4-11.65-16.86-18.94.48-.4.94-.81,1.4-1.23,6.17-5.53,12.16-11.24,18-17.1.88-.88,1.76-1.78,2.59-2.7.5.55.72,1.43.7,2.22-.07,1.16-.44,2.35-.15,3.49.48,1.89,2.59,2.81,4.48,3.34,6.21,1.8,12.75,2.41,19.18,1.78,2.28-.24,4.7-.59,6.8.33,2.26.99,3.73,3.38,3.95,5.84.2,2.46-.77,4.94-2.3,6.87Z"/>
          <path class="cls-21" d="M228.19,366.19c-.83.92-1.71,1.82-2.59,2.7-5.84,5.86-11.83,11.57-18,17.1-.46.42-.92.83-1.4,1.23-2.19,1.82-4.65,3.4-7.44,3.34-3.4-.11-6.54-4.3-4.39-6.94-2.57.13-5,1.21-7.55,1.65-.22.04-.44.07-.66.09-2.39.26-5.03-.26-6.34-2.22-2.52-3.69,1.45-8.41,1.54-12.88-11.81.13-23.95-.02-34.94-4.39-18.83-7.48-30.79-25.72-41.53-42.91-.92-1.49-1.87-3.03-2.66-4.61-15.47-6.56-31.8-11.17-48.44-13.72-.97-.15-1.95-.31-2.94-.44-2.19-2.24-3.07-5.75-2.02-8.74,1.23-3.51,4.96-5.95,8.65-5.64-2.46-2.99-5.07-6.5-4.5-10.32.55-3.84,4.17-6.47,7.73-8.06,3.56-1.58,7.48-2.61,10.34-5.27,1.87-1.76,3.09-4.06,4.35-6.32,7.29-13.19,16.09-25.53,26.16-36.74,12.8-14.27,27.61-26.71,43.94-36.79,4.35-2.68,8.8-5.2,13.45-7.33,12.34-5.66,25.97-8.47,39.53-8.16h.02s.02,0,.02.02c5.79-2.44,11.59-4.87,17.38-7.31,4.52,5.75,8.74,11.72,12.6,17.89,9.28,14.66,16.75,30.49,22.15,46.97,2.28,6.85,4.17,13.83,5.71,20.9.11.48.2,1.01-.02,1.45-.24.48-.77.72-1.27.9-2.15.81-4.37,1.36-6.63,1.67,2.26,4.59,4.21,9.35,4.37,14.42.26,8.36-4.48,16.24-10.56,21.99-6.1,5.75-13.54,9.85-20.54,14.44-9.11,6.01-17.6,12.95-25.28,20.7,4.52-1.49,9.85-.15,13.13,3.29,3.29,3.47,4.35,8.87,2.61,13.3,5.57-2.35,12.55-.86,16.68,3.56,4.13,4.43,5.14,11.48,2.39,16.88-.79,1.58-1.87,2.99-3.03,4.3Z"/>
          <path class="cls-21" d="M131.88,163.59c6.67-1.84,13.41-3.67,20.24-4.81,3.64-.61,7.31-1.05,11-1.16,1.21-.04,2.41-.04,3.62-.02,11.83.26,24.08,4.35,31.74,13.23-13.56-.31-27.19,2.5-39.53,8.16-4.65,2.13-9.11,4.65-13.45,7.33-16.33,10.07-31.15,22.52-43.94,36.79-8.87-1.03-17.49-3.71-25.97-6.63-8.98-3.07-18.28-6.74-24.34-14.07-1.69-2.04-3.12-4.46-3.16-7.11-.07-2.7,1.32-5.2,2.77-7.46,10.97-17.19,28.42-29.21,46.6-38.41-2.35-1.6-2.48-5.6-.22-7.35,1.01-.79,2.3-1.1,3.58-1.34,4.17-.75,8.49-.72,12.64.09.77-2.44-.9-5.49.68-7.48.9-1.14,2.61-1.43,4.02-1.03.59.18,1.16.44,1.71.75.72.42,1.4.94,2.06,1.45,6.72,5.18,13.45,10.36,20.19,15.54.46.35.92.77,1.34,1.23.97,1.05,1.62,2.33,1.01,3.53-.37.68-1.08,1.12-1.76,1.51-3.69,2.15-7.35,4.3-11.04,6.45l.22.81Z"/>
          <path class="cls-4" d="M173.01,120.79c.81,1.21.31,2.85-.35,4.15-2.04,3.88-5.49,7-9.57,8.6v-18.81c.83-1.65,1.65-3.29,2.41-4.96.35-.81.72-1.62,1.01-2.46h.02c.22-.24.46-.57.72-.92,1.76-.11,3.45,1.1,4.21,2.7.79,1.69.64,3.71.02,5.49-.61,1.78-1.69,3.36-2.74,4.92,1.56-.07,3.38,0,4.26,1.29Z"/>
          <path class="cls-4" d="M167.26,106.39c-.26.35-.5.68-.72.92h-.02c.37-.99.64-2,.72-3.05.15-1.67-.37-3.62-1.89-4.3-.7-.31-1.49-.31-2.26-.18v-8.8c1.78.4,3.93,1.19,4.65,1.84,1.67,1.51,2.7,3.69,2.83,5.95.11,1.91-1.84,5.53-3.31,7.62Z"/>
          <path class="cls-4" d="M163.09,99.78c.77-.13,1.56-.13,2.26.18,1.51.68,2.04,2.63,1.89,4.3-.09,1.05-.35,2.06-.72,3.05-.29.83-.66,1.65-1.01,2.46-.77,1.67-1.58,3.31-2.41,4.96-2.19,4.21-4.63,8.3-7.31,12.23l.46.31c2.11,6.21.44,13.59-4.13,18.31-.18.2-.37.4-.57.57-2.35,2.19-5.2,3.71-8.1,5.14-.42-.46-.88-.88-1.34-1.23-6.74-5.18-13.48-10.36-20.19-15.54-.66-.5-1.34-1.03-2.06-1.45l.07-.09c2.81-9.26,5.66-18.57,10.05-27.19,2.17-4.28,4.76-8.45,8.38-11.59,3.64-3.16,8.43-5.22,13.21-4.74h.55v18.48c2.85-3.58,6.12-7.05,10.51-8.06.15-.02.31-.07.46-.09Z"/>
          <path class="cls-13" d="M168.23,237.04c-12.4,8.75-24.2,18.36-35.26,28.77-10.85,10.22-21.34,21.17-30.44,33-2.27,2.95-4.31,6.24-4.69,10.03-.33,3.3.67,6.8,3.28,8.97,1.08.9,2.64-.65,1.55-1.55-5.65-4.69-1.39-12.38,2.15-16.84,4.42-5.57,9.12-10.93,13.94-16.15,9.69-10.49,20.08-20.32,31.07-29.42,6.3-5.22,12.81-10.18,19.49-14.9,1.15-.81.05-2.71-1.11-1.9Z"/>
          <path class="cls-13" d="M196.19,168.31c-30.45-3.23-58.67,13-79.56,33.81-5.94,5.92-11.45,12.26-16.68,18.81-.87,1.09.67,2.66,1.55,1.55,18.11-22.66,40.65-43.65,69.72-50.37,8.18-1.89,16.62-2.5,24.98-1.61,1.4.15,1.39-2.05,0-2.19Z"/>
          <path class="cls-13" d="M192.8,325.77c-6.52,3.42-12.62,7.58-18.22,12.36-1.08.92.48,2.47,1.55,1.55,5.46-4.66,11.42-8.68,17.77-12.01,1.25-.66.14-2.55-1.11-1.9Z"/>
          <path class="cls-13" d="M196.14,330.39l-12.39,12.32c-1,1,.55,2.55,1.55,1.55,4.13-4.11,8.26-8.21,12.39-12.32,1-1-.55-2.55-1.55-1.55Z"/>
          <path class="cls-13" d="M129.25,162.76c-10.8.68-21.34,3.49-31.04,8.3-1.27.63-.15,2.52,1.11,1.9,9.34-4.63,19.53-7.35,29.93-8,1.4-.09,1.41-2.28,0-2.19Z"/>
          <path class="cls-13" d="M122.22,155.41c-5.37-1.8-10.33-4.72-14.5-8.55-1.04-.95-2.6.59-1.55,1.55,4.46,4.09,9.73,7.2,15.47,9.11,1.34.45,1.92-1.67.58-2.12Z"/>
          <path class="cls-13" d="M128.08,155.46c-3.65-4.18-7.11-8.52-10.38-13.01-.35-.48-.95-.71-1.5-.39-.47.28-.74,1.02-.39,1.5,3.38,4.64,6.95,9.13,10.72,13.45.93,1.07,2.48-.49,1.55-1.55Z"/>
          <path class="cls-13" d="M218.52,352.16c-8.12,6.87-15.35,14.73-21.56,23.37-.83,1.15,1.08,2.25,1.9,1.11,6.1-8.49,13.24-16.18,21.22-22.93,1.08-.91-.48-2.46-1.55-1.55Z"/>
          <path class="cls-13" d="M219.98,359.72c-6.11,5.69-11.91,11.7-17.37,18.02-.92,1.06.63,2.62,1.55,1.55,5.46-6.32,11.26-12.33,17.37-18.02,1.04-.96-.52-2.51-1.55-1.55Z"/>
          <path class="cls-13" d="M77.97,299.15c-6.82-1.85-13.7-3.46-20.63-4.84-1.38-.28-1.97,1.84-.58,2.12,6.93,1.38,13.81,3,20.63,4.84,1.37.37,1.95-1.75.58-2.12Z"/>
          <path class="cls-13" d="M79.42,293.79c-6.95-4.05-13.75-8.36-20.38-12.92-1.17-.8-2.27,1.1-1.11,1.9,6.63,4.56,13.43,8.87,20.38,12.92,1.22.71,2.33-1.18,1.11-1.9Z"/>
          <path class="cls-23" d="M256.01,252.72c-5.87-16.03-12.12-32.8-24.96-44.67-5.73-5.29-12.58-9.46-20.19-11.38-8.49-2.14-17.53-1.61-25.93.72-17,4.71-30.95,16.54-43.47,28.47-12.35,11.77-23.57,24.68-33.7,38.4-11.56,15.66-21.59,32.41-30.14,49.88-1.86,3.79,3.82,7.13,5.69,3.32,14.15-28.92,32.38-55.84,54.8-79,20.27-20.94,53.46-50.6,83.61-29.55,15.14,10.57,21.86,28.94,27.94,45.56,1.44,3.95,7.81,2.24,6.35-1.75Z"/>
          <path class="cls-16" d="M156.18,60.13c.05-1.41-2.15-1.41-2.19,0-.46,13.54-.12,27.09,1.01,40.59.12,1.4,2.31,1.41,2.19,0-1.13-13.5-1.47-27.05-1.01-40.59Z"/>
          <path class="cls-16" d="M164.21,42.83c-4.59,2.39-8.08,6.67-9.54,11.62-.4,1.36,1.72,1.94,2.12.58,1.31-4.44,4.43-8.18,8.53-10.31,1.25-.65.15-2.55-1.11-1.9Z"/>
          <path class="cls-16" d="M196.66,50.97c-.23-1.39-2.34-.8-2.12.58.85,5.17,1.42,10.37,1.71,15.6.08,1.4,2.27,1.41,2.19,0-.3-5.42-.91-10.82-1.79-16.18Z"/>
          <path class="cls-16" d="M194.8,62.26c0-.57-.5-1.12-1.1-1.1-.59.03-1.11.48-1.1,1.1.03,2,.06,4,.1,6,0,.57.5,1.12,1.1,1.1.59-.03,1.11-.48,1.1-1.1-.03-2-.06-4-.1-6Z"/>
          <path class="cls-16" d="M155.79,152.94c-.29-2.08-.37-4.4-.27-6.57.03-.57-.52-1.12-1.1-1.1-.62.03-1.07.48-1.1,1.1-.12,2.4.02,4.78.34,7.16.08.57.84.93,1.35.77.63-.2.85-.74.77-1.35Z"/>
          <path class="cls-16" d="M158.11,146.06c-.06-.57-.46-1.13-1.1-1.1-.54.02-1.16.49-1.1,1.1.24,2.14.47,4.28.71,6.41.06.57.46,1.13,1.1,1.1.54-.02,1.16-.49,1.1-1.1-.24-2.14-.47-4.28-.71-6.41Z"/>
          <path class="cls-6" d="M163.57,98.31c-1.71-.1-3.25.73-4.58,1.72-1.63,1.22-3.21,2.51-4.82,3.77-3.93,3.08-7.85,6.16-11.78,9.24-1.11.87.45,2.41,1.55,1.55,3.72-2.92,7.44-5.84,11.16-8.76,1.77-1.39,3.5-2.86,5.33-4.16,1.7-1.21,4.24-1.98,5,.64,1.13,3.93-1.84,8.53-3.57,11.86-2.06,3.95-4.29,7.81-6.8,11.5-.8,1.17,1.11,2.27,1.9,1.11,2.32-3.41,4.41-6.97,6.34-10.62,1.78-3.37,3.88-6.94,4.4-10.77.41-3-.49-6.87-4.13-7.08Z"/>
          <path class="cls-6" d="M168.54,118.45c-.3-.46-1-.75-1.5-.39-1.15.81-2.31,1.63-3.46,2.44-.24.17-.42.37-.5.66-.07.26-.04.61.11.85.3.46,1,.75,1.5.39,1.15-.81,2.31-1.63,3.46-2.44.24-.17.42-.37.5-.66.07-.26.04-.61-.11-.85Z"/>
        </g>
        <g>
          <path class="cls-2" d="M324.85,120.85c-.55-.24-1.16-.2-1.76-.15-2.02.11-4.04.24-6.06.37,3.31-2.92,6.1-6.39,8.16-10.23,1.34-2.46,2.39-5.33,1.45-7.97-.22-.59-.57-1.19-1.14-1.51-1.03-.57-2.35-.09-3.47.33-8.74,3.29-18.66,1.95-27.7-.55-9.04-2.5-17.78-6.15-27.08-7.44-6.74-.94-13.67-.61-20.28.94-4.16.99-8.24,2.54-11.65,4.99,3.69-4.66,8.92-8.16,14.69-9.82,5.9-1.71,12.24-1.74,18.21-.38,6.27,1.42,12.02,4.35,17.87,6.93,6.6,2.9,13.56,5.42,20.88,5.01,1.4-.08,1.41-2.27,0-2.19-14.16.78-25.67-9.33-39.07-12.06-11.76-2.39-24.77.39-32.99,9.55-3.45,3.85-5.84,8.53-6.78,13.58l-.12-.02c-4.13-.77-8.52.77-11.61,3.47-3.12,2.7-5.07,6.45-6.12,10.34-.15.53-.29,1.08-.4,1.62,8.12-.48,16.29.13,24.21,1.8.68-2.3,1.8-4.48,3.34-6.39,4.41-5.42,11.87-8.12,19.07-7.95,7.22.18,14.13,2.94,20.1,6.78,5.62,3.62,10.56,8.21,16.55,11.19,5.25,2.61,11.28,3.91,17.14,3.12,1.25-.18,2.48-.44,3.69-.81,4.43-1.32,8.47-3.95,11.04-7.66,1.1-1.56,1.62-4.15-.18-4.89Z"/>
          <path class="cls-4" d="M312.87,200.79c-1.51,6.1-3.84,12.44-8.95,16.42-3.38,2.61-7.68,3.97-12.01,4.54-8.3,1.1-16.83-.48-24.6-3.47-2.5-.97-4.94-2.06-7.31-3.27-4.76-2.41-9.28-5.27-13.7-8.23l-.2.29c-.11,1.34.26,2.68.7,3.95,1.58,4.76,3.84,9.33,6.67,13.54-.94,1.29-1.89,2.57-2.83,3.84-5.4-16.48-12.86-32.31-22.15-46.97l.64-.42c-1.19-2.15-2.26-4.39-2.83-6.72-.31-1.12-.48-2.26-.5-3.4-.04-3.58,1.71-7.37,5.09-8.93,4.83-2.22,10.67.9,13.89,4.98,1.08,1.34,2.02,2.81,3.45,3.8,1.4.99,3.51,1.36,4.89.33,1.71-1.29,1.4-3.82.57-5.73-2.88-6.61-9.75-10.73-14.42-16.35-1.76-2.09-3.2-4.43-4.21-6.91-.59-1.32-1.03-2.7-1.32-4.08-.22-.9-.35-1.8-.44-2.72-.07-.72-.11-1.47-.09-2.22.02-1.89.31-3.78.88-5.6.68-2.3,1.8-4.48,3.34-6.39,4.41-5.42,11.87-8.12,19.07-7.95,7.22.18,14.13,2.94,20.1,6.78,5.62,3.62,10.56,8.21,16.55,11.19,5.25,2.61,11.28,3.91,17.14,3.12,1.25-.18,2.48-.44,3.69-.81l.18.61c2.13,22.26,4.13,44.99-1.3,66.77Z"/>
          <path class="cls-6" d="M307.14,183.41c.48.97.94,2.06.64,3.09-.46,1.45-2.26,2.09-3.84,2.39-3.23.64-6.56.9-9.85.72-.55-.02-1.14-.07-1.6-.35-.92-.55-1.08-1.73-1.12-2.74-.42-9,.37-18.06,2.33-26.87,3.4,8.38,9.35,15.63,13.45,23.75Z"/>
          <path class="cls-21" d="M291.82,202.52c-1.47,2.11-3.18,4.1-5.47,5.25-1.84.9-3.97,1.14-5.99.94-3.99-.4-7.88-2.61-9.85-6.1-1.98-3.47-1.8-8.16.7-11.26,6.65,4.08,13.54,7.81,20.61,11.17Z"/>
          <path class="cls-23" d="M259.99,215.01c-2.11,3.23-4.28,6.41-6.52,9.55-2.83-4.21-5.09-8.78-6.67-13.54-.44-1.27-.81-2.61-.7-3.95l.2-.29c4.41,2.96,8.93,5.82,13.7,8.23Z"/>
          <path class="cls-2" d="M253.69,165.34c.83,1.91,1.14,4.43-.57,5.73-1.38,1.03-3.49.66-4.89-.33-1.43-.99-2.37-2.46-3.45-3.8-3.23-4.08-9.06-7.2-13.89-4.98-3.38,1.56-5.14,5.36-5.09,8.93.02,1.14.2,2.28.5,3.4l-.24.07c-2.11-5.57-5.05-10.8-7.92-16.09,3.49-4.92,8.3-8.98,13.02-12.93,1.29-1.1,2.61-2.19,3.91-3.27,1.01,2.48,2.46,4.83,4.21,6.91,4.68,5.62,11.54,9.75,14.42,16.35Z"/>
          <path class="cls-1" d="M235.06,142.08c-1.29,1.08-2.61,2.17-3.91,3.27-4.72,3.95-9.53,8.01-13.02,12.93-.94-1.71-1.87-3.45-2.74-5.2-.83-1.65-1.62-3.34-2.35-5.03,3.86-3.05,8.63-5.05,13.26-6.96,2.48-1.03,4.96-2.06,7.44-3.09.29,1.38.72,2.77,1.32,4.08Z"/>
          <path class="cls-2" d="M233.74,138c-2.48,1.03-4.96,2.06-7.44,3.09-4.63,1.91-9.39,3.91-13.26,6.96-1.98-4.7-3.45-9.57-3.73-14.55,7.88-1.43,15.98-1.58,23.9-.44-.02.75.02,1.49.09,2.22.09.92.22,1.82.44,2.72Z"/>
          <path class="cls-1" d="M234.09,127.46c-.57,1.82-.86,3.71-.88,5.6-7.92-1.14-16.02-.99-23.9.44-.07-1.01-.09-2.02-.04-3.05.07-1.62.29-3.23.61-4.78,8.12-.48,16.29.13,24.21,1.8Z"/>
          <path class="cls-2" d="M320.39,97.12c-.16-.51-.78-1-1.35-.77-2.24.92-4.47,1.84-6.71,2.76-.53.22-.96.74-.77,1.35.16.51.78,1,1.35.77,2.23-.92,4.47-1.84,6.71-2.76.53-.22.96-.74.77-1.35Z"/>
          <path class="cls-2" d="M317.27,127.71c-3.16,3.62-7.4,6.11-12.1,7.12-5.09,1.09-10.27.13-14.92-2.09-9.89-4.71-16.92-13.68-26.69-18.59-5.2-2.61-11-4-16.78-2.84-1.38.28-.8,2.39.58,2.12,11.77-2.36,21.59,6.57,30.02,13.35,7.91,6.37,17.14,12.28,27.76,10.29,5.27-.99,10.16-3.77,13.69-7.81.93-1.06-.62-2.62-1.55-1.55Z"/>
          <path class="cls-2" d="M228.73,92.75c-2.42,4.75-3.71,9.99-3.73,15.33,0,1.41,2.19,1.41,2.19,0,.02-4.94,1.19-9.82,3.43-14.22.64-1.26-1.25-2.37-1.9-1.11Z"/>
          <path class="cls-2" d="M223.72,108.13c-1.92-2.72-3.22-5.78-3.85-9.04-.11-.58-.81-.91-1.35-.77-.61.17-.88.77-.77,1.35.67,3.43,2.06,6.71,4.07,9.57.34.48.96.71,1.5.39.48-.28.74-1.01.39-1.5Z"/>
          <path class="cls-1" d="M235.56,124.44c-7.94-2.27-16.13-3.58-24.38-3.91-1.41-.06-1.41,2.14,0,2.19,8.06.33,16.04,1.62,23.8,3.84,1.36.39,1.94-1.73.58-2.12Z"/>
          <path class="cls-1" d="M235.12,134.62c-7.75.51-15.27,2.92-21.84,7.08-1.19.75-.09,2.65,1.11,1.9,6.24-3.94,13.37-6.3,20.73-6.78,1.4-.09,1.41-2.29,0-2.19Z"/>
          <path class="cls-1" d="M238,142.96c-.46-.42-1.09-.4-1.55,0-2.23,1.94-4.45,3.89-6.68,5.83-.43.38-.42,1.17,0,1.55.46.42,1.09.4,1.55,0,2.23-1.94,4.45-3.89,6.68-5.83.43-.38.42-1.17,0-1.55Z"/>
          <path class="cls-1" d="M228.4,152.92c-.3-.46-1.01-.76-1.5-.39-2.39,1.74-4.42,3.9-5.97,6.41-.3.49-.12,1.23.39,1.5.54.28,1.18.13,1.5-.39.36-.58.74-1.14,1.15-1.68.02-.02.03-.04.04-.05.05-.06.09-.11.14-.17.11-.13.21-.26.32-.39.22-.26.44-.51.68-.76.45-.49.92-.95,1.42-1.39.25-.23.51-.45.78-.66.05-.04.11-.09.16-.13,0,0,.22-.17.13-.1-.1.08.11-.09.13-.1.08-.06.16-.12.25-.18.46-.34.74-.97.39-1.5Z"/>
          <path class="cls-1" d="M305.19,110.35c-15.34-.14-27.14-13.51-42.7-12.81-1.41.06-1.41,2.26,0,2.19,15.46-.69,27.32,12.67,42.7,12.81,1.41.01,1.41-2.18,0-2.19Z"/>
          <path class="cls-1" d="M321.49,107.22c-3.46,1.02-6.91,2.05-10.37,3.07-1.35.4-.78,2.52.58,2.12,3.46-1.02,6.91-2.05,10.37-3.07,1.35-.4.78-2.52-.58-2.12Z"/>
          <path class="cls-1" d="M312.47,115.08c-3.25.98-6.68.77-9.8-.54-.55-.23-1.21.25-1.35.77-.17.63.22,1.12.77,1.35,3.45,1.45,7.39,1.63,10.97.54,1.35-.41.77-2.53-.58-2.12Z"/>
          <path class="cls-1" d="M320.91,123.82c-.44-.44-1.11-.4-1.55,0-2.49,2.26-5.57,3.74-8.87,4.36-.58.11-.91.81-.77,1.35.17.61.77.88,1.35.77,3.67-.68,7.08-2.42,9.84-4.92.44-.4.4-1.15,0-1.55Z"/>
          <path class="cls-6" d="M245.24,179.81c-.11-2.28-.62-4.54-1.48-6.65-1.54-3.81-4.7-8.02-9.34-7.46-2.13.26-4.17,1.65-4.79,3.77-.58,1.98.22,4.12,1.93,5.25,1.18.78,2.28-1.12,1.11-1.9-.88-.58-1.22-1.77-.92-2.77.36-1.17,1.52-1.94,2.68-2.15,2.92-.53,5.26,2,6.49,4.32,1.38,2.57,2.13,5.53,2.14,8.45,0,2.22-.82,5.63-3.76,4.01-1.23-.68-2.7-1.89-3.3-3.2-.23-.51-.37-1.23-.05-1.73.21-.34.85-.63,1.13-.2.76,1.18,2.66.09,1.9-1.11-.97-1.51-3.16-1.72-4.43-.44-1.38,1.38-1.11,3.62-.11,5.12,1.99,2.99,7.12,6.35,9.76,2.23,1.03-1.61,1.14-3.7,1.05-5.55Z"/>
          <path class="cls-6" d="M275.25,182.68c-6.6,1.84-12.7,5.11-17.9,9.56-1.08.92.48,2.47,1.55,1.55,4.91-4.2,10.71-7.26,16.93-8.99,1.36-.38.78-2.5-.58-2.12Z"/>
          <path class="cls-6" d="M267.39,150.63c-2.08-1.12-4.17-2.24-6.25-3.36-.51-.27-1.22-.14-1.5.39-.27.51-.15,1.21.39,1.5,2.08,1.12,4.17,2.24,6.25,3.36.51.27,1.22.14,1.5-.39.27-.51.15-1.21-.39-1.5Z"/>
          <path class="cls-6" d="M266.99,155.07c-.17-.63-.76-.85-1.35-.77-2.79.4-5.58.8-8.37,1.2-.59.08-.91.83-.77,1.35.17.63.76.85,1.35.77,2.79-.4,5.58-.8,8.37-1.2.59-.08.91-.83.77-1.35Z"/>
          <path class="cls-6" d="M316.12,149.07c-2.04.23-4.01.87-5.74,1.98-.48.31-.72.99-.39,1.5.31.48.98.72,1.5.39.38-.25.78-.47,1.19-.67.17-.08.34-.16.52-.24.05-.02.19-.08.22-.09.1-.04.2-.07.3-.11.41-.15.84-.27,1.27-.37.21-.05.42-.09.62-.13.12-.02.24-.05.36-.06-.29.02.11-.01.16-.02.57-.06,1.13-.46,1.1-1.1-.02-.54-.49-1.16-1.1-1.1Z"/>
          <path class="cls-6" d="M317.32,157.23c-1.71-.62-3.5-.97-5.31-1.08-.57-.03-1.12.53-1.1,1.1.03.62.48,1.06,1.1,1.1.22.01.44.03.65.05.09,0,.19.02.28.03.02,0,.11.01.18.02.4.05.8.12,1.19.21.82.17,1.63.41,2.43.69.54.2,1.23-.22,1.35-.77.14-.62-.19-1.14-.77-1.35Z"/>
          <ellipse class="cls-23" cx="304.02" cy="155.54" rx="3.92" ry="5.13"/>
          <ellipse class="cls-23" cx="274" cy="154.6" rx="3.92" ry="5.13"/>
          <path class="cls-2" d="M299.68,141.54c.26-.8.75-1.57,1.51-1.97.26-.11.52-.22.79-.33.58-.16,1.17-.16,1.75,0,2.37.36,4.65,1.17,6.78,2.25.71.36,1.31,1.22,1.51,1.97.22.79.12,1.84-.33,2.54-.45.7-1.13,1.32-1.97,1.51-.89.2-1.72.09-2.54-.33-.26-.13-.53-.25-.79-.37-1.42-.57-2.9-.99-4.42-1.22-.76-.11-1.6-.88-1.97-1.51-.41-.71-.59-1.75-.33-2.54Z"/>
          <path class="cls-2" d="M267.24,139.81c.44-.68,1.14-1.37,1.97-1.51,2.66-.47,5.35-.7,8.04-.58.87.04,1.7.34,2.33.96.57.57,1,1.51.96,2.33-.04.85-.32,1.73-.96,2.33-.63.58-1.45,1.01-2.33.96-1.85-.09-3.69,0-5.53.22-.26.04-.51.07-.77.12-.89.16-1.73.14-2.54-.33-.68-.4-1.33-1.18-1.51-1.97-.19-.84-.15-1.79.33-2.54Z"/>
        </g>
      </g>
      <g>
        <g>
          <path class="cls-11" d="M451.38,829.37c4.59-10.65,9.2-21.31,13.81-31.98,1.65-3.78,3.29-7.59,5.57-11.02.2.07.37.15.57.26,6.32,3.03,10.75,9.28,13.08,15.98,2.48,7.16,2.83,14.84,3.16,22.41.37,8.25.75,16.53,1.1,24.78h-13.06c-1.45-10.32-2.92-20.63-4.35-30.95l-.15-.04c-3.03,11.15-6.04,22.3-9.06,33.43h-65.14c.77-5.27,3.8-10.05,7.4-14.03,2.46-2.74,5.22-5.18,7.92-7.66,12.42-4.72,26.45-5.18,39.16-1.19Z"/>
          <path class="cls-19" d="M414.95,669.61c15.98,13.48,24.34,34.13,31.94,53.8,8.06,20.85,16.11,41.66,24.17,62.51-.11.15-.2.31-.29.46-2.28,3.42-3.93,7.24-5.57,11.02-4.61,10.67-9.22,21.33-13.81,31.98-12.71-3.99-26.73-3.53-39.16,1.19,1.71-1.58,3.4-3.16,5-4.85,9.37-9.92,15.08-23.24,15.76-36.87l.02-.02c-2.09-2.68-4.17-5.36-6.26-8.01-26.62-34.15-53.29-68.37-76.32-105.05-2.79-4.43-5.55-9.04-6.47-14.2-1.71-9.66,3.36-18.83,9.37-26.95,16.94,2.19,34.28,2.37,51.29,1.16,13.87-.99,27.7-2.81,41.57-3.36-2.72,3.42-5.51,6.85-8.32,10.25-7.48,9.11-15.12,18.11-22.94,26.95Z"/>
        </g>
        <path class="cls-19" d="M353.95,351.64c.09-.15.18-.33.26-.48,11.85,9.02,21.93,20.37,29.48,33.21-3.07,4.52-6.21,9-9.42,13.41-3.01,4.13-6.12,8.25-10.25,11.26-8.34,6.1-19.42,6.69-29.74,6.06-24.54-1.56-48.31-8.8-71.79-16.13-3.75-2.39-6.26-6.5-7.79-10.71-1.19-3.16-1.93-6.58-1.45-9.92-6.52-.22-12.97-1.23-19.4-2.22-1.38-.22-2.79-.44-3.97-1.12-1.21-.7-2.17-1.95-2.11-3.34.04-.88.48-1.67.99-2.39,1.4-1.98,3.36-3.51,5.49-4.65,1.49-.79,3.12-1.4,4.78-1.6,2.59-.31,5.18.35,7.66,1.16,6.26,2.06,12.16,5.2,17.34,9.28v.22c25.72.31,51.47.64,77.19.94l.29.15c4.15-7.73,8.3-15.41,12.44-23.13Z"/>
        <g>
          <path class="cls-19" d="M172.15,644c-.07.48-.18.94-.33,1.4-17.93-7.05-37.47-9.9-56.65-8.36l-.55-1.29c-3.2-7.62-6.69-15.08-10.51-22.41.33-.02.66-.04,1.01-.07,1.51-.11,3.01-.18,4.52-.22,2.72-.09,5.44-.07,8.14-.04,9.09.09,18.17.18,27.26.24l.24.48c32.59-17.21,65.21-34.42,97.78-51.6,9.24,20.21,25.15,37.8,44.12,49.85-36.76,14.86-75.7,23.53-114.42,32.13l-.61-.11Z"/>
          <path class="cls-11" d="M104.11,613.33c3.82,7.33,7.31,14.79,10.51,22.41l.55,1.29c19.18-1.54,38.72,1.32,56.65,8.36-.88,2.94-2.83,5.55-5.18,7.59-2.96,2.57-6.52,4.37-10.05,6.08-15.5,7.57-31.28,14.66-47.26,21.2-1.84-2.7-3.47-5.57-4.85-8.56l.04-.02c7.77-5.55,15.54-11.11,23.33-16.66,1.47-1.05,2.96-2.11,4.13-3.49l-.37-.99c-11.83,2.19-23.62,4.68-35.36,7.37l-.44.31c-12.23-17.41-23.62-35.42-34.09-53.95-.07-.09-.09-.2-.09-.29,3.86-3.97,9.7-5.66,15.25-5.42,5.71.26,11.19,2.37,16.35,4.89,4.68,2.3,9.39,5.25,11.87,9.79-.35.02-.68.04-1.01.07Z"/>
        </g>
        <g>
          <path class="cls-19" d="M708.07,238.23c3.36,7.26,6.17,15.01,4.57,22.72-.66,3.14-2.02,6.08-3.67,8.85-1.98,3.36-4.39,6.5-7.13,9.28-11.41,20.7-22.98,41.31-34.7,61.81-9.15,16-18.66,32.26-32.57,44.34-3.36,2.92-7.22,5.68-11.65,6.04-4.63.37-9.02-1.91-13.06-4.19-13.7-7.77-26.93-16.35-39.6-25.68-.13-.09-.26-.2-.4-.31,11.68-16.2,26.25-30.29,42.8-41.44.07,1.29.04,2.61-.04,3.91v.02c3.78,2.68,7.64,5.25,11.57,7.68,17.71-19.27,34.57-39.38,50.5-60.16l.15-.02c-2.61-15.45-4.68-30.97-6.23-46.55-.2-1.82-.24-3.93.37-5.57-3.82-3.67-7.33-7.62-10.58-11.79-2.06-2.66-4.04-5.51-4.83-8.78-.15-.66-.22-1.45.31-1.89.26-.22.64-.29.99-.31,2.22-.15,4.3.94,6.19,2.11,6.98,4.3,13.17,9.92,18.11,16.48-4.1-7.64-7.33-15.76-9.57-24.14-.09-.33-.18-.7-.07-1.05.33-.99,1.8-.77,2.68-.24,3.71,2.11,6.26,5.77,8.52,9.39,3.14,5.03,5.97,10.25,8.47,15.61-1.38-4.92-2.61-9.88-3.73-14.88-.7-3.2-1.36-6.45-1.16-9.72.07-1.01.55-2.33,1.58-2.24.4.02.72.29,1.03.57,2.52,2.26,4.04,5.42,5.33,8.56,2.55,6.19,4.54,12.6,6.52,18.99l.42-.07c-1.08-6.76-.55-13.78,1.51-20.35.22-.66.59-1.45,1.29-1.51.55-.04,1.01.42,1.34.86,2,2.63,2.66,6.01,3.07,9.31.4,3.14.64,6.32.83,9.48.5,8.3.79,16.62.83,24.91Z"/>
          <path class="cls-14" d="M701.05,249.95c-4.38-5.67-10.03-9.94-16.63-12.7-1.87-.78-3.35-1.63-3.95-3.67-.5-1.68-.7-3.44-1.24-5.12-1.13-3.56-2.96-6.81-5.33-9.69-.9-1.09-2.44.47-1.55,1.55,2.42,2.93,4.18,6.36,5.15,10.04.42,1.61.57,3.3,1.23,4.84.65,1.52,1.79,2.59,3.25,3.34,1.57.8,3.24,1.37,4.8,2.18,1.57.81,3.08,1.74,4.53,2.76,2.97,2.11,5.63,4.68,7.85,7.56.85,1.1,2.76.01,1.9-1.11Z"/>
          <path class="cls-14" d="M685.87,223.86c-1.67-3.44-3.82-6.63-6.35-9.5-.39-.45-1.15-.4-1.55,0-.44.44-.39,1.11,0,1.55,2.41,2.73,4.41,5.79,6,9.06.26.53,1.02.68,1.5.39.54-.32.65-.97.39-1.5Z"/>
          <path class="cls-14" d="M694.03,222.62c-1.35-2.85-2.7-5.7-4.05-8.55-.25-.54-1.02-.67-1.5-.39-.55.32-.65.96-.39,1.5,1.35,2.85,2.7,5.7,4.05,8.55.25.54,1.02.67,1.5.39.55-.32.65-.96.39-1.5Z"/>
          <path class="cls-14" d="M701.25,223.09c-.34-2.24-.96-4.42-1.83-6.51-.22-.53-.74-.97-1.35-.77-.51.16-1,.78-.77,1.35.88,2.09,1.49,4.27,1.83,6.51.09.57.83.93,1.35.77.62-.2.86-.74.77-1.35Z"/>
        </g>
        <g>
          <path class="cls-19" d="M510.53,177.59c-.18.66-.4,1.32-.64,1.98-.97,2.77-2.41,5.33-4.24,7.62-2.94,3.71-6.8,6.65-11.17,8.41-.22,5.47.24,10.95,1.34,16.33.53,2.7,1.25,5.36,2.11,7.97,2.37,7.29,5.97,14.18,10.6,20.26-3.31,9.53-9.59,18-17.73,23.95-4.15,3.01-8.95,5.44-14.09,5.55-.4,0-.79,0-1.21-.02-4.43-.22-8.69-2.13-12.53-4.43-6.39-3.8-12.25-9.09-14.99-16,.24-.77.46-1.54.7-2.33.4-1.29.77-2.59,1.12-3.88,6.15-1.32,12.05-3.53,17.54-6.56,4.24-2.33,8.25-5.18,11.3-8.91,3.01-3.69,4.98-8.34,4.92-13.08-6.41,6.69-15.14,11.11-24.28,12.51-2.09.33-4.19.5-6.3.5-.64,0-1.27,0-1.91-.04h-.22c-8.23-.44-16.64-3.53-21.95-9.83-1.91-2.24-3.36-4.83-4.54-7.51-4.83-10.91-5.16-23.24-4.32-35.14.15-2.04.33-4.1.53-6.15.59-6.21,1.3-12.44,1.62-18.68.13-2.66.2-5.31.15-7.99,2.48,2.68,5.47,4.87,8.93,5.95,2.22.7,4.54.88,6.85,1.03,3.12.18,6.26.26,9.35-.11,6.91-.81,13.52-3.95,18.52-8.78,1.43,8.65,7.77,15.74,14.95,20.74,3.82,2.68,8.14,4.96,12.75,5.55,2.48-2.83,5.6-5.2,9.22-4.94,3.38.24,6.28,2.9,7.51,6.06,1.21,3.16.99,6.72.11,9.99Z"/>
          <circle class="cls-14" cx="480.99" cy="187.95" r="8.38"/>
          <path class="cls-12" d="M440.21,172.04c5.49,7.7,6.3,18.44,2.13,26.91-1.82,1.1-4.35,1.12-6.56.81-1.78-.24-3.58-.66-5.09-1.62-.55-.33-1.05-.77-1.34-1.34-.77-1.51.26-3.29,1.27-4.68,4.32-6.1,8.6-12.64,9.59-20.08Z"/>
          <path class="cls-23" d="M483.56,214.42c.07,4.74-1.91,9.39-4.92,13.08-3.05,3.73-7.07,6.58-11.3,8.91-5.49,3.03-11.39,5.25-17.54,6.56,1.45-5.11,2.63-10.27,3.18-15.54,11.35-.02,22.69-4.78,30.57-13.02Z"/>
          <path class="cls-2" d="M570.34,173.54c-5.82-5.5-13.77-8.11-19.45-13.75-3.44-3.41-4.85-7.61-5.27-12.37-.46-5.13-.51-10.2-2.8-14.93-4.69-9.68-15.76-14.59-26.07-12.01-1.48-7.42-6.15-14.06-12.55-18.08-6.85-4.31-15.43-5.1-23.06-2.5-3.93,1.34-7.51,3.55-10.47,6.46-6.39-10.13-18.21-17.28-30.11-15.85-11.57,1.41-21.71,12.4-20.68,23.88-7.65-1.22-15.69.35-22.18,4.69-6.82,4.56-11.4,11.53-13.29,19.46-2.03,8.53-1.73,17.95-7,25.38-4.97,7.01-12.98,11.48-16.36,19.68-1.85,4.48-1.53,9.24.62,13.56,2.12,4.27,5.72,7.5,9.46,10.35-.49,4.92-2.3,9.88-1.01,14.62,1.27,4.61,5.31,8.06,9.77,9.83,1.23.48,2.52.88,3.82,1.14-.33-.31-.64-.64-.92-.97-3.4-3.88-5.14-9.2-4.7-14.33.44-5.16,3.07-10.1,7.11-13.34,2.66-2.13,5.84-3.53,8.34-5.86,2.5-2.3,4.17-5.49,4.7-8.85.9-5.97-1.76-12.12-.44-18,.72-3.31,2.77-6.34,5.55-8.27,2.39-1.65,5.22-2.5,7.97-3.42,2.74-.92,5.55-2,7.68-3.95,1.67-1.56,2.85-3.8,2.85-6.04l.33.02c.13-2.66.2-5.31.15-7.99,2.48,2.68,5.47,4.87,8.93,5.95,2.22.7,4.54.88,6.85,1.03,3.12.18,6.26.26,9.35-.11,6.91-.81,13.52-3.95,18.52-8.78,1.43,8.65,7.77,15.74,14.95,20.74,3.82,2.68,8.14,4.96,12.75,5.55,2.48-2.83,5.6-5.2,9.22-4.94,3.38.24,6.28,2.9,7.51,6.06,1.21,3.16.99,6.72.11,9.99-.18.66-.4,1.32-.64,1.98l.2.07c1.01,3.42,3.47,6.39,6.65,8.03,4.94,2.57,10.95,1.82,16.24,3.51,6.3,2,11.17,7.44,13.45,13.65,2.13,5.82,2.19,12.23,1.08,18.31.92-.42,1.8-.94,2.61-1.56,3.99-3.02,6.1-8.71,4.05-13.28.35.04.71.08,1.07.1.84.13,1.66.13,2.48.01,6.9-.37,13.59-4.19,16.86-10.44,4.26-8.13,2.36-18.19-4.25-24.44ZM393.46,130.95c-4.85,10.45-2.24,23.75-9.17,32.92-3.01,3.99-7.46,6.63-11.35,9.79-3.88,3.16-7.46,7.44-7.53,12.44-.09,5.95,4.72,10.91,5.66,16.77.1.64.15,1.28.17,1.92-6-4.9-11.31-11.68-8.38-19.81,2.82-7.81,10.53-12.36,15.48-18.66,5.2-6.61,5.97-14.71,7.31-22.72.66-3.93,1.53-7.87,3.33-11.46,1.71-3.4,4.06-6.44,6.92-8.95,4.85-4.27,11.04-6.6,17.37-6.94-8.45,1.58-16.22,6.91-19.82,14.69ZM574.39,191.83c-1.03,5.59-4.74,10.07-9.53,12.49,1.66-1.75,3.04-3.86,4-5.99,1.98-4.41,3.05-9.61,1.1-14.05-4.04-9.28-17.73-9.55-24.21-17.32-4.81-5.77-4.46-14.07-6.34-21.33-1.54-6.04-4.94-11.74-10.14-15.19-5.18-3.42-12.29-4.24-17.71-1.19-.4-9.26-5.88-18.13-13.98-22.63-6.28-3.49-13.96-4.2-20.85-2.22,4.38-2.66,9.52-4.04,14.69-3.81,7.44.33,14.35,4.28,18.75,10.25,2.45,3.33,4.07,7.17,4.71,11.26.09.58.83.92,1.35.77,9.13-2.79,19.12.97,23.94,9.26,2.49,4.29,2.81,8.98,3.16,13.82.32,4.39.99,8.78,3.57,12.46,4.2,5.99,11.2,9.02,17.11,12.94,3.1,2.06,6.12,4.47,8.09,7.68,2.31,3.77,3.12,8.45,2.32,12.79Z"/>
          <path class="cls-1" d="M546.44,204.83c2.13,5.82,2.19,12.23,1.08,18.31-3.62,1.71-7.86,2-11.85,1.4-6.8-1.01-13.21-4.48-17.8-9.59-1.29,3.75-4.59,6.74-8.38,7.81,2.88-6.96,3.88-14.66,2.9-22.15-.68-5.09-2.55-10.45-6.72-13.43,1.82-2.28,3.27-4.85,4.24-7.62l.2.07c1.01,3.42,3.47,6.39,6.65,8.03,4.94,2.57,10.95,1.82,16.24,3.51,6.3,2,11.17,7.44,13.45,13.65Z"/>
          <path class="cls-2" d="M512.38,200.61c.99,7.48-.02,15.19-2.9,22.15-.72.22-1.47.35-2.24.42-3.38.26-6.8-1.01-9.31-3.29-2.59-7.81-3.78-16.09-3.45-24.3,4.37-1.76,8.23-4.7,11.17-8.41,4.17,2.99,6.04,8.34,6.72,13.43Z"/>
          <path class="cls-2" d="M450.86,227.39h.22c-3.97,4.74-12.42,5.27-16.68.59-3.16,5.07-9.11,8.27-15.1,8.16-1.36-.02-2.7-.22-3.99-.59-2.79-2.02-4.78-5.2-5.49-8.6-.99-4.72.24-9.72,2.72-13.87,1.08-1.8,2.37-3.49,3.07-5.47,1.32-3.69.33-7.84-1.58-11.24-1.67-2.96-4.02-5.6-4.94-8.87-1.21-4.21.42-9.11,3.88-11.79,1.65-1.25,3.6-2.04,5.18-3.34,1.14-.92,2.06-2.24,2.28-3.64l.13.02c-.2,2.04-.37,4.1-.53,6.15-.83,11.9-.5,24.23,4.32,35.14,1.19,2.68,2.63,5.27,4.54,7.51,5.31,6.3,13.72,9.39,21.95,9.83Z"/>
          <path class="cls-1" d="M421.66,157.29c.21-2.4.4-4.8.53-7.2l-.33-.02c0,2.24-1.19,4.48-2.85,6.04-2.13,1.95-4.94,3.03-7.68,3.95-.19.06-.37.13-.56.19-3.59.64-7.34.89-10.66,2.04-2.83.98-5.48,2.53-7.24,5-1.7,2.38-2.25,5.31-2.28,8.19-.05,5.77,2.4,12.73-.94,17.98-1.87,2.94-5.18,4.57-7.76,6.81-2.55,2.21-4.46,5.07-5.62,8.23-2.54,6.9-.78,14.66,4.08,20.05.68,1.29,1.49,2.5,2.45,3.6.29.33.59.66.92.97,7.31,1.47,15.34-.61,20.83-5.71,2.28,4.02,6.3,6.98,10.75,8.16-2.79-2.02-4.78-5.2-5.49-8.6-.99-4.72.24-9.72,2.72-13.87,1.08-1.8,2.37-3.49,3.07-5.47,1.32-3.69.33-7.84-1.58-11.24-1.67-2.96-4.02-5.6-4.94-8.87-1.21-4.21.42-9.11,3.88-11.79,1.65-1.25,3.6-2.04,5.18-3.34,1.14-.92,2.06-2.24,2.28-3.64l.13.02c.36-3.78.75-7.57,1.09-11.36,0-.04.01-.08.01-.12ZM398.25,189.75c-.53,3.36-2.19,6.54-4.7,8.85-2.5,2.33-5.68,3.73-8.34,5.86-4.04,3.25-6.67,8.19-7.11,13.34-.07.77-.07,1.55-.04,2.32-1.01-3.42-1.03-7.12.18-10.65,1.11-3.26,3.18-6.06,5.85-8.21,2.5-2.02,5.34-3.66,7.21-6.35,3.4-4.92,1.95-11.25,1.57-16.77-.2-2.83-.23-5.88,1.1-8.47,1.44-2.8,4.18-4.44,7.09-5.4.66-.22,1.34-.4,2.02-.56-2.64,1.94-4.58,4.84-5.28,8.04-1.32,5.88,1.34,12.03.44,18Z"/>
          <path class="cls-14" d="M502.21,178.47c-.39.38-.46,1.18,0,1.55.63.5-.23,1.36-.59,1.78-.4.45-1.06,1.33-1.75.96-.76-.4-.87-1.65-.95-2.4-.13-1.11-.12-2.23-.03-3.34.09-1.07.27-2.12.51-3.17.23-1,.44-2.08.93-2.98.35-.65,1.01-1.4,1.84-1.33.29.03.99.51.68.88-.89,1.08.65,2.64,1.55,1.55,1.49-1.81.18-4.48-2.12-4.62-2.75-.17-4.13,2.52-4.72,4.78-.74,2.81-1.16,5.76-.78,8.66.16,1.2.43,2.47,1.33,3.35.88.87,2.14,1.15,3.28.64,1.98-.88,4.72-4.45,2.38-6.32-.47-.37-1.1-.45-1.55,0Z"/>
          <path class="cls-14" d="M475.35,202.25c-2.43-4.64-6.61-8.2-11.52-9.98-.56-.2-1.2.23-1.35.77-.17.61.21,1.15.77,1.35,4.39,1.59,8.05,4.85,10.21,8.97.66,1.25,2.55.14,1.9-1.11Z"/>
          <path class="cls-14" d="M471.82,159.76c-.32-.5-.97-.7-1.5-.39-2.03,1.17-4.06,2.35-6.1,3.52-.5.29-.71,1.01-.39,1.5.32.5.97.7,1.5.39,2.03-1.17,4.06-2.35,6.1-3.52.5-.29.71-1.01.39-1.5Z"/>
          <path class="cls-14" d="M473.77,167.95c-1.83-.22-3.66-.45-5.48-.67-.57-.07-1.12.55-1.1,1.1.03.65.48,1.02,1.1,1.1,1.83.22,3.66.45,5.48.67.57.07,1.12-.55,1.1-1.1-.03-.65-.48-1.02-1.1-1.1Z"/>
          <path class="cls-14" d="M425.31,166.46c-.16-.25-.38-.39-.66-.5-1.17-.46-2.34-.92-3.51-1.37-.25-.1-.62-.02-.85.11-.23.13-.44.39-.5.66-.06.28-.05.6.11.85.16.25.38.39.66.5,1.17.46,2.34.92,3.51,1.37.25.1.62.02.85-.11.23-.13.44-.39.5-.66.06-.28.05-.6-.11-.85Z"/>
          <path class="cls-14" d="M424.8,171.17c-.18-.57-.76-.93-1.35-.77l-3.36.92c-.55.15-.95.79-.77,1.35.18.57.76.93,1.35.77,1.12-.31,2.24-.61,3.36-.92.55-.15.95-.79.77-1.35Z"/>
          <path class="cls-1" d="M544.97,194.25c-2.6-2.89-6.16-4.93-9.99-5.62-4.66-.83-9.37.08-14.05-.39-3.9-.39-8.44-2.2-9.72-6.24-.43-1.34-2.55-.77-2.12.58,2.41,7.57,11.4,8.1,18,7.91,4.42-.13,8.79-.08,12.68,2.28,3.3,2,5.86,5.2,6.93,8.92,1.3,4.54.42,9.44-2.22,13.33-.8,1.17,1.11,2.27,1.9,1.11,4.55-6.7,4.02-15.84-1.4-21.87Z"/>
          <path class="cls-1" d="M507.77,187.32c-.52-1.3-2.64-.73-2.12.58,4.08,10.22,3.33,21.97-2.13,31.55-.7,1.23,1.2,2.34,1.9,1.11,5.72-10.04,6.64-22.49,2.35-33.24Z"/>
          <path class="cls-1" d="M559,185.43c-1.82-4.33-5.06-7.99-9.32-10.04-2.42-1.17-5.05-1.65-7.54-2.6-2.48-.95-4.37-2.56-5.67-4.88-2.75-4.92-2.76-10.96-3.51-16.41-.7-5.15-1.99-10.41-5.4-14.48-3.33-3.97-9.09-6.24-14.08-4.19-1.29.53-.72,2.65.58,2.12,4.53-1.86,9.48.38,12.32,4.09,3.17,4.16,4.05,9.55,4.66,14.6.59,4.94.91,10.12,3.15,14.65.96,1.95,2.32,3.68,4.09,4.95,2.02,1.44,4.46,2.08,6.8,2.78,5.25,1.57,9.64,4.84,11.81,10,.54,1.28,2.66.72,2.12-.58Z"/>
          <path class="cls-1" d="M560.31,189.74c-.2-.54-.75-.96-1.35-.77-.53.17-.98.77-.77,1.35.76,2.06.76,4.08-.01,6.13-.2.54.22,1.23.77,1.35.62.14,1.13-.19,1.35-.77.87-2.32.87-4.97.01-7.3Z"/>
          <path class="cls-1" d="M552.63,185.07c-.39-.45-1.15-.4-1.55,0-.44.44-.39,1.11,0,1.55.66.75,1.23,1.8,1.52,2.8.08.28.15.57.2.86,0,.04.07.46.04.26.02.15.03.29.04.44.02.3.02.59.01.89,0,.15-.02.3-.03.44,0,.06-.01.12-.02.18,0,.02,0,.03-.01.08-.09.56.14,1.21.77,1.35.53.12,1.25-.16,1.35-.77.46-2.92-.36-5.86-2.32-8.09Z"/>
          <path class="cls-1" d="M418.19,120.61c-3.61-.94-7.27.14-10.2,2.34-3.14,2.35-5.1,5.7-6.41,9.34-2.74,7.6-2.62,16.95-8.91,22.82-1.04.97.52,2.52,1.55,1.55,5.64-5.26,6.52-13.16,8.38-20.23.99-3.75,2.36-7.61,5.17-10.41,2.57-2.57,6.19-4.25,9.84-3.3,1.37.36,1.95-1.76.58-2.12Z"/>
          <path class="cls-1" d="M376.16,175.74c-4.52,4.04-6.89,10.3-6.15,16.32.07.59.45,1.09,1.1,1.1.54,0,1.17-.51,1.1-1.1-.68-5.5,1.37-11.07,5.5-14.77,1.05-.94-.5-2.49-1.55-1.55Z"/>
          <path class="cls-1" d="M378.62,183.57c-.46-.42-1.09-.41-1.55,0-2.24,1.99-3.23,5.04-2.79,7.98.08.57.83.93,1.35.77.62-.2.86-.74.77-1.35.03.19-.02-.17-.02-.24-.01-.16-.02-.32-.02-.48,0-.3.01-.6.04-.9,0-.03,0-.05,0-.07,0-.06.02-.11.03-.17.03-.16.06-.31.1-.47.07-.29.16-.58.26-.87.02-.07.05-.13.08-.2,0-.02.01-.04.02-.05.06-.12.11-.25.17-.37.14-.27.29-.53.45-.78.08-.12.17-.25.26-.36.01-.01.03-.03.05-.05.05-.05.09-.11.14-.16.21-.24.44-.46.68-.68.43-.38.42-1.17,0-1.55Z"/>
          <path class="cls-1" d="M454.62,136.87c-8.61,3.47-20.78,5.67-27.21-3.03-.83-1.12-2.74-.03-1.9,1.11,2.99,4.05,7.59,6.38,12.54,7.05,5.88.79,11.74-.82,17.15-3.01,1.29-.52.73-2.65-.58-2.12Z"/>
          <path class="cls-1" d="M454.33,130.06c-5.41,4.09-12.93,4.99-19.09,2.06-1.27-.6-2.38,1.29-1.11,1.9,6.83,3.25,15.24,2.52,21.31-2.06,1.11-.84.02-2.75-1.11-1.9Z"/>
          <path class="cls-2" d="M416.98,167.22c-3.38,3.16-6.95,6.19-10.13,9.55-2.7,2.85-4.21,6.16-3.59,10.13.65,4.17,3.1,7.77,4.14,11.82.9,3.51.75,7.24-.26,10.7-1.17,4.02-3.51,7.57-6.75,10.21-1.1.89.47,2.44,1.55,1.55,5.48-4.47,8.56-11.63,8.22-18.68-.19-4.03-1.74-7.5-3.24-11.17-1.67-4.09-2.53-8.16.46-11.87,1.47-1.82,3.28-3.35,4.98-4.94,2.05-1.92,4.11-3.84,6.16-5.76,1.03-.97-.52-2.52-1.55-1.55Z"/>
          <ellipse class="cls-23" cx="430.35" cy="168.84" rx="3.92" ry="5.13"/>
          <ellipse class="cls-23" cx="459.34" cy="168.12" rx="3.92" ry="5.13"/>
          <path class="cls-12" d="M461.15,200.11c-4.04-.84-8.05,1.21-9.61,5.05-.27.66-.4,1.36-.48,2.06-.04.25-.05.49-.07.74,0,.05,0,.1,0,.14-.05,1.15.11,2.32.57,3.4,1.53,3.59,5.5,5.76,9.34,5.01,3.81-.75,6.76-4.18,6.79-8.07.03-3.93-2.66-7.53-6.55-8.34Z"/>
          <path class="cls-21" d="M464.86,199.08s4.76,9.04-2.74,14.05c-7.53,4.98-12.6-1.6-12.6-1.6l15.34-12.44Z"/>
          <path class="cls-2" d="M434.69,154.84c-.26-.8-.75-1.57-1.51-1.97-.26-.11-.52-.22-.79-.33-.58-.16-1.17-.16-1.75,0-2.37.36-4.65,1.17-6.78,2.25-.71.36-1.31,1.22-1.51,1.97-.22.79-.12,1.84.33,2.54.45.7,1.13,1.32,1.97,1.51.89.2,1.72.09,2.54-.33.26-.13.53-.25.79-.37,1.42-.57,2.9-.99,4.42-1.22.76-.11,1.6-.88,1.97-1.51.41-.71.59-1.75.33-2.54Z"/>
          <path class="cls-2" d="M466.09,153.34c-.44-.68-1.14-1.37-1.97-1.51-2.66-.47-5.35-.7-8.04-.58-.87.04-1.7.34-2.33.96-.57.57-1,1.51-.96,2.33.04.85.32,1.73.96,2.33.63.58,1.45,1.01,2.33.96,1.85-.09,3.69,0,5.53.22.26.04.51.07.77.12.89.16,1.73.14,2.54-.33.68-.4,1.33-1.18,1.51-1.97.19-.84.15-1.79-.33-2.54Z"/>
        </g>
        <g>
          <path class="cls-11" d="M447.98,249.19c2.74,6.91,8.6,12.2,14.99,16,3.84,2.3,8.1,4.21,12.53,4.43-.04.07-.11.11-.15.13-5.97,5.07-14.03,7.59-21.82,6.78-1.98-.22-3.95-.64-5.68-1.6-4.61-2.57-6.41-8.54-5.64-13.76.79-5.16,3.56-9.79,6.28-14.24l.02-.02s.02-.07.04-.09l.13.04c-.24.79-.46,1.56-.7,2.33Z"/>
          <path class="cls-7" d="M383.69,384.37c-7.55-12.84-17.62-24.19-29.48-33.21-.15-.13-.31-.24-.46-.37-2.48-10.18-1.32-21.2,3.27-30.62,4.98-10.25,14.03-18.48,24.71-22.5-2.28-8.65.42-18.17,6.01-25.13,5.62-6.96,13.83-11.48,22.48-13.76,6.56-1.71,13.37-2.22,20.02-3.56s13.32-3.64,18.24-8.3c-2.72,4.46-5.49,9.09-6.28,14.24-.77,5.22,1.03,11.19,5.64,13.76,1.73.97,3.71,1.38,5.68,1.6,7.79.81,15.85-1.71,21.82-6.78,5.51,6.52,14.93,9.42,23.16,7.13,6.06-1.67,11.41-6.19,13.43-12.12.7-2.09.99-4.28,1.12-6.45.4-6.41-.68-13.13-4.37-18.37l.07-.04c5.82,5.47,14.03,7.59,21.97,8.38,7.95.81,16.02.48,23.86,1.98,7.86,1.47,15.78,5.14,20.02,11.9,4.04,6.43,3.97,15.21-.18,21.58,10.36-.31,20.79,3.95,27.94,11.41,6.28,6.54,9.99,15.45,10.29,24.49-16.55,11.15-31.12,25.24-42.8,41.44-.2.24-.37.48-.53.72-1.6.48-3.49.09-5.14-.4-4.76-1.4-9.48-3.23-13.65-5.88,2.24,17.95.15,36.43-5.97,53.44,20.68,17.95,28.25,46.84,31.34,74.14,5,44.16,1.27,89.29-10.91,132.02-6.96,24.38-16.94,48.51-33.89,67.36-.5.02-1.01.04-1.51.02-1.49-16.37-12.8-30.82-27.02-39.09-14.42-8.36-31.47-11.08-48.13-11.17-2.77,0-5.51.04-8.25.15-13.87.55-27.7,2.37-41.57,3.36-17.01,1.21-34.35,1.03-51.29-1.16-21.62-2.81-42.58-8.93-61.43-19.75-1.6-.92-3.16-1.87-4.72-2.88-18.96-12.05-34.88-29.63-44.12-49.85-5.84-12.66-9.02-26.36-8.65-40.39,8.6,1.49,17.51-.2,25.99-2.5,21.31-5.82,41.55-15.54,59.39-28.56,11.48-8.36,21.95-18.04,32.04-28.03,9.57-9.44,18.9-19.23,29.76-27.13,10.78-7.88,23.33-13.89,36.65-14.75-3.53-1.01-6.23-4.41-6.41-8.08s2.17-7.31,5.57-8.67c-1.1-1.8-3.07-2.88-4.59-4.37-2.48-2.44-3.64-6.15-3.03-9.57s3.01-6.47,6.19-7.9c-2.3-1.89-4.41-3.99-6.32-6.28l-.75.72c-1.12,1.45-2.5,2.72-4.06,3.71-.88.57-1.8,1.03-2.74,1.49-5.36,2.66-11.11,5.05-17.05,4.92-.44-.81-.9-1.6-1.38-2.39Z"/>
          <path class="cls-11" d="M502.59,643.43c14.22,8.27,25.53,22.72,27.02,39.09-8.63,0-17.01-3.14-25.02-6.43-12.69-5.2-25.2-10.84-37.69-16.48-10.27-4.63-20.72-9.37-29.02-16.94,2.81-3.4,5.6-6.83,8.32-10.25,2.74-.11,5.49-.15,8.25-.15,16.66.09,33.71,2.81,48.13,11.17Z"/>
          <path class="cls-11" d="M508.54,240.14c.02-.09.07-.2.09-.29.02.02.04.07.07.09,3.69,5.25,4.76,11.96,4.37,18.37-.13,2.17-.42,4.37-1.12,6.45-2.02,5.93-7.37,10.45-13.43,12.12-8.23,2.28-17.65-.61-23.16-7.13.04-.02.11-.07.15-.13.42.02.81.02,1.21.02,5.14-.11,9.94-2.55,14.09-5.55,8.14-5.95,14.42-14.42,17.73-23.95Z"/>
          <path class="cls-20" d="M427.15,293.85c-10.72,20.47-31.33,40.33-26.41,65.52,1.14,5.84,3.79,11.36,7.99,15.62.99,1.01,2.54-.54,1.55-1.55-7.48-7.61-9.29-19.06-7.3-29.23,2.29-11.67,8.79-21.88,15.24-31.65,3.79-5.75,7.62-11.49,10.83-17.6.65-1.25-1.24-2.36-1.9-1.11Z"/>
          <path class="cls-20" d="M549.84,353.1c-7.81-4.32-10.62-14.16-6.21-21.95.34-.59.05-1.45-.66-1.61-7.97-1.82-13.81-10.13-12.54-18.27.22-1.38-1.9-1.98-2.12-.58-1.38,8.84,4.27,17.94,12.79,20.61-4.03,8.59-.82,19.03,7.63,23.7,1.24.68,2.35-1.21,1.11-1.9Z"/>
          <path class="cls-20" d="M541.52,412.82c-14.56,7.45-30.31,12.46-46.47,14.95-16.19,2.5-32.83,2.46-49.01-.17-9.08-1.48-18.01-3.78-26.67-6.87-1.33-.48-1.91,1.64-.58,2.12,15.66,5.58,32.21,8.55,48.82,8.91,16.53.36,33.14-1.86,48.98-6.59,8.97-2.68,17.7-6.19,26.04-10.45,1.26-.64.15-2.54-1.11-1.9Z"/>
          <path class="cls-9" d="M366.73,478.68c-3.01-2.04-6.63-2.77-10.25-3.1,2.46-1.17,4.82-2.52,7.04-4.11,3.11-2.23,6.8-4.96,8.44-8.53,1.3-2.82.95-6.92-2.17-8.42-2.62-1.26-6.05.51-6.2,3.47-.07,1.41,2.12,1.41,2.19,0,.05-1.04,1.14-1.65,2.1-1.68,1.25-.03,2.1.98,2.44,2.09.89,2.89-1.33,5.46-3.27,7.32-4.45,4.24-9.8,7.51-15.56,9.62-1.14.42-.99,2.1.29,2.16,4.81.19,10.42.33,14.37,3.47,3.19,2.53,5.34,7.51,2.49,11.07-2.86,3.58-8.68,4.31-12.93,4.37-5.11.08-10.16-1.15-14.67-3.55-1.16-.62-2.08.77-1.33,1.72,2.66,3.36,4.88,7.09,6.55,11.05.81,1.93,1.49,3.91,2.05,5.92.54,1.96,1.07,4.05.78,6.1-.49,3.41-3.48,4.91-6.66,4.78-3.33-.14-6.07-1.84-8.3-4.23-2.98-3.19-5.08-7.08-8.06-10.28-.76-.82-2.1.04-1.83,1.07,1.09,4.18,1.56,8.47,1.37,12.78-.18,4-.79,8.31-2.35,12.03-.6,1.43-1.52,3.09-3,3.75-1.71.77-3.33-.24-4.39-1.57-2.35-2.93-3.32-7.3-3.96-10.91-.86-4.83-.77-9.82.2-14.62.25-1.23-1.29-1.88-2.01-.85-4.84,7-10.66,13.31-17.25,18.69-1.87,1.53-8.64,7.91-10.24,3.29-.55-1.58-.14-3.39.34-4.93.59-1.89,1.39-3.7,2.37-5.41,2.25-3.94,5.42-7.3,9.22-9.78,1.18-.77.08-2.67-1.11-1.9-3.82,2.49-7.06,5.77-9.46,9.64-2.08,3.36-4.32,7.88-3.7,11.95.27,1.78,1.24,3.39,3,4.01,2.2.78,4.47-.38,6.25-1.62,4.11-2.86,7.95-6.17,11.49-9.69,3-2.98,5.78-6.18,8.34-9.54-.32,3.44-.25,6.9.27,10.34.65,4.27,1.82,9.25,4.57,12.7,2.45,3.06,6.54,3.53,9.19.43,2.78-3.26,3.57-8.21,4.09-12.32.54-4.22.45-8.48-.21-12.67,4.05,5.38,7.71,11.49,15.16,11.8,3.2.13,6.57-1.15,8.07-4.15,2.04-4.1.16-9.37-1.3-13.35-1.38-3.78-3.22-7.35-5.45-10.68,7.11,2.7,15.53,3.22,22.42.07,3.43-1.56,6.12-4.6,6.01-8.54-.11-3.75-2.41-7.24-5.46-9.3Z"/>
          <path class="cls-9" d="M553.19,421.53c-4.03,3.2-9.01,4.97-14.15,5.08-1.28.03-1.44,1.74-.29,2.16,3.69,1.34,7.98,2.83,10.31,6.21,1.94,2.82,2.37,7.42-.99,9.37-3.28,1.9-7.86.59-11.02-.94-3.5-1.71-6.43-4.34-8.49-7.64-.7-1.12-2.18-.34-2.01.85.72,4.88,3.43,9.21,4.13,14.08.47,3.24-.43,7.57-3.45,9.38-4.01,2.4-8.61-1.84-11.06-4.71-2.94-3.46-4.78-7.84-5.22-12.36-.12-1.28-1.68-1.44-2.16-.29-1.84,4.4-1.57,9.2-2.62,13.78-.9,3.93-3.33,8.36-7.92,8.4-4.7.04-5.98-5.85-6.26-9.53-.35-4.62.71-9.22,3.04-13.23.65-1.11-.81-2.14-1.72-1.33-6.17,5.44-13.36,10.13-21.06,13.1-2.74,1.06-8.03,1.65-6.93-2.98.84-3.53,3.85-6.9,6.41-9.32,3.11-2.93,6.83-5.14,10.88-6.49,1.33-.44.76-2.56-.58-2.12-4.15,1.38-7.96,3.57-11.23,6.48-3.08,2.75-6.43,6.58-7.55,10.65-1.12,4.05,1.69,7.12,5.76,6.8,2.02-.16,3.87-.9,5.71-1.7,2.25-.98,4.44-2.06,6.59-3.26,3.46-1.92,6.74-4.14,9.86-6.57-.83,2.38-1.35,4.87-1.43,7.42-.12,3.75.46,8.2,2.75,11.3,2.13,2.89,5.72,3.63,8.98,2.29,3.58-1.47,5.63-4.84,6.61-8.45.91-3.35.99-6.86,1.61-10.25,1.79,6.16,5.88,12.09,11.76,14.53,3.32,1.38,6.87.59,9.1-2.26,1.99-2.55,2.73-6.06,2.34-9.23-.41-3.38-1.8-6.51-2.9-9.71,3.93,3.93,9.36,6.68,14.86,6.39,3.29-.17,6.38-1.8,7.49-5.05,1.06-3.1.07-6.71-1.93-9.21-1.79-2.25-4.26-3.7-6.87-4.85,4.07-.82,7.88-2.59,11.19-5.22,1.11-.88-.46-2.42-1.55-1.55Z"/>
          <path class="cls-9" d="M533.35,642.14c-.42-3.52-3.15-6.5-6.31-7.88-2.63-1.15-5.47-1.35-8.31-1.19,2.24-1.54,4.33-3.31,6.13-5.34,2.31-2.61,6.15-7.11,3.42-10.64-2.42-3.12-7.94-2.79-11.4-2.38-3.31.4-6.5,1.39-9.44,2.91,2.87-5.27,7.07-10.27,4.32-16.55-1.18-2.69-3.67-4.51-6.68-4.19-3.79.4-7.29,3.53-10.05,5.93-2.63,2.28-4.99,4.84-7.08,7.61-.21-3.66-.97-7.29-2.3-10.71-1.16-2.98-3.08-8.14-7.14-7.61-3.75.49-5.99,5.49-7.14,8.57-1.19,3.18-1.65,6.56-1.44,9.92-2.34-2.01-4.85-3.81-7.51-5.36-1.72-1-3.51-1.93-5.36-2.69-1.69-.69-3.62-1.16-5.36-.36-3.37,1.54-3.43,5.77-2.16,8.73,1.55,3.6,4.09,6.92,6.7,9.81,2.92,3.23,6.3,6.02,10,8.32,1.2.75,2.31-1.15,1.11-1.9-3.48-2.17-6.64-4.78-9.4-7.81-1.4-1.53-2.68-3.16-3.84-4.88-1.18-1.75-2.53-3.69-3.02-5.77-.46-1.91.11-4.6,2.51-4.73,2.18-.12,4.62,1.47,6.48,2.48,3.84,2.09,7.35,4.68,10.51,7.7.83.8,2.03-.02,1.83-1.07-.64-3.51-.41-7.12.65-10.53.53-1.7,1.27-3.33,2.19-4.85.78-1.27,1.97-3.28,3.65-3.43,1.55-.13,2.53,1.62,3.15,2.77.95,1.77,1.7,3.65,2.3,5.57,1.12,3.64,1.6,7.41,1.47,11.22-.04,1.14,1.48,1.42,2.04.55,2.48-3.78,5.47-7.2,8.9-10.15,1.68-1.44,3.46-2.84,5.38-3.95,1.78-1.04,4.05-1.84,5.91-.53,2.58,1.82,2.85,5.87,1.96,8.62-1.37,4.22-4.56,7.61-6.13,11.77-.33.88.85,1.77,1.61,1.24,3.1-2.16,6.59-3.63,10.31-4.28,1.87-.33,3.79-.43,5.69-.32,1.56.09,3.55.23,4.77,1.36,2.74,2.54-2.43,7.62-4.16,9.37-2.55,2.57-5.51,4.65-8.76,6.25-.94.46-.53,2.19.55,2.05,5.83-.76,15.19-1.56,17.14,5.88.79,3.01-1.19,5.59-3.81,6.85-3.33,1.59-7.25.95-10.75.41-1.38-.22-1.98,1.9-.58,2.12,4.19.66,8.67,1.29,12.61-.71,3.05-1.55,5.26-4.63,4.85-8.16Z"/>
          <path class="cls-9" d="M483.61,517.4c-2.87-3.54-8.42-2.63-12.35-2.07-4.45.64-8.8,1.82-12.97,3.45,2.48-3.15,4.55-6.61,6.12-10.32,1.78-4.23,3.65-9.51,2.18-14.11-1.51-4.75-6.37-6.08-10.63-4.06-4.81,2.29-8.12,7.28-10.79,11.69-1.84,3.03-3.36,6.24-4.62,9.55-.36-2.78-.9-5.54-1.67-8.24-.84-2.94-1.91-5.82-3.22-8.58-.99-2.08-2.26-4.13-4.06-5.61-3.6-2.96-8.17-1.95-10.68,1.82-2.75,4.12-2.86,9.74-2.44,14.49.48,5.27,2.03,10.39,4.53,15.03-7.88-3.03-16.92-2.81-24.55.93-3.87,1.89-7.56,5.38-7.04,10.07.54,4.91,5.49,6.19,9.58,6.94,5.42,1,10.88,1.73,16.36,2.26-6.19,5.13-10.99,12.07-13.18,19.83-.93,3.3-.87,8.19,3.31,9.11,2.23.49,4.48-.54,6.39-1.58,2.15-1.16,4.23-2.48,6.2-3.92,3.41-2.49,6.48-5.35,9.24-8.52-.26,4.52-.21,9.06.21,13.57.25,2.73.62,5.44,1.1,8.14.36,2.02.84,4.05,1.91,5.83,1.95,3.23,5.83,4.2,8.71,1.51,1.41-1.32,2.31-3.13,2.98-4.92.94-2.52,1.64-5.13,2.16-7.76.95-4.77,1.25-9.63.95-14.47,2.43,2.94,5.32,5.49,8.58,7.51,4.04,2.49,9.24,4.86,14.1,4.34,2.14-.23,4.16-1.12,5.47-2.88,1.44-1.93,1.68-4.42,1.38-6.74-.62-4.8-3.05-9.5-5.95-13.3-2.53-3.31-5.66-6.13-9.21-8.28,7.68-.52,15.57-3.88,20.37-9.84,2.37-2.95,4.21-7.53,1.5-10.87ZM480.3,527.02c-2.51,3.01-6.1,5.32-9.69,6.82-4.22,1.76-8.8,2.46-13.35,2.08-1.05-.09-1.55,1.62-.55,2.04,8.02,3.45,14.46,10.26,17.21,18.58,1.28,3.87,1.74,9.49-3.4,10.49-4.21.82-8.98-1.38-12.53-3.42-4.47-2.57-8.28-6.17-11.09-10.49-.53-.82-2.2-.61-2.05.55.6,4.63.65,9.32.07,13.95-.55,4.33-1.44,9.22-3.5,13.12-.75,1.41-1.89,3.08-3.61,3.29-1.77.22-2.96-1.23-3.68-2.65-.82-1.62-1.13-3.44-1.44-5.21-.44-2.5-.76-5.03-.98-7.56-.47-5.44-.43-10.91.07-16.35.11-1.22-1.47-1.3-2.05-.55-2.51,3.26-5.41,6.22-8.59,8.82-3.05,2.5-6.63,5.16-10.36,6.54-1.86.69-4.09.63-4.72-1.58-.47-1.64-.05-3.44.45-5.02,1.13-3.64,2.84-7.09,5-10.24,2.51-3.67,5.67-6.88,9.27-9.48.89-.64.57-1.95-.55-2.05-4.92-.4-9.82-.98-14.7-1.76-2.18-.35-4.38-.68-6.52-1.2-1.78-.43-3.75-1.09-4.77-2.73-2.52-4.06,1.91-8.02,5.18-9.66,3.7-1.86,7.88-2.77,12.01-2.83,4.79-.06,9.53,1.05,13.77,3.28.91.48,2.14-.53,1.5-1.5-2.75-4.17-4.64-8.81-5.55-13.72-.82-4.44-1.09-9.57.4-13.9.6-1.76,1.61-3.64,3.27-4.61,1.8-1.04,3.86-.58,5.4.69,1.67,1.37,2.77,3.33,3.67,5.26,1.11,2.38,2.02,4.84,2.76,7.36,1.3,4.41,2.01,8.94,2.17,13.52-.29,1.06-.6,2.11-.83,3.18-.15.71.33,1.2.88,1.33.23,1.12,2.1,1.04,2.15-.27.05-1.37.04-2.74,0-4.11,1.05-3.69,2.45-7.27,4.23-10.68,2.19-4.21,4.88-8.67,8.44-11.87,2.94-2.64,8.57-5.03,10.64-.06,1.62,3.89-.16,8.79-1.61,12.45-2.08,5.23-5.23,10-9.15,14.03-.9.92.23,2.26,1.33,1.72,4.14-2.01,8.51-3.53,13.01-4.49,2.28-.49,4.59-.84,6.92-1.03,1.82-.15,3.83-.25,5.54.5,4.14,1.81,2.08,6.85-.05,9.41Z"/>
          <path class="cls-9" d="M366.89,626.39c1.92-.63,3.76-1.49,5.3-2.8,2.77-2.36,3.68-6.21,1.94-9.46-1.79-3.34-5.71-5.38-9.43-5.4-2.83-.01-5.5.86-8.03,2.07,1.16-1.57,2.15-3.25,2.78-5.11,1.15-3.39,1-7.42-1.29-10.32-4.37-5.54-12.79-3.81-17.44.3-1.88,1.66-3.38,3.68-4.72,5.81.15-2.34.08-4.7-.26-7.04-.57-3.92-1.75-8.33-4.12-11.57-2.2-3-5.71-3.99-8.77-1.54-3.1,2.49-5.02,6.8-6.35,10.44-1.36,3.72-2.04,7.66-2.1,11.61-2.65-2.72-5.3-5.43-7.95-8.15-2.18-2.24-5.14-6.26-8.75-4.53-2.58,1.24-3.56,4.55-3.62,7.2-.09,3.55.77,7.09,2.3,10.29,1.75,3.66,4.46,6.76,7.8,9.05,1.17.8,2.27-1.1,1.11-1.9-3.2-2.2-5.71-5.28-7.27-8.83-1.4-3.18-2.38-7.34-1.42-10.78.38-1.34,1.24-3.2,2.87-3.25,1.98-.05,3.82,2.64,5.06,3.91,3.41,3.49,6.82,6.99,10.23,10.48.64.65,1.93.19,1.87-.78-.27-4.6.36-9.18,1.92-13.53.81-2.26,1.88-4.43,3.16-6.46,1.06-1.68,2.63-4.03,4.86-4.05,2.11-.02,3.47,2.15,4.31,3.81,1.04,2.07,1.77,4.33,2.29,6.59,1.06,4.69,1,9.56-.11,14.24-.28,1.17,1.39,1.98,2.01.85,3.43-6.36,8.63-15.2,17.28-13.26,4,.9,6.03,4.44,5.57,8.41-.53,4.57-3.9,8.13-6.9,11.34-.83.89.23,2.4,1.33,1.72,3.42-2.1,7.09-4.41,11.19-4.78,3.26-.29,6.79,1.04,8.53,3.95,1.65,2.75.5,5.81-1.99,7.55-2.47,1.72-5.57,2.42-8.49,2.94-1.24.22-.92,2.16.29,2.16,4.33-.03,8.21,2.54,9.96,6.48.57,1.29,2.47.17,1.9-1.11-1.34-3.01-3.85-5.31-6.83-6.55Z"/>
          <path class="cls-9" d="M562.77,483.69c4.27,1.58,6.59,5.84,8.67,9.6.68,1.24,2.58.13,1.9-1.11-1.91-3.46-3.95-7.04-7.32-9.28-2.87-1.91-6.61-2.62-9.78-1.01-5.77,2.93-6.47,10.71-4.11,16.04,1.47,3.3,3.85,6.07,6.36,8.66-3.41.09-6.84.44-9.92,1.98-3.16,1.57-5.81,4.68-6.22,8.26-.42,3.59,1.73,6.75,4.76,8.5,2.7,1.56,5.76,1.88,8.83,1.83-2.76,2.04-5.39,4.26-7.85,6.66-2.91,2.84-7.35,6.71-6.75,11.24.47,3.55,3.9,5.25,7.13,5.57,3.85.38,7.57-1.51,11.36-1.43-4.27,4.2-7.25,10.09-5.5,16.13,1.69,5.84,7.57,9.97,13.51,7.24,2.93-1.34,5.09-4.13,5.05-7.42-.02-1.41-2.21-1.42-2.19,0,.04,3.05-2.5,5.33-5.33,5.97-3.17.72-6.14-1.07-7.76-3.74-4-6.57.26-13.87,5.51-18.18.65-.54.26-1.64-.48-1.83-4.1-1.09-7.82.72-11.86,1.09-2.69.25-6.99-.45-7.29-3.84-.18-2.12,1.37-4.11,2.69-5.61,1.32-1.5,2.72-2.92,4.16-4.3,3.06-2.91,6.36-5.54,9.88-7.88.83-.56.61-2.13-.55-2.04-3.54.26-7.42.61-10.72-.97-2.73-1.3-4.93-3.95-4.34-7.13,1.38-7.46,10.55-7.9,16.5-7.93.95,0,1.45-1.2.78-1.87-5-5.02-11.65-12.15-7.72-19.74,1.71-3.3,5.11-4.75,8.66-3.44Z"/>
          <path class="cls-9" d="M450.03,378.77c-1.77-3.89-7.27-5.23-11.04-5.91-3.06-.56-6.16-.63-9.23-.32,1.93-1.38,3.81-2.84,5.58-4.43,2.9-2.6,6.35-5.65,8.06-9.22,1.52-3.18.82-6.62-2.02-8.78-2.99-2.28-6.81-2.16-10.15-.73-3.4,1.47-6.01,4.06-8.77,6.44.96-3.21,1.66-6.48,2.1-9.81.28-2.09.53-4.23.51-6.34-.01-1.46-.25-3.04-1.16-4.23-2.55-3.35-6.12-.05-7.89,2.23-2.44,3.14-4.38,6.64-5.79,10.36-1.61,4.25-2.45,8.77-2.54,13.32-.03,1.41,2.17,1.41,2.19,0,.17-8.41,3.18-17.35,8.93-23.63.66-.72,1.82-1.92,2.91-1.36.66.34.89,1.2,1.03,1.86.39,1.95.03,4.14-.18,6.09-.52,4.89-1.68,9.7-3.34,14.32-.31.87.84,1.78,1.61,1.24,3.62-2.56,6.54-6.14,10.53-8.16,3.41-1.72,9.45-1.9,10.57,2.85.52,2.21-.91,4.31-2.25,5.92-1.4,1.68-2.94,3.27-4.52,4.78-3.31,3.15-6.96,5.91-10.87,8.28-1.06.64-.37,2.33.85,2.01,3.9-1.04,7.96-1.33,11.97-.79,2.02.27,4.01.76,5.93,1.43,1.61.56,3.35,1.3,4.46,2.66,2.97,3.66-3.52,4.99-5.83,5.48-4.3.92-8.69,1.3-13.09,1.23-.89-.01-1.53,1.25-.78,1.87,4.75,3.91,10.92,9.19,9.04,16.13-.9,3.32-3.78,5.09-7.16,4.96-3.78-.14-7.05-2.44-10.06-4.49-1.17-.8-2.27,1.1-1.11,1.9,3.58,2.44,7.52,4.99,12.04,4.79,3.61-.16,6.73-2.15,8.06-5.56,2.75-7.03-2.1-12.98-7.12-17.46,4.3-.13,8.6-.68,12.77-1.73,3.27-.82,7.61-3.12,5.74-7.22Z"/>
          <path class="cls-9" d="M540.28,351.45c-.61-3.85-4.73-5.11-8.05-5.65-3.57-.58-7.2-.49-10.72.2,4.39-4.84,7.3-11.52,6.49-17.98-.47-3.7-3.32-6.77-7.27-5.28-3.91,1.49-6.71,5.79-8.93,9.13-2.1,3.17-3.83,6.57-5.21,10.12-.21-3.57-1.02-7.1-2.41-10.41-1.77-4.22-4.51-8.54-8.27-11.26-3.29-2.37-8.59-2.86-11.01,1.03-2.42,3.89-.02,9.08,1.66,12.76,1.88,4.14,4.31,7.99,7.14,11.53-6.9-1.36-14.65-.19-20.29,4.01-2.77,2.06-4.87,6.11-2.39,9.23,2.32,2.92,7.15,2.65,10.48,2.64,3.95-.01,7.9-.44,11.76-1.25-3.91,4.54-6.63,10.62-6.3,16.52.17,2.97,1.82,6.17,5.25,5.9,3.57-.28,6.38-3.72,8.34-6.39,1.82-2.49,3.18-5.29,4.08-8.23,1.08,2.75,2.52,5.35,4.33,7.7,2.46,3.19,5.66,6.43,9.56,7.76,3.45,1.18,7.51.02,8.44-3.86.92-3.86-1.27-7.82-3.19-11-1.8-2.98-3.92-5.75-6.27-8.31,5.99,1.92,12.64,2.58,18.15-.75,2.7-1.64,5.17-4.85,4.64-8.18ZM537.09,355.33c-2.36,3.44-7.03,4.51-10.96,4.43-4.32-.08-8.55-1.43-12.47-3.16-1.05-.47-2.33.82-1.33,1.72,3.72,3.35,6.95,7.19,9.53,11.48,1.65,2.74,5.3,8.82,1.58,11.44-1.85,1.3-4.39.37-6.15-.64-1.99-1.14-3.71-2.79-5.23-4.49-3.15-3.5-5.37-7.75-6.54-12.3-.26-.99-1.94-1.1-2.12,0-.64,3.91-2.09,7.6-4.35,10.86-1.4,2.02-6.88,8.86-9.27,4.58-.84-1.5-.69-3.43-.48-5.07.24-1.89.74-3.75,1.42-5.53,1.43-3.7,3.79-6.95,6.78-9.54.85-.74-.06-2.11-1.07-1.83-3.55.98-26.69,5.61-24.1-2.8.67-2.17,2.8-3.47,4.69-4.45,1.96-1.01,4.05-1.74,6.2-2.19,4.4-.94,8.96-.63,13.23.79,1.1.37,1.76-1.07,1.07-1.83-2.87-3.17-5.35-6.66-7.39-10.43-1.03-1.9-1.95-3.87-2.74-5.89-.69-1.77-1.34-3.67-1.26-5.6.08-2.02,1.22-3.66,3.25-4.11,1.95-.43,3.87.31,5.44,1.46,3.23,2.36,5.6,6.19,7.19,9.8,1.91,4.33,2.7,9.09,2.41,13.8-.04.61.35.94.81,1.02.36.79,1.74.94,2.06-.13,1.41-4.72,3.46-9.21,6.15-13.33,1.31-2.02,2.76-3.96,4.37-5.75,1.38-1.53,3.83-3.91,6.09-2.82,1.83.88,2.04,3.42,2,5.2-.06,2.16-.48,4.3-1.16,6.34-1.42,4.28-4.13,8.13-7.7,10.89-.89.69-.45,2.46.85,2.01,4.48-1.58,9.31-2.08,14.01-1.28,1.86.32,4.21.73,5.49,2.25,1.3,1.55.75,3.6-.29,5.11Z"/>
          <path class="cls-9" d="M524.06,407.64c-5.93-2.42-10.67,2.32-15.45,5.51,1.32-2.74,2.42-5.6,3.23-8.53.94-3.42,1.99-7.4,1.19-10.95-.73-3.22-3.58-5.21-6.83-4.03-3.45,1.25-6.24,4.75-8.24,7.69-1.83,2.69-3.19,5.67-4.06,8.8-1.2-3.09-2.64-6.08-4.37-8.9-1.59-2.6-4.58-7.54-8.24-4.9-2.98,2.14-2.76,7.48-2.64,10.68.13,3.25.75,6.44,1.77,9.5-2.15-1.42-4.43-2.6-6.87-3.48-3.27-1.17-7.53-2.38-11-1.49-3.73.96-4.33,4.68-2.6,7.73,1.8,3.17,4.91,5.82,7.88,7.86,3.57,2.46,7.65,4.16,11.91,5.01,1.38.27,1.97-1.84.58-2.12-3.88-.77-7.54-2.25-10.84-4.42-1.72-1.14-3.32-2.45-4.77-3.92-1.38-1.4-3.08-3.1-3.5-5.09-1.04-4.83,7.4-2.73,9.62-2.12,4.11,1.14,7.93,3.17,11.19,5.91.97.82,2.25-.18,1.72-1.33-1.52-3.33-2.49-6.93-2.8-10.59-.15-1.76-.15-3.54-.01-5.3.12-1.5.23-3.35,1.2-4.58,2.31-2.95,5.74,4.11,6.61,5.66,1.81,3.24,3.25,6.66,4.36,10.2.29.94,1.95,1.14,2.12,0,.62-4.16,2.09-8.1,4.4-11.61,1.17-1.77,2.54-3.39,4.08-4.84,1.39-1.31,3.82-3.41,5.84-2.1,2.99,1.93,1.26,7.9.63,10.54-1.09,4.56-2.84,8.91-5.17,12.98-.59,1.04.55,1.91,1.5,1.5,4.72-2.01,8.33-7.02,13.62-7.62,2.04-.23,4.49.51,5.53,2.42,1.04,1.89-.51,5.04-2.89,4.42-1.37-.36-1.95,1.76-.58,2.12,2.76.72,5.34-1.37,5.93-4.04.64-2.91-1.46-5.47-4.04-6.52Z"/>
          <path class="cls-9" d="M577.67,318.58c-2.73-2.04-6.99-1.17-9.98-.26-3.04.93-5.85,2.48-8.26,4.53.42-3.25.64-6.53.61-9.81-.02-2.2-.14-4.4-.37-6.59-.16-1.56-.36-3.2-1.17-4.58-1.78-3.01-5.28-2.57-7.6-.48-2.69,2.42-4.19,6.35-5.33,9.69-1.49,4.39-2.16,9.04-2.04,13.68.04,1.41,2.23,1.42,2.19,0-.11-4.29.48-8.54,1.81-12.63.67-2.07,1.53-4.07,2.57-5.98.86-1.59,2.03-3.53,3.85-4.16,4.21-1.46,3.82,7.55,3.88,9.73.13,4.66-.22,9.31-1.01,13.9-.17.98,1.04,1.97,1.83,1.07,2.79-3.14,6.4-5.42,10.48-6.49,1.75-.46,3.74-.85,5.54-.53,2.25.39,3.09,2.18,2.72,4.31-.64,3.67-3.25,7.35-5.65,10.1-2.68,3.07-5.91,5.55-9.54,7.38-1.15.58-.33,2.27.85,2.01,2.03-.46,3.83,1.24,4.35,3.1.53,1.89-.4,3.75-1.78,5.02-3.73,3.44-9.22,2.35-13.69,1.41-1.38-.29-1.97,1.83-.58,2.12,5.87,1.22,13.4,2.19,17.23-3.64,1.42-2.16,1.56-4.88.24-7.12-.67-1.13-1.63-2.04-2.74-2.58,5.41-3.42,9.86-8.4,12.45-14.27,1.26-2.84,2.03-6.76-.85-8.92Z"/>
          <path class="cls-9" d="M569.2,275.06c-.07-4.74-1.23-9.37-3.28-13.64-.61-1.27-2.51-.16-1.9,1.11,1.92,3.98,2.96,8.35,2.99,12.77.02,3.37-.13,8.88-3.58,10.73-3,1.6-6.69-.82-8.15-3.46-2.18-3.96-.89-9.03.08-13.14.33-1.39-1.64-1.9-2.12-.58-1.32,3.67-3.27,7.12-5.78,10.11-1.19,1.42-2.5,2.75-3.91,3.96-1.37,1.18-3.8,3.12-5.71,2.03-2.97-1.69-.55-7.32.42-9.51,1.58-3.59,3.88-6.77,6.73-9.46.97-.91-.26-2.21-1.33-1.72-4.37,1.99-8.91,3.62-13.55,4.85-1.94.51-4.1,1.23-6.14,1.07-2.28-.18-3.34-1.88-2.81-4.05.91-3.76,4.61-6.8,7.8-8.65,3.57-2.08,7.63-3.11,11.76-2.99,1.41.04,1.41-2.15,0-2.19-7.55-.22-15.18,3.26-19.75,9.33-1.86,2.48-3.3,6.45-.91,9.08,2.55,2.82,7.01,1.46,10.14.65,3.37-.87,6.68-1.97,9.92-3.24-1.26,1.63-2.38,3.37-3.29,5.22-1.4,2.86-2.83,6.3-2.44,9.56.39,3.29,3.21,5.29,6.44,4.24,3.33-1.08,6.15-4.17,8.32-6.79,1.04-1.26,1.96-2.6,2.82-3.98-.08,1.65.03,3.3.47,4.92.86,3.18,3.18,5.82,6.3,6.95,2.98,1.07,6.16.25,8.05-2.34,2.17-2.98,2.45-7.27,2.4-10.82Z"/>
          <path class="cls-9" d="M502.79,277.98c-1.32-.51-1.89,1.61-.58,2.12,1.4.54,2,2.15,1.91,3.55-.11,1.7-1.3,3-2.8,3.7-3.94,1.83-8.2-.34-11.71-2.14-.92-.47-1.74.3-1.61,1.24.54,3.87,2.89,7.19,3.44,11.04.55,3.82-1.41,7.22-5.56,7.12-8.34-.19-9.9-11.75-12.66-17.5-.5-1.05-2-.45-2.04.55-.25,5.07-1.22,10.07-2.91,14.86-.76,2.15-1.61,4.32-2.75,6.3-.92,1.59-2.51,3.76-4.64,3.39-3.77-.65-3.61-7.07-3.6-9.79.02-5.17.92-10.27,2.58-15.16.41-1.22-1.36-1.86-2.01-.85-2.44,3.8-5.4,7.23-8.81,10.2-2.2,1.91-8.93,8.06-11.35,3.63-1.14-2.09-.17-4.53.83-6.46.95-1.84,2.08-3.6,3.36-5.23,2.64-3.34,5.9-6.13,9.59-8.26,1.22-.71.12-2.6-1.11-1.9-3.46,2-6.6,4.56-9.2,7.6-2.46,2.88-5.07,6.46-5.93,10.22-.77,3.37.72,7.45,4.61,7.74,3.94.3,7.81-3.25,10.59-5.63,2.11-1.81,4.03-3.82,5.79-5.97-.57,2.65-.94,5.34-1.07,8.05-.17,3.62-.3,7.91,1.6,11.15,1.66,2.84,5.05,3.78,7.79,1.79,3.15-2.29,4.62-6.72,5.86-10.23,1.25-3.53,2.08-7.19,2.56-10.89,1.17,3.26,2.21,6.59,4.25,9.43,2.28,3.18,5.74,5.54,9.81,5.1,4.01-.43,6.61-3.5,6.74-7.47.12-3.99-2-7.42-3.1-11.13,4.28,1.97,9.3,3.39,13.29.13,3.37-2.75,3.19-8.62-1.14-10.29Z"/>
          <path class="cls-9" d="M403.72,293.89c.42-3.7-1.49-7.04-5.09-8.23-4.31-1.43-8.6.68-12.33,2.68-1.25.67-.14,2.56,1.11,1.9,3.04-1.63,6.51-3.51,10.07-2.62,3.36.84,4.65,3.94,3.86,7.14-1.57,6.39-8.68,10.11-14.88,9.85-1.24-.05-1.49,1.86-.29,2.16,3.56.89,7.53,1.81,10.23,4.48,2.32,2.29,3.71,6.34,1.31,9.07-2.03,2.3-5.67,2.61-8.48,1.97-3.88-.88-7.31-3.08-11.05-4.35-.74-.25-1.67.58-1.35,1.35,1.49,3.6,2.83,7.26,4,10.97.54,1.72,3.46,8.34.24,9.03-1.57.34-3.3-1.18-4.37-2.12-1.26-1.11-2.45-2.3-3.55-3.57-2.34-2.7-4.23-5.75-5.71-9.01-.46-1.02-2.06-.47-2.05.55.05,3.35-.26,6.68-.98,9.95-.34,1.56-.77,3.1-1.28,4.61-.43,1.26-.91,2.7-1.93,3.62-2.7,2.43-4.59-3.07-4.98-4.91-.64-3.07-.19-6.29,1.22-9.08.64-1.26-1.26-2.37-1.9-1.11-1.75,3.46-2.26,7.42-1.34,11.2.69,2.85,2.63,7.19,6.27,6.61,3.42-.54,4.57-4.89,5.37-7.68.85-2.95,1.36-5.99,1.59-9.05,1.44,2.46,3.12,4.77,5.07,6.86,2.2,2.35,5.83,6.33,9.49,5.13,3.85-1.26,2.59-6.08,1.77-8.9-1.14-3.9-2.51-7.72-3.99-11.5,3.57,1.52,7.03,3.5,10.95,3.81,3.46.28,7.39-.83,9.33-3.91,2.13-3.38.89-7.69-1.56-10.53-1.74-2.01-4.1-3.24-6.59-4.14,5.83-1.62,11.1-6.07,11.81-12.24Z"/>
          <path class="cls-9" d="M396.03,352.85c-1.14-1.21-2.93-1.36-4.39-.63-1.78.88-2.49,2.82-2.68,4.69-.35,3.55.58,7.27,2.19,10.51-1.91-.51-3.87-.85-5.85-.58-2.15.29-4.75,1.41-4.74,3.96,0,2.27,1.98,4.47,3.58,5.89,1.87,1.66,4.09,2.83,6.52,3.43,1.37.34,1.96-1.77.58-2.12-3.26-.82-6.78-3.02-8.21-6.19-1.13-2.5,2.37-2.93,4.08-2.87,2.07.07,4.09.73,6.05,1.36.89.29,1.76-.82,1.24-1.61-1.76-2.67-2.91-5.71-3.21-8.9-.13-1.38-.24-2.96.3-4.28.45-1.1,1.95-2.2,2.99-1.1.97,1.03,2.52-.52,1.55-1.55Z"/>
          <path class="cls-9" d="M437.15,267.74c-.02,1.63.03,3.54-1.08,4.87-1,1.2-2.43,1.19-3.48.08-2.14-2.26-2.47-6.19-2.28-9.12.07-1.14-1.49-1.41-2.05-.55-1.64,2.56-3.47,4.97-5.52,7.21-1,1.1-2.06,2.15-3.15,3.16-1.06.98-2.34,2.21-3.85,2.37-3.27.36-2.08-4.43-1.44-6.06,1.15-2.93,3.03-5.51,4.85-8.05.83-1.15-1.08-2.25-1.9-1.11-2.23,3.1-4.55,6.33-5.58,10.06-.71,2.59-.47,6.33,2.63,7.21,3.4.97,6.48-2.44,8.59-4.58,1.93-1.96,3.65-4.1,5.26-6.32.31,3.38,1.48,7.11,4.42,8.46,1.78.81,3.76.22,5.03-1.21,1.57-1.76,1.7-4.17,1.72-6.42.01-1.41-2.18-1.41-2.19,0Z"/>
          <path class="cls-9" d="M453.87,433.07c-5.19,3.67-11.83,4.61-17.83,2.5-.85-.3-1.81.85-1.24,1.61,2.69,3.58,4.4,7.83,4.76,12.31.28,3.41.19,8.92-3.19,10.97-4,2.43-8.1-3.84-9.68-6.66-2.23-3.97-3.29-8.47-3.15-13.01.04-1.42-2.09-1.39-2.19,0-.36,4.94-1.57,9.83-3.62,14.35-1.12,2.47-4.47,10.37-8.3,7.51-3.09-2.3-2.71-7.93-2.46-11.26.36-4.9,1.81-9.68,4.15-14,.58-1.08-.83-2.24-1.72-1.33-3.17,3.2-6.69,6.02-10.54,8.36-1.64,1-4.13,2.86-6.17,2.21-1.93-.62-2.33-3.06-1.86-4.77,1.03-3.7,4.85-6.91,7.93-8.95,3.42-2.27,7.29-3.69,11.36-4.25,1.39-.19.8-2.31-.58-2.12-7.5,1.04-14.75,5.16-19.14,11.38-1.91,2.7-2.9,6.45-.6,9.24,2.78,3.37,7.01,1.05,9.97-.73,2.57-1.55,4.99-3.32,7.28-5.25-.93,2.51-1.63,5.1-2,7.77-.52,3.81-.81,8.21.6,11.87,1.15,2.97,3.85,5.53,7.23,4.22,3.61-1.41,5.62-6.19,7.05-9.47.99-2.27,1.77-4.61,2.37-6.99.37,1.4.81,2.78,1.4,4.11,1.57,3.55,4.1,7.53,7.56,9.5,3.16,1.8,6.59.83,8.54-2.16,2.05-3.14,2.29-7.37,1.92-10.99-.38-3.76-1.58-7.37-3.49-10.61,5.76,1.18,11.92-.04,16.76-3.47,1.14-.81.05-2.71-1.11-1.9Z"/>
          <path class="cls-9" d="M278.18,584.79c-1.56-6.22-7.58-8.81-13.44-9.35,2.63-2.45,5.05-5.11,7.2-7.99,2.32-3.1,4.64-7.16,3.12-11.12-1.07-2.77-3.76-4.45-6.59-4.95-3.25-.57-6.43.27-9.05,2.25-2.57,1.93-4.43,4.54-6.05,7.28-.21-2.56-.49-5.11-.94-7.64-.35-1.95-.77-3.9-1.26-5.82-.34-1.32-.72-2.69-1.54-3.8-1.63-2.23-4.54-2.31-6.55-.53-2.6,2.3-2.15,5.93-1.6,9,.25,1.39,2.37.8,2.12-.58-.42-2.32-1.02-5.7,1.44-7.14,2.55-1.5,3.55,1.81,4.03,3.64,1.4,5.43,2.18,10.99,2.39,16.6.04,1.04,1.51,1.55,2.04.55,1.97-3.64,4.06-7.6,7.55-10.02,2.78-1.94,6.57-2.45,9.6-.71,4.19,2.42,2.62,7.26.4,10.54-2.7,4-6.13,7.55-9.79,10.68-.74.63-.13,1.88.78,1.87,5.23-.06,11.37,1.3,13.63,6.63.93,2.18.87,4.71-.67,6.6-1.41,1.72-3.63,2.63-5.78,1.89-1.34-.46-1.91,1.66-.58,2.12,2.68.92,5.58-.05,7.53-2.02,2.09-2.11,2.75-5.09,2.03-7.94Z"/>
          <path class="cls-9" d="M566.18,591.11c-1.45-2.28-4.42-3.9-7.05-2.61-2.97,1.46-3.29,5.25-3.67,8.14-.43,3.24-.73,6.5-.95,9.77-1.34-1.87-2.96-3.54-5.17-4.28-2.56-.85-5.96-.17-7.44,2.26-2.03,3.33.73,6.87,3.08,9.11,2.32,2.22,4.84,4.23,7.49,6.05-2.13.45-4.22,1.14-5.93,2.54-1.92,1.56-3.14,4.13-2.8,6.63.36,2.59,2.46,4.32,4.99,4.66,3.04.4,5.7-1.22,7.98-3.03,1.1-.88-.46-2.42-1.55-1.55-1.73,1.38-3.9,2.78-6.23,2.42-1.97-.31-3.28-1.83-3.03-3.84.56-4.64,6.02-5.57,9.75-6.17.99-.16.99-1.55.26-2.01-2.67-1.67-5.22-3.52-7.59-5.6-1.89-1.65-5.7-4.53-4.81-7.47.65-2.15,3.61-2.52,5.42-1.8,2.58,1.03,4.13,3.74,5.5,5.99.58.96,1.99.52,2.05-.55.15-3.16.39-6.31.74-9.46.3-2.69.27-6.11,1.63-8.54,1.41-2.51,4.31-1.46,5.55.61,1.64,2.74.03,6.36-1.04,9.01-.53,1.31,1.59,1.88,2.12.58,1.34-3.32,2.86-7.52.73-10.86Z"/>
          <path class="cls-9" d="M366.44,568.09c-.26-.93-.73-1.74-1.41-2.42l-.41-.41c-.5-.54-1.09-.91-1.77-1.13-.65-.34-1.36-.5-2.11-.47-.76-.03-1.46.13-2.11.47-.68.22-1.27.6-1.77,1.13-.29.37-.57.74-.86,1.11-.5.86-.75,1.78-.75,2.77.07.49.13.97.2,1.46.26.93.73,1.74,1.41,2.42l.41.41c.5.54,1.09.91,1.77,1.13.65.34,1.36.5,2.11.47.76.03,1.46-.13,2.11-.47.68-.22,1.27-.6,1.77-1.13l.86-1.11c.5-.86.75-1.78.75-2.77-.07-.49-.13-.97-.2-1.46Z"/>
          <path class="cls-9" d="M379.84,516.41c-.17-.71-.5-1.34-.98-1.87-.39-.6-.9-1.07-1.54-1.41-.44-.18-.87-.37-1.31-.55-.97-.26-1.95-.26-2.92,0-.44.18-.87.37-1.31.55-.82.49-1.48,1.14-1.97,1.97-.14.27-.27.54-.41.81-.4.63-.62,1.31-.65,2.04-.16.73-.13,1.46.1,2.19.17.71.5,1.34.98,1.87.39.6.9,1.07,1.54,1.41.44.18.87.37,1.31.55.97.26,1.94.26,2.92,0,.44-.18.87-.37,1.31-.55.82-.49,1.48-1.14,1.97-1.97.14-.27.27-.54.41-.81.4-.63.62-1.31.65-2.04.16-.73.13-1.46-.1-2.19Z"/>
          <path class="cls-9" d="M412.8,606.36c-.18-.44-.37-.87-.55-1.31-.49-.82-1.14-1.48-1.97-1.97l-.81-.41c-.63-.4-1.31-.62-2.04-.65-.73-.16-1.46-.13-2.19.1-.71.17-1.34.5-1.87.98-.6.39-1.07.9-1.41,1.54-.18.44-.37.87-.55,1.31-.26.97-.26,1.94,0,2.92.18.44.37.87.55,1.31.49.82,1.14,1.48,1.97,1.97.27.14.54.27.81.41.63.4,1.31.62,2.04.65.73.16,1.46.13,2.19-.1.71-.17,1.34-.5,1.87-.98.6-.39,1.07-.9,1.41-1.54.18-.44.37-.87.55-1.31.26-.97.26-1.95,0-2.92Z"/>
          <path class="cls-9" d="M300.59,568.3c-.03-.73-.25-1.41-.65-2.04-.29-.37-.57-.74-.86-1.11-.68-.68-1.49-1.15-2.42-1.41-.49-.07-.97-.13-1.46-.2-.99,0-1.91.25-2.77.75l-1.63.81c-.64.34-1.15.82-1.54,1.41-.49.53-.81,1.15-.98,1.87-.23.73-.26,1.46-.1,2.19.03.73.25,1.41.65,2.04.29.37.57.74.86,1.11.68.68,1.49,1.15,2.42,1.41.49.07.97.13,1.46.2.99,0,1.91-.25,2.77-.75.54-.27,1.09-.54,1.63-.81.64-.34,1.15-.82,1.54-1.41.48-.53.81-1.15.98-1.87.23-.73.26-1.46.1-2.19Z"/>
          <path class="cls-9" d="M527.6,491.09c-.03-.73-.25-1.41-.65-2.04-.29-.37-.57-.74-.86-1.11-.68-.68-1.49-1.15-2.42-1.41-.49-.07-.97-.13-1.46-.2-.99,0-1.91.25-2.77.75-.27.14-.54.27-.81.41-.64.34-1.15.82-1.54,1.41-.48.53-.81,1.15-.98,1.87-.23.73-.26,1.46-.1,2.19.03.73.25,1.41.65,2.04.29.37.57.74.86,1.11.68.68,1.49,1.15,2.42,1.41.49.07.97.13,1.46.2.99,0,1.91-.25,2.77-.75.27-.14.54-.27.81-.41.64-.34,1.15-.82,1.54-1.41.49-.53.81-1.15.98-1.87.23-.73.26-1.46.1-2.19Z"/>
          <path class="cls-9" d="M502.71,535.99c-7.06,0-7.07,10.97,0,10.97s7.07-10.97,0-10.97Z"/>
          <path class="cls-9" d="M536.47,586.39c-.26-.93-.73-1.74-1.41-2.42-.37-.29-.74-.57-1.11-.86-.86-.5-1.78-.75-2.77-.75h-.81c-.76-.03-1.46.13-2.11.47-.68.22-1.27.6-1.77,1.13-.54.5-.91,1.09-1.13,1.77-.34.65-.5,1.36-.47,2.11.07.49.13.97.2,1.46.26.93.73,1.74,1.41,2.42l1.11.86c.86.5,1.78.75,2.77.75h.81c.76.03,1.46-.13,2.11-.47.68-.22,1.27-.6,1.77-1.13.54-.5.91-1.09,1.13-1.77.34-.65.5-1.36.47-2.11-.07-.49-.13-.97-.2-1.46Z"/>
          <path class="cls-9" d="M460.4,463.59c-7.06,0-7.07,10.97,0,10.97s7.07-10.97,0-10.97Z"/>
          <path class="cls-9" d="M467.52,372.67c-7.06,0-7.07,10.97,0,10.97s7.07-10.97,0-10.97Z"/>
          <path class="cls-9" d="M459.72,327.85c-.22-.68-.6-1.27-1.13-1.77-.5-.54-1.09-.91-1.77-1.13-.65-.34-1.36-.5-2.11-.47-.49.07-.97.13-1.46.2-.93.26-1.74.73-2.42,1.41l-.86,1.11c-.5.86-.75,1.78-.75,2.77v.61c-.03.76.13,1.46.47,2.11.22.68.6,1.27,1.13,1.77.5.54,1.09.91,1.77,1.13.65.34,1.36.5,2.11.47.49-.07.97-.13,1.46-.2.93-.26,1.74-.73,2.42-1.41l.86-1.11c.5-.86.75-1.78.75-2.77v-.61c.03-.76-.13-1.46-.47-2.11Z"/>
          <path class="cls-9" d="M411.39,285.42c-7.06,0-7.07,10.97,0,10.97s7.07-10.97,0-10.97Z"/>
          <path class="cls-9" d="M444.95,409.89c-7.06,0-7.07,10.97,0,10.97s7.07-10.97,0-10.97Z"/>
          <path class="cls-9" d="M515.52,301.65c-.26-.93-.73-1.74-1.41-2.42-.37-.29-.74-.57-1.11-.86-.86-.5-1.78-.75-2.77-.75h-.61c-.76-.03-1.46.13-2.11.47-.68.22-1.27.6-1.77,1.13-.54.5-.91,1.09-1.13,1.77-.34.65-.5,1.36-.47,2.11.07.49.13.97.2,1.46.26.93.73,1.74,1.41,2.42.37.29.74.57,1.11.86.86.5,1.78.75,2.77.75h.61c.76.03,1.46-.13,2.11-.47.68-.22,1.27-.6,1.77-1.13.54-.5.91-1.09,1.13-1.77.34-.65.5-1.36.47-2.11-.07-.49-.13-.97-.2-1.46Z"/>
          <path class="cls-9" d="M591.38,300.07c-7.06,0-7.07,10.97,0,10.97s7.07-10.97,0-10.97Z"/>
          <path class="cls-9" d="M378.57,349.2c-.22-.68-.6-1.27-1.13-1.77-.37-.29-.74-.57-1.11-.86-.86-.5-1.78-.75-2.77-.75-.49.07-.97.13-1.46.2-.93.26-1.74.73-2.42,1.41-.2.2-.41.41-.61.61-.54.5-.91,1.09-1.13,1.77-.34.65-.5,1.36-.47,2.11-.03.76.13,1.46.47,2.11.22.68.6,1.27,1.13,1.77.37.29.74.57,1.11.86.86.5,1.78.75,2.77.75.49-.07.97-.13,1.46-.2.93-.26,1.74-.73,2.42-1.41.2-.2.41-.41.61-.61.54-.5.91-1.09,1.13-1.77.34-.65.5-1.36.47-2.11.03-.76-.13-1.46-.47-2.11Z"/>
          <g>
            <path class="cls-21" d="M442.33,246.44c-6.73,0-6.74,10.45,0,10.45s6.74-10.45,0-10.45Z"/>
            <path class="cls-21" d="M440.01,265.39c-.16-.68-.47-1.27-.94-1.78-.37-.57-.86-1.02-1.47-1.35-.42-.18-.83-.35-1.25-.53-.93-.25-1.85-.25-2.78,0-.42.18-.83.35-1.25.53-.79.46-1.41,1.09-1.87,1.87-.13.26-.26.52-.39.77-.38.6-.59,1.25-.62,1.94-.16.69-.12,1.39.09,2.08.16.68.47,1.27.94,1.78.37.57.86,1.02,1.47,1.35.42.18.83.35,1.25.53.93.25,1.85.25,2.78,0,.42-.18.83-.35,1.25-.53.79-.46,1.41-1.09,1.87-1.87.13-.26.26-.52.39-.77.38-.6.59-1.25.62-1.94.16-.69.12-1.39-.09-2.08Z"/>
            <path class="cls-21" d="M428.9,281.03c-.21-.65-.57-1.21-1.08-1.68l-1.06-.82c-.82-.47-1.69-.71-2.64-.71-.46.06-.93.12-1.39.19-.89.25-1.65.7-2.31,1.34-.26.26-.52.52-.77.77-.51.47-.87,1.03-1.08,1.68-.33.62-.48,1.29-.45,2.01-.03.72.12,1.39.45,2.01.21.65.57,1.21,1.08,1.68.35.27.71.54,1.06.82.82.47,1.69.71,2.64.71.46-.06.93-.12,1.39-.19.89-.25,1.65-.7,2.31-1.34.26-.26.52-.52.77-.77.51-.47.87-1.03,1.08-1.68.33-.62.48-1.29.45-2.01.03-.72-.12-1.39-.45-2.01Z"/>
            <path class="cls-21" d="M416.69,297.5c-.16-.68-.47-1.27-.94-1.78-.37-.57-.86-1.02-1.47-1.35-.42-.18-.83-.35-1.25-.53-.93-.25-1.85-.25-2.78,0-.42.18-.83.35-1.25.53-.79.46-1.41,1.09-1.87,1.87-.24.4-.49.79-.73,1.19-.38.6-.59,1.25-.62,1.94-.16.69-.12,1.39.09,2.08.16.68.47,1.27.94,1.78.37.57.86,1.02,1.47,1.35.42.18.83.35,1.25.53.93.25,1.85.25,2.78,0,.42-.18.83-.35,1.25-.53.79-.46,1.41-1.09,1.87-1.87.24-.4.49-.79.73-1.19.38-.6.59-1.25.62-1.94.16-.69.12-1.39-.09-2.08Z"/>
            <path class="cls-21" d="M412.11,318.47c-.08-.2-.16-.39-.25-.59-.03-.19-.04-.38-.1-.57-.16-.68-.47-1.27-.94-1.78-.37-.57-.86-1.02-1.47-1.35-.42-.18-.83-.35-1.25-.53-.93-.25-1.85-.25-2.78,0-.42.18-.83.35-1.25.53-.79.46-1.41,1.09-1.87,1.87-.2.43-.39.87-.56,1.32,0,.03-.02.05-.03.08-.13.5-.18,1.03-.21,1.55,0,.06,0,.12,0,.18.05.48.1.98.2,1.46,0,.03.01.06.02.09.15.48.36.94.58,1.39.03.06.06.11.1.16l.82,1.06s0,.01.01.02c0,.01.02.02.03.03.02.02.04.04.06.06.01.01.02.02.03.03.18.14.36.28.54.42.18.14.36.28.54.42.02.02.05.04.08.05.6.38,1.25.59,1.94.62.69.16,1.39.12,2.08-.09.68-.16,1.27-.47,1.78-.94.57-.37,1.02-.86,1.35-1.47.18-.42.35-.83.53-1.25.25-.93.25-1.85,0-2.78Z"/>
            <path class="cls-21" d="M425.29,336.28c-.18-.42-.35-.83-.53-1.25-.46-.79-1.09-1.41-1.87-1.87-.39-.26-.77-.52-1.16-.77-.6-.38-1.25-.59-1.94-.62-.69-.16-1.39-.12-2.08.09-.68.16-1.27.47-1.78.94-.57.37-1.02.86-1.35,1.47-.18.42-.35.83-.53,1.25-.25.93-.25,1.85,0,2.78.18.42.35.83.53,1.25.46.79,1.09,1.41,1.87,1.87.39.26.77.52,1.16.77.6.38,1.25.59,1.94.62.69.16,1.39.12,2.08-.09.68-.16,1.27-.47,1.78-.94.57-.37,1.02-.86,1.35-1.47.18-.42.35-.83.53-1.25.25-.93.25-1.85,0-2.78Z"/>
            <path class="cls-21" d="M437.68,332.06c-6.73,0-6.74,10.45,0,10.45s6.74-10.45,0-10.45Z"/>
            <path class="cls-21" d="M464.38,326.58c-.16-.68-.47-1.27-.94-1.78-.37-.57-.86-1.02-1.47-1.35-.42-.18-.83-.35-1.25-.53-.93-.25-1.85-.25-2.78,0-.42.18-.83.35-1.25.53-.79.46-1.41,1.09-1.87,1.87-.26.52-.52,1.03-.77,1.55-.38.6-.59,1.25-.62,1.94-.16.69-.12,1.39.09,2.08.16.68.47,1.27.94,1.78.37.57.86,1.02,1.47,1.35.42.18.83.35,1.25.53.93.25,1.85.25,2.78,0,.42-.18.83-.35,1.25-.53.79-.46,1.41-1.09,1.87-1.87l.78-1.55c.38-.6.59-1.25.62-1.94.16-.69.12-1.39-.09-2.08Z"/>
            <path class="cls-21" d="M478.43,314.08c-.03-.7-.24-1.34-.62-1.94-.27-.35-.54-.71-.82-1.06-.65-.65-1.42-1.1-2.31-1.34-.46-.06-.93-.12-1.39-.19-.94,0-1.82.24-2.64.71-.26.13-.52.26-.77.39-.61.33-1.1.78-1.47,1.35-.46.5-.77,1.1-.94,1.78-.22.69-.25,1.39-.09,2.08.03.7.24,1.34.62,1.94.27.35.54.71.82,1.06.65.65,1.42,1.1,2.31,1.34.46.06.93.12,1.39.19.94,0,1.82-.24,2.64-.71.26-.13.52-.26.77-.39.61-.33,1.1-.78,1.47-1.35.46-.5.77-1.1.94-1.78.22-.69.25-1.39.09-2.08Z"/>
            <path class="cls-21" d="M486.49,296.03c-6.73,0-6.74,10.45,0,10.45s6.74-10.45,0-10.45Z"/>
            <path class="cls-21" d="M503.28,284.13c-.21-.65-.57-1.21-1.08-1.68-.47-.51-1.03-.87-1.68-1.08-.62-.33-1.29-.48-2.01-.45-.46.06-.93.12-1.39.19-.89.25-1.65.7-2.31,1.34-.27.35-.54.71-.82,1.06-.47.82-.71,1.69-.71,2.64v.77c-.03.72.12,1.39.45,2.01.21.65.57,1.21,1.08,1.68.47.51,1.03.87,1.68,1.08.62.33,1.29.48,2.01.45.46-.06.93-.12,1.39-.19.89-.25,1.65-.7,2.31-1.34l.82-1.06c.47-.82.71-1.69.71-2.64v-.77c.03-.72-.12-1.39-.45-2.01Z"/>
            <path class="cls-21" d="M511.41,267.09c-.21-.65-.57-1.21-1.08-1.68-.47-.51-1.03-.87-1.68-1.08-.62-.33-1.29-.48-2.01-.45-.46.06-.93.12-1.39.19-.89.25-1.65.7-2.31,1.34-.27.35-.54.71-.82,1.06-.47.82-.71,1.69-.71,2.64v.39c-.03.72.12,1.39.45,2.01.21.65.57,1.21,1.08,1.68.47.51,1.03.87,1.68,1.08.62.33,1.29.48,2.01.45.46-.06.93-.12,1.39-.19.89-.25,1.65-.7,2.31-1.34.27-.35.54-.71.82-1.06.47-.82.71-1.69.71-2.64v-.39c.03-.72-.12-1.39-.45-2.01Z"/>
            <path class="cls-21" d="M512.06,244.5c-6.73,0-6.74,10.45,0,10.45s6.74-10.45,0-10.45Z"/>
            <path class="cls-21" d="M508.57,229.4c-6.73,0-6.74,10.45,0,10.45s6.74-10.45,0-10.45Z"/>
          </g>
        </g>
      </g>
    </g>
  </g>
</svg>