<?xml version="1.0" encoding="utf-8"?>
<!-- Generator: Adobe Illustrator 28.3.0, SVG Export Plug-In . SVG Version: 6.00 Build 0)  -->
<svg version="1.1" id="圖層_1" xmlns="http://www.w3.org/2000/svg" xmlns:xlink="http://www.w3.org/1999/xlink" x="0px" y="0px"
	 viewBox="0 0 512 512" style="enable-background:new 0 0 512 512;" xml:space="preserve">
<style type="text/css">
	.st0{fill:#F29B9B;}
</style>
<g id="_01_align_center">
	<path class="st0" d="M57,155.6c-20.1,5.7-31.6,26.6-25.9,46.6c1.8,6.2,5,11.8,9.5,16.3l64.3,64.2v124.1h124.3l64.8,64.7
		c7,7.1,16.6,11,26.5,11c3.3,0,6.5-0.4,9.6-1.2c12.9-3.3,23.1-13.2,26.8-26L482,30.2L57,155.6z M67.5,191.8l320.9-94.6L142.8,342.5
		v-75.4L67.5,191.8z M320.8,444.9l-75.9-75.7h-75.4l245.6-245.5L320.8,444.9z"/>
</g>
</svg>
