<?xml version="1.0" encoding="UTF-8"?><svg id="_圖層_1" xmlns="http://www.w3.org/2000/svg" viewBox="0 0 277.2 52.44"><defs><style>.cls-1{fill:#6c6b68;}.cls-2{fill:#3c3a39;}.cls-3{fill:#7878b1;}.cls-4{fill:#ca0360;}.cls-5{fill:#4760a5;}.cls-6{fill:#80caef;}</style></defs><g><path class="cls-1" d="M126.47,41.98c0,1.11-.45,1.87-1.36,2.28,.84,.28,1.41,.78,1.71,1.51,.11,.29,.17,.62,.17,.99,0,1.22-.65,2.04-1.94,2.45-.43,.14-.93,.21-1.51,.21h-4.8v-10.12h4.54c1.09,0,1.92,.3,2.49,.89,.47,.47,.7,1.06,.7,1.79Zm-6.59,1.85h3.39c.94,0,1.56-.32,1.88-.96,.11-.22,.17-.46,.17-.72s-.04-.49-.11-.69c-.07-.2-.18-.38-.34-.53-.34-.36-.83-.54-1.48-.54h-3.52v3.44Zm3.78,4.51c.7,0,1.24-.14,1.62-.44,.38-.29,.57-.7,.57-1.23s-.18-.93-.55-1.25c-.41-.37-.99-.55-1.76-.55h-3.65v3.47h3.78Z"/><path class="cls-1" d="M130.18,39v1.5h-1.24v-1.5h1.24Zm-1.19,2.78h1.15v7.64h-1.15v-7.64Z"/><path class="cls-1" d="M135.82,41.65c1.14,0,2.07,.38,2.78,1.15,.67,.73,1.01,1.67,1.01,2.8s-.34,2.06-1.01,2.8c-.71,.76-1.64,1.14-2.78,1.14s-2.07-.38-2.78-1.14c-.67-.73-1.01-1.67-1.01-2.8s.34-2.06,1.01-2.8c.71-.76,1.64-1.15,2.78-1.15Zm0,6.85c.83,0,1.48-.29,1.96-.86,.46-.54,.69-1.22,.69-2.05s-.23-1.51-.69-2.05c-.48-.57-1.13-.86-1.96-.86s-1.48,.29-1.96,.86c-.46,.54-.69,1.22-.69,2.05s.23,1.51,.69,2.05c.48,.57,1.13,.86,1.96,.86Z"/><path class="cls-1" d="M144.03,39.58c.61-.27,1.24-.4,1.89-.4s1.22,.07,1.7,.21c.48,.14,.91,.34,1.3,.58,.8,.52,1.4,1.21,1.77,2.08h-1.25c-.31-.55-.73-.98-1.28-1.29-.54-.31-1.16-.47-1.86-.47s-1.28,.1-1.77,.31c-.49,.21-.9,.5-1.24,.86-.69,.75-1.04,1.72-1.04,2.89s.34,2.14,1.02,2.89c.72,.78,1.68,1.18,2.87,1.18,.96,0,1.78-.29,2.48-.89,.73-.62,1.1-1.44,1.1-2.46h-3.7v-1.04h4.75v5.38h-1.05v-1.79c-.58,.88-1.38,1.46-2.41,1.76-.38,.1-.87,.15-1.49,.15s-1.23-.13-1.84-.4c-.61-.27-1.13-.64-1.56-1.11-.88-.96-1.31-2.18-1.31-3.67s.45-2.69,1.36-3.67c.43-.47,.95-.84,1.56-1.11Z"/><path class="cls-1" d="M156.34,48.5c1.03,0,1.77-.43,2.21-1.28h1.25c-.27,.69-.69,1.25-1.26,1.68-.58,.43-1.32,.64-2.22,.64-1.15,0-2.09-.38-2.81-1.14-.7-.74-1.05-1.68-1.05-2.8s.34-2.06,1.01-2.8c.71-.76,1.64-1.15,2.78-1.15s2.07,.38,2.78,1.15c.67,.73,1.01,1.67,1.01,2.8v.46h-6.4c.08,.7,.36,1.29,.84,1.74,.49,.47,1.11,.7,1.87,.7Zm-.09-5.81c-.7,0-1.29,.22-1.77,.66-.45,.42-.72,.96-.82,1.63h5.2c-.1-.67-.38-1.22-.83-1.63-.48-.44-1.07-.66-1.77-.66Z"/><path class="cls-1" d="M162.98,41.78v1.19c.28-.37,.61-.68,1.01-.93,.4-.25,.85-.38,1.36-.38s.95,.07,1.31,.21c.37,.14,.69,.36,.96,.64,.63,.62,.95,1.44,.95,2.46v4.45h-1.15v-4.42c0-.7-.2-1.26-.6-1.68-.4-.42-.91-.63-1.54-.63s-1.19,.21-1.64,.64c-.45,.44-.67,1-.67,1.68v4.4h-1.15v-7.64h1.15Z"/><path class="cls-1" d="M176.82,48.2c-.61,.9-1.52,1.34-2.73,1.34-1.1,0-2-.38-2.69-1.14-.67-.75-1.01-1.69-1.01-2.8s.34-2.04,1.01-2.8c.69-.76,1.61-1.15,2.77-1.15s2.04,.45,2.66,1.36v-4.29h1.15v10.7h-1.15v-1.22Zm-2.58,.3c.83,0,1.48-.29,1.96-.86,.46-.54,.69-1.22,.69-2.05s-.23-1.51-.69-2.05c-.48-.57-1.13-.86-1.96-.86s-1.48,.29-1.99,.86c-.48,.54-.72,1.22-.72,2.05s.24,1.51,.72,2.05c.51,.57,1.17,.86,1.99,.86Z"/><path class="cls-1" d="M191.4,40.4h-3.53v9.02h-1.15v-9.02h-3.53v-1.1h8.2v1.1Z"/><path class="cls-1" d="M194.13,38.72v4.25c.28-.37,.61-.68,1.01-.93,.4-.25,.85-.38,1.36-.38s.95,.07,1.31,.21c.37,.14,.69,.36,.96,.64,.63,.62,.95,1.44,.95,2.46v4.45h-1.15v-4.42c0-.7-.2-1.26-.6-1.68-.4-.42-.91-.63-1.54-.63s-1.19,.21-1.63,.64c-.45,.44-.67,1-.67,1.68v4.4h-1.15v-10.7h1.15Z"/><path class="cls-1" d="M205.43,48.5c1.03,0,1.77-.43,2.22-1.28h1.25c-.26,.69-.68,1.25-1.26,1.68-.58,.43-1.32,.64-2.22,.64-1.15,0-2.09-.38-2.81-1.14-.7-.74-1.05-1.68-1.05-2.8s.34-2.06,1.01-2.8c.71-.76,1.64-1.15,2.78-1.15s2.07,.38,2.78,1.15c.67,.73,1.01,1.67,1.01,2.8v.46h-6.4c.08,.7,.36,1.29,.84,1.74,.49,.47,1.11,.7,1.86,.7Zm-.09-5.81c-.7,0-1.29,.22-1.77,.66-.45,.42-.72,.96-.83,1.63h5.2c-.1-.67-.38-1.22-.83-1.63-.48-.44-1.07-.66-1.77-.66Z"/><path class="cls-1" d="M214.94,41.65v1.15h-.14c-.82,0-1.5,.33-2.02,.99-.49,.63-.73,1.38-.73,2.26v3.36h-1.15v-7.64h1.15v1.88c.24-.79,.77-1.38,1.59-1.76,.34-.16,.74-.24,1.22-.24h.08Z"/><path class="cls-1" d="M222.33,48.2c-.61,.9-1.52,1.34-2.74,1.34-1.1,0-2-.38-2.69-1.14-.67-.75-1.01-1.69-1.01-2.8s.34-2.04,1.01-2.8c.69-.76,1.62-1.15,2.77-1.15s2.04,.45,2.66,1.36v-1.24h1.15v7.64h-1.15v-1.22Zm-2.58,.3c.83,0,1.48-.29,1.96-.86,.46-.54,.69-1.22,.69-2.05s-.23-1.51-.69-2.05c-.48-.57-1.13-.86-1.96-.86s-1.48,.29-1.99,.86c-.48,.54-.72,1.22-.72,2.05s.24,1.51,.72,2.05c.51,.57,1.17,.86,1.99,.86Z"/><path class="cls-1" d="M226.99,43c.61-.9,1.52-1.35,2.74-1.35,1.1,0,1.99,.38,2.67,1.15,.68,.75,1.02,1.69,1.02,2.8s-.34,2.04-1.02,2.8c-.68,.76-1.6,1.14-2.75,1.14s-2.04-.45-2.66-1.36v4.26h-1.15v-10.67h1.15v1.22Zm2.58-.31c-.83,0-1.48,.29-1.96,.86-.46,.54-.69,1.22-.69,2.05s.23,1.51,.69,2.05c.48,.57,1.13,.86,1.96,.86s1.48-.29,1.99-.86c.48-.54,.72-1.22,.72-2.05s-.24-1.51-.72-2.05c-.51-.57-1.17-.86-1.99-.86Z"/><path class="cls-1" d="M238.71,48.5c1.03,0,1.77-.43,2.22-1.28h1.25c-.26,.69-.68,1.25-1.26,1.68-.58,.43-1.32,.64-2.22,.64-1.15,0-2.09-.38-2.81-1.14-.7-.74-1.05-1.68-1.05-2.8s.34-2.06,1.01-2.8c.71-.76,1.64-1.15,2.78-1.15s2.07,.38,2.78,1.15c.67,.73,1.01,1.67,1.01,2.8v.46h-6.4c.08,.7,.36,1.29,.84,1.74,.49,.47,1.11,.7,1.86,.7Zm-.09-5.81c-.7,0-1.29,.22-1.77,.66-.45,.42-.72,.96-.83,1.63h5.2c-.1-.67-.38-1.22-.83-1.63-.48-.44-1.07-.66-1.77-.66Z"/><path class="cls-1" d="M249.71,49.42v-1.19c-.27,.37-.61,.68-1.01,.93-.4,.25-.85,.38-1.36,.38s-.95-.07-1.31-.21c-.37-.14-.69-.36-.96-.64-.63-.62-.95-1.44-.95-2.46v-4.45h1.15v4.42c0,.7,.2,1.26,.6,1.68,.4,.42,.91,.62,1.54,.62s1.19-.21,1.63-.64c.45-.44,.67-1,.67-1.68v-4.4h1.15v7.64h-1.15Z"/><path class="cls-1" d="M254.05,49.42v-6.63h-1.56v-1.01h1.56v-2.74h1.15v2.74h1.76v1.01h-1.76v6.63h-1.15Z"/><path class="cls-1" d="M259.78,39v1.5h-1.24v-1.5h1.24Zm-1.19,2.78h1.15v7.64h-1.15v-7.64Z"/><path class="cls-1" d="M265.63,48.5c.49,0,.92-.14,1.3-.41,.38-.28,.65-.63,.82-1.07h1.24c-.23,.75-.66,1.36-1.28,1.82-.65,.47-1.43,.7-2.32,.7-1.12,0-2.03-.38-2.74-1.14-.68-.74-1.02-1.68-1.02-2.8s.34-2.05,1.02-2.8c.7-.76,1.61-1.15,2.74-1.15,.9,0,1.67,.23,2.32,.7,.62,.46,1.05,1.06,1.28,1.82h-1.24c-.17-.44-.45-.79-.82-1.07-.38-.27-.81-.41-1.3-.41s-.9,.08-1.25,.23c-.34,.15-.63,.36-.86,.62-.5,.55-.75,1.23-.75,2.05s.25,1.5,.75,2.05c.51,.57,1.21,.86,2.11,.86Z"/><path class="cls-1" d="M275.23,43.82c-.1-.79-.74-1.19-1.92-1.19s-1.76,.37-1.76,1.1c0,.31,.12,.54,.37,.7s.56,.29,.94,.39c.38,.1,.79,.2,1.23,.28,.44,.09,.85,.21,1.23,.37,.38,.16,.69,.38,.94,.65s.38,.65,.38,1.13c0,.74-.28,1.31-.84,1.7-.56,.39-1.32,.59-2.28,.59-1.02,0-1.83-.25-2.43-.76-.55-.45-.85-1.03-.89-1.76h1.19c.07,.7,.47,1.18,1.19,1.42,.26,.08,.53,.12,.79,.12s.5-.02,.73-.05c.22-.03,.44-.09,.66-.17,.49-.19,.73-.52,.73-.99,0-.32-.12-.56-.38-.73-.25-.17-.56-.31-.94-.41-.38-.11-.79-.21-1.23-.29-.44-.09-.85-.21-1.23-.36-.38-.15-.69-.36-.94-.63-.25-.26-.37-.63-.37-1.1,0-.69,.25-1.23,.76-1.61,.5-.38,1.25-.57,2.24-.57s1.68,.22,2.22,.67c.45,.38,.71,.88,.78,1.5h-1.16Z"/></g><g><path class="cls-2" d="M124.58,11.54c.47,.02,.71,.26,.73,.73-.02,.47-.26,.71-.73,.73h-2.16V31.31c-.06,.45-.31,.68-.76,.7-.55-.02-.83-.25-.85-.7V13h-2.07c-.47-.02-.71-.26-.73-.73,.02-.47,.26-.71,.73-.73h2.07V3.86c.02-.47,.3-.71,.85-.73,.45,.02,.7,.26,.76,.73v7.68h2.16Zm21.24,11.21c.45,.02,.68,.27,.7,.76-.02,.45-.25,.68-.7,.7h-4.42v4.88c0,1.79-.9,2.68-2.71,2.68-.91,0-2.09-.24-3.53-.73-.2-.29-.33-.49-.37-.61,.02-.61,.26-.93,.73-.98,.08,0,.17,0,.27,.03,1.04,.45,1.96,.69,2.77,.73,.81,0,1.22-.41,1.22-1.22v-4.78h-14.87c-.47-.02-.71-.25-.73-.7,.02-.49,.26-.74,.73-.76h14.87v-1.46c.02-.55,.27-.83,.75-.85,.54,.02,.83,.3,.87,.85v1.46h4.42Zm-.4-16.94c.47,.02,.71,.26,.73,.73-.02,.47-.26,.71-.73,.73h-9.26v1.98h6.22c1.54,0,2.32,.76,2.32,2.29v9.14c0,.57-.25,.85-.75,.85-.58,0-.87-.28-.87-.85v-2.07h-6.92v1.83c-.02,.47-.27,.72-.75,.76-.56-.04-.85-.29-.87-.76v-1.83h-6.79v2.07c0,.57-.29,.85-.87,.85-.5,0-.74-.28-.74-.85V11.54c0-1.52,.77-2.29,2.31-2.29h6.09v-1.98h-8.9c-.45-.02-.69-.26-.73-.73,.04-.47,.28-.71,.73-.73h8.9v-1.95c.02-.47,.31-.71,.87-.73,.48,.02,.72,.26,.75,.73v1.95h6.22c-.71-.45-1.52-.81-2.44-1.1-.37-.06-.57-.29-.61-.7,.04-.39,.24-.6,.61-.64,.14,0,.35,.04,.61,.12,1.02,.26,1.91,.63,2.68,1.1,.14,.14,.22,.35,.24,.61,0,.3-.08,.51-.24,.61h2.19Zm-17.67,7.47h6.79v-2.56h-5.82c-.65,0-.97,.31-.97,.94v1.62Zm0,3.9h6.79v-2.47h-6.79v2.47Zm.98,8.14c.24,0,.49,.08,.73,.24,.67,.65,1.22,1.22,1.65,1.71,.45,.55,.92,1.2,1.4,1.95,.08,.2,.12,.41,.12,.61-.06,.45-.3,.69-.73,.73-.32,0-.57-.11-.73-.33-.43-.69-.85-1.29-1.28-1.8-.39-.47-.89-1.02-1.52-1.65-.24-.32-.37-.61-.37-.85,.1-.33,.35-.53,.73-.61Zm7.43-14.6v2.56h6.92v-1.62c0-.63-.32-.94-.97-.94h-5.95Zm0,3.99v2.47h6.92v-2.47h-6.92Z"/><path class="cls-2" d="M188.37,16.53c.43,.04,.67,.29,.73,.76-.06,.43-.3,.66-.73,.7h-10.06c.14,.79,.33,1.58,.55,2.38,.53,1.81,1.33,3.46,2.41,4.97,.24,.39,.55,.78,.91,1.19,.49-.57,.9-1.16,1.25-1.77,.61-1.06,1.08-2.29,1.4-3.69,.16-.35,.42-.52,.76-.52,.41,.04,.64,.25,.7,.64,0,.04-.03,.16-.09,.37-.35,1.38-.78,2.57-1.31,3.56-.49,.87-1.07,1.68-1.74,2.41,.2,.2,.42,.4,.64,.58,.79,.67,1.57,1.2,2.35,1.58,.3,.16,.56,.24,.76,.24,.24,0,.42-.11,.52-.33,.47-1.12,.74-2.25,.82-3.41,.04-.39,.24-.6,.61-.64,.55,.02,.83,.27,.85,.76-.1,1.81-.42,3.25-.94,4.33-.3,.67-.88,1.01-1.74,1.01-.51,0-1.17-.22-1.98-.67-1.18-.71-2.2-1.48-3.08-2.32l-.03,.06c-.87,.67-1.88,1.27-3.02,1.8-.87,.43-1.8,.79-2.77,1.1-.04,.02-.11,.03-.21,.03-.53-.04-.81-.33-.85-.85,.02-.3,.26-.5,.73-.58,1.04-.3,1.97-.67,2.8-1.1,.94-.49,1.74-.98,2.41-1.46-.14-.16-.26-.33-.37-.49-1.12-1.38-2-2.95-2.65-4.69-.47-1.3-.84-2.79-1.13-4.48h-10.45c-.81,0-1.22,.41-1.22,1.22v2.44h6.83c1.46,0,2.19,.73,2.19,2.19,0,1.28-.09,2.4-.27,3.35-.26,1.22-.65,2-1.16,2.35-.61,.45-1.39,.67-2.35,.67-.89,0-1.99-.25-3.29-.76-.45-.12-.69-.36-.73-.7,.04-.63,.32-.97,.85-1.01,.14,0,.29,.03,.46,.09,1.28,.43,2.18,.64,2.71,.64,.45,0,.82-.1,1.13-.3,.26-.14,.5-.56,.7-1.25,.24-.71,.37-1.61,.37-2.71,0-.73-.37-1.1-1.1-1.1h-6.34c0,1.34-.2,2.89-.59,4.66-.37,1.24-.84,2.37-1.39,3.38-.12,.32-.41,.49-.85,.49-.47-.02-.71-.3-.73-.85,.77-1.6,1.27-2.88,1.49-3.84,.3-1.52,.46-2.8,.46-3.84v-4.02c0-1.71,.86-2.56,2.59-2.56h10.45c-.08-.55-.15-1.12-.21-1.71,.08-.49,.32-.73,.73-.73,.43,.06,.67,.3,.73,.73,.04,.55,.1,1.12,.18,1.71h10.3Zm-21.57-12.19h18.04c1.54,0,2.32,.78,2.32,2.35v4.6c0,1.54-.77,2.32-2.32,2.32h-18.04c-1.54,0-2.32-.77-2.32-2.32V6.69c0-1.56,.77-2.35,2.32-2.35Zm-.7,3.9h19.5v-1.43c0-.67-.33-1.01-1.01-1.01h-17.55c-.63,0-.95,.33-.95,1.01v1.43Zm18.5,3.9c.67,0,1.01-.32,1.01-.97v-1.46h-19.5v1.46c0,.65,.32,.97,.95,.97h17.55Zm-1.71,1.71c.2,0,.41,.08,.61,.24,.34,.22,.63,.42,.85,.58,.22,.18,.47,.4,.73,.64,.08,.2,.12,.42,.12,.64-.06,.34-.3,.54-.73,.58-.26,0-.47-.12-.61-.37-.2-.18-.41-.36-.61-.52-.2-.12-.45-.27-.73-.46-.24-.28-.37-.52-.37-.7,.1-.35,.35-.56,.73-.64Z"/><path class="cls-2" d="M211.55,6.42c.53,.02,.81,.26,.85,.73-.26,1.61-.58,2.99-.95,4.14h8.01V4.35c.02-.47,.27-.71,.75-.73,.54,.02,.83,.26,.87,.73v6.95h10.12c.47,.02,.71,.27,.73,.76-.02,.45-.26,.68-.73,.7h-10.12v7.31h9.51c.47,.02,.71,.26,.73,.73-.02,.47-.26,.71-.73,.73h-9.51v7.56h11.82c.47,.02,.71,.26,.73,.73-.02,.47-.26,.71-.73,.73h-26.36c-.47-.02-.7-.26-.7-.73s.23-.71,.7-.73h12.92v-7.56h-9.26c-.47-.02-.71-.26-.73-.73,.02-.47,.26-.71,.73-.73h9.26v-7.31h-8.59c-.65,1.73-1.73,3.51-3.23,5.36-.22,.24-.51,.38-.85,.4-.38-.1-.63-.36-.73-.76,.02-.16,.1-.4,.24-.7,1.24-1.26,2.22-2.72,2.96-4.39,.63-1.24,1.15-3.12,1.55-5.64,.02-.39,.26-.59,.73-.61Z"/><path class="cls-2" d="M276.59,17.88c.39,.02,.59,.26,.61,.73-.02,.39-.22,.59-.61,.61h-9.38v1.74h6.09c1.3,0,1.95,.64,1.95,1.92v6.58c0,1.32-.65,1.98-1.95,1.98h-19.75c-1.3,0-1.95-.66-1.95-1.98v-6.58c0-1.28,.65-1.92,1.95-1.92h5.36v-1.62c.02-.06,.03-.1,.03-.12h-9.17c-.39-.02-.59-.22-.61-.61,.02-.47,.22-.71,.61-.73h26.81Zm-14.75-13.86c.57,0,.85,.23,.85,.7,0,.43-.28,.64-.85,.64h-6.34c.12,.1,.2,.25,.24,.46l-.03,.06c-.08,.28-.19,.6-.34,.94h5.24c.37,0,.58,.19,.64,.58-.06,.39-.27,.6-.64,.64h-2.1c-.04,.79-.08,1.43-.12,1.92h3.08c.39,.02,.59,.23,.61,.64-.02,.37-.22,.56-.61,.58h-2.92c.93,.45,1.75,1.02,2.44,1.71,.14,.12,.23,.33,.27,.61-.06,.39-.27,.59-.64,.61h-.37c-.69-.81-1.5-1.46-2.44-1.95h-.03c-.08,.14-.17,.26-.28,.37-.39,.47-.92,.84-1.61,1.13-.65,.29-1.46,.52-2.44,.7-.49-.04-.74-.28-.76-.73,.04-.33,.24-.53,.61-.61,.59-.1,1.13-.24,1.62-.43,.45-.16,.83-.38,1.16-.64,.24-.2,.45-.46,.61-.76h-3.38c-.39-.02-.59-.21-.61-.58,.02-.41,.22-.62,.61-.64h3.72v-.03c.06-.55,.11-1.18,.15-1.89h-2.62c-.08,.08-.16,.16-.24,.24-.3,.33-.64,.6-1.01,.82-.08,.08-.2,.13-.37,.15-.35-.08-.55-.25-.61-.52,.02-.22,.06-.42,.12-.58,.28-.2,.52-.38,.7-.52,.37-.28,.63-.56,.79-.82,.22-.33,.42-.7,.58-1.13,.02-.14,.08-.25,.18-.33h-2.01c-.73,0-1.1,.36-1.1,1.07v7.56c0,.73,.37,1.1,1.1,1.1h8.9c.57,0,.85,.25,.85,.76,0,.39-.29,.58-.85,.58h-9.51c-1.3,0-1.95-.64-1.95-1.92V5.93c0-1.28,.65-1.92,1.95-1.92h9.75Zm-8.78,23.01h20.72v-1.58h-6.09c-1.3,0-1.95-.64-1.95-1.92v-1.22h-5.36c0,.89-.3,1.59-.91,2.1-.47,.47-1.15,.82-2.04,1.07-.83,.24-2.25,.44-4.24,.58-.06,0-.1-.01-.12-.03v1.01Zm0-2.44c1.6-.12,2.71-.24,3.32-.37,.81-.12,1.43-.35,1.86-.7,.45-.3,.67-.71,.67-1.22h-4.63c-.81,0-1.22,.41-1.22,1.22v1.07Zm19.5,5.51c.81,0,1.22-.41,1.22-1.22v-.64h-20.72v.64c0,.81,.41,1.22,1.22,1.22h18.28Zm-6.83-9.14v-1.74h-5.36v1.74h5.36Zm2.8-16.94h3.05c1.3,0,1.95,.64,1.95,1.92v1.1c0,.41,.2,.61,.61,.61h.24c.37,0,.65-.06,.85-.18,.2-.1,.33-.24,.37-.43l.12-.49c.06-.47,.3-.71,.73-.73,.45,.06,.69,.3,.73,.73-.06,.95-.24,1.59-.55,1.92-.29,.3-.63,.48-1.04,.52h-1.83c-1.14,0-1.71-.57-1.71-1.71v-1.22c0-.47-.33-.7-.97-.7h-3.66c-.49,0-.73,.23-.73,.7,0,.55-.07,.97-.21,1.28-.22,.39-.55,.71-.98,.98-.41,.24-.93,.46-1.58,.64-.06,0-.11,.01-.15,.03-.55-.06-.83-.3-.85-.73,.02-.37,.18-.61,.49-.73,.41-.08,.74-.17,1.01-.27,.24-.1,.45-.24,.61-.43,.14-.14,.21-.4,.21-.76,0-1.36,.65-2.04,1.95-2.04h1.34Zm-4.39,6.06h9.75c.89,0,1.34,.33,1.34,.98,0,.28-.17,.62-.52,1.01-1.18,1.18-2.28,2.04-3.29,2.59,1.1,.26,2.73,.57,4.91,.91,.28,.14,.46,.39,.52,.73-.08,.37-.29,.57-.64,.61-.12,0-.33-.02-.61-.06-2.13-.34-4-.78-5.61-1.31-.1-.04-.2-.08-.3-.12-1.5,.59-3.43,1.05-5.79,1.37-.45-.06-.69-.3-.73-.73,.04-.34,.24-.55,.61-.61,1.67-.2,3.02-.45,4.05-.73-.33-.14-.63-.3-.91-.49-.83-.47-1.51-1-2.04-1.58-.08-.16-.12-.32-.12-.49,.02-.37,.22-.57,.61-.61,.24,0,.45,.13,.61,.4,.55,.53,1.23,1,2.04,1.43,.45,.24,.99,.48,1.64,.7,.57-.22,1.11-.51,1.62-.85,.77-.51,1.43-1.05,1.98-1.61,.1-.08,.15-.14,.15-.18,0-.08-.15-.12-.46-.12h-8.81c-.39-.04-.59-.23-.61-.58,.02-.39,.22-.6,.61-.64Zm3.05,12.22v.82c0,.65,.33,.98,.98,.98h5.61v-.58c0-.81-.41-1.22-1.22-1.22h-5.36Z"/></g><g><rect class="cls-6" x="73.75" y="21.25" width="21.25" height="7.5"/><path class="cls-6" d="M70,42.5c-9.67,0-17.5-7.83-17.5-17.5s7.83-17.5,17.5-17.5c6.98,0,13,4.09,15.81,10h8.04C90.67,7.36,81.19,0,70,0c-7.04,0-13.4,2.92-17.94,7.6,1.08,2.02,1.69,4.32,1.69,6.77,0,4.21-1.81,8-4.69,10.62,2.88,2.63,4.69,6.42,4.69,10.62,0,2.45-.61,4.75-1.69,6.77,4.54,4.69,10.9,7.6,17.94,7.6,11.19,0,20.67-7.36,23.85-17.5h-8.04c-2.81,5.91-8.83,10-15.81,10Z"/><polygon class="cls-4" points="7.5 36.25 15 36.25 15 28.75 22.5 28.75 22.5 21.25 15 21.25 15 13.75 7.5 13.75 7.5 21.25 0 21.25 0 28.75 7.5 28.75 7.5 36.25"/><path class="cls-3" d="M52.06,7.6c-2.42-4.52-7.19-7.6-12.68-7.6H7.5V11.25h7.5v-3.75h24.38c3.8,0,6.88,3.08,6.88,6.88s-3.08,6.88-6.88,6.88h-14.38v7.5h14.38c3.8,0,6.88,3.08,6.88,6.88s-3.08,6.88-6.88,6.88H15v-3.75H7.5v11.25h31.88c5.49,0,10.26-3.08,12.68-7.6-4.36-4.5-7.06-10.63-7.06-17.4s2.69-12.9,7.06-17.4Z"/><path class="cls-5" d="M49.06,25c2.88-2.63,4.69-6.42,4.69-10.62,0-2.45-.61-4.75-1.69-6.77-4.36,4.5-7.06,10.63-7.06,17.4s2.69,12.9,7.06,17.4c1.08-2.02,1.69-4.32,1.69-6.77,0-4.21-1.81-8-4.69-10.62Z"/></g></svg>