<?xml version="1.0" encoding="UTF-8"?><svg id="_圖層_1" xmlns="http://www.w3.org/2000/svg" viewBox="0 0 601.28 145.28"><defs><style>.cls-1{fill:#fff;}.cls-2{fill:#323333;}.cls-3{fill:#ac2a2c;}</style></defs><g><path class="cls-3" d="M272.4,121.48v2.89h-6.49v16.27h-3.26v-16.27h-6.49v-2.89h16.24Z"/><path class="cls-3" d="M290.07,121.48v19.16h-3.23v-8.31h-8.73v8.31h-3.26v-19.16h3.26v7.87h8.73v-7.87h3.23Z"/><path class="cls-3" d="M306.26,121.48v2.99h-8.83v5.04h7.71v2.84h-7.71v5.28h7.64l1.4,3h-12.3v-19.16h12.09Z"/><path class="cls-3" d="M332.3,121.48l-9.08,19.45h-.1l-9.1-19.45h3.58l5.58,12.54,5.59-12.54h3.54Z"/><path class="cls-3" d="M336.09,123.97c1.85-1.89,4.18-2.83,6.98-2.83s5.12,.94,6.97,2.83c1.85,1.89,2.77,4.25,2.77,7.1s-.92,5.24-2.77,7.11c-1.85,1.87-4.18,2.81-6.98,2.81s-5.14-.94-6.98-2.81c-1.85-1.87-2.77-4.24-2.77-7.11s.93-5.21,2.78-7.1Zm6.97,.17c-1.89,0-3.44,.65-4.63,1.95-1.2,1.3-1.79,2.96-1.79,4.98s.6,3.67,1.79,4.96c1.2,1.29,2.74,1.94,4.63,1.94s3.43-.65,4.63-1.94c1.21-1.29,1.81-2.95,1.81-4.96s-.6-3.67-1.81-4.98c-1.2-1.3-2.75-1.95-4.63-1.95Z"/><path class="cls-3" d="M358.92,121.48v19.16h-3.26v-19.16h3.26Z"/><path class="cls-3" d="M371.5,121.14c2.72,0,4.99,.95,6.84,2.84l-2.06,2.35c-1.3-1.46-2.89-2.19-4.77-2.19s-3.46,.65-4.65,1.94c-1.19,1.29-1.78,2.95-1.78,4.98s.59,3.68,1.78,4.97c1.19,1.29,2.74,1.94,4.65,1.94s3.59-.76,4.88-2.29l2.04,2.39c-1.76,1.93-4.06,2.9-6.91,2.9s-5.16-.94-6.99-2.82c-1.84-1.88-2.76-4.25-2.76-7.1s.92-5.24,2.76-7.12c1.84-1.88,4.17-2.81,6.99-2.81Z"/><path class="cls-3" d="M392.83,121.48v2.99h-8.83v5.04h7.71v2.84h-7.71v5.28h7.64l1.4,3h-12.3v-19.16h12.09Z"/><path class="cls-3" d="M417.05,121.48v2.89h-6.49v16.27h-3.26v-16.27h-6.49v-2.89h16.24Z"/><path class="cls-3" d="M434.72,121.48v19.16h-3.23v-8.31h-8.73v8.31h-3.26v-19.16h3.26v7.87h8.73v-7.87h3.23Z"/><path class="cls-3" d="M446.09,121.14l9.02,19.5h-3.55l-1.51-3.46h-8.02l-1.51,3.46h-3.55l9.02-19.5h.1Zm-.05,6.7l-2.89,6.66h5.78l-2.89-6.66Z"/><path class="cls-3" d="M471.95,121.48v2.89h-6.49v16.27h-3.26v-16.27h-6.49v-2.89h16.24Z"/><path class="cls-3" d="M499.7,121.14v19.5h-3.26v-9.41l-6.05,9.61h-.2l-6.07-9.61v9.41h-3.26v-19.5h.1l9.33,14.26,9.3-14.26h.1Z"/><path class="cls-3" d="M511.07,121.14l9.02,19.5h-3.55l-1.51-3.46h-8.02l-1.51,3.46h-3.55l9.02-19.5h.1Zm-.05,6.7l-2.89,6.66h5.78l-2.89-6.66Z"/><path class="cls-3" d="M536.94,121.48v2.89h-6.49v16.27h-3.26v-16.27h-6.49v-2.89h16.24Z"/><path class="cls-3" d="M554.01,121.48v2.89h-6.49v16.27h-3.26v-16.27h-6.49v-2.89h16.24Z"/><path class="cls-3" d="M568.54,121.48v2.99h-8.83v5.04h7.71v2.84h-7.71v5.28h7.64l1.4,3h-12.3v-19.16h12.09Z"/><path class="cls-3" d="M578.52,121.48c1.95,0,3.57,.54,4.86,1.62,1.29,1.08,1.93,2.56,1.93,4.46,0,1.32-.34,2.45-1.01,3.39-.67,.94-1.82,1.67-3.44,2.18l5.36,7.51h-3.81l-7.57-9.58,.04,2.55v7.04h-3.23v-19.16h6.87Zm-.28,2.84h-3.36v6.44h3.36c1.16,0,2.08-.27,2.75-.82,.67-.55,1.01-1.34,1.01-2.39s-.34-1.82-1.02-2.39c-.68-.56-1.59-.85-2.74-.85Z"/><path class="cls-3" d="M594.07,121.14c2.57,0,4.73,.68,6.47,2.04l-1.72,2.69c-1.39-1.15-2.98-1.72-4.77-1.72-.99,0-1.77,.21-2.34,.64-.56,.42-.85,1.06-.85,1.91,0,.71,.28,1.26,.83,1.63s1.61,.72,3.15,1.03c2.35,.51,4.01,1.2,4.98,2.07s1.46,2.07,1.46,3.59c0,1.81-.63,3.25-1.89,4.34-1.26,1.09-2.97,1.63-5.12,1.63-2.92,0-5.32-.84-7.19-2.51l1.77-2.71c.66,.68,1.49,1.22,2.5,1.62,1,.4,2.01,.6,3.03,.6,1.14,0,2.03-.23,2.68-.7,.65-.47,.97-1.13,.97-1.99,0-.71-.31-1.28-.92-1.69-.62-.42-1.68-.78-3.19-1.09-2.33-.5-3.97-1.2-4.92-2.09-.95-.9-1.42-2.08-1.42-3.56,0-1.71,.6-3.08,1.79-4.14,1.19-1.05,2.76-1.58,4.7-1.58Z"/></g><g><rect class="cls-3" x="74.52" y="76.04" width="40.24" height="6.95" rx="2.97" ry="2.97" transform="translate(174.15 -15.13) rotate(90)"/><rect class="cls-3" x="68.11" y="76.04" width="30.1" height="6.95" rx="2.97" ry="2.97" transform="translate(162.68 -3.65) rotate(90)"/><path class="cls-3" d="M102.64,91.09v-23.15c0-1.92,1.56-3.47,3.47-3.47h0c1.92,0,3.47,1.56,3.47,3.47v23.15c0,1.92-1.56,3.47-3.47,3.47h0c-1.92,0-3.47-1.56-3.47-3.47Z"/><path class="cls-3" d="M56.74,91.09v-23.15c0-1.92,1.56-3.47,3.47-3.47h0c1.92,0,3.47,1.56,3.47,3.47v23.15c0,1.92-1.56,3.47-3.47,3.47h0c-1.92,0-3.47-1.56-3.47-3.47Z"/><rect class="cls-3" x="51.57" y="76.04" width="40.24" height="6.95" rx="2.97" ry="2.97" transform="translate(151.2 7.82) rotate(90)"/></g><g><path class="cls-2" d="M337.88,96.8v12.29h-79.89v-12.29h10.04V59.32h13.16v37.48h12.81V47.29h-33.23v-12.29h74.87v12.29h-28.22v16.79h23.2v12.29h-23.2v20.43h30.47Z"/><path class="cls-2" d="M420.55,49.19c-1.9,4.59-4.59,8.14-7.96,11.08,3.46,.69,7.27,1.13,11.34,1.39-1.82,1.73-4.07,4.93-5.37,7.36h2.25v8.48h-9.17v20.08h11.42v8.48h-11.42v5.97h-12.46v-5.97h-53.66v-8.48h11.86v-20.08h-9.43v-8.48h1.04c-1.9-1.12-3.89-2.25-5.19-2.77,4.5-3.81,5.02-8.4,5.02-12.12v-5.63h33.67v14.8h-25.45c-.61,1.99-1.47,3.98-2.68,5.71h32.54c-1.04-2.42-2.77-5.54-4.33-7.27,3.64-.35,7.01-.87,10.13-1.65-1.73-1.56-3.29-3.2-4.59-5.11l4.93-1.3h-7.01v-6.41h.09c-1.39-1.56-2.94-3.2-3.98-3.9,6.75-2.25,7.62-4.67,7.62-7.62v-4.33h24.84v6.58c0,1.47,.09,2.34,1.39,2.34h1.99c1.21,0,3.72-.17,4.85-.6,.17,2.51,.26,4.93,.6,7.36-1.21,.52-3.46,.61-5.19,.61h-1.99l4.33,1.47Zm-60.93-10.04h-13.93v-5.97h13.93v-3.38h11.25v3.38h13.42v5.97h-13.42v1.73h11.16v5.89h-33.93v-5.89h11.51v-1.73Zm-1.47,15.06v.17c0,1.04,0,2.08-.09,3.2h3.03v-3.38h-2.94Zm41.02,23.28h-29.6v1.99h29.6v-1.99Zm0,9.09h-29.6v1.99h29.6v-1.99Zm0,10.99v-1.9h-29.6v1.9h29.6Zm-26.22-43.36h-3.29v3.38h3.29v-3.38Zm39.73,14.8c-3.72-.69-7.01-1.73-10.13-2.94-3.03,1.21-6.4,2.16-10.04,2.94h20.17Zm-13.85-29.6c-.52,2.86-1.82,5.54-4.5,7.88h15.06c-3.63-.95-4.59-3.64-4.76-7.88h-5.8Zm-1.21,14.28c1.12,1.12,2.6,2.16,4.24,3.03,1.64-.86,3.12-1.9,4.33-3.03h-8.57Z"/><path class="cls-2" d="M511,35.43v10.47h-62.23v16.7c0,14.45-1.21,35.83-9,49.07-2.25-1.9-7.62-5.02-10.56-6.14,7.1-12.12,7.62-30.03,7.62-42.93v-27.18h31.5c-.35-1.3-.78-2.68-1.12-3.81l13.16-2.6c.69,1.9,1.47,4.24,2.16,6.4h28.48Zm-17.4,62.06c6.4,2.25,12.81,4.67,17.05,6.4l-5.71,8.66c-5.45-2.51-14.54-6.4-22.76-9.35l3.46-5.71h-14.19l6.23,5.71c-7.62,3.2-17.83,7.01-24.93,9.43-1.56-2.42-4.41-6.14-6.66-8.48,5.28-1.64,12.2-4.24,17.83-6.66h-11.94v-25.1h54.27v25.1h-12.64Zm-43.62-33.32h60.41v6.75h-60.41v-6.75Zm21.98-17.57v2.25h13.16v-2.25h12.64v2.25h10.47v6.67h-10.47v7.18h-37.74v-7.18h-9.52v-6.67h9.52v-2.25h11.94Zm-8.74,35.05h10.13v-2.34h-10.13v2.34Zm0,8.91h10.13v-2.42h-10.13v2.42Zm8.74-35.05v2.34h13.16v-2.34h-13.16Zm22.42,23.8h-9.35v2.34h9.35v-2.34Zm0,8.83h-9.35v2.42h9.35v-2.42Z"/><path class="cls-2" d="M593.41,77.32v34.36h-11.51v-2.77h-24.23v3.11h-10.99v-32.72c-.78-1.21-1.82-2.51-2.86-3.72l.35,1.9c-2.42,.87-4.85,1.73-7.36,2.51v19.13c0,5.45-.87,8.65-3.81,10.56-2.94,1.99-6.92,2.42-12.64,2.42-.26-3.11-1.65-8.31-3.12-11.68,2.77,.17,5.63,.17,6.66,.09,1.04,0,1.39-.26,1.39-1.39v-15.32l-7.62,2.51-2.08-12.12c2.77-.69,6.06-1.56,9.69-2.6v-14.45h-8.14v-11.51h8.14v-15.75h11.51v15.75h6.92v11.51h-6.92v10.99l5.37-1.73,.78,4.15c4.93-2.08,9.52-5.11,12.9-8.57h-11.34v-9.95h7.36c-.6-2.34-1.64-5.45-2.6-7.88l4.67-1.38c-2.34,.09-4.67,.17-6.92,.17-.26-2.6-1.56-6.58-2.6-8.91,15.15-.52,32.37-1.9,43.62-3.98l6.32,9c-2.86,.52-5.89,.95-9.09,1.38l7.53,1.9c-1.73,3.46-3.46,6.84-5.02,9.69h9v9.95h-12.29c5.28,3.2,10.99,6.92,14.28,9.78l-5.37,5.54Zm-33.75-34.71c1.12,2.6,2.34,5.62,2.94,7.61l-5.71,1.82h7.44v-9.69l-4.67,.26Zm4.67,25.1c-2.08,2.6-4.41,4.93-7.01,7.01h7.01v-7.01Zm-6.66,19.99h6.84v-3.55h-6.84v3.55Zm0,12.55h6.84v-3.81h-6.84v3.81Zm24.23-16.1h-7.1v3.55h7.1v-3.55Zm0,16.1v-3.81h-7.1v3.81h7.1Zm-4.76-48.21c1.56-3.29,3.38-7.61,4.59-11.16-2.08,.26-4.07,.43-6.15,.6v10.56h1.56Zm8.83,22.68c-3.2-2.34-6.92-4.93-10.39-7.1v7.1h10.39Z"/></g><g><path class="cls-2" d="M0,77.71c0,37.21,28.53,67.57,63.62,67.57h46.92v-34H63.62c-16.49,0-30.01-14.97-30.01-33.57s13.53-33.79,30.01-33.79h46.92V9.93H63.62C28.53,9.93,0,40.29,0,77.71Z"/><path class="cls-2" d="M157.41,42.92h72.89v-12.71c-.74,.1-1.49,.16-2.26,.16-9.02,0-16.36-7.34-16.36-16.36,0-1.87,.32-3.67,.9-5.35h-55.17c-19.87,0-36.3,18.53-36.3,41.16v3.02c0,22.63,16.43,41.16,36.3,41.16h42.42c5.54,0,6.11,5.39,6.11,9.91,0,3.88-2.87,6.9-6.11,6.9H121.1v34.26h78.72c20.06,0,36.3-18.53,36.3-41.16v-3.02c0-22.63-16.24-41.16-36.3-41.16h-42.42c-5.54,0-5.92-5.39-5.92-9.91,0-3.88,2.67-6.89,5.92-6.89Z"/><path class="cls-3" d="M230.29,27.83c6.65-1.09,11.75-6.87,11.75-13.82,0-7.72-6.28-14.01-14.01-14.01-5.83,0-10.84,3.58-12.94,8.66h15.21V27.83Z"/><path class="cls-3" d="M228.03,28.02c.77,0,1.53-.07,2.26-.19V8.66h-15.21c-.69,1.65-1.07,3.46-1.07,5.35,0,7.72,6.28,14.01,14.01,14.01Z"/><path class="cls-1" d="M228.03,30.37c.77,0,1.52-.06,2.26-.16v-1.18c-.74,.11-1.49,.17-2.26,.17-8.39,0-15.18-6.8-15.18-15.18,0-1.88,.35-3.69,.97-5.35h-1.25c-.58,1.68-.9,3.48-.9,5.35,0,9.02,7.34,16.36,16.36,16.36Z"/></g></svg>