<?xml version="1.0" encoding="UTF-8"?><svg id="_圖層_1" xmlns="http://www.w3.org/2000/svg" viewBox="0 0 179.18 91.53"><defs><style>.cls-1{fill:#aad200;}.cls-2{fill:#aaa;}.cls-3{fill:#00be96;}</style></defs><path class="cls-3" d="M39.28,55.12c-5.25,0-9.6-1.32-13.04-3.94-2.13,1.97-4.92,3.77-8.37,5.41v-5.66c1.8-.98,3.28-2.21,4.43-3.69-2.3-3.61-3.94-9.27-4.92-16.98h6.15c.33,4.27,1.07,7.79,2.21,10.58,.33-1.64,.49-3.45,.49-5.41v-9.11h-7.38v-5.41c3.28-4.1,5.58-8.04,6.89-11.81h-5.91V3.2h13.54v5.91c-1.64,4.59-4.1,8.53-7.38,11.81h6.89v12.8c0,5.91-.98,10.34-2.95,13.29,2.46,1.97,5.58,2.95,9.35,2.95h22.39v5.17h-22.39Zm-6.15-38.14v-4.92h9.11v-3.69h-7.14V3.2h7.14V0h7.38V3.2h9.84V12.06h2.71v4.92h-2.71v1.23c.16,5.09-2.21,7.55-7.14,7.38h-2.71v3.69h10.34v5.17h-10.34v3.69h11.32v5.17h-11.32v5.17h-7.38v-5.17h-8.86v-5.17h8.86v-3.69h-7.63v-5.17h7.63v-3.69h-7.38v-4.92h7.38v-3.69h-9.11Zm19.93-8.61h-3.45v3.69h3.45v-3.69Zm-2.46,12.3c1.64,0,2.46-.9,2.46-2.71v-.98h-3.45v3.69h.98Z"/><path class="cls-3" d="M65.41,56.85v-6.15c2.62-3.77,3.85-9.68,3.69-17.72V3.45h21.9V0h10.83V3.45h19.69v5.66h-43.56v12.3h15.75v-3.2h-13.78v-5.41h13.78v-2.71h8.37v2.71h15.26v8.61h4.68v5.41h-4.68v.74c.16,5.58-2.46,8.29-7.87,8.12h-7.38v.74c1.64,2.3,3.45,4.18,5.41,5.66,.82-1.8,1.31-3.61,1.48-5.41h7.14c-.49,3.12-1.48,5.66-2.95,7.63h-2.95c3.11,2.13,6.72,4.02,10.83,5.66v5.41c-9.19-3.12-15.5-6.31-18.95-9.6v2.71c.16,5.58-2.63,8.28-8.37,8.12h-4.92v-5.66h1.97c2.13,.16,3.11-.65,2.95-2.46v-12.8h-14.03v-5.41h14.03v-3.45h-15.75v4.92c.82,11.98-3.37,20.34-12.55,25.1Zm17.47-12.55c-1.48-2.46-2.46-4.92-2.95-7.38h7.14c.16,1.32,.65,3.04,1.48,5.17,.16,.33,.25,.58,.25,.74,.49-.33,1.15-.74,1.97-1.23,.98-.49,1.64-.82,1.97-.98v5.91c-4.6,3.28-10.01,5.74-16.24,7.38v-6.4c2.95-.65,5.99-1.72,9.11-3.2h-2.71Zm26.82-26.09h-7.63v3.2h7.63v-3.2Zm-3.2,12.06c2.13,0,3.2-1.15,3.2-3.45h-7.63v3.45h4.43Z"/><path class="cls-3" d="M125.02,56.85v-6.4c11.48-7.54,17.31-19.44,17.47-35.68h-16v-6.64h16.24V0h10.09V8.12h26.09V44.79c.16,7.22-3.45,10.74-10.83,10.58h-9.11v-5.91h5.66c2.95-.16,4.35-1.72,4.18-4.68V14.77h-16.24c-.17,19.36-9.35,33.39-27.56,42.08Z"/><path class="cls-3" d="M6.9,.24C5.35,4.12,3.05,7.53,0,10.49v9.39c2.7-1.26,5-2.77,6.9-4.51V56.6h9.73V.24H6.9Z"/><g><path class="cls-2" d="M32.04,91.27v-13.74c.08-4.67,2.46-6.96,7.13-6.87h6.75v3.5h-4.93c-2.42-.09-3.63,1.04-3.63,3.37v13.74h-5.32Z"/><path class="cls-2" d="M45.92,90.63v-5.32h5.58v5.32h-5.58Z"/><path class="cls-2" d="M53.34,90.89l10.9-27.88h6.49l10.77,27.88h-5.58l-2.72-7h-11.54l-2.59,7h-5.71Zm14.01-22.95l-4.41,12.58h8.95l-4.54-12.58Z"/><path class="cls-2" d="M92.51,70.53h3.89v-9.46h5.32v30.34h-9.21c-7.35,.09-10.98-3.33-10.9-10.24,0-7.09,3.63-10.63,10.9-10.63Zm3.89,17.63v-14.13h-2.72c-4.5-.09-6.7,2.29-6.62,7.13,0,4.67,2.16,7,6.49,7h2.85Z"/><path class="cls-2" d="M111.06,90.76l-7.52-19.71h5.71l4.93,15.3,5.06-15.3h5.71l-7.78,19.71h-6.1Z"/><path class="cls-2" d="M126.63,67.55v-4.54h5.32v4.54h-5.32Zm0,23.34v-19.84h5.32v19.84h-5.32Z"/><path class="cls-2" d="M155.95,77.53h-5.32c-.78-2.33-2.42-3.5-4.93-3.5-3.37,.17-5.1,2.55-5.19,7.13,.08,4.67,2.38,7.05,6.87,7.13,2.68,0,5.53-1.56,8.56-4.67v4.02c-2.34,2.59-5.67,3.89-9.99,3.89-6.92-.35-10.55-3.8-10.9-10.37,.08-6.83,3.63-10.37,10.64-10.63,5.45,.09,8.86,2.42,10.25,7Z"/><path class="cls-2" d="M179.18,82.59h-15.7c.52,3.63,2.85,5.49,7,5.58,3.11,0,5.92-1.3,8.43-3.89v3.63c-1.9,2.33-5.1,3.5-9.6,3.5-7.18-.26-10.94-3.59-11.29-9.98,.17-7,3.67-10.63,10.51-10.89,7.18-.09,10.72,3.93,10.64,12.06Zm-15.7-3.37h10.51c-.17-3.37-1.95-5.1-5.32-5.19-2.94,.09-4.67,1.81-5.19,5.19Z"/></g><path class="cls-2" d="M29.7,76.75c.08-9.25-4.89-13.83-14.92-13.74H5.7v27.88H15.04c10.2,.43,15.09-4.28,14.66-14.13Zm-4.28,3.19h-5.23v5.23h-5.93v-5.23h-5.23v-5.93h5.23v-5.23h5.93v5.23h5.23v5.93Z"/><path class="cls-1" d="M16.63,23.33V.24H6.9C5.35,4.12,3.05,7.53,0,10.49v9.39c2.7-1.26,5-2.77,6.9-4.51v15.24c3.6-1.94,6.88-4.4,9.73-7.28Z"/></svg>