<?xml version="1.0" encoding="UTF-8"?><svg id="_圖層_1" xmlns="http://www.w3.org/2000/svg" viewBox="0 0 5102.36 3432.41"><defs><style>.cls-1{fill:#fabe00;}.cls-2{fill:#172a88;}.cls-3{fill:none;}.cls-4{fill:#d7000f;}.cls-5{fill:#727171;}</style></defs><g><g><path class="cls-2" d="M3471.96,1268.82h14.5c23.71,53.99,39.13,142.26,46.42,264.77l-6.33,108.28h-13.65v-13.6l-13.68-115.59h6.34l-33.59-243.87Zm149.16-176.54l461.4,6.39,34.6-6.39,6.3,217.47v13.61l-33.61-7.22h-223.85v40.95l-7.29,6.41,7.29,7.22-7.29,47.32v271.15l33.64,7.3h162.89l20.92-13.63,6.39,6.34v7.3h-6.39l6.39,6.38v20.94c-9.09,0-13.64-7.01-13.64-20.94h-6.39l6.39,34.58-6.39,26.42,6.39,7.26,7.25-7.26h6.39c12.77,13.98,26.32,20.85,40.9,20.85v13.72l-33.61-7.3h-27.32v7.3l6.39,6.33-6.39,7.35v26.33l6.39,34.63h-13.67v33.64l-12.76,14.53-183.78-14.53c-9.09,21.83-33.9,245.71-74.61,671.51h-6.35c0-9.08-70.46-20.3-211.17-33.59-8.45-18.82-12.74-54.68-12.74-107.39v-74.64c0-70.98,11.26-213.49,33.73-427.72-27.33-6.67-40.95-13.89-40.95-21.84l7.22-6.32h40.11v-61l7.22-7.27-7.22-6.37v-33.64l7.22-7.3-7.22-6.42,7.22-34.54v-175.61l-7.22-34.62,7.22-40.02v-217.47l6.39-27.25-6.39-6.4,6.39-34.62v-108.25l13.62-13.68Zm244.84,1621.6v21.8h-27.27v-14.53l27.27-7.27Zm53.65-20.05h13.67v27.32h-13.67v-27.32Zm183.87-684.3h13.64v60.97l6.3,74.63-27.27,190.14,13.66,27.34c-18.18,0-33.9,107.99-47.32,323.91l13.64,13.68v7.31l-20.92,20.01-6.36-6.37h-6.4l6.4-7.27v-6.37l40.96-501.42-7.29-6.33v-7.3c13.97-63.68,20.96-124.64,20.96-182.93m-13.67-143.74h27.31v7.3l-20.97,6.37-6.34-6.37v-7.3Zm13.67-47.32h13.64v27.27h-13.64v-27.27Z"/><path class="cls-2" d="M4128.01,2629.22h4.6l9.03,9.08v9.13h-4.55l-9.09-9.13v-9.08Zm338.53-1554.21v4.54l13.62-4.54,334.87,9.07v4.54l4.52-4.54,157.48,13.68v13.66l-4.57,4.52v4.57l13.64,9.05-9.07,13.68,4.5,4.59v9.13c-9.07,0-13.66,10.53-13.66,31.77l-3.59,3.65c1.78,12.15,9.09,24.3,21.81,36.42,0,15.21-11.8,24.25-35.48,27.27,0,9.13-3.03,13.66-9.09,13.66h-4.57v-4.52l4.57-13.68h-4.57l4.57-4.52v-9.11h-4.57v9.11h-9.07l4.52-4.57v-4.54h-234.71l-9.14,77.31h4.52l-86.45,646.11h-9.05c-12.15-102.46-22.49-168.98-30.96-199.31h4.57l-4.57-13.64c-4.28-78.29-10.35-117.42-18.21-117.42l4.6-4.5v-4.5l-9.17-58.28h4.56l-18.15-81.9,4.47-4.54-9.07-9.09v-13.72l4.6-4.54c-1.87-11.43-6.43-17.25-13.7-17.25v-13.64h9.1l-4.56-4.54v-4.59l4.56-13.63h-4.56l-4.53-4.54v-9.09l4.53-13.68h-4.53l-4.58-13.59-4.53,4.5h-4.57l-4.52-18.18,13.61-13.68-4.53-4.59v-4.5l4.53-3.65-9.09-13.61,4.57-22.75v-18.2h-9.08l4.52-22.75h-103.7l-18.17,4.54-18.25-4.54h-58.24l-4.53,4.54h-4.57l4.57,4.57v9.07c-6.11,0-9.11-4.55-9.11-13.64l-13.66-4.54-13.62,4.54v13.64l9.03,13.66-4.57,4.57h-4.46l4.46,4.54-4.46,22.75v835.34h9.03v13.67l-4.57-4.55h-4.46v72.77h9.03v3.66h-9.03v135.59l4.46,4.54-4.46,4.55v4.55l9.03,18.22h-9.03v27.28l22.67-13.69-9.05-13.6,13.66-4.54,9.11,9.04,9.07-9.04h-9.07l4.53-40.11,9.07,8.24v4.55l-4.53,4.54,4.53,4.55v4.55l-4.53,4.5v4.63l4.53,4.55h4.6l-4.6,4.54v4.5l4.6,4.55v4.55l-4.6,13.69h108.32l4.55-22.78-4.55-13.59h4.55l-4.55-4.63v-9.05l4.55-4.55c-3.04-23.66-7.56-35.5-13.7-35.5h-9.01c0,12.14-3.07,18.17-9.19,18.17l-4.5-13.63,4.5-13.64h22.79c6.07,0,9.11-4.55,9.11-13.63l-4.55-13.67h4.55l-4.55-4.55v-22.73l4.55-4.54-4.55-13.68-13.66,9.14v-4.55l13.66-22.72c-6.05-13.38-12.15-20.73-18.16-21.88l-4.57,4.5h-4.62v-4.5l4.62-22.77h-4.62c0-11.47,9.19-23.66,27.35-36.37,0-9.13-4.57-13.67-13.66-13.67v-13.65h9.09l9.11-9.09v-437.7h9.11v4.5c0,70.47,22.39,240.61,67.31,510.56h4.57l-4.57,4.55v4.54l31.84,221.12h58.24l18.2-4.55,18.18,4.55h9.15l4.53-22.78-4.53-4.5v-4.54l50.05-284.83h-4.56l44.58-283.93-4.48-4.5v-4.58l9.03-36.4h-4.55l13.67-108.29h9.12v71.88l-4.58,4.58,4.58,4.5v103.77l-4.58,4.51,4.58,4.58v4.55l-4.58,4.55,4.58,4.49v9.18l-4.58,27.27,4.58,4.5v4.59l-4.58,27.27v4.6l4.58,21.79h-4.58l4.58,4.62v4.46l-4.58,4.6,4.58,4.58-4.58,22.64v9.18l4.58,13.67-4.58,22.73v171.1l13.66-8.24c15.18,23.66,25.79,35.51,31.88,35.51l4.48,22.72-4.48,4.59h-4.57l4.57,4.51v9.17c0,5.99-4.57,9.05-13.68,9.05l9.12,13.63-27.31,4.59-13.66-4.59v99.2h4.58l4.5-4.55,4.57,4.55h13.63v-9.1h4.57l-4.57-4.59v-9.1h9.13v22.78h158.32l-9.12-18.23,9.12-9.05-4.57-44.64h4.57l-18.18-27.27,4.55-4.55,4.52,4.55h9.12l-9.12-9.13c1.84-18.17,4.85-27.23,9.12-27.23l-4.57-4.59v-4.5l4.57-4.63c0-9.04-6.05-13.59-18.18-13.59v-4.55h13.62l-4.55-4.59,4.55-13.68c-9.07-27.86-21.22-47.32-36.42-58.15l-4.53,4.5v-4.5c0-9.13,7.6-13.68,22.7-13.68v-9.09h13.7v9.09l-4.52,4.55,13.64,22.77-4.57,4.55v4.54c0,20.02,14.88,33.35,44.56,40.06v4.55l-9.07,27.22,9.07,9.13-4.5,4.59,4.5,4.51-4.5,4.55h-4.57c11.5,30.32,26.71,45.49,45.51,45.49l9.11,21.88v4.54c0,6.03-4.63,9.1-13.7,9.1v4.5h18.22l-4.53,18.22,4.53,4.55v4.55l-4.53,13.69h4.53l13.64,4.54,4.52-4.54c27.35,3.05,41.01,13.67,41.01,31.85h-9.11l-22.73-4.59-4.61,18.22,4.61,4.59-13.69,12.7-4.55-3.65h-9.09c-52.18,17.63-80.71,35.51-85.55,53.7l4.56,4.62v9.01h-4.56l-4.52-4.5h-4.57c0,15.71-22.75,38.23-68.24,67.32l-9.1-9.09h9.1v-4.58h-4.57l-22.75,13.67v-4.58l-4.52,4.58h-239.29l-30.96,4.51v-4.51l-13.6,4.51-45.56-4.51-31.85,4.51-35.49-4.51-13.64,4.51-4.55-4.51v13.64h-9.15l-13.58-9.13h-4.62l9.19,18.22-22.74,4.54-9.13-18.17,4.52-4.59-27.28-4.51-4.54,4.51h-9.11l-4.57-4.51h-4.53l-4.57,4.51v4.59l-21.81-4.59-4.57,4.59h-4.54l-9.11-9.1h-36.4l-13.64,13.64v4.54l22.75,4.55v13.63l-31.82-9.1,4.52-4.54v-4.55l-9.09-18.18h-53.74l-4.54-4.58h-4.55l-4.52,4.58v-9.09h18.16l-4.55-13.67-4.54,4.5h-4.55v-4.5l4.55-4.55v-9.14h-4.55v9.14h-9.09c0-24.3,12.15-40.65,36.38-49.15l4.6-18.18,4.54-4.55h4.55l-4.55-4.58v-4.5l4.55-4.55-4.55-4.55v-4.58l4.55-12.7,3.67,4.51h9.07v-9.05l-4.57,4.54h-4.5l-8.22-18.21v-4.55l8.22-13.68h-8.22v-9.08h8.22l-17.36-31.87,4.6-4.5h4.54l-4.54-22.77c6.09-12.18,13.32-18.17,21.83-18.17v-3.7l-12.74-22.68,3.67-4.59v-4.55l-3.67-4.59v-4.5l8.17-18.22-4.5-4.51v-4.59l22.75-40.9h-9.15l-13.6,4.55v-4.55l-3.67-4.64,8.17-30.91-8.17-9.05,8.17-18.18-8.17-50.09c1.24-12.1,5.46-18.22,12.74-18.22v-4.5h-9.07v-9.1l4.5-3.65v-4.64l-4.5-4.46c18.18-2.5,27.27-22.22,27.27-59.16l-13.67-54.6,27.35-58.23c-17.04,0-27.72-18.22-31.89-54.63,3.65-20.61,12.73-30.93,27.27-30.93,0-9.05-4.52-13.64-13.59-13.64l-9.15-27.36c-9.1,0-13.6-3.01-13.6-9.04l18.18-18.23-4.58-4.54v-4.55c1.82-10.23,10.93-22.43,27.35-36.36v-12.78l-13.69-4.55,9.07-18.18-18.16-31.86,27.28-13.64c-3.07-24.21-13.64-36.4-31.86-36.4v-4.5l18.22-26.47-22.75-9.13v-4.51c0-6.03,4.53-9.09,13.68-9.09l4.52-4.59v-4.55l-22.77-22.68,18.25-4.59-13.68-31.81,4.53-4.59h4.58l-4.58-4.5v-9.18l13.67-3.61,4.55,3.61h9.14v-8.2l-31.89-13.6,27.27-63.72v-4.55c-24.26-21.19-36.34-39.1-36.34-53.67l18.18-13.66-18.18-31.84,13.6-4.57v-13.64h-13.6c0-15.18,2.99-22.75,9.07-22.75l-4.57-4.59v-26.38l13.68-18.18-9.11-9.04,9.11-9.13v-4.54l-9.11-13.68,9.11-22.72-4.58-18.2v-4.59l9.15-9.07h221.97l21.88-4.54Zm-253,121.91l-4.53,13.68h9.11v-13.68h-4.58Zm9.15,1508.8h4.52v27.27h-9.09l4.57-4.59-4.57-4.5v-4.63l4.57-13.55Zm0-867.26v9.13l9.07-9.13v-8.15l-9.07,8.15Zm0,813.53h13.59l-4.52,13.68h-9.07v-13.68Zm27.23-9.13l4.59,13.68-4.59,4.54h-4.52l-4.5-4.54v-4.55l9.02-9.13Zm22.75-1283.05h13.64l9.15,13.68h-13.65l-9.14-9.13v-4.55Zm4.59,112.83h9.05v13.63h-9.05v-13.63Zm31.84,714.37h12.74v9.09c-11.55,0-18.75,8.8-21.81,26.39l-13.72-12.79h-4.5v-9.08c18.22,0,27.29-4.51,27.29-13.6m-18.18-18.22l9.11,9.09v4.55h-9.11v-13.64Zm13.64,121.92h9.07l8.21,9.13v4.54l-3.61-4.54h-9.13l-13.64,9.04-4.54-4.5v-4.54l13.64-9.13Zm4.54-167.42h12.74v9.1h-12.74v-9.1Zm0,605.12h9.13v13.68h-9.13v-13.68Zm9.13-586.94l3.61,4.59h4.57l4.53-4.59h4.57v9.14h-21.87l4.6-4.55v-4.59Zm17.27,121.96l4.55,18.22-13.64,9.06h-8.18v-9.06h12.7l-4.53-4.59v-4.5l9.09-9.13Zm-9.09,464.98h9.09v13.68h-13.66l4.57-13.68Zm9.09-627.84h9.11l9.07,9.09-13.63,13.64h-4.55l-9.09-9.09v-4.55l9.09-9.09Zm9.11,135.59h9.07v4.55l-4.54,13.64h-4.54l-9.11-9.14,9.11-9.05Zm9.07-62.78v4.5l-9.07,9.13v-4.58l9.07-9.05Zm0,532.35h9.11l22.75,31.78-27.32,9.09-13.61-4.5,9.07-36.37Zm4.54-505.11l13.69,13.67-9.12,8.2h-13.65v-3.66l9.08-18.22Zm13.69-59.14v4.59l-9.12,9.13v-4.59l9.12-9.14Zm4.52,77.36h4.61l9.05,8.24-13.67,13.64h-4.52v-13.64h9.13l-4.61-4.59v-3.66Zm4.61,53.73h4.5v9.09h-13.64l9.13-9.09Zm-9.13,85.51h9.13v13.64l-9.13-9.1v-4.54Zm18.19-212.02h13.69l-9.19,9.13h-4.5v-9.13Zm13.69,144.65h4.51l9.09,9.13h-13.6v-9.13Zm4.51-108.28v4.58c12.11-3.05,18.2-12.15,18.2-27.32l-18.2,22.73Zm9.09,550.57h9.11l9.11,9.09-4.57,4.5h-13.65v-13.6Zm49.16,0l9.08,9.09v9.09h-9.08l-9.11-9.09,9.11-9.09Zm27.32,0h27.25c16.37,0,26.96,6.03,31.91,18.18v13.63c0,4.81-10.7,9.39-31.91,13.6v-4.55l9.17-13.6v-4.62h-13.7l-4.58,4.62h-4.53l4.53,4.55v4.55l-9.09,9.05-18.13-31.82v-4.5l9.08-9.09Zm27.25-483.2h18.2l-4.56,4.55v4.55l-13.63-4.55v-4.55Zm4.56,68.22h4.6l9.03,9.1v4.54h-9.03l-4.6-13.64Zm31.83,13.64h4.55v9.13h-13.63l9.09-9.13Zm-4.48-86.45h13.6l-9.12,9.14-4.48-4.55v-4.59Zm18.17,487.79h35.44l13.7,13.6-9.15,9.05h-27.25v4.62l9.05,9.1,13.65-4.55,4.55,4.55v4.5l-9.1,9.18c-9.73-7.31-23.06-11.81-40.04-13.68v-27.27l9.14-9.09Zm62.76,4.51h18.17c5.48,0,11.54,13.68,18.25,40.91l-4.61,4.63,4.61,4.54-4.61,4.55h-4.53c-7.85,0-12.48-6.08-13.68-18.27h-4.52c0,9.18-3.06,13.72-9.08,13.72l-9.1-9.17v-31.82l9.1-9.09Zm54.6,0h4.52l13.69,13.68v4.46l-22.77,9.17-9.08-9.17,13.64-18.14Zm71.87-478.61c0,9.04-4.57,13.67-13.66,13.67v18.15l22.75-9.06v-13.72l-9.09-9.04Zm-13.66,36.44v18.13h4.58l22.71-4.59v-13.55h-4.54l-4.51,4.51h-4.58l-13.66-4.51Zm13.66-347.65v4.54l-9.07,9.09v-4.55l9.07-9.09Zm31.88,433.16v4.55l-9.12,9.04v-4.5l9.12-9.09Zm4.48-85.51h4.56l9.14,9.05-4.55,4.5h-4.59l-4.56-4.5v-9.05Zm34.6,374.79c0,22.48,3.04,37.64,9.15,45.58l-4.61,18.14,4.61,3.66-4.61,13.68h-4.54l-9.05-9.09-4.61-21.84h9.09l-4.48-4.55v-4.58l4.48-4.54-4.48-4.55v-22.73l9.05-9.17Zm-2.76-469.51h17.35v4.58h-17.35v-4.58Zm90.07-619.65h9.18v13.64l-22.79,18.26h-9.09v-9.13l22.7-22.77Zm9.18,528.7v4.55l4.52-4.55h13.64v13.64h-4.52l-4.57-4.55h-4.55l-4.52,4.55,9.07,22.77h-4.55l-18.2-18.22v-4.55l13.68-13.64Zm44.56-772.62l31.84,27.32,4.55-4.55h4.53l9.07,9.09-9.07,9.14,9.07,36.4v13.63l-4.48,4.55,4.48,4.55c0,17.63-7.54,32.45-22.66,44.6v4.54l4.5,18.23-9.07,45.41h4.57c6.04,0,9.05,6.16,9.05,18.22-1.19,35.81-4.25,53.78-9.05,53.78h-4.57l9.07,27.23v4.59c0,6.07-4.5,9.09-13.62,9.09l-4.59,4.55v4.54l18.2,9.13v13.59h-9.07v12.78l9.07,13.59-4.5,18.27,9.05,27.24-9.05,9.17,13.59,31.82-18.15,18.17,4.57,4.6v3.61l-4.57,4.54v4.6l9.07,9.05-9.07,27.35,4.57,4.47v4.59l-4.57,13.68,18.15,4.54v9.09c-13.35,0-22.4,6.03-27.28,18.18v35.48l9.13,40.9h-9.13l4.59,4.63c-4.25,36.4-11.85,54.58-22.81,54.58v4.55l9.16,13.68v3.65c0,6.03-4.25,9.1-12.74,9.1l-4.55,4.5v4.59l-18.2-4.59v-44.56c0-6.08-4.57-9.09-13.64-9.09v-9.13l4.52,4.62h9.12l-4.57-4.62,4.57-4.51v-4.54l-4.57-13.67,4.57-22.78v-35.47c-9.12,0-16.7-6.03-22.82-18.23,10.97,0,18.55-6.11,22.82-18.17v-22.72c-12.15,0-18.18-3.06-18.18-9.18h18.18v-18.14h-9.12l9.12-13.64-9.12-9.13v-4.51l4.55,4.51h4.57v-184.7l-4.57-18.23,4.57-18.22v-85.51l-4.57-18.23,4.57-18.18v-90.06l-4.57-27.31,4.57-13.64h-4.57l4.57-4.54v-4.59l-4.57-4.54v-4.55c5.49-15.12,17.31-22.77,35.49-22.77m-21.84-40.01l9.12,9.11c-4.27,15.78-11.85,27.59-22.77,35.49v9.13h-9.07c0-15.2,4.52-22.81,13.64-22.81l-4.57-21.82,13.65-9.11Zm-18.2,655.2l4.55,4.55h4.57v-13.68l-9.12,9.13Z"/></g><path class="cls-1" d="M1143.04,885.16l-4.15,3.57,4.15,4.16-4.15,4.17v4.2l4.15,3.5,8.34-7.71v-8.33l-4.14-3.57h-4.21Zm83.09,52.72l5.31,15.46h9.54v-5.35l-5.33-4.76v-9.51l10.09-14.87h-14.29l-5.31,19.03Zm501.81-246.51h4.76v8.92c-16.27,0-24.38,6.54-24.38,19.6h-4.75v-4.76c7.52-15.82,15.63-23.77,24.38-23.77m19.03-87.42h5.33l-10.11,9.56h-4.14l8.92-9.56Zm19.03,96.34v5.35l-23.81,19.6h-4.14v-10.11l27.95-14.85Zm4.75-140.31v14.27l-9.51-9.51-14.28,5.35h-4.78v-15.46l28.56,5.36Zm-14.27,53.52l4.76-5.37h4.76v15.46l-13.7,14.26,4.18-14.26v-5.33l-4.18-4.76h4.18Zm28.54,43.96v4.19c-13.91,0-21.83,8.11-23.79,24.36h-8.94v-4.76l23.81-23.79h8.92Zm-4.16-24.98v5.36l-10.11,14.27h-9.51v-4.74c9.87,0,14.87-4.99,14.87-14.89h4.76Zm-562.86,231.13h4.16l4.13,4.21v-8.37h11.94v8.37h8.3l-4.19-20.27v-16.01h-8.3l-16.04,32.07Zm112.36,27.14l8.88,23.81,14.86-14.84v-4.8l-4.75-4.16h4.75v-5.33l-4.75-4.78-18.99,10.11Zm-96.32-66.99h8.3v-16.06h-8.3v16.06Zm40.37,26.8v4.72l-9.49,10.11v-14.83h9.49Zm0-10.13h10.16v-14.29h-10.16v14.29Zm4.83,87.4v5.35h5.33l8.94-10.11v-4.78h-4.23l-10.04,9.54Zm19.6,39.23v8.9h10.11v-18.39l-10.11,9.5Zm4.78,295.51h9.49v-18.46h-14.27l4.78,18.46Zm0-77.31h9.49v-14.26h-9.49v14.26Zm243.43,189.05c19.52,21.33,47.29,39.53,83.22,54.59-47.47-19.75-75.19-37.85-83.22-54.59m108.22,59.39c22.41,5.65,55.44,11.15,99.3,16.33-34.82,.62-67.97-4.78-99.3-16.33M2679.64,475.83l-86.63-12.83c-19.2-2.08-39.47-4.68-60.74-7.86-21.39-3.23-38.22-10.19-50.63-20.75-2.65,.04-17.31,.91-43.96,2.57-9.37,.17-25.51-8.54-48.47-26.15l-65.14-4.26c.97,6.03,.32,10.87-1.79,14.52l-90.71-12.85c-8.24-1-14.87,3.93-19.88,14.89-5.01,10.91-10.13,16.54-15.44,16.61l-14.08,.29c-3.12,6.12-8.56,13.97-16.4,23.83-9.43,.19-23.32,5.71-41.71,16.99l-21.54-8.64c-10.79,.66-19.75,1.11-26.96,1.34l-1.53-9.35-2.36,.38-3.08,9.17c-8.69,.21-13.51,0-14.25-.68l20.35,129.18v1.68c.23,1.34,.51,2.27,.81,3.46l.94,6.33c-3.82,1.32-10.92,7.46-21.29,18.52l2.85,18.1,26.7-9.6c3.04,8.71,5.61,17.4,8.48,26.08l2.72,16.14-3.59,10.88,3.12,4.29-1.42,5.65,6.97,9.09-3.59,10.87,3.19,4.88-5.1,15.97,7.05,9.62-1.55,5.08,17.82,59.09-5.08,16.52c5.08-.85,8.45,3.63,10.13,13.38l-2.06,5.78,1.68,9.96,3.84,4.78c-4.69,.81-6.52,11.36-5.49,31.64l5.26-.85-1.02,26.08,3.78,4.79,.81,4.68-2.04,5.8,6.99,9.07,1.68,9.92-3.59,10.88-2.31,.45,11.22,34.28-2.93,.47-3.04,10.75,3.38,19.92,4.67-.78c2.34,13.74,1.12,20.94-3.57,21.73l3.35,19.94,3.28,4.87,2.33-.39,1.44-5.69,6.2,50.8,2.46,7.44c-.42,5.27-1.06,10.36-1.61,15.63l-1.31,2.98,.89,1.19c-3.91,38.25-10.15,75.17-19.2,110.51l-2.27-1.51-4.67,.78,.81,4.69c-9.62,5.21-20.07,11.19-31.2,17.86l-3.7-10.15-.98-20.33-2.59-15.25,5.25-.89,3.27,4.86-.9-5.31-15.95-33.43-.77-4.74,1.45-5.65-.89-5.27-3.1-4.29,1.27-20.73-2.57-15.25-4.67,.81-.92-5.25-1-20.37-8.05-19.16c-1.72-10.15,.74-15.76,7.35-16.9-7.82-29.63-13.7-44.14-17.53-43.44l-2.99,.49,.4-15.76-5.54-14.72c-.58-27.23,1.48-41.27,6.16-42.08l-1.7-9.94-16.88-7.4-5.25,.9c-3.89,67.78,0,135.85,11.56,204.24l11.09,65.65c4.67,27.8,10.19,54.1,16.31,79.01-11.89,7.6-24.25,15.63-37.55,24.51-9.62,7.44-24.04,17.91-43.42,31.52-49.44,27.53-92.94,41.48-130.39,42.18-17.46,.34-37.87-1.06-61.19-4.14-32.54-1.85-82.58-8.16-150.14-19.01l-21.54-8.62c-40.55-16.31-219.98-66.54-264.9-184.49-44.9-117.9,42.86-333.44,58.16-347.03,36.59-32.12,74.57-51.45,113.78-58.28l20.16-.38c2.49-1.21,6.99-2.46,13.49-3.8,45.41-10.47,106.66-5.6,183.76,14.67,28.68,11.51,70.54,25.13,125.47,40.99,3.2,3.7,9.39,.51,18.62-9.35L1749.17,33.75c5.91-4.8,12.66-4.93,20.11-.39l10.01-.17c3.7-2.42,10.28-11.59,19.92-27.46,9.31-.17,17.16-1.51,23.56-3.97,95.56-7.88,199.93,10.7,313.22,55.56,13.93,3.4,30.65,7.31,50.15,11.74,21.82,18.93,43.62,37.74,65.46,56.69,27.51,21.18,51.93,35.79,73.38,43.86,11.3,3.29,13.68,5.8,7.22,7.11,64.83,36.07,117.8,73.77,158.85,112.7,26.6,23.66,46.43,34.79,59.72,33.34l3.67,23.37,19.22-5.69,23.55-4.1c-4.96,2.53-12.38,6.82-22.1,13.11-6.74,8.54-4.83,20.55,5.67,35.98,18.88,17.8,44.65,36.05,77.16,54.72-.8,3.53-4.71,8.49-11.85,14.7,.55,3.57,5.84,7.09,15.84,10.49,9.84,3.38,15.87,6.99,17.71,10.5m-1250.85,444.25l-6.75-6.71-19.54,19.48h19.54l6.75-6.73v-6.03Zm18.77-6.71l12.72-12.78v-12.75h-5.96l-12.79,12.75v12.78h6.03Zm26.21,32.27l-6.75-6.78h-6.73l-5.96,6.78v6.73h19.45v-6.73Zm31.52-70.54l-5.97-26.29h-12.77l5.99,26.29h12.75Zm26.29,57.75l-12.74,12.79v6.73l12.74-13.5v-6.01Zm8.07-104.6l11.81-14.74-14.06,.26c-6.88-1.02-11.54-.34-13.81,2.04-.79,3.74,.72,7.05,4.55,9.92,3.82,2.89,7.66,3.76,11.51,2.53m17.46,72.34l-12.79-12.75v19.52h6.01l6.77-6.78Zm19.5-45.05h-6.73l-12.76,12.81v6.75h19.5v-19.56Zm12.77-32.24l-12.77,12.76v6.76h12.77v-19.52Zm12.77-45.05h-6.78v26.29h6.78v-26.29ZM2021.97,50.44l1.41,9,13.47-3.9c6.18-3.72,11.08-6.76,14.7-9.3l-16.1,.3-13.47,3.91Zm-15.67,730.3l3.61-10.87-1.78-10.54-5.31,.89,1.91,25.6,6.41,9.15-1.72-9.94-3.12-4.29Zm1.72-403.72l-.78-4.67-6.97-9.13,2.51,14.7,5.24-.89Zm-8.54,456.1l.89,5.29,3.78,4.76,4.5-16.42-7.07,1.19-2.11,5.18Zm-92.94,71.49c.4,2.34,3.67,2.3,10.04-.17l-.64-3.78c6.59-18.18,9.34-30.84,8.2-37.98-.94-6.09-4.84-9.54-11.76-10.68-12.15,17.1-14.04,34.58-5.84,52.61m-8.5-616.72c-8.56-3.52-19.86-11-33.83-22.94-16.02-16.57-25.19-23.57-27.48-21.05-3.86,18.12-5.6,28.34-5.22,30.74l5.43,8.96,30.97,4.85,30.14-.56Zm57.67,881.11h-11.3l-11.89,11.32h23.2v-11.32Zm22.6-125.44v5.35l-5.4,5.95,11.3,11.3h5.35v-79.69l-5.35-5.9-5.91,5.9-17.25-11.28v11.28l5.93,5.37h-5.93l-33.91-11.28-17.28,5.9c-3.9,30.56-9.68,45.79-17.22,45.79v-17.22c-15.06,0-28.36,9.54-39.85,28.53v11.3h11.32l11.3-11.3,17.23,11.3,45.82-45.75c0,7.52,9.5,11.26,28.52,11.26v5.95c0,7.15-15.27,18.65-45.77,34.49l17.25,17.24h17.25l5.35-5.9c0-19.05,3.9-28.59,11.85-28.59h5.4Zm0,108.24l11.26,11.87h5.95v-17.23h-17.21v5.36Zm17.21,108.81l-11.3,11.3v5.93l11.3,11.32v-28.54Zm5.94-74.36h-17.24l11.3,11.3h5.94v-11.3Zm11.3-245.53l-11.3,11.3v11.26h11.3v-22.56Zm134.96-565.25l-65.08-29.5-75.45-43.84c1.68,10.77,8.5,24,20.37,39.46l57.62,20.56,62.54,13.32Zm-6.59,355.13l-4.16,4.76,2.68,29.03,10.74-.25-.85-10.68-3.52-4.31,16.08-9.94c-.32-5.14-7.39-10.02-21.13-14.57l.17,5.97Zm29.53,194.62l6.54-.3-3.55-4.33c5.42-16.31,11.72-24.56,18.9-24.68l-.02-4.82c-15.38-31.16-26.09-46.49-31.94-46.11l5.86-9.82-6.24-33.34-13.13,.55c9,82.37,16.84,123.32,23.58,122.85m-24.98-142.47l7.16,8.64,6.54-.24-.62-8.92-10.11-4.04-3.61-.13,.64,4.67Zm124.5-105.31l6.56-.28-1.21-13.64-7.41-10.43,2.06,24.34Zm-5.94-71.83l1.44,20.22,4.21,4.25c4.37-.17,6.67-11.51,6.9-33.9l-3.59-4.33-8.96,13.77Z"/><g><path class="cls-4" d="M21.32,618.65l410.69-37.47,24.03,20.05,60.53,663.25,12.3-1.1c77.52-134.81,191.48-209.11,341.83-222.83,161-14.7,285.37,60.92,373.05,226.82,34.04,93.29,54.88,181.62,62.49,264.98l80.31,880.26-21,26.68-420.51,38.4-7.16-78.54-13.66-13.55-.98-11.04,11.39-10.97-12.32,1.15,11.32-12.15-5.29-57.64-26.97,2.46,24.08-34.28-47.58-521.1c-16.39-179.77-77.31-264.95-182.79-255.3-104.62,9.56-149.7,93.63-135.25,252.2l46.14,505.12,18.54,67.5-7.03,58.75,13.33,9.89-11.34,12.2,3.25,35.55,12.34-1.14,9.68-15.68,11.05-1.06,17.24,13.25,1.87,20.86-15.89,1.49-35.3-6.71,.91,9.85c4.2,45.75-33.33,72.23-112.61,79.48l-12.04-10.02,.97,11.04-15.67-9.64-203.49,18.47-10.04,12.07c-65.27-1.49-98.64-10.33-100.17-26.68l-9.15-100.59-14.04-32.04,5.9-57.39L0,642.86l21.32-24.21Zm744.96,1647.88l.98,11.09c1.25,13.81-10.79,21.88-36.08,24.22l1.02,11.04,37.98-3.49,1,11.05-17.82,48.55,39.63,54.5,.87,9.86-62.19-4.25,1.87,20.85c-22.34-19.37-42.48-28.28-60.49-26.63l-2.36-25.69c38.47-3.53,55.58-27.74,51.49-72.73l-15.3-31.94,12.26-1.19,47.15-25.23Zm55.73,96.22l14.74-1.35,36.53,7.86-11.34,10.92,.98,11.04,13.63,13.55-11.3,12.15-49.02,4.46,23.41-28.03,13.63,13.5-1.38-14.6-29.88-29.49Z"/><path class="cls-4" d="M2059.74,1415.39l-71.66,1325.98-512.13-17.24-24.62-23.41,69.5-1275.57c76.44,37,165.18,58.28,259.91,58.28,102.72,0,198.38-25.02,279.01-68.03"/><path class="cls-4" d="M1569.78,1454.94l13.51,.53-.51,12.3-40.86,37.83-37.62-15,.98-25.91,64.5-9.74Zm6.67,893.44l-.09,3.74c11.49,.47,18.72,3.18,21.84,8.19l2.59-3.52,.13-3.69,13.3,7.86,2.57-3.52,33.24,1.31,2.29,3.69,2.66-3.48,4.91,.17,3.52,3.78,2.68-3.57,2.42,.13,2.25,3.74,11.26-3.23,.13-3.69-8.49-4.08-2.55,3.61-24.3-8.28-2.61,3.52-13.53-.51-2.31-3.79-2.63,3.57-35.71-1.4-2.29-3.69-11.26,3.14Zm50.8,88.28l-.13,3.74,2.42,.08,8.75-3.39,.12-3.65-2.46-.13-8.71,3.36Zm9.77,32.41l2.51,.12,8.45,4-6.33,5.9-4.78-6.37,.15-3.65Zm47.58-112.66l-.13,3.67,31.84,4.92,3.78-3.49,2.49,.12,7.09,7.61,3.84-3.61,2.44,.12,2.34,3.82,2.64-3.61,2.42,.08,3.52,3.86,2.51,.13,11.17-3.32-.13,3.69,2.63-3.57,2.38,.09,2.38,3.82,2.59-3.65c10.6,2.13,15.84,4.75,15.74,8.06l3.84-3.56,2.46,.09,2.3,3.82,2.46,.09,8.75-3.36-.08,3.69,2.5-3.61,2.49,.13,2.27,3.73,3.76,.17,2.61-3.56,2.42,.04,8.51,4.08,2.57-3.61,13.42,4.2,7.31,.35,3.85-3.57,2.48,.08,4.63,7.56,2.59-3.57,.18-3.74,15.69,7.98,3.84-3.48,.3-7.43-10.96-4.08-2.59,3.53-6.14-.22-2.36-3.73-2.59,3.56-24.64-.98-13.34-4.16-2.59,3.48-2.29-3.69,.1-3.7-2.57,3.61-6.2-.26-2.3-3.82-2.59,3.61-2.42-.08-3.57-3.82-2.68,3.57-2.4-.08-8.34-7.77-2.59,3.61-.17,3.69-2.29-3.78-2.42-.05-2.63,3.57-2.45-.09-3.55-3.83,.11-3.74-2.61,3.61-31.97-1.22-2.31-3.91-3.84,3.65-4.95-.17-2.32-3.91-2.61,3.7-35.64-1.41Zm5.52,79.01l-2.59,3.67-.28,7.35,2.44,.12,5.16-7.26,.19-3.66-4.93-.22Zm47.98,1.92l-5.37,10.87,2.46,.05,8.71-3.27-.11,3.69,7.54-3.39,.27-7.4-7.71,7.09-5.8-7.65Zm19.57,4.46l-.21,3.69,4.67,6.33,5.21-5.96-7.27-3.99-2.4-.08Zm15.83,4.29l-.23,6.16,2.55-2.38,2.48,.17,8.52,2.76,.13-2.42,2.34,2.46,2.46,.13,5.14-5.95-7.22-3.96-2.61,3.57-3.74-.17-2.29-3.74-7.52,3.36Zm46.51,37.6l2.4,2.55,3.72,.17,7.42-2.17,2.36,2.55,3.84-2.29-.09,2.42-6.48,7.13-2.44-.13-18.29-4.42c.17-4.08,2.72-5.98,7.56-5.82m72.28-111.81l-.3,7.48,8.54,.37,.3-7.47-8.54-.39Zm10.99,.47l-.15,3.74,18.35,4.42,6.16,.25,2.59-3.62,2.33,3.79,2.47,.12,5.16-7.25-7.18-3.91-29.73,2.46Zm20.05,117.88l2.33,3.74,2.4,.13,2.63-3.57,2.42,.04,8.5,4.04,2.53-3.57,2.36,3.78-.22,3.7,2.68-3.62,3.7,.13,2.29,3.83,2.46,.04,8.75-3.27-.13,3.66,2.63-3.62,4.89,.18,2.31,3.78,3.85-3.49,15.86,4.25-.27,7.44-43.08-1.71-16.91-8.06-9.98,3.4-2.31-3.87-6.48,7.18-2.29-3.82,.16-3.7,8.9-7.01Zm6.39-37.97l-.19,6.15,2.32,3.83,4.88,.17,.11-3.69-4.63-6.33-2.49-.13Zm16.48-74.47l-2.31-3.86-.32,7.43,4.91,.26-.13,3.61,2.57-3.57,6.2,.25,2.32,3.73,2.59-3.52,2.44,.12,2.34,3.66,3.87-3.44,4.89,.17,2.33,3.74,2.59-3.53,6.16,.22,2.34,3.78,2.59-3.52,13.34,4.11,11.09,.47,.31-7.35-4.9-.21,.13-3.7-3.82,3.53-7.42-.26-10.91-4.2-8.77,3.44,.17-3.74-2.61,3.66-4.95-.21-2.25-3.83-3.74-.17-2.59,3.61-2.29-3.82,.08-3.61-16.23,6.75Zm-5.44,74.93l-.08,3.66,2.04,9.94,5.18-7.18-4.67-6.33-2.47-.09Zm20.69,6.97l-.34,7.38,6.2,.22,.27-7.35,4.95,.17-.34,7.39,11.09,.42,5.25-7.18-7.33-2.77-3.76,2.34-2.49-.13-2.38-2.5-2.43-.13-8.7,2.12Zm49.06,5.56l-.27,7.48,4.95,.17,.29-7.44,4.89,.22-.32,7.39,6.5-7.09-8.45-4.03-7.59,3.31Zm8.28-84.62l-.32,7.35,24.66,.98,2.27,3.79,2.61-3.61,13.34,4.25,15.97,.68c.21-4.97-7.41-8.96-22.85-12.06l-3.87,3.61-2.29-3.82,.13-3.73-2.6,3.69-13.55-.56-2.29-3.82-11.22,3.27Zm41.22,361.38l-1.55,39.29-25.83-.98,.51-13.55,26.87-24.76Zm69.84-239.97l-.15,3.66,11.05,.41,.17-3.65-11.07-.42Zm13.51,.51l-.36,7.4,8.54,4.08c9.11-2.98,13.81-6.47,13.93-10.58l-22.11-.89Zm516.53-1858.52l-2.49,63.95c-6.22,156.67-135.15,264.1-387.16,322.33l-25.89-1.06-7.58,193.16,25.91,1.02-1.04,25.85-25.85-.98-3.61,90.99,179.63,7.05,24.86,26.89-39.17,995.24c-4.76,120.48,87.59,184.5,276.99,191.93l194.32,7.65c241.2,9.47,363.59-33.26,367.3-128.46l15.23-387.5-142.63-5.6-7.11,180.83-53.73,49.62-12.3-.52-49.64-53.65,32.55-826.65,26.83-24.85,232.49,9.13,12.19-310.03-246.05-9.62-24.75-26.78,14.79-375.18-374.08-14.76Zm-359.61,1907.83l35.3,12.49-.25,7.35-16.19,1.87c-7.2-3.53-10.81-7.01-10.64-10.28l-43.41,8.16-5.65-13.84,3.86-3.49,18.18,8.11c12.41-2.8,18.63-6.29,18.8-10.36m2.95,18.56l2.55,.13,7.26,2.77-.28,7.35-2.53-.08-7.01-10.16Zm591.4,156.37l42.87,6.54,2.41,1.37,20.97-.42c-.07,1.65,6.82,2.76,20.79,3.35l-.04,1.2-4.91-.17-.04,1.18,4.91,.21,3.8-1.11,12.21,1.7,13.47,.56,8.71-2.08,14.74,1.78,11.17-.8-.04,1.27,2.5-1.19,2.44,.13,22.03,3.35,4.91,.12,18.54-1.65,7.31,2.68,6.15,.3,2.5,.09,2.44,.04,4.84,1.45,2.57-2.38,3.69,.22,14.65,3.06,19.72-.51-.05,1.23,7.21,5.23-4.06,40.48-2.49,1.11,7.41,.24-.07,1.32-4.96-.17-.13,3.65-2.61,3.62,2.29,3.82-2.46-.12,2.46,1.27-2.77,7.27-.47,11.08,2.3,5.06-5.31,8.46-.72,18.43-3.68,1.07,3.57,1.4-3.82,4.75-4.57,52.81,11.04,1.7-.17,3.66-2.48-.1-8.55-1.57,2.47,1.28-.04,1.31-2.61,2.34,11.11,.38-2.51,1.11-.06,1.28,25.72,3.48-.02,1.28-9.98,3.31c.15-2.5-2.74-3.78-8.46-4.03l-.04,1.23-2.42-1.32-7.48-.34-3.73,3.61c5.73,.21,8.52,1.06,8.49,2.71l-.13,2.51c-7.42-.25-12.89,3.14-16.44,10.49l10.99,1.53-.1,2.51c-7.33-.34-11.11,.38-11.17,2.04l-.51,13.5-8.73,3.36-2.44-1.28-2.51,1.11-4.88-.17-2.4-1.36-2.51,1.15-3.74-.17-2.38-1.32-2.52,1.11-2.43-.09-8.54-2.76-4.97,2.26,.03-1.23-2.49,1.1-25.79-3.49-3.73,1.15-4.92-.21-2.42-1.35-2.48,1.14-13.55-.51-2.38-1.32-2.53-.09-2.46,1.11-6.06-2.72-5.04,2.29-13.45-3-16.03,.59c-.06,1.65,4.47,2.63,13.42,2.97l-.03,1.28,8.64-.9c14.02,.55,20.92,1.19,20.92,2.09l2.49,.07,4.85,.17,2.5,.17,2.46,.05,13.5,.5,2.45,.13,3.72,.12,4.92,.21,2.49,.12,2.44,.05,2.44,.12,2.53,.09,29.49-.13c22.97,.94,34.33,4.63,34.08,11.18l-5.08,2.29,4.65,7.61c-3.29-.17-5.01,1.82-5.18,5.95l-6.1-.22-.05,1.15,6.1,.26-.15,3.74-6.16,2.2-25.87-.98-2.46,1.15-11.01-2.92-9.92,.84-.17,3.7,7.55-2.16-.05,1.15,2.51-1.07,8.58,.43-.09,2.38,2.48,.08,.12-2.42,7.22,2.73,6.29-2.21,4.8,2.63,5.01-2.21,4.95,.17c4.04,.17,6.76,3.57,8.18,10.15l-2.55,1.15,4.92,1.44c-.19,4.94-10.13,7.31-29.86,7.4-9.83-.42-17.58-1.48-23.23-3.36l-13.66,1.91c.08-2.41-3.19-3.78-9.7-4.03v-1.24s-2.48,1.15-2.48,1.15l-3.69-.18-23.15-5.81-2.48,1.1-2.53-.05c-38.28-7.26-61.15-11.09-68.49-11.34l-2.57,1.1-3.69-.12-25.65-4.72,.15-3.71,2.41,.05,2.47,1.44,2.43,.05,8.69-.93-.06,1.27,2.51-1.14,4.93,.21,2.38,1.36,3.76-1.15,2.42,.09,7.33,1.56,2.55-1.18,6.08,2.72,2.48-1.07,.04-1.27,2.39,1.36,2.46,.08,2.55-1.22,2.43,.17,3.67,1.39-.04,1.11,2.46-1.01,4.92,.17,2.46,1.28,2.44,.12c.05-1.62,2.95-2.34,8.7-2.13l2.42,1.36,4.95,.21,.04-1.28c-40.1-4.03-83.11-7.01-129.07-8.74l.06-1.24-2.5,1.15-13.48-1.79-47.95-1.86-2.45-.1-7.45-.33-3.59-.12-2.52-.09-2.43-.13-16.03-.59c-74.62-2.98-129.97-5.95-166-9.01l-2.51,1.02-3.62-.08-7.35-1.45-13.61,.6-18.37-1.87-7.4,.89,.05-1.24-2.58,1.15-13.46-1.74-100.84-3.95-9.76-1.66-3.74,1.11-12.3-1.74-31.94-1.28-4.78-2.63,7.41-2.17,.06-1.18,2.39,1.28,2.48-1.11,2.54,.08,3.57,1.36,2.47,.13,7.47-.93,2.38,1.27,.11-2.41,6.12,.25-.06,2.42,4.91,.21,.07-2.42-13.42-1.83-9.94,.89,.09-1.28-3.7,1.11-2.55-.05-7.22-2.8-.14,2.46-4.78-2.68-3.76,1.11-2.42-.13c-3.31-.12-4.86-2.21-4.72-6.33-9.07-.35-13.46-1.32-13.42-2.98l13.68-3.14c-7.18-6.03-14.06-9.17-20.6-9.43l.13-2.43,12.32,.43,3.61,1.4,2.48-1.15,32.01,1.27,2.38,1.32,2.53-1.1,13.51,.51,2.44,1.32,2.5-1.15,2.46,.12,2.43,1.32,2.42,.09,8.69-.84-.02,1.18,2.51-1.1,4.86,.17,2.4,1.27,3.8-1.02,2.4,.09,2.42,1.31,2.53-1.14,4.93,.25,2.38,1.28,8.72-.9-18.43-2-2.55,1.19-2.36-1.36,.02-1.19-3.72,1.06-4.95-.21-2.36-1.28-2.53,1.11-2.42-.13-2.46-1.22-3.74,1.01-4.93-.2-2.42-1.28-2.5,1.06-2.51-.08-3.57-1.28-2.53,1.01-4.89-.17-2.49-1.27-2.42-.09-2.5,1.06-6.07-2.72-4.97,2.3-4.85-2.64-2.5,1.15-.02,1.14-3.72-1.24-2.42-.17-2.55,1.11-2.4-.08-2.44-1.28,.04-1.27-2.47,1.18-3.7-.21-2.4-1.31-2.53,1.15-4.89-.17-2.48-1.36-2.51,1.15-3.67-.13c-9.03-1.23-18.33-4.84-27.91-11l.04-1.22,4.95,.24,.07-2.41-4.93-.22,.12-2.5c.05-1.7,2.55-2.38,7.48-2.22l.02-1.18-4.9-.22-8.67,.94v-1.28c.06-.81,7.52-2.17,22.43-4.03l-10.87-6.54,2.55-1.25v-1.15l-4.87-1.52,.24-4.89,5.01-3.49,2.38,1.36,2.46,.08,6.46-5.95-18.05-10.49,.04-2.52,18.52-.55,2.42,1.36,.11-2.47-20.58-9.38-8.2-10.25,2.42,.14-2.4-1.32,.07-1.24c5.1-4.76,9.73-7.01,13.8-6.84,.09-2.5-6.82-4.37-20.64-5.77l.04-2.42,9.82,.39,3.65,1.32,2.46,.12,32.56-13.55,2.47,.13-8.31-7.68,.11-2.46c0-.81,5.37-1.88,16.12-3.1l.04-1.19-7.39-.22,.04-1.27,7.69-7.13-2.42-1.37,5.05-2.24,.02-1.19-4.95-.21,.04-1.23,13.55,1.74,2.42,.13,.05-1.24-4.89-.21,.04-2.46,4.97,.21-4.8-3.91,12.49-4.37-7.18-5.27c.13-2.42,3.88-5.56,11.51-9.38l7.35,.29,11.11-.81,9.83,1.66c2.63-5.69,8.88-8.29,18.74-7.91l-2.36-1.31,2.53-3.65-2.38-1.28,.07-1.23,2.57-2.37-4.89-2.68,.09-1.23c.04-2.46,10.83-3.69,32.15-3.66l-10.85-6.54c4.19-1.53,10.35-2.17,18.56-1.78l-2.44-.13,.08-2.43,11.17-2.04,15.99,.63c30.38-.42,50.59-2.54,60.59-6.2l2.46,1.36c11.47-.43,20.54-1.66,27.23-3.87l15.87,3.1c.09-2.55,7.12-3.48,21.05-2.97l4.9,1.45c.07-.77,6.16-1.45,18.55-1.71l2.38,1.32-.06,1.23,13.68-3.15,4.96,.22,2.4,1.35,16.15-3.14,3.56,1.36,2.53,.09c.03-1.62,2.53-2.39,7.48-2.17l45.34,5.52,2.58-1.2,2.42,.1,2.38,1.39,2.52,.1,22.21-1.58-.02,1.2,2.47-1.1,25.72,3.44,8.66-.9,2.45,1.31,2.42,.18,16.12-1.83-.04,2.46,4.82,.22c.12-2.51,1.81-3.69,5.09-3.56l6.05,2.67,28.48-3.74Zm-551.68-162.14l26.96,4.76-.28,6.12-13.42-3.05-16.12,1.9-2.36-2.59,.17-3.65,2.55-3.56,2.51,.08Zm35.39,8.67l11.09,.51,18.33,3.19-.27,7.43-4.93-.25-.15,3.69,2.36,2.59-.12,3.66-2.47-.09c-9.47-9.39-17.5-14.23-24.06-14.49l.24-6.24Zm43.05,1.7c14.68,2.29,21.88,5.85,21.74,10.83l-.18,3.65-3.51-3.77-13.66,3.1-9.38-11.46,2.55-2.39,2.44,.05Zm29.27,7.35l13.4,4.29-.25,6.11-13.42-3.01,.28-7.39Zm144.38-36.19l6.09,.29,3.7,32.16-.75,19.67-4.96-.17-1.53-23.49,.25-7.35,2.62-3.61-5.42-17.5Zm9.79-93.2l4.95,.17-1.82,46.72-4.95-.17,.55-14.78,2.58-2.34-2.35-3.78,1.05-25.83Zm6.54-103.27l4.94,.17,2.2,35.86-.31,7.43-6.08-.25,.42-9.91,2.55-3.61-3.74-29.7Zm15.02-101.7l-.25,6.17-6.33,7.18-2.46-.08,.12-3.74,8.92-9.52Zm110.72,443.02l-.46,12.2,25.87,1.05,1.47-38.14-26.88,24.89Zm118.47-34.79l-.56,13.55,63.98,2.42-11.79-13.94,.49-12.28-52.12,10.24Z"/></g></g><g><g><path class="cls-5" d="M1234.68,3431.76h-43.36v-70.45h-57.16v12.49h-41.33v-120.92h98.49v-26.68c0-3.05-1.24-5.03-3.74-5.92-2.46-.94-3.76-2.14-3.76-3.7s1.14-2.38,3.3-2.38h47.56v38.68h100.92v120.92h-42.19v-12.49h-58.74v70.45Zm-43.36-144h-57.16v39.87h57.16v-39.87Zm43.36,39.87h58.74v-39.87h-58.74v39.87Z"/><path class="cls-5" d="M1444.34,3418.96l-35.16-13.69,38.06-58.17c-18.44,0-34.12-5.15-47.05-15.54-12.91-10.32-19.39-23.2-19.39-38.6s6.66-27.54,19.9-37.85c13.23-10.33,29.19-15.52,47.9-15.52s35.92,5.39,48.97,16.09c13.02,10.7,19.57,23.02,19.57,36.92,0,5.25-1.03,10.55-3.05,15.81-2.02,5.3-6.68,13.49-13.96,24.57l-55.8,85.99Zm5.17-102.61c7.64,0,14.09-2.21,19.33-6.61,5.21-4.39,7.81-9.83,7.81-16.32s-2.7-12.2-8.19-16.68c-5.46-4.45-11.81-6.69-19.11-6.69-7.69,0-14.3,2.2-19.79,6.64-5.52,4.46-8.29,9.99-8.29,16.62s2.71,12.05,8.1,16.44c5.35,4.4,12.07,6.61,20.15,6.61"/><polygon class="cls-5" points="1569.71 3239.96 1631.6 3239.96 1631.6 3418.96 1590.51 3418.96 1590.51 3271.02 1545.79 3271.02 1569.71 3239.96"/><path class="cls-5" d="M1719.6,3381.82c6.4,0,11.85,1.74,16.37,5.38,4.56,3.55,6.81,7.91,6.81,13.02s-2.25,9.49-6.81,13.11c-4.52,3.67-9.97,5.44-16.37,5.44s-11.88-1.78-16.39-5.44c-4.52-3.61-6.79-8.01-6.79-13.11s2.27-9.48,6.79-13.02c4.52-3.64,9.98-5.38,16.39-5.38"/><path class="cls-5" d="M1800.24,3239.96h101.73v30.71h-70.86l-8.86,31.64c2.43-.51,4.87-.95,7.22-1.2,2.35-.32,4.61-.42,6.75-.42,19.75,0,36.1,5.38,49.13,16.18,13.03,10.79,19.57,24.62,19.57,41.41s-7.19,31.39-21.64,43.01c-14.43,11.67-31.96,17.48-52.64,17.48-18.51,0-34.41-4.22-47.72-12.68-13.27-8.45-21.98-20.04-26.15-34.72h43.45c3.34,5.42,7.75,9.59,13.19,12.34,5.48,2.82,11.51,4.24,18.1,4.24,9.17,0,16.94-2.64,23.34-7.92,6.39-5.31,9.6-12.08,9.6-20.45s-2.99-14.69-8.95-19.84c-5.96-5.17-13.14-7.75-21.62-7.75-4.54,0-8.98,.88-13.36,2.73-4.39,1.79-8.67,4.52-12.94,8.18l-33.67-6.09,26.3-96.88Z"/></g><g><path class="cls-5" d="M2185.04,3276.26h94.02v130.8c0,6.14-4.67,11.72-14.03,16.73-9.36,5.02-21.76,7.74-37.23,8.21-1.9-16.48-6.05-28.35-12.37-35.61,6.08,.54,10.64,.84,13.83,.84,8.04,0,12.1-1.45,12.1-4.25v-86.26h-37.75v.48l16.86,2.18c-4.23,8.11-8.03,13.83-11.52,17.28h28.07v27.5h-49.99v10.8h47.85v26.86h-47.85v34.06h-40.28v-34.06h-50.99v-26.86h50.99v-10.8h-53.72v-27.5h28.63c-5.73-7.51-10.14-12.74-13.21-15.72,1.83-.61,4.84-1.23,9.12-1.83,4.29-.64,7.33-1.24,9.18-1.9v-.48h-37.59v124.81h-38.59v-155.26h91.45v-12.82h-107v-31.21h107v-7.31c0-1.85-1.11-3.32-3.25-4.52-2.18-1.12-3.25-2.18-3.25-3.16,0-1.76,1.76-2.65,5.32-2.65h44.2v17.64h109.17v31.21h-109.17v12.82Zm-25.05,50.39h10.95c4.98-9.33,8.13-16.01,9.36-19.93h-31.26c2.01,2.54,5.66,9.15,10.94,19.93"/><path class="cls-5" d="M2395.26,3418.96l-35.13-13.67,38.08-58.07c-18.44,0-34.14-5.14-47.07-15.51-12.94-10.31-19.38-23.16-19.38-38.53s6.66-27.49,19.85-37.78c13.28-10.31,29.24-15.49,47.94-15.49s35.9,5.38,48.95,16.06c13.06,10.68,19.55,22.97,19.55,36.85,0,5.24-1.02,10.54-3.02,15.79-2.03,5.29-6.67,13.47-13.96,24.52l-55.83,85.83Zm5.17-102.42c7.69,0,14.14-2.21,19.35-6.6,5.21-4.38,7.83-9.81,7.83-16.29s-2.73-12.18-8.21-16.65c-5.46-4.44-11.84-6.67-19.1-6.67-7.69,0-14.28,2.19-19.82,6.63-5.52,4.45-8.24,9.97-8.24,16.59s2.68,12.03,8.05,16.41c5.34,4.39,12.05,6.6,20.13,6.6"/><path class="cls-5" d="M2551.13,3239.91c15.02,0,28.01,3.05,38.89,9.15,10.91,6.13,19.31,15.46,25.27,28.01,5.93,12.57,8.91,30,8.91,52.47s-3.03,40.21-9.06,52.81c-5.99,12.63-14.13,21.87-24.32,27.78-10.22,5.88-23.06,8.83-38.57,8.83s-28.55-2.98-39.13-8.9c-10.57-5.95-18.82-14.99-24.8-27.13-5.98-12.11-8.96-29.38-8.96-51.8,0-31.29,5.82-53.97,17.53-68.02,13-15.44,31.05-23.21,54.26-23.21m.9,30.84c-6.64,0-12.48,1.81-17.62,5.27-5.14,3.53-9.07,9.55-11.76,18.17-2.73,8.55-4.08,21.09-4.08,37.64,0,21.56,3.12,36.44,9.3,44.65,6.2,8.23,14.25,12.38,24.15,12.38s17.06-3.9,22.68-11.67c6.8-9.43,10.22-25.23,10.22-47.3s-3.05-37.84-9.17-46.35c-6.14-8.51-14.05-12.78-23.73-12.78"/><path class="cls-5" d="M2670.54,3381.82c6.4,0,11.87,1.74,16.36,5.38,4.58,3.55,6.84,7.91,6.84,13.02s-2.26,9.49-6.84,13.11c-4.5,3.67-9.96,5.44-16.36,5.44s-11.88-1.78-16.4-5.44c-4.49-3.61-6.77-8.01-6.77-13.11s2.28-9.48,6.77-13.02c4.52-3.64,10.01-5.38,16.4-5.38"/><polygon class="cls-5" points="2750.46 3239.96 2812.33 3239.96 2812.33 3418.96 2771.28 3418.96 2771.28 3271.02 2726.54 3271.02 2750.46 3239.96"/></g><g><path class="cls-5" d="M3143.48,3400.37h57.47v30.93h-258.54v-30.93h53.81v-121.61h147.27v121.61Zm-153.48-135.54v28.82h-39.99v-59.76h98.58v-19.76l50.67,2.38c-.27,2.58-2.52,4.24-8.44,4.93v12.46h101.1v59.76h-41.96v-28.82h-159.96Zm111.81,43.48h-66.18v11.33h66.18v-11.33Zm0,51.02v-12.05h-66.18v12.05h66.18Zm-66.18,27.64v13.39h66.18v-13.39h-66.18Z"/><path class="cls-5" d="M3292.83,3419l-33.53-13.74,36.32-58.17c-17.6,0-32.56-5.17-44.88-15.52-12.33-10.39-18.48-23.28-18.48-38.65s6.29-27.55,18.93-37.86c12.63-10.35,27.88-15.49,45.73-15.49s34.25,5.35,46.7,16.05c12.43,10.71,18.67,23.02,18.67,36.94,0,5.27-.97,10.53-2.89,15.85-1.92,5.28-6.37,13.45-13.32,24.51l-53.24,86.08Zm4.92-102.67c7.33,0,13.48-2.21,18.45-6.6,4.98-4.4,7.46-9.84,7.46-16.34s-2.59-12.21-7.8-16.69c-5.21-4.48-11.31-6.73-18.24-6.73-7.32,0-13.63,2.24-18.88,6.68-5.26,4.43-7.9,9.99-7.9,16.62s2.56,12.05,7.68,16.45c5.11,4.39,11.52,6.6,19.22,6.6Z"/><path class="cls-5" d="M3393.82,3239.58h135.94v17.48l-93.54,161.94-33.33-13.67,77.83-134.46h-86.91v-31.29Z"/><path class="cls-5" d="M3578.5,3381.82c6.11,0,11.32,1.78,15.64,5.38,4.32,3.57,6.48,7.92,6.48,13.04s-2.16,9.5-6.48,13.13c-4.32,3.61-9.53,5.41-15.64,5.41s-11.32-1.8-15.64-5.41c-4.31-3.63-6.47-8-6.47-13.13s2.16-9.47,6.47-13.04c4.32-3.6,9.53-5.38,15.64-5.38Z"/><path class="cls-5" d="M3666.25,3239.96h59.02v178.99h-39.15v-147.92h-42.7l22.82-31.07Z"/></g><g><polygon class="cls-5" points="4447.1 3239.96 4508.99 3239.96 4508.99 3418.96 4467.95 3418.96 4467.95 3271.02 4423.19 3271.02 4447.1 3239.96"/><path class="cls-5" d="M4638.66,3239.91c15.83,0,29.49,3.05,40.95,9.15,11.51,6.13,20.36,15.46,26.62,28.01,6.24,12.57,9.37,30,9.37,52.47s-3.18,40.21-9.55,52.81c-6.3,12.63-14.86,21.87-25.61,27.78-10.75,5.88-24.25,8.83-40.61,8.83s-30.06-2.98-41.18-8.9c-11.13-5.95-19.86-14.99-26.13-27.13-6.32-12.11-9.46-29.38-9.46-51.79,0-31.29,6.15-53.97,18.48-68.02,13.66-15.44,32.69-23.2,57.12-23.2m.96,30.84c-7.01,0-13.14,1.81-18.58,5.27-5.39,3.53-9.51,9.54-12.36,18.17-2.87,8.55-4.28,21.09-4.28,37.64,0,21.56,3.29,36.44,9.8,44.65,6.53,8.23,14.99,12.38,25.43,12.38s17.97-3.9,23.87-11.67c7.17-9.43,10.76-25.23,10.76-47.3s-3.2-37.84-9.66-46.35c-6.44-8.51-14.77-12.78-24.98-12.78"/><polygon class="cls-5" points="4730.09 3239.31 4872.57 3239.31 4872.57 3256.85 4774.52 3418.96 4739.61 3405.29 4821.17 3270.63 4730.09 3270.63 4730.09 3239.31"/><path class="cls-5" d="M4911.57,3381.82c6.39,0,11.87,1.74,16.37,5.38,4.54,3.55,6.79,7.91,6.79,13.02s-2.25,9.49-6.79,13.11c-4.5,3.67-9.98,5.44-16.37,5.44s-11.85-1.78-16.39-5.44c-4.54-3.61-6.79-8.01-6.79-13.11s2.25-9.48,6.79-13.02c4.54-3.64,9.97-5.38,16.39-5.38"/><polygon class="cls-5" points="4959.86 3239.31 5102.36 3239.31 5102.36 3256.85 5004.33 3418.96 4969.41 3405.29 5050.98 3270.63 4959.86 3270.63 4959.86 3239.31"/><g><rect class="cls-3" x="4202.34" y="3328.92" width="39.22" height="9.41"/><rect class="cls-3" x="4283.25" y="3297.02" width="40.87" height="9.18"/><rect class="cls-3" x="4202.34" y="3297.02" width="39.22" height="9.18"/><rect class="cls-3" x="4283.25" y="3328.92" width="40.87" height="9.41"/><path class="cls-5" d="M4312.87,3362.88h52.11v-90.41h-81.74v-9.64h103.41v-30.98h-103.41v-15.53s-41.69-1.91-41.69-1.91v17.44h-100.66v30.98h100.66v9.64h-78.17v90.41h49.65c-21.67,16.29-51.29,30.75-80.91,39.47,8.78,6.65,21.39,19.73,27.43,28,30.17-10.79,58.97-27.77,82.01-48.19v50.25h41.69v-51.63c23.59,20.88,53.21,39.01,83.66,50.03,6.31-8.95,18.93-22.26,28.53-29.14-30.17-8.49-60.62-22.72-82.56-38.78Zm-71.31-24.55h-39.22v-9.41h39.22v9.41Zm0-32.13h-39.22v-9.18h39.22v9.18Zm41.69-9.18h40.87v9.18h-40.87v-9.18Zm0,31.9h40.87v9.41h-40.87v-9.41Z"/></g><g><path class="cls-5" d="M4083.57,3365.87c-1.65,27.77-3.57,33.04-13.99,33.04h-28.25c-10.97,0-12.34-1.15-12.34-11.7v-27.31c27.15-8.72,55.41-19.51,75.7-29.6,3.29,.46,6.58-.23,7.68-1.38l-31.54-26.39c-13.71,8.72-32.37,18.59-51.84,26.62v-41.2s-39.5-1.71-39.5-1.71v100.97c0,32.58,9.6,42.45,46.35,42.45h37.58c31.27,0,41.69-11.93,46.08-50.71-10.7-2.07-27.43-7.57-35.93-13.08Z"/><path class="cls-5" d="M4054.49,3235.98v-19.86s-39.77-1.71-39.77-1.71v21.57h-51.29v-19.86s-39.5-1.71-39.5-1.71v21.57h-57.88v31.9h57.88v12.16l-.82-.23c-14.54,28.69-41.14,59.2-67.75,76.19,8.5,5.28,22.49,16.75,29.07,23.18,7.13-5.28,14.26-11.24,21.39-17.67v70.22h39.22v-114.54c5.17-7.14,9.86-14.36,14.2-21.44l2.61-4.52-29.43-8.66h30.99v-14.69h51.29v14.69h39.77v-14.69h57.33v-31.9h-57.33Z"/></g></g><g><polygon class="cls-5" points="309.73 3241.16 371.41 3241.16 371.41 3414.35 330.51 3414.35 330.51 3272.11 285.9 3272.11 309.73 3241.16"/><path class="cls-5" d="M500.63,3236.79c15.77,0,29.39,3.09,40.81,9.3,11.47,6.22,20.3,15.7,26.54,28.45,6.22,12.77,9.34,30.48,9.34,53.3s-3.17,40.85-9.52,53.66c-6.27,12.82-14.81,22.21-25.52,28.22-10.71,5.97-24.17,8.96-40.47,8.96s-29.95-3.03-41.04-9.04c-11.09-6.04-19.79-15.23-26.05-27.57-6.3-12.3-9.43-29.84-9.43-52.62,0-31.78,6.13-54.83,18.42-69.1,13.62-15.69,32.58-23.57,56.92-23.57m.96,31.33c-6.98,0-13.1,1.83-18.53,5.35-5.37,3.58-9.48,9.7-12.31,18.46-2.86,8.68-4.27,21.43-4.27,38.24,0,21.91,3.28,37.03,9.77,45.36,6.52,8.36,14.94,12.58,25.34,12.58s17.91-3.97,23.79-11.87c7.15-9.57,10.73-25.63,10.73-48.04s-3.18-38.44-9.62-47.08c-6.42-8.65-14.73-12.99-24.89-12.99"/><polygon class="cls-5" points="591.75 3241.16 733.74 3241.16 733.74 3258.5 636.03 3418.68 601.24 3405.17 682.52 3272.11 591.75 3272.11 591.75 3241.16"/><path class="cls-5" d="M772.62,3380.81c6.36,0,11.83,1.74,16.31,5.36,4.52,3.55,6.76,7.89,6.76,12.99s-2.24,9.45-6.76,13.05c-4.49,3.65-9.95,5.43-16.31,5.43s-11.82-1.78-16.34-5.43c-4.52-3.6-6.76-7.98-6.76-13.05s2.25-9.45,6.76-12.99c4.52-3.62,9.93-5.36,16.34-5.36"/><polygon class="cls-5" points="820.73 3241.16 962.75 3241.16 962.75 3258.5 865.05 3418.68 830.25 3405.17 911.54 3272.11 820.73 3272.11 820.73 3241.16"/><g><path class="cls-5" d="M108.65,3380.8c6.36-1.48,9.04-2.07,18.74-5.34v30.54c-36.31,10.85-68.71,17.61-107.83,23.85l-10.58-32.1c26.62-2.54,48.04-5.87,64.26-10.05v-71.99H11.37v-28.33h61.87v-60.64h35.41v154.06Zm68.98,2.02c0,7.13,1.25,11.52,3.74,13.14,2.27,1.63,5.99,2.45,11.09,2.45h8.45c7.75,0,12.34-4.75,13.76-14.28,1.22-9.66,1.86-20.89,1.86-33.66l34.09,8.48c-1.94,32.24-6.09,51.57-12.43,57.97-6.35,6.38-16.13,9.57-29.34,9.57h-30.67c-23.62,0-35.41-11.21-35.41-33.65v-166.09h34.87v66.43c18.52-6.55,35.01-16.51,49.47-29.87l23.25,22.29c-23.25,17.68-47.49,30.55-72.72,38.56v58.66Z"/><path class="cls-5" d="M18.61,3431.4l-11.49-34.88,1.72-.16c25.94-2.47,47.13-5.74,63.01-9.74v-69.52H9.98v-31.12h61.87v-60.64h38.19v153.7c5.25-1.22,8.17-1.96,16.91-4.9l1.84-.62v33.5l-1,.29c-33.89,10.14-65.18,17.06-108.01,23.9l-1.17,.18Zm-7.77-32.44l9.67,29.33c41.68-6.68,72.41-13.49,105.48-23.33v-27.58c-8.01,2.66-10.93,3.34-16.38,4.61l-2.36,.55v-154.42h-32.62v60.64H12.76v25.54h61.87v74.46l-1.05,.27c-15.78,4.06-36.88,7.4-62.74,9.91Zm198,28.93h-30.67c-24.42,0-36.81-11.8-36.81-35.05v-167.49h37.66v65.84c17.52-6.47,33.38-16.19,47.13-28.93l.96-.88,25.37,24.32-1.29,.99c-23.01,17.51-47.28,30.44-72.17,38.48v57.65c0,8.22,1.68,11.05,3.1,11.98,2.08,1.49,5.54,2.23,10.33,2.23h8.45c7.02,0,11.07-4.28,12.38-13.09,1.23-9.69,1.85-20.96,1.85-33.46v-1.77l36.94,9.17-.07,1.15c-1.97,32.89-6.16,52.15-12.82,58.87-6.59,6.62-16.8,9.99-30.33,9.99Zm-64.7-199.75v164.7c0,21.71,11.12,32.27,34.02,32.27h30.67c12.76,0,22.31-3.08,28.35-9.15,6-6.07,10.02-24.88,11.96-55.93l-31.25-7.78c-.06,11.91-.69,22.69-1.87,32.07-1.52,10.29-6.62,15.49-15.13,15.49h-8.45c-5.39,0-9.39-.92-11.9-2.72-2.89-1.9-4.31-6.56-4.31-14.27v-59.67l.97-.31c24.45-7.78,48.33-20.34,71.01-37.37l-21.14-20.26c-14.3,12.98-30.77,22.84-48.98,29.28l-1.86,.66v-67h-32.09Z"/></g></g></g></svg>