<?xml version="1.0" encoding="UTF-8"?><svg id="_圖層_1" xmlns="http://www.w3.org/2000/svg" viewBox="0 0 184.57 88.11"><defs><style>.cls-1{fill:#fff;}.cls-2,.cls-3{fill:#f08300;}.cls-3{stroke:#f7b86f;stroke-width:3.45px;}.cls-4{fill:#231815;}</style></defs><path class="cls-3" d="M9.88,1.72H174.7c4.5,0,8.15,3.65,8.15,8.15V78.24c0,4.5-3.65,8.15-8.15,8.15H9.87c-4.5,0-8.15-3.65-8.15-8.15V9.88C1.73,5.38,5.38,1.72,9.88,1.72Z"/><g><path class="cls-4" d="M6.31,32.27v4.88h10.04c2.14,0,3.88,1.74,3.88,3.88v21.12h16.95v-29.88H6.31Z"/><g><path class="cls-4" d="M62.02,57.28h0c-2.02-.15-3.62-1.83-3.62-3.88v-12.35c0-2.06,1.6-3.73,3.62-3.87h0s21.34-.01,21.34-.01v-4.88h-28.62c-8.25,0-14.94,6.69-14.94,14.94s6.69,14.94,14.94,14.94h28.62v-4.88h-21.34Z"/><path class="cls-4" d="M125.22,48.37c.14,0,.28,.02,.42,.02,4.45,0,8.06-3.61,8.06-8.06s-3.61-8.06-8.06-8.06h-39.59v29.88h16.95v-16.95c0-4.45,3.61-8.06,8.06-8.06h2.32c.75,0,1.42,.28,1.95,.73,.35,.29,.63,.66,.82,1.08,.17,.37,.27,.79,.27,1.23,0,.02,0,.04,0,.06-.03,1.65-1.37,2.98-3.03,2.98h-7.22c-.27,.8-.42,1.66-.42,2.56,0,.48,.05,.95,.13,1.41l6.46,5.96,.71,.65,9.06,8.35h18.08l-14.96-13.79Z"/></g><path class="cls-4" d="M148.33,62.16h16.96v-21.12c0-2.14,1.74-3.88,3.88-3.88h9.1v-4.88h-42.9v4.88h12.97v25Z"/><path class="cls-4" d="M38.2,19.72c0,5.5-4.46,9.96-9.96,9.96s-9.96-4.46-9.96-9.96,4.46-9.96,9.96-9.96,9.96,4.46,9.96,9.96Z"/></g><g><path class="cls-2" d="M24.95,47.21c0,7.51,6.11,13.63,13.62,13.63s13.62-6.11,13.62-13.63-6.11-13.62-13.62-13.62-13.62,6.11-13.62,13.62Zm1.41,0c0-6.73,5.48-12.21,12.21-12.21s12.22,5.48,12.22,12.21-5.48,12.21-12.22,12.21-12.21-5.48-12.21-12.21Z"/><path class="cls-2" d="M27.93,47.21c0,5.87,4.77,10.64,10.64,10.64s10.64-4.77,10.64-10.64-4.77-10.64-10.64-10.64-10.64,4.77-10.64,10.64Zm1.41,0c0-5.09,4.14-9.23,9.23-9.23s9.23,4.14,9.23,9.23-4.14,9.23-9.23,9.23-9.23-4.14-9.23-9.23Z"/><path class="cls-2" d="M30.92,47.21c0,4.22,3.43,7.65,7.65,7.65s7.65-3.43,7.65-7.65-3.43-7.65-7.65-7.65-7.65,3.43-7.65,7.65Zm1.41,0c0-3.44,2.8-6.24,6.24-6.24s6.24,2.8,6.24,6.24-2.8,6.24-6.24,6.24-6.24-2.8-6.24-6.24Z"/><path class="cls-2" d="M33.91,47.21c0,2.57,2.09,4.66,4.66,4.66s4.66-2.09,4.66-4.66-2.09-4.66-4.66-4.66-4.66,2.09-4.66,4.66Zm1.41,0c0-1.79,1.46-3.25,3.25-3.25s3.25,1.46,3.25,3.25-1.46,3.25-3.25,3.25-3.25-1.46-3.25-3.25Z"/><path class="cls-2" d="M37.6,47.21c0,.53,.43,.97,.97,.97s.97-.44,.97-.97-.44-.97-.97-.97-.97,.44-.97,.97Z"/><path class="cls-2" d="M36.89,47.21c0,.92,.75,1.68,1.68,1.68s1.68-.75,1.68-1.68-.75-1.68-1.68-1.68-1.68,.75-1.68,1.68Zm1.41,0c0-.15,.12-.27,.27-.27s.27,.12,.27,.27-.12,.27-.27,.27-.27-.12-.27-.27Z"/></g><g><g><path class="cls-1" d="M56.68,79.4h-4.84c-.11,0-.17-.05-.17-.15,0-.03,.66-1.98,1.98-5.85,.51-1.5,1.27-2.75,2.31-3.77,1.09-1.09,2.23-1.63,3.43-1.63h8.59c.11,0,.17,.05,.17,.15,0,.02,0,.04-.01,.06l-.52,1.54c-.05,.13-.15,.2-.3,.2h-5.78c-.6,0-1.09,.26-1.47,.78-.26,.34-.54,.95-.84,1.83l-2.25,6.62c-.05,.15-.15,.22-.3,.22Zm9.22-5.22h-6.12c-.1,0-.15-.05-.15-.15,0-.02,.18-.55,.53-1.59,.05-.14,.15-.21,.29-.21h6.12c.1,0,.15,.05,.15,.16,0,.01-.18,.54-.53,1.57-.04,.14-.14,.22-.29,.22Z"/><path class="cls-1" d="M83.39,79.4h-4.56c-.12,0-.18-.05-.18-.15,0-.02,.51-1.53,1.52-4.51l-5.49,4.58c-.08,.06-.27,.08-.56,.08-.36,0-.57-.03-.61-.08l-2.85-4.59-1.52,4.45c-.05,.15-.15,.22-.3,.22h-1.74c-.12,0-.18-.05-.18-.15,0-.02,1.25-3.69,3.74-11.02,.05-.15,.15-.23,.31-.23h1.87c.08,0,.13,.03,.16,.08l3.47,7.37,8.92-7.35c.06-.07,.13-.1,.2-.1h1.66c.12,0,.18,.05,.18,.15,0,.02-1.25,3.7-3.74,11.03-.05,.15-.15,.22-.31,.22Z"/></g><g><path class="cls-1" d="M88.48,79.4h-1.9c-.23,0-.34-.16-.34-.46,0-.12,.02-.25,.08-.38l.75-2.21c.08-.22,.2-.42,.35-.59,.16-.17,.33-.26,.5-.26h1.9c.22,0,.33,.15,.33,.45,0,.13-.02,.27-.06,.4l-.75,2.21c-.08,.21-.19,.4-.34,.56-.18,.19-.35,.28-.51,.28Z"/><path class="cls-1" d="M97.2,79.4h-4.57c-.11,0-.17-.05-.17-.15,0-.02,1.05-3.12,3.15-9.3h-1.02c-.12,0-.18-.05-.18-.15,0-.01,.18-.54,.53-1.59,.05-.14,.15-.21,.31-.21h4.15c.92,0,1.38,.38,1.38,1.15,0,.24-.05,.51-.15,.81l-3.13,9.22c-.05,.15-.15,.22-.3,.22Z"/><path class="cls-1" d="M110.06,79.4h-6.52c-.77,0-1.38-.25-1.83-.75-.47-.54-.71-1.31-.71-2.29,0-.79,.16-1.68,.49-2.66,.53-1.58,1.32-2.91,2.36-3.97,1.13-1.15,2.32-1.73,3.56-1.73h6.52c.77,0,1.38,.24,1.83,.73,.48,.52,.72,1.27,.72,2.26,0,.81-.17,1.71-.51,2.71-.52,1.56-1.32,2.88-2.37,3.95-1.14,1.17-2.33,1.75-3.55,1.75Zm1.34-8.58c0-.58-.32-.87-.95-.87h-1.12c-.57,0-1.04,.27-1.41,.81-.25,.35-.51,.95-.8,1.8l-.61,1.82c-.34,.99-.51,1.71-.51,2.15,0,.61,.26,.92,.79,.92h1.12c.59,0,1.11-.34,1.56-1.02,.29-.44,.58-1.13,.9-2.05l.61-1.82c.28-.81,.42-1.4,.42-1.75Z"/><path class="cls-1" d="M126.46,79.4h-6.52c-.77,0-1.38-.25-1.83-.75-.47-.54-.71-1.31-.71-2.29,0-.79,.17-1.68,.5-2.66,.53-1.58,1.32-2.91,2.36-3.97,1.14-1.15,2.32-1.73,3.57-1.73h6.53c.77,0,1.38,.24,1.83,.73,.48,.52,.72,1.27,.72,2.26,0,.81-.17,1.71-.51,2.71-.52,1.56-1.31,2.88-2.37,3.95-1.14,1.17-2.33,1.75-3.56,1.75Zm1.35-8.58c0-.58-.32-.87-.95-.87h-1.12c-.57,0-1.04,.27-1.41,.81-.24,.35-.51,.95-.8,1.8l-.61,1.82c-.34,.99-.51,1.71-.51,2.15,0,.61,.26,.92,.79,.92h1.12c.59,0,1.11-.34,1.56-1.02,.29-.44,.59-1.13,.9-2.05l.61-1.82c.28-.81,.42-1.4,.42-1.75Z"/></g></g></svg>