<?xml version="1.0" encoding="UTF-8"?><svg id="_圖層_1" xmlns="http://www.w3.org/2000/svg" viewBox="0 0 275.47 49.79"><defs><style>.cls-1{fill:#e6373f;}.cls-2{fill:#494541;}</style></defs><g><path class="cls-1" d="M58.19,23.14c-4.94-1.95-5.67-6.61-11.82-12.54-3.22-3.11-7.16-4.62-11.01-4.62-1.22,0-2.44,.15-3.62,.46-2.99,.77-4.44,2.31-5.03,3.11,1.25,.28,2.47,.86,3.4,2.34,.76,1.22,.89,2.88,.44,4.41-.15,.5-.36,.89-.62,1.35,.71-.11,1.44-.18,2.19-.18,4.08,0,8.47,1.59,12.81,4.57,2.44,1.67,4.89,3.52,8.55,3.52,2.73,0,4.47-1.24,4.93-1.74,.22-.23,.2-.51-.23-.68Z"/><path class="cls-1" d="M25.76,18.6c1.92-.88,3.53-3.67,2.42-5.46-.91-1.46-2.47-1.71-4.31-1.71-.44,0-.88,.05-1.57,.1-2.88,.21-21.75,2.67-21.92,2.79-.14,.1-.33,.33-.17,.91,.15,.55,.85,1.61,2.79,2.23-.23,.14-.9,.26-1.45,.21-.94-.08-1.46-.3-1.46-.3,0,0-.49,5.86,.85,8.19,.85,1.48,1.89,1.3,4.01,1.41,1.81,.09,2.41,.28,3,.9,.35,.36,.68,1.06,.37,1.07-.95-.02-1.51-.07-2.24-.05-.68,.02-1.26,.07-2,.31-.68,.22-1.78,1.05-2.25,3.63-.15,.86-.43,3.37,.3,3.9,.27,.2,1.11,.22,2.46,.22,.26,0,2.85,.02,2.88,.02,.6,0,.91-.19,1.3-.61,1.02-1.1,3.22-3.07,6.85-4.44,5.15-1.94,6.12-2.95,8.03-5.29,2.26-2.78,2.12-8.03,2.12-8.03Zm-9.42-1.17c-1.18-.45-2.17-1.45-2.17-1.45,.01-.54,1.26-1.21,2.71-1.21,.7,0,1.45,.15,2.13,.56-.4,.91-2.25,1.95-2.67,2.11Z"/><path class="cls-1" d="M59.12,30.32c-.22,.02-.46,.11-1.3,.11-2.34,0-6.81-.92-12.57-5.4-4.7-3.66-9.28-5.34-13.13-5.34-1.52,0-2.87,.19-4.19,.78-.17,2.52-.76,5.12-2.5,7.47-1,1.35-1.88,2.3-3.04,3.11,4.17,.26,8.91,3.01,11.15,4.26,6.46,3.59,10.72,4.43,13.67,4.42,7.53-.04,11.58-5.51,12.2-8.53,.13-.65,.04-.9-.29-.88Z"/><path class="cls-1" d="M45.79,42.79c-2.51-.34-6.4-1.28-13.27-5.37-1.78-1.06-3.32-1.86-4.8-2.52-2.5-1.12-4.66-1.69-6.78-1.69-2.37,.02-4.38,.64-6.68,1.81-3.87,1.96-6.07,6.07-6.64,7.25-.21,.44,.06,.6,.32,.62,1.77,.12,4.65,.64,8.32,2.08,5.34,2.09,9.97,4.31,15.74,4.5,7.08,.22,12.51-3.79,13.91-5.7,.38-.52,.42-.9-.12-.97Z"/><path class="cls-1" d="M39.33,3.47c-2.08-1.48-5.65-2.76-9.84-2.76-1.67,0-3.43,.23-5.22,.79-6.58,2.04-9.37,6.44-10.22,8.68,2.18-.28,7.48-.94,10.27-.98,.31-.6,1.87-3.63,6.87-4.92,1.36-.35,2.6-.53,4.01-.53,1.2,0,2.81,.19,3.88,.43,.03,0,.02,0,0,0,.43,.08,.61-.45,.26-.7Z"/></g><g><g><g><path class="cls-2" d="M82.21,43.73v3.47h-3.57c2.46-2.52,3.98-6.27,4.57-8.88l-2.57-.59c-.6,2.78-2.56,7.04-5.04,9.54v1.85h8.42c.48,0,.88-.39,.88-.87v-4.52h-2.68Z"/><path class="cls-2" d="M92.66,28.72l-1.46,1.31c.5,.37,2.01,1.92,2.3,2.5l1.79-1.51c-.54-.61-1.71-1.81-2.63-2.3Z"/><rect class="cls-2" x="86.38" y="33.66" width="2.68" height="15.84"/><polygon class="cls-2" points="88.41 32.19 87.36 34.11 98.66 34.11 98.66 32.19 88.41 32.19"/><polygon class="cls-2" points="88.41 37.02 87.36 38.95 98.24 38.95 98.24 37.02 88.41 37.02"/><polygon class="cls-2" points="88.41 41.86 87.36 43.78 98.24 43.78 98.24 41.86 88.41 41.86"/><path class="cls-2" d="M75.15,32.19v1.8h9.12c.48,0,.87-.39,.87-.88v-.92h-10Z"/><path class="cls-2" d="M88,28.93c-.32,1.34-1.88,5.25-4.92,7.09l1.01,1.9c3.49-1.49,6.04-5.91,6.42-8.16l-2.51-.83Z"/><polygon class="cls-2" points="92.13 32.58 92.13 48.32 94.81 48.32 94.81 33.2 92.13 32.58"/><path class="cls-2" d="M78.29,28.97c-.12,5.52-1.63,10.33-4.21,13.95l1.73,1.52c3.21-4.01,4.95-8.99,5.16-14.83l-2.68-.64Z"/><path class="cls-2" d="M88.68,46.69v1.92h9.11c.48,0,.87-.39,.87-.87v-1.05h-9.99Z"/></g><g><g><rect class="cls-2" x="111.79" y="32.4" width="3.93" height="1.79"/><rect class="cls-2" x="111.79" y="37.25" width="3.93" height="1.8"/><rect class="cls-2" x="111.79" y="40.59" width="3.93" height="1.8"/><rect class="cls-2" x="111.79" y="45.92" width="3.93" height="1.8"/><path class="cls-2" d="M114.56,40.59v7.13h1.51c.48,0,.87-.39,.87-.88v-6.25h-2.39Z"/><rect class="cls-2" x="118.97" y="33.4" width="7.89" height="1.8"/><rect class="cls-2" x="121.23" y="29.28" width="2.39" height="20.21"/><rect class="cls-2" x="117.75" y="33.4" width="2.39" height="13.43"/><path class="cls-2" d="M124.72,33.4v13.79h1.51c.48,0,.88-.39,.88-.88v-12.92h-2.39Z"/><rect class="cls-2" x="117.44" y="29.28" width="9.67" height="1.8"/><rect class="cls-2" x="118.97" y="33.4" width="7.89" height="1.8"/><rect class="cls-2" x="121.23" y="29.28" width="2.39" height="20.21"/><rect class="cls-2" x="117.75" y="33.4" width="2.39" height="13.48"/><path class="cls-2" d="M124.72,33.4v13.79h1.51c.48,0,.88-.39,.88-.88v-12.92h-2.39Z"/><rect class="cls-2" x="117.44" y="29.28" width="9.67" height="1.8"/><rect class="cls-2" x="110.53" y="32.4" width="2.39" height="17.09"/><path class="cls-2" d="M114.56,32.4v6.65h1.51c.48,0,.87-.39,.87-.88v-5.77h-2.39Z"/><path class="cls-2" d="M108.6,29c-.22,1.27-1.52,5.24-5.58,6.91l.46,2.11c4.37-1.08,7.14-5.74,7.68-8.42l-2.56-.6Z"/><path class="cls-2" d="M112.73,28.95c-.18,.83-.74,2.56-1.59,3.65l2.15,.48c.95-.72,1.77-2.63,2-3.53l-2.56-.6Z"/></g><path class="cls-2" d="M103.85,29.69l-.57,2.02c3.61,.15,3.83,4.43,3.83,5.83v7.83c0,1.05-.72,1.94-2.12,2.14l-.5,.02,.27,2.11h.65c2.5-.07,4.09-1.85,4.09-4.19v-7.92c0-5.31-1.92-7.75-5.65-7.85Z"/><path class="cls-2" d="M107.39,38.42c-.29,.87-1.98,2.76-4.4,3.91l.49,2.11c2.27-.53,4.44-2.22,5.97-4.4l-2.06-1.62Z"/></g></g><g><g><path class="cls-2" d="M153.75,37.77c-.74,.98-2,2.39-4.03,3.65h.02s.42,1.88,.42,1.88c2-.49,4.75-2.65,6.01-4.68l-2.42-.84Z"/><rect class="cls-2" x="136.87" y="36.04" width="5.46" height="1.8"/><path class="cls-2" d="M140.23,36.04v13.39h1.69c.48,0,.88-.39,.88-.88v-12.52h-2.56Z"/><path class="cls-2" d="M137.74,47.64l.58,1.8h3.59c.48,0,.88-.39,.88-.88v-.92h-5.05Z"/><path class="cls-2" d="M144.68,47.64v.92c0,.48,.39,.88,.88,.88h3.43l.58-1.8h-4.88Z"/><path class="cls-2" d="M132.25,31.32v1.8h9.81c.48,0,.88-.39,.88-.88v-.92h-10.69Z"/><path class="cls-2" d="M137.43,28.5l-1.46,1.31c.5,.37,2.01,1.92,2.3,2.5l1.79-1.51c-.54-.61-1.71-1.8-2.63-2.3Z"/><path class="cls-2" d="M137.73,32.12l-2.55-.54h-.03s-.13,.01-.13,.01v.11c.18,6.61-1.47,13.32-3.69,16.62l1.9,1.23c2.84-3.71,4.57-10.65,4.49-17.34v-.09Z"/><path class="cls-2" d="M144.98,30.72l.27,1.8h9.37c.48,0,.88-.39,.88-.88v-.92h-10.52Z"/><path class="cls-2" d="M152.87,33.39c-1.51,1.24-7.01,2.65-8.19,2.65v12.52c0,.48,.39,.88,.88,.88h1.69v-11.47c2.78-.31,5.97-1.44,7.61-2.9l-1.98-1.69Z"/><path class="cls-2" d="M145.18,28.8c-.23,1.01-1.26,3.79-2.95,5.61l1.74,1.52c2.16-1.78,3.45-4.69,3.76-6.53l-2.56-.6Z"/><path class="cls-2" d="M150.7,36.27l-2.34,.44c.08,3.78,1.6,10.17,5.55,13.08l1.9-1.28c-3.26-3.1-5.19-8.68-5.12-12.25Z"/></g><g><rect class="cls-2" x="168.85" y="35.71" width="5.26" height="1.8"/><path class="cls-2" d="M171.54,35.71v10.56h1.69c.48,0,.88-.39,.88-.88v-9.68h-2.56Z"/><path class="cls-2" d="M169.22,44.47l.58,1.8h3.43c.48,0,.88-.39,.88-.88v-.92h-4.88Z"/><path class="cls-2" d="M175.48,34.65v1.8h4.65c-.67,.72-2.02,1.27-2.02,1.27v6.74h-2.49l.58,1.8h3.6c.48,0,.88-.39,.88-.88v-6.99c.84-.48,1.91-1.24,2.28-2.03v-1.72h-7.47Z"/><path class="cls-2" d="M160.25,34.39v1.8h4.36c.48,0,.88-.4,.88-.88v-.92h-5.24Z"/><path class="cls-2" d="M166.06,31.67v1.8h7c.48,0,.88-.39,.88-.88v-.92h-7.88Z"/><path class="cls-2" d="M176.38,30.92l-.24,.04-.38,1.84h6.56c.48,0,.88-.39,.88-.88v-1.01h-6.81Z"/><path class="cls-2" d="M175.76,28.99c0,.95-.61,3.73-2.03,5.2l1.79,1.38c1.68-1.2,2.72-3.96,2.8-5.97l-2.56-.6Z"/><rect class="cls-2" x="174.72" y="39.38" width="8.73" height="1.8"/><path class="cls-2" d="M162.93,34.89v2.12c0,4.03-1.23,7.86-3.47,11.52l2.12,.82c2.34-2.77,3.92-7.85,3.92-11.89v-2.57h-2.56Z"/><path class="cls-2" d="M170.47,32.05l-2.19-.02h0s-.12,0-.12,0h-.12c.2,5.28-.77,9.22-2.63,12.12l1.75,1.26c2.27-2.59,3.51-7.55,3.43-13.36h-.12Z"/><path class="cls-2" d="M168.94,28.82l-1.52,1.27c.61,.55,2.27,2.49,2.4,3.06l2.22-1.14c-.43-.72-2.26-2.66-3.1-3.19Z"/><path class="cls-2" d="M169.86,47.69c-5.3-.04-5.57-3.61-5.57-4.32v-.17l-2.01,.76v.08c0,3.57,2.83,5.45,8.2,5.45h12.5c.49,0,.88-.39,.88-.88v-.92h-13.99Z"/><path class="cls-2" d="M161.76,29.4l-1.52,1.27c.5,.37,2.44,2.29,2.79,2.96l1.79-1.51c-.54-.61-2.14-2.22-3.06-2.71Z"/></g></g></g><g><g><g><path class="cls-2" d="M263.72,14.48V.7h-4.44V18.91h14.38c.99,0,1.81-.81,1.81-1.81v-2.63h-11.75Z"/><g><path class="cls-2" d="M161.54,.75V18.91h2.63c.99,0,1.81-.81,1.81-1.81V.75h-4.44Z"/><rect class="cls-2" x="154.67" y=".75" width="18.16" height="4.43"/></g><polygon class="cls-2" points="231.6 .7 225.51 15.24 219.41 .7 214.61 .7 222.25 18.91 228.76 18.91 236.4 .7 231.6 .7"/><path class="cls-2" d="M255.17,5.17V.7h-16.21V18.91h14.4c.99,0,1.81-.81,1.81-1.81v-2.63h-11.75v-2.66h10.78V7.74h-10.78v-2.57h11.75Z"/><path class="cls-2" d="M189.53,12.68c2.22-.96,3.77-3.17,3.77-5.73,0-3.44-2.8-6.24-6.24-6.24h-10.78s0,0,0,0V18.92h2.63c1,0,1.81-.81,1.81-1.81v-3.92h4.11l2.78,4.6c.38,.62,1.28,1.13,2,1.13h3.85l-3.93-6.24Zm-8.82-7.55h6.35c1,0,1.82,.81,1.82,1.82s-.82,1.82-1.82,1.82h-6.35v-3.63Z"/></g><path class="cls-2" d="M212.14,18.91h4.8L209.3,.7h-6.51l-7.64,18.21h4.8l1.58-3.78h9.02l1.58,3.78Zm-8.74-8.21l2.65-6.33,2.65,6.33h-5.31Z"/></g><g><g><path class="cls-2" d="M141.39,.73V12.66L131.38,.73h-5.28V18.89h4.43V6.56l10.36,12.33h3.14c.99,0,1.8-.81,1.8-1.8V.73h-4.43Z"/><path class="cls-2" d="M94.2,.73V18.89h2.62c.99,0,1.8-.81,1.8-1.8V.73h-4.42Z"/><path class="cls-2" d="M79.19,14.46V.73h-4.42V18.89h14.34c.99,0,1.8-.81,1.8-1.8v-2.62h-11.72Z"/></g><g><path class="cls-2" d="M112.52,4.37c2.69,0,4.98,1.5,5.86,3.58,1.37-.97,2.5-1.97,3.29-2.93-1.81-2.99-5.23-5.02-9.15-5.02-5.8,0-10.52,4.42-10.52,9.85,0,1.42,.33,2.76,.91,3.98,1.4-.14,2.91-.42,4.48-.85-.71-.89-1.13-1.97-1.13-3.13,0-3.03,2.81-5.49,6.26-5.49Z"/><path class="cls-2" d="M118.78,9.79s0,.04,0,.06c0,3.02-2.81,5.49-6.26,5.49-1.33,0-2.56-.37-3.57-.99-1.76,.54-3.46,.91-5.05,1.12,1.9,2.56,5.06,4.23,8.63,4.23,5.8,0,10.52-4.42,10.52-9.85,0-1.09-.2-2.15-.55-3.13-.99,1.07-2.26,2.1-3.71,3.07Z"/></g></g></g></svg>