<?xml version="1.0" encoding="UTF-8"?><svg id="navbar" xmlns="http://www.w3.org/2000/svg" viewBox="0 0 39.76 39.76"><defs><style>.cls-1{fill:#fcfcfc;}</style></defs><path class="cls-1" d="M32.95,0H6.81C3.05,0,0,3.05,0,6.81v26.14c0,3.76,3.05,6.81,6.81,6.81h26.14c3.76,0,6.81-3.05,6.81-6.81V6.81c0-3.76-3.05-6.81-6.81-6.81Zm-3.74,25.1s-.27,.33-.83,.52l-4.62,6.65s-.89,1.26-1.96,1.17l-4.44-.68c.56-.43,.37-.2,1.37-1.42l4.66-6.76-14.59,.04-.26-1.16h15.39l1.61-1.07,3.3,1.54s.97,.57,.37,1.18Zm-17.18-5.78l8.19,.03,1.36-2.02c.35-.54,.82-.09,.82-.09l2.65,2.37c.73,.98-.41,.85-.41,.85H12.29l-.25-1.14Zm20.43,2.69s-6.02-1.87-10.03-6.59c-1.68-1.6-2.81-2.94-3.18-3.39C11.99,20.57,2.64,22.41,2.64,22.41,12.51,16.56,17.1,6.32,17.1,6.32l4.63,1.54c.72,.23,.67,.66,.67,.66-.11,.65-.9,.57-.9,.57-.28,.42-.56,.82-.85,1.21,.95,.84,6.85,5.74,16.48,6.56,0,0-4.2,4.2-4.65,5.16Z"/></svg>