<?xml version="1.0" encoding="UTF-8"?><svg id="navbar" xmlns="http://www.w3.org/2000/svg" viewBox="0 0 110.18 47.73"><defs><style>.cls-1{fill:#dd2a2a;}</style></defs><g><g><path class="cls-1" d="M102.68,26.48c.57-.23,.85-.46,.85-.69,0-.25-.29-.4-.88-.46l-3.42-.35,.11,16.64,3.34,.13v-15.27Z"/><path class="cls-1" d="M98.36,33.89h0s-2.47-2.68-2.47-2.68l-1.79,2.01-.02-7.33,3.89-.03v-.02c.44,.01,1.15,.12-.05-1.12h0s-2.32-2.26-2.32-2.26l-1.63,1.75h-8.25l.32,1.69h3.54l.02,7.58h-4.3l.31,1.52h3.98v11.68s4.38-.8,4.38-.8l.12-10.88h4.28c.4-.04,1.21,.17,0-1.1Z"/></g><path class="cls-1" d="M108.21,46.8c.64-.53,.96-1.27,.96-2.24V23.89c.68-.35,1.02-.68,1.02-.98,0-.25-.3-.42-.91-.5l-4.48-.41v21.2s.23,3.12-.81,4.38l4.22-.79Z"/></g><g><path class="cls-1" d="M76.26,43.3v-4.79c.56-.23,.85-.45,.85-.65,0-.15-.14-.33-.41-.56l-2.91-1.96-1.64,1.43h-2.28l-3.67-.99v9.74l3.84-.56v-2.18h2.14v1.09l4.09-.56Zm-6.22-1.82v-3.36h2.14v3.36h-2.14Z"/><path class="cls-1" d="M83.19,23.95l-3.75-2.3-1.69,2.04h-13.13l-4.23-.71v11.86c-.1,2-.66,8.57-3.7,12.26,0,0,7.44-1.11,7.97-12.26h.01v-.29c0-.12,.01-.23,.02-.36l-.02-1.04,.23,.88h12.37c.29,.06,.97-.11,.22-.89l.04,.04-.19-.2c-.09-.1-.06-.07-.19-.19l-1.78-1.87-1.38,1.73-.98-.03v-2.58h3.93c.31,0,1.26,.13,.03-1.18h0s-1.79-1.81-1.79-1.81l-1.4,1.55h-.77v-1.17c.51-.21,.77-.42,.77-.65,0-.27-.29-.44-.88-.5l-3.95-.28v2.6h-3.53l.33,1.43h3.21v2.58h-4.29v-7.4h13.32v18.14s.23,3.12-.81,4.38l4.22-.79c.64-.53,.96-1.27,.96-2.24V25.47s.18-.09,.18-.09c.71-.35,1.07-.64,1.07-.87,0-.16-.14-.35-.41-.56Z"/></g><path class="cls-1" d="M31.65,6.99c.51-.69,1.01-1.39,1.5-2.13,0,0,1.4,.14,1.59-.99,0,0,.09-.76-1.17-1.16L25.41,0S17.35,18.01,0,28.28c0,0,16.43-3.23,29.22-18.24,.65,.79,2.63,3.15,5.58,5.97,7.07,8.3,17.64,11.59,17.64,11.59,.8-1.69,8.18-9.08,8.18-9.08-16.93-1.46-27.3-10.06-28.97-11.54Z"/><path class="cls-1" d="M39.41,23.37l-4.66-4.16s-.83-.78-1.44,.17l-2.39,3.55-14.41-.06,.44,2h21.73s2,.22,.72-1.5Z"/><path class="cls-1" d="M46.07,30.96l-5.81-2.7-2.83,1.88H10.36l.46,2.05,25.65-.07-8.2,11.88c-1.75,2.14-1.43,1.74-2.4,2.49l7.81,1.19c1.89,.16,3.44-2.05,3.44-2.05l8.13-11.69c.98-.33,1.45-.91,1.45-.91,1.05-1.07-.65-2.07-.65-2.07Z"/></svg>