<?xml version="1.0" encoding="UTF-8"?><svg id="navbar" xmlns="http://www.w3.org/2000/svg" viewBox="0 0 43.36 41.3"><defs><style>.cls-1{fill:#fcfcfc;}</style></defs><path class="cls-1" d="M38.51,6.61C33.86,1.99,28.06,.22,21.73,0,15.6,.19,10.05,1.81,5.46,5.98c-7.26,6.6-7.28,16.68-.06,23.32,3.27,3,7.16,4.81,11.53,5.46,2.51,.37,3.84,1.32,2.99,4.08-.22,.71-.59,1.64,.13,2.21,.69,.55,1.5,.08,2.19-.31,6.45-3.63,12.62-7.65,17.38-13.41,5.39-6.52,4.89-14.74-1.11-20.72ZM13.29,23.53H6.76V13.17h2.49v8.27h4.03v2.09Zm4.28,0h-2.49V13.17h2.49v10.36Zm10.59,0h-2.53l-2.56-4.99-1.02-2.27h-.07c.11,1.15,.32,2.57,.32,3.82v3.43h-2.36V13.17h2.53l2.57,4.96,1.02,2.29h.07c-.12-1.1-.33-2.59-.33-3.82v-3.43h2.36v10.36Zm9.11,0h-6.72V13.17h6.56v2.07h-4.07v1.92h3.46v2.09h-3.46v2.2h4.23v2.09Z"/></svg>