<?xml version="1.0" encoding="UTF-8"?><svg id="navbar" xmlns="http://www.w3.org/2000/svg" xmlns:xlink="http://www.w3.org/1999/xlink" viewBox="0 0 130.18 32.96"><defs><style>.cls-1{fill:url(#linear-gradient-4);}.cls-1,.cls-2,.cls-3,.cls-4,.cls-5{fill-rule:evenodd;}.cls-2,.cls-6{fill:#ff5f00;}.cls-3{fill:url(#linear-gradient-2);}.cls-4{fill:url(#linear-gradient);}.cls-5{fill:url(#linear-gradient-3);}.cls-7{fill:#fefefe;}</style><linearGradient id="linear-gradient" x1="13.23" y1="14.92" x2="10.56" y2="24.03" gradientUnits="userSpaceOnUse"><stop offset="0" stop-color="#ff5f00"/><stop offset=".26" stop-color="#ff5f00"/><stop offset="1" stop-color="#ffb07a"/></linearGradient><linearGradient id="linear-gradient-2" x1="20.87" y1="5.39" x2="9.31" y2="15.87" gradientUnits="userSpaceOnUse"><stop offset="0" stop-color="#ff5f00"/><stop offset="1" stop-color="#ff9a57"/></linearGradient><linearGradient id="linear-gradient-3" x1="29.68" y1="26.78" x2="13.98" y2="14.46" gradientUnits="userSpaceOnUse"><stop offset="0" stop-color="#ffceab"/><stop offset=".41" stop-color="#ff954f"/><stop offset=".64" stop-color="#ff8d42"/><stop offset="1" stop-color="#ff5f00"/></linearGradient><linearGradient id="linear-gradient-4" x1="14.58" y1="18.43" x2="14.58" y2=".3" gradientUnits="userSpaceOnUse"><stop offset=".1" stop-color="#ff5f00"/><stop offset=".41" stop-color="#eeb819"/><stop offset=".64" stop-color="#c6cd37"/><stop offset=".81" stop-color="#25a999"/><stop offset="1" stop-color="#a14f90"/></linearGradient></defs><g><g><g><path class="cls-4" d="M16.76,15.35c-1.27-.29-2.58-.47-3.96-.53-2.11,1.53-3.86,3.68-5.05,6.59-1.34,3.26,.19,3.51,1.49,1.46,1.12-1.77,2.79-5.17,3.56-4.85,.74,.31-.85,3.3-1.31,6.2-.59,3.63-.12,4.93,1.72,.58,1.31-3.1,2.47-6.27,3.57-9.45Z"/><path class="cls-3" d="M18.8,5.04c-2.59,6.95-4.87,7.55-10.6,8.4-2.71,.4-1.87,1.85,.81,1.53,1.31-.16,2.57-.2,3.78-.15,1.49-1.09,3.17-1.86,4.95-2.35,.77-2.3,1.54-4.6,2.33-6.9,.79-2.29-.32-3.05-1.27-.53Z"/><path class="cls-2" d="M13.15,11.15c1.56,.71,2.57-2.19,1.02-2.91-1.56-.71-2.57,2.19-1.02,2.91Z"/></g><path class="cls-5" d="M28.91,5.95c.73,1.17-.37,1.51-.8,.85C22.6-.95,8.35-.14,3.86,9.66c-3.31,7.23,.34,16.06,8.12,18.43,4.47,1.36,8.13-1.08,8.72-4.91,.55-3.62-1.57-7.81-7.9-8.35,9.98-6.98,17.98-.07,17.65,7.65-.29,6.93-9.11,13.5-20.18,9.03C1.58,27.99-2.62,17.49,1.74,9.1,7.45-1.86,21.8-2.94,28.91,5.95Z"/></g><path class="cls-1" d="M2.98,18.3c-.64-2.81-.4-5.85,.88-8.65C8.35-.14,22.6-.95,28.12,6.8c.43,.67,1.53,.32,.8-.85C21.8-2.94,7.45-1.86,1.74,9.1,.11,12.25-.33,15.69,.23,18.95l2.75-.65Z"/></g><g><path class="cls-6" d="M129.39,4.05H30.92c2.95,3.37,4.73,7.78,4.73,12.6,0,5.9-2.67,11.17-6.87,14.7h100.61c.44,0,.79-.42,.79-.86V4.78c0-.44-.35-.73-.79-.73Z"/><g><path class="cls-7" d="M48.21,19.65h-5.92l-.15-.69h4.05l-.26-.28c-.17-.23-.28-.66-.3-1.21,0-.53-.07-1.03-.22-1.6-.21-.69-.45-1.19-.73-1.58h-3.69l-.17-.69h7.48v-3.25h-5.77l-.17-.69h5.94v-2.66c0-.07,.04-.09,.13-.09,.69,.07,1.35,.21,1.95,.41,.24,.11,.37,.25,.37,.41,0,.21-.15,.32-.45,.44-.08,.02-.11,.09-.11,.23v1.26h2.32l.23-.21,1.07-1.53c.09-.14,.23-.16,.36-.05,.67,.5,1.24,1.14,1.69,1.95,.09,.14,.13,.23,.08,.34-.06,.11-.19,.18-.36,.18h-5.38v3.25h4.38l.22-.21,1.05-1.53c.09-.14,.22-.16,.38-.05,.67,.5,1.22,1.15,1.69,1.95,.07,.11,.11,.23,.06,.34-.04,.11-.17,.18-.36,.18h-4.63l.86,.5c.21,.14,.3,.27,.28,.44-.02,.14-.11,.21-.32,.23l-.22,.16c-.34,.69-.79,1.4-1.35,2.08l-1.14,1.26h1.57l.32-.18,1.01-1.42c.08-.11,.19-.14,.32-.05,.6,.46,1.12,1.08,1.54,1.81,.09,.14,.13,.25,.08,.37-.06,.09-.19,.16-.36,.16h-5.45v3.34h4.08l.22-.21,1.07-1.54c.09-.14,.21-.16,.36-.05,.67,.5,1.24,1.17,1.69,1.95,.09,.14,.13,.23,.07,.34-.06,.11-.19,.18-.37,.18h-7.12v3.66c0,.39-.15,.66-.43,.8-.38,.21-.77,.18-1.14-.05-.21-.14-.32-.39-.32-.76v-3.66h-7.01l-.17-.69h7.18v-3.34Zm-2.53-5.36c.51,.27,.96,.6,1.31,1.03,.51,.55,.77,1.15,.86,1.72,.06,.55-.06,1.01-.28,1.44-.13,.21-.28,.37-.45,.48h3.47c.3-.66,.54-1.37,.75-2.13l.47-2.38v-.16h-6.13Z"/><path class="cls-7" d="M66.93,28.12c-.39,.21-.79,.21-1.2-.02-.19-.11-.3-.37-.28-.73v-8.15c-.79,.71-1.5,1.24-2.12,1.51-.11,.05-.17,.02-.19-.05l.06-.18c.52-.5,1.11-1.17,1.76-2.02,.66-.87,1.24-1.81,1.69-2.79,.43-.94,.77-1.95,1.03-3.09h-4.29l-.17-.71h4.25c.08,.02,.13,0,.19-.05l.64-.62c.08-.07,.15-.09,.24-.02,.43,.27,.82,.62,1.16,1.03,.21,.25,.28,.44,.26,.6-.02,.14-.17,.25-.43,.3-.08,.02-.17,.14-.26,.39-.56,1.24-1.1,2.29-1.67,3.16l-.26,.37c.64,.16,1.22,.46,1.67,.85,.45,.41,.73,.85,.86,1.33,.09,.44,.04,.85-.13,1.24-.15,.32-.34,.53-.62,.62-.28,.07-.51,0-.73-.23-.17-.21-.28-.53-.36-1.01-.06-.41-.15-.85-.32-1.28l-.41-.8v9.62c0,.39-.13,.64-.37,.76Zm.24-20.23c.43,.37,.69,.78,.77,1.19,.06,.55-.04,1.01-.3,1.42-.22,.37-.51,.55-.82,.6s-.58-.09-.82-.39c-.17-.25-.24-.69-.26-1.24,.02-.32-.02-.64-.09-1.03-.09-.43-.21-.8-.37-1.05-.11-.14-.15-.25-.09-.34,.04-.09,.15-.09,.36,0,.66,.14,1.2,.44,1.65,.85Zm2.81,1.47l-.17-.69h6.86l.22-.21,1.07-1.53c.09-.14,.21-.16,.36-.05,.67,.5,1.24,1.17,1.69,1.95,.09,.14,.13,.23,.07,.34-.06,.11-.19,.18-.37,.18h-9.72Zm0,8.31c-.02-.07,.04-.09,.17-.07,.52,.18,1.09,.48,1.69,.92h5.53l.69-.92c.08-.09,.17-.11,.3-.05,.67,.28,1.22,.62,1.63,1.01,.17,.14,.22,.3,.21,.46-.04,.16-.17,.3-.39,.41-.13,.07-.17,.14-.17,.3v7.6c0,.34-.15,.6-.43,.76-.28,.14-.51,.23-.75,.21-.23,0-.39-.07-.54-.18-.13-.11-.19-.34-.17-.69v-.34h-5.88v.07c0,.37-.09,.64-.3,.8-.24,.18-.52,.27-.86,.3-.24,0-.45-.07-.58-.18-.09-.09-.15-.27-.13-.57v-9.83Zm2.53-1.01c-.24,.21-.54,.3-.86,.32-.24,0-.45-.07-.6-.21-.08-.09-.13-.25-.11-.55v-5.27c-.02-.07,.04-.09,.15-.05,.51,.14,1.01,.41,1.57,.8h3.86l.24-.16,.54-.64c.06-.02,.13-.02,.21,0,.51,.32,.97,.71,1.42,1.17,.11,.09,.17,.23,.17,.39s-.11,.3-.34,.37c-.06,0-.09,.09-.09,.23v2.13l.21,.37c.06,.11,.09,.23,.09,.44,0,.16-.04,.25-.09,.25h-6.13c-.06,.18-.13,.32-.24,.41Zm1.35,2.54h-2v3.23h2v-3.23Zm-2,7.17h2v-3.23h-2v3.23Zm4.93-10.93v-3.05h-3.97v3.16h3.92l.06-.11Zm-1.05,6.99h2v-3.23h-2v3.23Zm0,3.94h2v-3.23h-2v3.23Z"/><path class="cls-7" d="M88.44,23.42c.06,0,.09,.07,.11,.18,.09,.82,.04,1.65-.17,2.47-.17,.78-.45,1.37-.84,1.81-.28,.23-.6,.32-.96,.25-.3-.05-.52-.25-.69-.6-.13-.3-.13-.64,.02-1.05,.15-.39,.39-.66,.73-.8,.36-.16,.66-.39,.92-.66,.26-.3,.51-.76,.77-1.47,.02-.11,.06-.16,.11-.14Zm-2.36-13.17l-.19-.69h3.97c-.17-.23-.26-.57-.28-1.05l-.04-.6-.24-.62c-.09-.11-.13-.21-.09-.3,.04-.09,.13-.09,.3-.02,.49-.02,.92,.09,1.31,.27,.34,.21,.56,.44,.69,.73,.08,.46,.02,.89-.19,1.26l-.19,.32h.92l.3-.18,.79-1.33c.13-.18,.26-.23,.41-.07,.43,.41,.77,.94,1.09,1.58,.11,.21,.15,.37,.11,.48-.06,.14-.17,.21-.34,.21h-8.34Zm.66,5.47h5.21l.13-.09,.67-.46c.09-.02,.17,0,.26,.09,.52,.46,1.01,.99,1.42,1.58,.09,.21,.07,.34-.02,.46-.09,.12-.22,.14-.41,.02h-.26l-1.74,.66c-.04,.12-.11,.23-.28,.3-.09,.05-.15,.16-.15,.32v.18l2.77-.43c.17-.02,.24,.02,.26,.14,.02,.09-.06,.18-.19,.28l-2.04,.73-.81,.25v1.85c.04,.53-.11,.99-.41,1.37-.34,.39-.86,.64-1.57,.71-.11,.02-.17-.02-.17-.14-.02-.41-.15-.82-.36-1.17-.22-.34-.56-.64-1.03-.87-.07-.05-.13-.11-.11-.23,.02-.11,.07-.16,.15-.14l1.03,.05c.39,.05,.56-.09,.56-.44v-.44l-2.1,.55c-.28,.07-.43,.16-.45,.28-.06,.16-.13,.25-.22,.27-.13,0-.23-.07-.28-.25l-.24-.94-.23-1.01c-.02-.14,.04-.18,.17-.16,.58,.05,1.67,0,3.22-.11h.13v-1.53c0-.12,.04-.16,.13-.16l1.33,.14,.88-.96h-5.1l-.17-.71Zm1.97-.94c-.24,.21-.54,.3-.86,.32-.24,0-.45-.07-.58-.21-.09-.09-.15-.25-.13-.55v-3.82c-.02-.09,.04-.11,.15-.07,.54,.18,1.11,.46,1.7,.89h2.87l.23-.16,.56-.62c.06-.05,.11-.05,.19,0,.51,.32,.97,.69,1.44,1.17,.09,.09,.15,.21,.15,.37s-.11,.3-.34,.37c-.06,.02-.09,.11-.09,.25v.92l.15,.21c.06,.11,.09,.25,.09,.46,0,.16-.04,.25-.09,.25h-5.25l-.19,.23Zm.3-2.75v1.81h3.09v-1.81h-3.09Zm4.05,12.74c.37,.5,.56,1.01,.6,1.51-.02,.55-.17,.99-.45,1.35-.28,.32-.56,.48-.9,.46-.32,0-.56-.18-.77-.55-.13-.3-.19-.71-.13-1.28,.06-.37,.07-.78,.02-1.21-.06-.55-.17-.96-.32-1.31-.09-.16-.11-.3-.06-.39,.06-.07,.17-.05,.34,.07,.67,.34,1.26,.8,1.67,1.35Zm6.18-13.24l.73-.82c.06-.05,.13-.05,.23,.02,.43,.27,.86,.66,1.25,1.14,.09,.11,.15,.25,.15,.41-.02,.16-.17,.27-.41,.37-.11,.05-.17,.14-.19,.23l-.26,3.37v1.76c.04,.53,.11,.96,.24,1.33,.08,.21,.17,.32,.26,.32,.11-.02,.22-.11,.3-.25l.82-1.92c.06-.16,.13-.23,.22-.21,.09,.02,.13,.11,.15,.27-.17,.99-.32,1.95-.41,2.86-.04,.37,0,.69,.11,.94,.21,.27,.28,.6,.26,.96-.02,.32-.17,.55-.49,.66-.28,.11-.66,.02-1.09-.28-.43-.3-.83-.85-1.18-1.63-.3-.73-.52-1.69-.62-2.89-.09-1.24-.09-3.23-.02-5.98h-1.29l-.15,1.72c-.11,.92-.26,1.79-.45,2.63l.11,.09c.58,.5,.94,.94,1.11,1.28,.19,.46,.26,.85,.24,1.19-.02,.32-.13,.55-.37,.73-.24,.16-.49,.16-.75,0-.24-.16-.45-.41-.69-.85l-.24-.48c-.41,1.08-.99,2.02-1.74,2.82-.62,.64-1.31,1.14-2.08,1.58-.09,.05-.17,.02-.21-.05-.02-.07,0-.16,.09-.25,.51-.5,.97-1.17,1.41-1.95,.45-.78,.79-1.63,1.07-2.54l.36-1.49c-.47-.69-.92-1.28-1.39-1.81-.04-.07-.06-.11-.04-.18,.04-.09,.09-.11,.19-.05l.56,.27,.86,.55,.06-.41,.24-2.82h-1.31l-.17-.69h1.5l.07-3.39v-1.03c0-.14,.04-.21,.09-.23,.22-.02,.86,.07,1.93,.25,.3,.05,.45,.16,.45,.34s-.11,.32-.34,.39c-.09,.05-.17,.14-.19,.27l-.17,3.39h1.16Zm-1.95,13.06c.43,.5,.69,.98,.79,1.51,.04,.55-.07,1.03-.32,1.4-.24,.37-.51,.57-.84,.62-.3,.02-.58-.09-.82-.41-.17-.28-.22-.69-.24-1.26,.02-.41-.04-.87-.15-1.33-.15-.57-.34-1.01-.56-1.35-.09-.14-.13-.27-.08-.39,.04-.05,.15-.05,.34,.02,.75,.27,1.39,.69,1.89,1.19Zm4.29-.18c.51,.48,.81,.96,.92,1.49,.09,.53,.02,1.03-.19,1.44-.19,.39-.45,.62-.77,.71-.3,.07-.6-.02-.86-.32-.17-.25-.3-.64-.36-1.21-.02-.41-.13-.89-.3-1.37-.21-.6-.43-1.03-.69-1.35-.13-.14-.17-.25-.13-.37,.04-.07,.15-.07,.36-.02,.81,.21,1.48,.55,2.02,1.01Z"/><path class="cls-7" d="M108.19,13.3l-.17-.69h1.27v-4.19c0-.07,.04-.09,.13-.09,.69,.07,1.35,.23,1.95,.43,.24,.11,.37,.25,.37,.39,0,.21-.15,.34-.45,.46-.06,.02-.09,.09-.09,.23v2.77h.94V7c0-.07,.04-.09,.13-.09,.69,.07,1.37,.21,1.97,.41,.23,.11,.36,.25,.36,.41,0,.21-.15,.32-.43,.44-.07,.02-.11,.09-.11,.23v1.26h.45l.15-.16,.77-1.24c.09-.21,.22-.21,.39-.07,.36,.39,.68,.85,.95,1.42,.11,.21,.15,.37,.09,.53-.06,.14-.15,.21-.32,.21h-2.49v2.27h.49l.3-.18,.79-1.33c.13-.18,.26-.23,.41-.09,.43,.44,.77,.94,1.09,1.6,.11,.21,.15,.34,.11,.48-.06,.14-.17,.21-.34,.21h-8.71Zm.45,1.19v-.23c0-.07,.04-.11,.11-.09,.54,.05,1.1,.14,1.72,.3,.24,.05,.39,.16,.45,.3l.04-.48v-.44c0-.07,.02-.09,.07-.09l1.33,.23c.19,.05,.28,.14,.28,.25s-.09,.21-.26,.25l-.09,.14-.32,1.12,.52,.21,.22,.18,.21-1.9,.04-.46s.02-.07,.07-.07c.17-.02,.6,.09,1.33,.34,.17,.07,.26,.16,.24,.27,0,.11-.09,.21-.24,.23l-.11,.11-.45,1.4,.52,.25c.15,.11,.28,.25,.37,.39v-2.45c0-.07,.04-.11,.11-.09,.54,.05,1.12,.14,1.72,.3,.3,.07,.47,.23,.47,.41,0,.21-.13,.37-.39,.46-.09,.05-.15,.16-.17,.32v.69c.65-1.05,1.24-2.36,1.78-3.89,.56-1.67,.88-3.37,.96-5.02v-.32c.02-.09,.08-.16,.17-.18,.3-.05,.94,.05,1.91,.25,.26,.07,.41,.18,.41,.39,.02,.18-.11,.3-.34,.37-.09,.02-.15,.11-.17,.23,.21,1.24,.71,2.47,1.54,3.71,.88,1.28,1.89,2.25,3,2.86,.09,.05,.15,.11,.13,.23,0,.07-.06,.11-.17,.14-.37,.02-.71,.16-1.03,.46-.3,.28-.51,.57-.64,.89-.06,.16-.17,.18-.3,.02-.94-.96-1.63-2.15-2.1-3.62-.37-1.26-.64-2.47-.75-3.64-.47,1.56-1.01,2.91-1.67,4.08-.82,1.49-1.7,2.63-2.68,3.44h-.06v10.65c0,.34-.15,.6-.43,.73-.34,.18-.69,.16-1.03-.05-.19-.11-.28-.3-.28-.55h-4.65l-.11,.07c-.34,.18-.69,.16-1.03-.07-.19-.11-.28-.32-.26-.57V14.49h-.02Zm1.74,4.08c.15-.57,.3-1.21,.39-1.97l.13-1.56c-.06,.11-.17,.23-.37,.3-.07,.05-.13,.16-.15,.32v2.91Zm0,6.55l.26-1.47,.24-2.57v-.43c0-.07,.02-.11,.07-.11,.17-.02,.6,.05,1.33,.25,.19,.05,.28,.14,.28,.27,0,.11-.09,.21-.26,.23l-.09,.14-.28,1.08c.19,.09,.36,.21,.51,.37l.26,.32,.24-2.06v-.44c.02-.07,.04-.11,.09-.11l1.33,.34c.17,.07,.26,.16,.24,.28,0,.14-.09,.21-.24,.23l-.11,.11-.41,1.4,.62,.5,.24,.32v-6c-.11,.21-.26,.34-.43,.39-.19,.07-.36,0-.51-.16-.11-.16-.17-.39-.19-.69l-.07-.44-.21,.46c-.39,.8-.77,1.4-1.16,1.86h-.09v-.11l.36-1.26c-.15,0-.28-.05-.37-.16-.11-.11-.19-.34-.24-.66l-.09-.44-.22,.53c-.3,.73-.66,1.33-.99,1.74h-.09v6.3Zm4.33,1.72v-1.49c-.11,.11-.24,.21-.37,.23-.17,.02-.34-.05-.49-.23-.09-.11-.15-.34-.17-.69,0-.3-.04-.57-.11-.89l-.28,.64c-.39,.87-.79,1.53-1.2,2.02h-.11v-.11c.15-.46,.32-1.01,.45-1.6l-.23,.07c-.17,.02-.32-.07-.45-.25-.09-.16-.15-.37-.15-.71v-.28l-.26,.66c-.3,.73-.64,1.31-.96,1.76v.87h4.33Zm-4.31-7.51h2.94l.45-.92c.06-.14,.13-.14,.19,0l.66,.92c.06,0,.07,.11,.07,.32,0,.25-.07,.37-.21,.37h-3.97l-.13-.69Zm6.8,0h4.57c.09-.02,.19-.07,.28-.18l.64-.62c.09-.07,.21-.07,.3,0,.64,.37,1.24,.82,1.78,1.35,.13,.16,.17,.3,.11,.46-.06,.14-.19,.18-.37,.21l-.24,.09c-1.09,1.28-2.06,2.41-3,3.34,.6,.5,.99,1.01,1.22,1.49,.23,.6,.3,1.12,.23,1.63-.08,.46-.26,.8-.53,.98-.26,.14-.52,.11-.77-.07-.24-.18-.43-.46-.54-.82-.26-.96-.64-1.86-1.11-2.73-.45-.82-.97-1.63-1.59-2.36-.06-.09-.08-.16-.04-.23,.04-.07,.09-.07,.17-.02,.84,.48,1.67,1.03,2.45,1.67,.58-1.15,1.07-2.31,1.46-3.5h-4.85l-.17-.69Zm2.12-3.6l.19-.11,.99-1.21c.11-.21,.24-.23,.41-.11,.64,.48,1.24,1.05,1.72,1.69,.09,.11,.11,.21,.08,.32-.04,.09-.15,.14-.32,.14h-4.14l-.17-.71h1.24Z"/></g></g></svg>