<?xml version="1.0" encoding="UTF-8"?><svg id="_圖層_1" xmlns="http://www.w3.org/2000/svg" viewBox="0 0 363.33 102.47"><defs><style>.cls-1{fill:#fff;}.cls-2,.cls-3{fill:#e4007f;}.cls-4{stroke-width:1.84px;}.cls-4,.cls-5{fill:none;stroke:#231815;}.cls-5{stroke-width:1.19px;}.cls-6{fill:#4c4948;}.cls-7{fill:#231815;}.cls-3{stroke:#e4007f;stroke-width:2px;}</style></defs><g><g><g><g><path class="cls-7" d="M194.58,26.63c-1.21-3.8-2.03-4.9-3.64-7.36-1.62-2.46-3.99-4.63-7.13-6.51-3.12-1.88-6.96-3.2-11.49-3.94l-34.6-5.67-2.66,16.22C127.91,8.2,114.54,.76,99.3,.92c-12.22,.13-23.13,5.12-30.54,12.91-2.06-2.59-3.21-3.4-5.37-5.03-2.35-1.77-5.31-3.02-8.89-3.74-3.58-.73-7.63-.69-12.14,.13L7.86,11.44l12.5,69.1,31.65-6.19-3.64-20.26,2.73-.55c3.83-.69,7.14-1.79,9.96-3.27,5.6,14.64,21,25.08,39.03,24.88,10.63-.11,20.26-3.9,27.47-10.01l-1.2,7.3,31.89,4.77,3.36-20.31,2.75,.39c4.54,.75,8.58,.73,12.15-.04,3.56-.76,6.5-2.05,8.81-3.85,2.32-1.79,4.73-3.82,5.8-5.46,1.44-2.21,3.78-6.65,4.35-13.32,.26-2.17-.06-5.44-.88-8Z"/><path class="cls-4" d="M194.58,26.63c-1.21-3.8-2.03-4.9-3.64-7.36-1.62-2.46-3.99-4.63-7.13-6.51-3.12-1.88-6.96-3.2-11.49-3.94l-34.6-5.67-2.66,16.22C127.91,8.2,114.54,.76,99.3,.92c-12.22,.13-23.13,5.12-30.54,12.91-2.06-2.59-3.21-3.4-5.37-5.03-2.35-1.77-5.31-3.02-8.89-3.74-3.58-.73-7.63-.69-12.14,.13L7.86,11.44l12.5,69.1,31.65-6.19-3.64-20.26,2.73-.55c3.83-.69,7.14-1.79,9.96-3.27,5.6,14.64,21,25.08,39.03,24.88,10.63-.11,20.26-3.9,27.47-10.01l-1.2,7.3,31.89,4.77,3.36-20.31,2.75,.39c4.54,.75,8.58,.73,12.15-.04,3.56-.76,6.5-2.05,8.81-3.85,2.32-1.79,4.73-3.82,5.8-5.46,1.44-2.21,3.78-6.65,4.35-13.32,.26-2.17-.06-5.44-.88-8Z"/></g><path class="cls-1" d="M62.39,22.7c.36,1.95,.38,3.91,.07,5.89-.32,1.98-1.08,3.91-2.26,5.79-1.19,1.88-2.96,3.56-5.31,5.03-2.34,1.47-5.23,2.53-8.67,3.17l-10.36,1.94,3.68,19.65-15.82,2.96L13.91,14.7l26.18-4.91c3.43-.63,6.51-.69,9.22-.16,2.73,.54,4.98,1.47,6.78,2.81,1.79,1.33,3.2,2.89,4.22,4.65,1.02,1.77,1.71,3.64,2.09,5.6m-16.09,3.1c-.47-2.51-1.52-4.08-3.17-4.72-1.65-.65-4.38-.62-8.19,.1l-3.32,.62,2.37,12.66,3.41-.64c2.62-.48,4.61-1.03,5.96-1.63,1.35-.58,2.26-1.39,2.73-2.38,.46-1,.54-2.34,.22-4"/><path class="cls-1" d="M183.97,33c-.32,1.95-.98,3.81-1.95,5.55-.98,1.75-2.35,3.31-4.1,4.68-1.76,1.36-3.99,2.33-6.7,2.92-2.71,.57-5.79,.57-9.22,0l-10.41-1.72-3.26,19.73-15.88-2.63,8.71-52.63,26.27,4.35c3.44,.56,6.35,1.57,8.73,3,2.38,1.43,4.18,3.09,5.4,4.95,1.22,1.87,2.01,3.81,2.38,5.82,.35,2,.37,4.01,.04,5.98m-16.18-2.6c.41-2.5-.04-4.35-1.37-5.52-1.33-1.17-3.91-2.08-7.73-2.71l-3.34-.54-2.1,12.69,3.42,.57c2.64,.44,4.68,.61,6.16,.51,1.47-.09,2.6-.53,3.37-1.32,.79-.78,1.31-2.01,1.59-3.69"/><path class="cls-2" d="M84.33,36.04c4.36,5.49,13.52,5.47,20.43-.04,6.92-5.5,8.99-14.41,4.62-19.91-4.36-5.48-13.52-5.47-20.43,.04-6.92,5.5-8.99,14.42-4.62,19.91"/><path class="cls-1" d="M126.6,22.79c-1.36-3.44-3.35-6.44-5.96-9.01-2.61-2.56-5.93-4.59-9.94-6.06-4.03-1.48-8.59-2.19-13.7-2.13-6.84,.07-12.62,1.46-17.35,4.16-4.73,2.7-8.21,6.22-10.45,10.58-2.24,4.35-3.34,9.02-3.28,14,.05,4.94,1.25,9.58,3.6,13.89,2.35,4.32,5.91,7.79,10.67,10.4,4.77,2.61,10.57,3.88,17.42,3.81,6.75-.07,12.47-1.41,17.16-4.02,4.69-2.61,8.2-6.1,10.53-10.45,2.34-4.37,3.48-9.14,3.42-14.3-.04-3.81-.75-7.44-2.12-10.87m-15.65,20.96c-9.61,7.65-22.67,7.22-29.17-.94-6.5-8.16-3.98-20.98,5.64-28.63,9.6-7.65,22.67-7.23,29.16,.93,6.5,8.17,3.98,20.99-5.63,28.64"/></g><g><g><path class="cls-7" d="M97.31,72.99l-8.79-.09c-1.67-.02-3.24,.34-4.65,.96v-.96c.03-2.74-3.94-5.73-7.56-5.77-2.84-.03-5.71,1.36-6.83,3.28-1.89-1.23-4.29-1.98-6.91-2.01l-7.07-.07c-4.42-.05-8.25,1.98-10.08,4.94-1.82-1.03-3.97-1.65-6.3-1.67l-9.22-.09c-2.4-.02-4.64,.58-6.52,1.65-2.13-1.3-4.75-2.1-7.6-2.13l-2.05-.02c-7.17-.07-13.02,4.66-13.08,10.55l-.06,6.78c-.06,5.9,5.7,10.74,12.87,10.81l2.05,.02c1.91,.02,3.72-.31,5.36-.9,2.14,2.12,5.25,3.48,8.73,3.52l9.22,.09c3.66,.04,6.94-1.39,9.13-3.65,1.94,1.36,4.46,2.19,7.22,2.22l7.08,.07c2.88,.03,5.51-.82,7.5-2.24,1.15,1.4,3.18,2.35,5.51,2.37,2.36,.02,5.28-.75,7.04-2.06,1.68,1.1,3.73,1.77,5.95,1.79l8.79,.09c5.76,.06,10.48-4.19,10.54-9.48l.08-8.29c.06-5.3-4.58-9.65-10.34-9.71Z"/><path class="cls-5" d="M97.31,72.99l-8.79-.09c-1.67-.02-3.24,.34-4.65,.96v-.96c.03-2.74-3.94-5.73-7.56-5.77-2.84-.03-5.71,1.36-6.83,3.28-1.89-1.23-4.29-1.98-6.91-2.01l-7.07-.07c-4.42-.05-8.25,1.98-10.08,4.94-1.82-1.03-3.97-1.65-6.3-1.67l-9.22-.09c-2.4-.02-4.64,.58-6.52,1.65-2.13-1.3-4.75-2.1-7.6-2.13l-2.05-.02c-7.17-.07-13.02,4.66-13.08,10.55l-.06,6.78c-.06,5.9,5.7,10.74,12.87,10.81l2.05,.02c1.91,.02,3.72-.31,5.36-.9,2.14,2.12,5.25,3.48,8.73,3.52l9.22,.09c3.66,.04,6.94-1.39,9.13-3.65,1.94,1.36,4.46,2.19,7.22,2.22l7.08,.07c2.88,.03,5.51-.82,7.5-2.24,1.15,1.4,3.18,2.35,5.51,2.37,2.36,.02,5.28-.75,7.04-2.06,1.68,1.1,3.73,1.77,5.95,1.79l8.79,.09c5.76,.06,10.48-4.19,10.54-9.48l.08-8.29c.06-5.3-4.58-9.65-10.34-9.71Z"/></g><path class="cls-1" d="M23.13,78.23l-2.28,6c-.91-.87-1.82-1.32-2.75-1.33-.85,0-1.58,.27-2.21,.84-.63,.57-1.23,1.62-1.81,3.16l-.07,7.31-6.01-.06,.17-17,6.01,.06-.04,4.11c.39-1.01,1.07-1.99,2.03-2.94,.96-.96,2.09-1.42,3.38-1.41,.68,0,1.27,.11,1.78,.32,.5,.21,1.1,.52,1.8,.94"/><path class="cls-1" d="M67.17,94.74l-6.03-.06,.02-1.54c-.64,.53-1.32,.96-2.03,1.3-.71,.33-1.69,.5-2.93,.49-1.24-.02-2.44-.34-3.63-.96-1.18-.63-2.15-1.59-2.91-2.89-.75-1.3-1.12-2.94-1.1-4.91,.02-1.55,.32-3,.91-4.34,.6-1.34,1.51-2.43,2.75-3.27,1.25-.83,2.76-1.24,4.55-1.22,1.11,.01,2.02,.14,2.7,.4,.69,.25,1.3,.57,1.83,.95l.07-7.17,6.03,.06-.23,23.15Zm-5.98-5.47l.07-6.47c-.7-.4-1.25-.68-1.64-.85-.39-.17-.86-.25-1.39-.26-.94,0-1.74,.38-2.37,1.17-.64,.79-.96,1.87-.98,3.25-.01,1.5,.31,2.59,.97,3.28,.65,.69,1.42,1.04,2.3,1.05,.72,0,1.31-.1,1.76-.33,.45-.22,.88-.5,1.29-.84"/><path class="cls-1" d="M78.64,94.85l-6.03-.06,.17-16.98,6.03,.06-.17,16.98Zm-.28-20.94c0,.71-.26,1.3-.77,1.78-.5,.49-1.1,.72-1.79,.72-.47,0-.9-.12-1.28-.34-.38-.23-.68-.54-.9-.92-.22-.38-.32-.82-.32-1.29,0-.68,.26-1.28,.75-1.77,.49-.5,1.09-.74,1.8-.74,.69,0,1.28,.26,1.78,.78,.5,.5,.74,1.1,.74,1.79"/><path class="cls-1" d="M102.98,86.58c-.02,1.69-.4,3.2-1.15,4.51-.75,1.32-1.86,2.35-3.33,3.11-1.47,.75-3.26,1.11-5.36,1.1-2.11-.02-3.89-.42-5.34-1.21-1.46-.78-2.54-1.83-3.26-3.17-.72-1.33-1.06-2.84-1.04-4.53,.01-1.27,.23-2.43,.64-3.48,.42-1.04,1.04-1.96,1.88-2.76,.84-.8,1.86-1.42,3.08-1.83,1.21-.42,2.62-.62,4.21-.61,1.6,.02,3.02,.25,4.24,.7,1.23,.45,2.24,1.07,3.04,1.88,.8,.79,1.4,1.73,1.8,2.79,.4,1.06,.59,2.23,.58,3.51m-6.32-.06c.01-1.34-.27-2.4-.84-3.16-.58-.76-1.43-1.15-2.54-1.16-1.11,0-1.95,.36-2.55,1.11-.59,.76-.89,1.8-.91,3.14-.01,1.33,.27,2.39,.86,3.17,.58,.78,1.41,1.18,2.51,1.19,1.12,.01,1.97-.37,2.56-1.13,.59-.76,.9-1.82,.91-3.16"/><path class="cls-1" d="M37.36,90.82c-.88,1.39-1.93,2.44-3.14,3.15-1.22,.7-2.32,1.05-3.33,1.04-1.42-.01-2.69-.63-3.8-1.86-1.11-1.24-1.65-3.09-1.63-5.58,.02-1.96,.41-3.69,1.17-5.22,.75-1.53,1.77-2.73,3.03-3.61,1.26-.88,2.82-1.31,4.66-1.3,.54,0,1.35,.07,2.42,.2,.17,.02,.41,.05,.74,.08l5.89,.06-.12,11.92c-.02,2.03,.17,3.68,.58,4.95l-6.01-.06c-.21-.93-.37-2.2-.48-3.79m.04-3.92l.05-4.73c-.66-.19-1.27-.28-1.83-.28-1.13-.02-2.08,.42-2.85,1.29-.77,.87-1.16,2.06-1.17,3.57-.01,1.09,.19,1.92,.6,2.48,.41,.56,.87,.84,1.4,.85,.57,0,1.21-.28,1.91-.85,.7-.57,1.33-1.35,1.9-2.33"/></g><path class="cls-3" d="M199.87,89.58c0,4.74-3.83,8.57-8.57,8.57l-73.63-.02c-4.74-.01-8.57-3.84-8.57-8.58v-6.84c0-4.74,3.84-8.57,8.58-8.57l73.63,.03c4.73,0,8.56,3.84,8.56,8.57v6.84Z"/></g><g><path class="cls-1" d="M120.48,77.64h5.43c.34,0,.58,.07,.72,.21,.12,.12,.19,.36,.19,.7,0,.32-.06,.54-.17,.68-.14,.2-.36,.32-.66,.33v5.24c.15-.17,.35-.25,.6-.25h.04c.64-.75,1.23-1.53,1.75-2.32-.53-.47-1.13-.92-1.79-1.38-.22-.19-.33-.41-.33-.66,0-.19,.07-.34,.21-.43,.12-.14,.27-.21,.43-.21,.12,0,.23,0,.31,.02,.52-.79,.94-1.65,1.25-2.57,.16-.29,.36-.43,.6-.43,.16,0,.37,.05,.62,.16,.25,.15,.37,.34,.37,.58,0,.21-.08,.47-.23,.8-.3,.6-.76,1.32-1.38,2.14,.26,.22,.5,.44,.72,.66,.47-.79,.86-1.61,1.19-2.45,.16-.26,.36-.39,.6-.39,.16,0,.37,.05,.62,.14,.23,.14,.35,.34,.35,.6,0,.41-.14,.92-.43,1.52-.55,1.15-1.41,2.51-2.59,4.09,.7-.07,1.34-.16,1.91-.27-.07-.45-.14-.85-.21-1.19-.05-.19-.08-.29-.08-.31,0-.36,.19-.55,.58-.58,.42,0,.7,.17,.82,.49,.19,.64,.34,1.31,.45,1.99,.01-.04,.03-.08,.06-.12,.14-.14,.32-.21,.55-.21h.02c.49-.58,.95-1.17,1.38-1.79-.64-.56-1.38-1.12-2.22-1.67-.21-.21-.31-.43-.31-.68,0-.18,.06-.32,.19-.43,.14-.15,.29-.23,.47-.23,.15,0,.29,.02,.41,.06,.56-.75,1.03-1.56,1.4-2.42,.15-.29,.34-.43,.55-.43,.19,0,.4,.05,.64,.16,.25,.15,.37,.34,.37,.58,0,.2-.09,.46-.27,.76-.33,.6-.82,1.29-1.48,2.06,.36,.3,.71,.62,1.05,.95,.45-.79,.84-1.6,1.17-2.42,.18-.34,.4-.51,.68-.51,.16,0,.37,.06,.62,.19,.23,.16,.35,.38,.35,.64,0,.4-.14,.88-.41,1.46-.51,1.03-1.28,2.23-2.32,3.62,.64-.05,1.23-.12,1.77-.21-.05-.36-.12-.68-.18-.97-.04-.18-.06-.27-.06-.29,0-.41,.21-.63,.64-.66,.41,0,.69,.17,.82,.51,.34,1.01,.54,2.17,.6,3.45,0,.42-.28,.64-.84,.66-.44-.03-.68-.25-.74-.66-.01-.16-.03-.33-.04-.51-1.41,.26-2.77,.4-4.07,.43-.29-.01-.51-.09-.66-.23l-.02-.02c.01,.19,.03,.38,.04,.56,0,.42-.25,.65-.76,.68,.07,.11,.1,.24,.1,.39,0,.88-.01,1.61-.04,2.2,.03,.71-.11,1.49-.41,2.32-.47,1.33-1.3,2.48-2.51,3.45-.2,.19-.45,.31-.74,.35-.32,0-.58-.09-.78-.27-.19-.15-.29-.36-.29-.64,0-.22,.05-.39,.16-.51,.03-.04,.11-.11,.25-.21,.81-.58,1.43-1.24,1.87-1.99h-1.38c-.84,0-1.25-.42-1.25-1.25v-2.94c0-.56,.27-.84,.82-.84,.6,0,.9,.28,.9,.84v2.2c0,.23,.12,.35,.35,.35h1.19c.07-.37,.1-.74,.1-1.11v-1.95c0-.23,.08-.42,.23-.58,.15-.1,.36-.14,.62-.14h.14c-.04-.08-.07-.17-.08-.27-.01-.25-.03-.47-.04-.68-1.48,.37-2.89,.57-4.23,.6-.29-.01-.51-.08-.68-.21-.03-.03-.05-.05-.06-.08v8.69c0,.3-.08,.51-.23,.64-.14,.18-.36,.27-.68,.27-.29,0-.51-.09-.66-.27-.16-.12-.25-.34-.25-.64v-2.67c-1.3,.44-2.54,.7-3.7,.78-.36-.03-.6-.11-.72-.25-.15-.19-.23-.47-.25-.84,0-.27,.07-.49,.21-.66,.16-.18,.4-.28,.7-.31v-11.1c-.26-.01-.47-.1-.62-.25-.15-.14-.23-.39-.23-.76,0-.3,.08-.53,.23-.7,.16-.14,.39-.21,.68-.21Zm1.73,4.11h1.97v-2.2h-1.97v2.2Zm0,4.13h1.97v-2.3h-1.97v2.3Zm0,4.5c.67-.11,1.33-.24,1.97-.39v-2.28h-1.97v2.67Zm11.59-3.76c.36,0,.58,.05,.66,.16,.16,.12,.25,.34,.25,.66v3.27h1.42c.1,0,.14-.05,.14-.16v-3.02c0-.4,.28-.6,.84-.6,.59,0,.88,.2,.88,.6v3.84c0,.66-.35,.99-1.05,.99h-2.24v2.4c0,.26-.07,.46-.21,.6-.14,.15-.37,.23-.7,.23s-.55-.08-.7-.23c-.14-.11-.21-.31-.21-.6v-7.32c0-.27,.06-.48,.18-.62,.14-.14,.38-.21,.72-.21Z"/><path class="cls-1" d="M145.9,80.54h1.17v-3.23c.01-.58,.34-.88,.99-.9,.67,0,1.03,.3,1.07,.9v3.23h.9c.32,0,.55,.07,.72,.21,.16,.12,.25,.41,.25,.86,0,.36-.05,.6-.14,.72-.16,.22-.44,.33-.82,.33h-.9v3.7c.12-.07,.24-.14,.35-.23,.18-.15,.33-.23,.47-.25,.1,0,.17,0,.23,.02,.04-.3,.19-.53,.43-.7,1.74-.66,3-1.31,3.78-1.95h-2.41c-.26,0-.47-.07-.62-.21-.14-.12-.21-.33-.21-.62s.07-.51,.21-.66c.15-.11,.36-.16,.62-.16h.84c-.22-.37-.47-.72-.74-1.05-.12-.15-.19-.27-.19-.37,0-.27,.13-.49,.39-.66,.18-.11,.38-.16,.6-.16,.16,.01,.33,.08,.51,.18,.15,.11,.36,.32,.62,.62,.47,.64,.72,1.12,.76,1.44h1.25v-2.73c-1.15,.1-2.38,.15-3.7,.16-.55-.05-.82-.4-.82-1.05,.03-.38,.3-.61,.82-.68,3.23-.08,6.22-.37,8.96-.86,.22-.03,.38-.04,.47-.04,.25,0,.45,.09,.6,.27,.15,.19,.23,.4,.23,.64,0,.38-.21,.67-.64,.84-.75,.17-2.05,.34-3.88,.53v2.92h1.36c.03-.08,.06-.16,.1-.25,.52-.84,.91-1.53,1.17-2.08,.07-.14,.14-.23,.23-.29,.1-.07,.22-.1,.37-.1,.26,0,.5,.06,.72,.18,.23,.14,.35,.35,.35,.64,0,.12-.05,.32-.16,.58-.23,.47-.47,.9-.7,1.32h1.52c.29,0,.49,.05,.62,.16,.14,.11,.21,.33,.21,.66,0,.23-.06,.41-.19,.53-.14,.19-.35,.29-.64,.29h-3.29c1.18,.7,2.58,1.38,4.19,2.04,.21,.21,.31,.46,.31,.76-.03,.3-.16,.52-.39,.66-.17,.12-.44,.2-.82,.23-.52,0-1.08-.19-1.69-.58-1.12-.74-2.21-1.57-3.27-2.49v2.24c0,.36-.08,.6-.25,.74l-.02,.02h3.41c1.1,0,1.64,.55,1.64,1.65v4.92c0,1.1-.55,1.65-1.64,1.65h-8.16c-1.08,0-1.62-.55-1.62-1.65v-4.92c0-1.1,.54-1.65,1.62-1.65h3.23l-.02-.02c-.15-.14-.23-.38-.23-.74v-2.24c-1.08,1.22-2.35,2.14-3.8,2.75-.26,.1-.53,.15-.8,.16-.15,0-.27-.01-.37-.04,.01,.1,.02,.18,.02,.27-.01,.27-.12,.53-.31,.76-.42,.38-.97,.75-1.64,1.11v5.06c0,.52-.14,.9-.41,1.15-.29,.26-.68,.42-1.17,.49h-1.13c-.41-.04-.72-.19-.92-.45-.14-.15-.22-.36-.25-.62,0-.34,.08-.59,.23-.74,.15-.19,.41-.31,.78-.35h.47c.23-.01,.35-.1,.35-.25v-3.37c-.34,.11-.64,.16-.9,.16-.75-.03-1.14-.38-1.17-1.07,0-.53,.25-.86,.74-.99,.48-.17,.92-.33,1.34-.49v-4.77h-1.17c-.29,0-.52-.08-.7-.23-.19-.15-.29-.42-.29-.82,0-.44,.1-.73,.29-.88,.14-.12,.37-.18,.7-.18Zm7.58,9.62h2.63v-1.46h-2.32c-.21,0-.31,.1-.31,.3v1.16Zm2.63,3.1v-1.56h-2.63v1.25c0,.21,.1,.31,.31,.31h2.32Zm1.87-4.56v1.46h2.8v-1.16c0-.2-.1-.3-.31-.3h-2.49Zm2.49,4.56c.21,0,.31-.1,.31-.31v-1.25h-2.8v1.56h2.49Z"/><path class="cls-1" d="M173.56,76.57c.18,0,.4,.06,.68,.18,.25,.16,.37,.38,.37,.64,0,.25-.08,.54-.23,.88-.32,.68-.79,1.49-1.44,2.42,.36,.38,.69,.79,1.01,1.21,.59-.96,1.11-1.97,1.56-3.02,.19-.34,.42-.51,.68-.51,.16,0,.37,.06,.62,.18,.23,.17,.35,.38,.35,.64,0,.49-.18,1.1-.55,1.81-.69,1.34-1.75,2.91-3.19,4.71,.78-.12,1.49-.28,2.14-.47-.07-.32-.14-.62-.21-.9-.03-.17-.05-.25-.06-.27,0-.48,.25-.73,.74-.74,.45,0,.75,.19,.9,.58,.33,.99,.51,2.1,.55,3.35,0,.48-.3,.73-.9,.74-.44-.01-.68-.23-.72-.66-.01-.14-.03-.27-.04-.39-.27,.1-.53,.18-.78,.27v7.38c0,.3-.09,.51-.27,.64-.15,.18-.39,.27-.72,.27s-.54-.09-.68-.27c-.17-.12-.25-.34-.25-.64v-6.89c-.7,.12-1.38,.19-2.06,.21-.34-.01-.61-.1-.8-.25-.16-.18-.25-.45-.25-.8,0-.25,.06-.46,.18-.64,.17-.18,.4-.27,.72-.27h.1c.66-.75,1.27-1.53,1.83-2.34-.63-.77-1.36-1.55-2.18-2.34-.33-.26-.5-.53-.51-.82,.01-.27,.11-.49,.29-.64,.19-.18,.4-.27,.62-.27,.15,0,.29,.01,.41,.04,.58-.78,1.04-1.62,1.4-2.51,.19-.34,.42-.51,.68-.51Zm-1.97,11.94c.26,0,.47,.04,.62,.12,.19,.11,.29,.32,.29,.62,0,.07-.02,.27-.06,.6-.25,1.71-.47,3.05-.68,4.01-.1,.29-.32,.45-.68,.47-.34,0-.62-.08-.82-.23-.15-.15-.23-.34-.23-.58,0-.1,.05-.38,.14-.84,.21-.8,.43-1.97,.68-3.51,.11-.44,.36-.66,.74-.66Zm4.67-.08c.47,0,.77,.16,.9,.47,.19,1.1,.3,2.33,.33,3.7,0,.48-.3,.73-.9,.74-.44-.01-.68-.23-.72-.64-.07-1.36-.14-2.46-.23-3.31-.03-.21-.04-.31-.04-.33,0-.41,.22-.62,.66-.64Zm11.43-11.12c.89,0,1.34,.36,1.34,1.07v15.87c0,.47-.12,.78-.35,.95-.21,.19-.55,.29-1.05,.31h-.82c-.29,0-.53-.02-.74-.06-.3-.04-.55-.17-.74-.39-.18-.22-.27-.49-.27-.8,0-.18,.03-.32,.08-.43,.07-.19,.22-.34,.45-.45,.21-.07,.45-.1,.74-.1h.62c.11,0,.16-.05,.16-.16v-13.65c0-.11-.05-.16-.16-.16h-7.07c-.06,0-.08,.05-.08,.16v15.31c0,.49-.32,.74-.97,.74-.6,0-.9-.25-.9-.74v-16.11c0-.89,.38-1.34,1.13-1.34h8.63Zm-6.23,3.06c.21,.01,.4,.1,.58,.25,.21,.23,.49,.78,.84,1.64,.16,.4,.26,.75,.29,1.07h.64c.03-.05,.05-.11,.06-.16,.31-.74,.58-1.54,.8-2.38,.08-.34,.24-.51,.47-.51,.33,0,.57,.05,.72,.17,.23,.11,.35,.33,.35,.66,0,.14-.04,.33-.12,.58-.22,.73-.42,1.28-.6,1.66h.39c.27,0,.48,.05,.62,.14,.15,.1,.23,.32,.23,.68,0,.29-.05,.49-.14,.62-.14,.19-.37,.29-.7,.29h-1.48v1.29h1.48c.3,0,.52,.07,.66,.21,.12,.1,.18,.3,.18,.62,0,.26-.05,.45-.16,.58-.14,.17-.36,.25-.68,.25h-3.02v1.5c0,.21,.11,.31,.33,.31h2.47c.42,0,.64,.27,.64,.82s-.21,.82-.64,.82h-3.37c-.77,0-1.15-.38-1.15-1.13v-2.32h-.1c-.27,0-.48-.06-.62-.19-.12-.11-.19-.32-.19-.64,0-.27,.06-.49,.19-.64,.14-.12,.34-.19,.62-.19h1.56v-1.29h-1.56c-.25,0-.44-.08-.58-.23-.15-.12-.23-.35-.23-.68s.08-.57,.23-.68c.11-.1,.3-.14,.58-.14h.58c-.22-.53-.52-1.2-.91-1.99-.05-.1-.08-.21-.08-.33,0-.07,.02-.16,.06-.27,.08-.12,.2-.23,.35-.31,.14-.04,.28-.06,.43-.06Z"/></g></g><g><path class="cls-6" d="M212.96,49.68c2.28-.98,4.53-2.1,6.69-3.35v-5.26h-6.18v-1.7h6.18v-3.73h2.07v17.43h-2.07v-4.65c-1.6,.88-3.46,1.78-5.51,2.66l-1.18-1.4Zm13.57-8.21c2.51-1.44,4.49-2.72,5.93-3.87l1.3,1.32c-1.84,1.49-4.23,3.04-7.23,4.63v6.64c-.02,.59,.02,1.13,1.28,1.13h2.91c.65,0,1.12-.17,1.37-.46,.23-.33,.33-1.42,.33-3.23l2.07,.27c.02,2.12-.14,3.87-.63,4.4-.65,.63-1.09,.73-2.46,.73h-4.46c-1.74,0-2.53-1.03-2.46-2.54v-15.06h2.07v6.05Z"/><path class="cls-6" d="M236.2,49.68c2.28-.98,4.53-2.1,6.69-3.35v-5.26h-6.18v-1.7h6.18v-3.73h2.07v17.43h-2.07v-4.65c-1.6,.88-3.46,1.78-5.51,2.66l-1.18-1.4Zm13.57-8.21c2.51-1.44,4.49-2.72,5.93-3.87l1.3,1.32c-1.84,1.49-4.23,3.04-7.23,4.63v6.64c-.02,.59,.02,1.13,1.28,1.13h2.91c.65,0,1.12-.17,1.37-.46,.23-.33,.33-1.42,.33-3.23l2.07,.27c.02,2.12-.14,3.87-.63,4.4-.65,.63-1.09,.73-2.46,.73h-4.46c-1.74,0-2.53-1.03-2.46-2.54v-15.06h2.07v6.05Z"/><path class="cls-6" d="M279.84,50.01c-2.51-1.03-4.65-2.39-6.44-4.04h-6.58c-2.18,1.95-4.25,3.29-6.18,3.96l-1.19-1.36c1.84-.69,3.44-1.57,4.79-2.6h-4.58v-1.49h3.95v-6.37h-3.39v-1.47h3.39v-1.07h1.98v1.07h9.3v-1.07h1.97v1.07h3.53v1.47h-3.53v6.37h4.09v1.51h-5.11c1.21,.98,3,1.89,5.3,2.72l-1.3,1.3Zm-10.57,1.36v-1.74h-4.86v-1.47h4.86v-1.38h1.98v1.38h4.81v1.47h-4.81v1.74h8.97v1.47h-19.8v-1.47h8.85Zm-3.67-12.04h9.3v-1.22h-9.3v1.22Zm0,2.62h9.3v-1.3h-9.3v1.3Zm0,2.53h9.3v-1.21h-9.3v1.21Z"/><path class="cls-6" d="M289.01,37.93h7.8v2.56h-4.83v2.5h4.83v2.52h-4.83v6.21h-2.97v-13.8Z"/><path class="cls-6" d="M298.58,41.52h2.92v1.17c.5-.48,1.05-.84,1.66-1.08,.61-.24,1.27-.36,1.99-.36s1.38,.16,1.97,.47c.58,.31,1.06,.77,1.41,1.37,.46-.6,1.03-1.06,1.71-1.37,.67-.31,1.41-.47,2.21-.47s1.55,.17,2.18,.51c.63,.34,1.08,.78,1.35,1.32,.27,.54,.41,1.43,.41,2.66v5.99h-2.94v-5.18c0-1.16-.16-1.94-.49-2.35-.33-.41-.82-.61-1.47-.61-.5,0-.95,.12-1.34,.38-.4,.25-.69,.6-.88,1.04-.19,.44-.29,1.15-.29,2.12v4.61h-2.94v-4.94c0-.91-.08-1.57-.23-1.98-.15-.41-.38-.71-.69-.92-.31-.2-.68-.3-1.11-.3-.49,0-.93,.13-1.32,.38-.4,.25-.69,.61-.89,1.06-.2,.46-.29,1.18-.29,2.16v4.54h-2.92v-10.21Z"/><path class="cls-6" d="M328.62,52.08l-2.54-1.11,2.75-4.7c-1.33,0-2.47-.42-3.4-1.26-.93-.84-1.4-1.88-1.4-3.12s.48-2.23,1.44-3.06c.96-.83,2.11-1.25,3.47-1.25s2.6,.43,3.54,1.3c.94,.87,1.42,1.86,1.42,2.98,0,.42-.07,.85-.22,1.28-.15,.43-.48,1.09-1.01,1.98l-4.04,6.95Zm.37-8.29c.56,0,1.02-.18,1.4-.53,.38-.36,.57-.79,.57-1.32s-.2-.99-.59-1.35c-.4-.36-.86-.54-1.38-.54-.55,0-1.03,.18-1.43,.54-.4,.36-.6,.81-.6,1.34s.19,.97,.58,1.33c.39,.36,.87,.53,1.46,.53Z"/><path class="cls-6" d="M338.02,37.93h4.48v13.8h-2.97v-11.33h-3.24l1.73-2.47Z"/><path class="cls-6" d="M349.2,49.06c.46,0,.86,.14,1.19,.43,.33,.29,.49,.63,.49,1.04s-.16,.75-.49,1.04c-.33,.29-.72,.43-1.19,.43s-.86-.14-1.19-.43c-.33-.29-.49-.63-.49-1.04s.16-.75,.49-1.04c.33-.28,.72-.43,1.19-.43Z"/><path class="cls-6" d="M353.02,37.93h10.31v1.38l-7.09,12.77-2.53-1.08,5.9-10.6h-6.59v-2.47Z"/></g><g><path class="cls-6" d="M218.16,69.78v9.47h-1.88v-8.78c-.46,1.07-1.02,2.2-1.67,3.39l-1.7-.65c1.37-2.43,2.35-4.5,2.95-6.2h-2.58v-1.63h3v-3.77h1.88v3.77h2.23v1.63h-2.23v.42c1.09,1.07,2.14,2.18,3.14,3.33l-1.56,1-1.58-1.97Zm.81,3.37c1.86-.82,3.53-1.93,5.02-3.33v-8h1.88v9.15c0,.48-.12,1.34-.35,2.55-.67,2.43-2.21,4.32-4.58,5.72l-1.49-1.15c2.7-1.22,4.21-3.29,4.46-6.2-1.3,1.07-2.51,1.89-3.56,2.43l-1.39-1.17Zm2.74-5.01c-.35-1.57-.88-3.21-1.6-4.86l1.81-.38c.72,1.84,1.25,3.52,1.63,4.99l-1.84,.25Zm11.76,5.51c-1.07-.82-2.37-1.72-3.86-2.7v5.47c0,.5,.46,.84,1.02,.88h1.39c.19,0,.37-.06,.56-.17,.09-.06,.16-.78,.21-2.16l1.86,.23c-.07,1.82-.21,2.85-.44,3.04-.46,.4-.91,.61-1.37,.61h-3.23c-.86-.04-1.88-.71-1.88-1.57v-15.56h1.88v4.09c1.09-1.05,1.98-2.01,2.58-2.83l1.58,.84c-1,1.28-2.37,2.7-4.16,4.23v1.15c1.74,1,3.44,2.05,5.07,3.18l-1.21,1.26Z"/><path class="cls-6" d="M241.29,65.36h-1.32c-.33,1.49-.95,2.93-1.86,4.25l-1.95-.48c1.53-2.37,2.35-4.88,2.44-7.46l1.95,.08-.23,1.99h5.86v1.63h-2.91v13.76h-1.98v-13.76Zm12.04,0h-3.83c-.91,1.97-1.74,3.44-2.49,4.31l-1.88-.65c1.86-2.31,3-4.8,3.42-7.4l1.95,.21-.46,1.91h7.6v1.63h-2.23v11.37c0,.42-.16,.86-.51,1.28-.46,.61-1.21,1.15-3.14,1.15-1.12,0-2.46-.19-4.07-.61v-1.89c1.81,.5,3.16,.75,4.07,.75,1.56,0,1.58-.9,1.58-1.01v-11.02Z"/><path class="cls-6" d="M273.62,64.76h-6.46v1.49h-1.97v-1.49h-5.32v-1.63h5.32v-1.61h1.97v1.61h6.46v-1.53h1.98v1.53h5.18v1.63h-5.18v1.49h-1.98v-1.49Zm-10.27,13.45v.8h-1.98v-11.29c0-.38,.23-.56,.67-.56h16.57c.46,0,.7,.17,.7,.56v11.29h-1.98v-.8h-13.99Zm6.02-6.18v-3.23h-5.76c-.19,0-.28,.06-.25,.21v3.02h6.02Zm0,4.55v-2.95h-6.02v2.95h6.02Zm1.95-7.79v3.23h6.02v-3.02c0-.15-.09-.21-.28-.21h-5.74Zm0,4.84v2.95h6.02v-2.95h-6.02Z"/><path class="cls-6" d="M289.01,63.9h7.8v2.56h-4.83v2.5h4.83v2.52h-4.83v6.21h-2.97v-13.8Z"/><path class="cls-6" d="M298.58,67.49h2.92v1.17c.5-.48,1.05-.84,1.66-1.08,.61-.24,1.27-.36,1.99-.36s1.38,.16,1.97,.47c.58,.31,1.06,.77,1.41,1.37,.46-.6,1.03-1.06,1.71-1.37,.67-.31,1.41-.47,2.21-.47s1.55,.17,2.18,.51c.63,.34,1.08,.78,1.35,1.32,.27,.54,.41,1.43,.41,2.66v5.99h-2.94v-5.18c0-1.16-.16-1.94-.49-2.35-.33-.41-.82-.61-1.47-.61-.5,0-.95,.12-1.34,.38-.4,.25-.69,.6-.88,1.04-.19,.44-.29,1.15-.29,2.12v4.61h-2.94v-4.94c0-.91-.08-1.57-.23-1.98-.15-.41-.38-.71-.69-.91-.31-.2-.68-.3-1.11-.3-.49,0-.93,.13-1.32,.38-.4,.25-.69,.61-.89,1.06-.2,.46-.29,1.18-.29,2.16v4.54h-2.92v-10.21Z"/><path class="cls-6" d="M328.62,78.05l-2.54-1.11,2.75-4.7c-1.33,0-2.47-.42-3.4-1.26-.93-.84-1.4-1.88-1.4-3.12s.48-2.23,1.44-3.06c.96-.84,2.11-1.25,3.47-1.25s2.6,.43,3.54,1.3c.94,.87,1.42,1.86,1.42,2.98,0,.42-.07,.85-.22,1.28-.15,.43-.48,1.09-1.01,1.98l-4.04,6.95Zm.37-8.29c.56,0,1.02-.18,1.4-.53,.38-.36,.57-.79,.57-1.32s-.2-.99-.59-1.35c-.4-.36-.86-.54-1.38-.54-.55,0-1.03,.18-1.43,.54-.4,.36-.6,.81-.6,1.34s.19,.97,.58,1.33c.39,.36,.87,.53,1.46,.53Z"/><path class="cls-6" d="M340.5,63.55c1.15,0,2.13,.25,2.96,.74,.83,.49,1.47,1.25,1.92,2.27,.45,1.02,.68,2.43,.68,4.25s-.23,3.26-.69,4.28c-.46,1.02-1.08,1.77-1.85,2.25-.78,.48-1.75,.72-2.94,.72s-2.18-.24-2.98-.72c-.8-.48-1.44-1.21-1.89-2.2-.46-.98-.68-2.38-.68-4.19,0-2.53,.44-4.37,1.33-5.51,.99-1.25,2.37-1.88,4.13-1.88Zm.07,2.5c-.5,0-.95,.14-1.34,.43-.39,.28-.69,.77-.9,1.47-.21,.69-.31,1.71-.31,3.05,0,1.75,.24,2.95,.71,3.62,.47,.67,1.08,1,1.84,1s1.3-.32,1.73-.95c.52-.76,.78-2.04,.78-3.83s-.23-3.06-.7-3.75c-.47-.69-1.07-1.03-1.81-1.03Z"/><path class="cls-6" d="M349.2,75.03c.46,0,.86,.14,1.19,.43,.33,.29,.49,.63,.49,1.04s-.16,.75-.49,1.04c-.33,.29-.72,.43-1.19,.43s-.86-.14-1.19-.43c-.33-.29-.49-.63-.49-1.04s.16-.75,.49-1.04c.33-.28,.72-.43,1.19-.43Z"/><path class="cls-6" d="M353.02,63.9h10.31v1.38l-7.09,12.77-2.53-1.08,5.9-10.6h-6.59v-2.47Z"/></g></svg>