<?xml version="1.0" encoding="UTF-8"?><svg id="_圖層_1" xmlns="http://www.w3.org/2000/svg" viewBox="0 0 263.93 301.79"><defs><style>.cls-1{fill:#fff;}.cls-2{fill:#006fbc;}.cls-3{fill:#009fa8;}.cls-4{fill:#e60012;}</style></defs><g><rect class="cls-1" x="-.05" width="264.05" height="301.79"/><rect class="cls-1" x="11.6" y="11.63" width="240.46" height="278.25"/><path class="cls-2" d="M53.63,218.6l-11.09-.85s-4,.58-4-3.99c0-4.23,3.42-3.96,3.42-3.96h19.89v-9.95h-22.17c-2.53,0-11.36,1.99-11.36,14.79s10.53,13.07,10.53,13.07h9.93s4.54,0,4.54,5.64-4.83,5.7-4.83,5.7H28.9v9.36h23.84c1.72,0,11.07-1.69,11.07-15.9s-10.18-13.91-10.18-13.91"/><rect class="cls-2" x="66.38" y="199.86" width="32.37" height="9.67"/><polygon class="cls-2" points="223.68 199.86 223.4 199.86 211.19 225.14 198.71 199.86 187.93 199.86 210.92 247.28 211.19 247.28 225.65 217.75 225.65 248.14 235.31 248.14 235.31 199.86 223.68 199.86"/><polygon class="cls-2" points="66.38 248.41 98.75 248.41 98.75 238.77 76.06 238.77 76.06 227.71 98.75 227.71 98.75 218.03 66.38 218.03 66.38 248.41"/><path class="cls-2" d="M167.18,198.15c14.45,0,25.83,11.38,25.83,25.85s-11.38,26.13-25.83,26.13v-10.79c8.51,0,15.3-6.83,15.3-15.34s-6.79-15.32-15.3-15.32v-10.52Zm0,0c-14.19,0-26.13,11.38-26.13,25.85s11.94,26.13,26.13,26.13v-10.79c-8.52,0-15.36-6.83-15.36-15.34s6.84-15.32,15.36-15.32v-10.52Z"/><path class="cls-3" d="M126.58,239.34c-8.27,0-15.07-6.83-15.07-15.34s6.79-15.33,15.07-15.33c5.36,0,10.51,2.26,13.62,5.39l5.12-8.24c-4.56-5.11-11.1-7.67-18.74-7.67-14.22,0-25.84,11.38-25.84,25.85s11.62,26.13,25.84,26.13c7.36,0,14.18-3.13,18.74-7.97l-4.85-8.23c-3.67,3.12-8.52,5.41-13.89,5.41"/><rect class="cls-2" x="11.59" y="262.05" width="240.46" height="27.82"/><path class="cls-4" d="M11.6,11.63V162.1c30.37,12.78,72.95,20.72,120.06,20.72s90.02-7.94,120.4-20.72V11.63H11.6Z"/></g><g><path class="cls-1" d="M72.76,102.83h-17.34v-6.5h-7.42v6.5H30.39c-1.22,0-1.85,.71-1.88,2.14v35.24c.03,1.42,.66,2.13,1.88,2.13h17.6v9.12h7.42v-9.12h17.34c1.32,0,1.97-.72,1.97-2.18v-35.14c0-1.45-.66-2.19-1.97-2.19m-24.76,32.49h-12.52c-.55-.03-.81-.33-.78-.89v-23.7c-.02-.56,.23-.85,.78-.89h12.52v25.47Zm20.56-.89c0,.6-.28,.89-.82,.89h-12.31v-25.47h12.31c.54,0,.82,.29,.82,.89v23.7Z"/><path class="cls-1" d="M94.6,98.25h-6.11l-.11,.4c-2.1,8.64-9.1,16.6-9.1,16.6v9.22s3.23-2.86,5.29-5.76c0,.87-.22,32.29-.22,32.29h6.21s.22-42.15,.22-42.24c.03-.07,.23-.49,.23-.49,2.07-4.29,3.6-10.02,3.6-10.02"/><path class="cls-1" d="M126.85,143.15c-3.05-2.91-5.31-6.68-6.27-11.23h6.11v-6.56h-13.56v-4.77h10.11c1,0,1.53-.61,1.56-1.84v-18.83c0-1.18-.52-1.77-1.57-1.77h-25.78c-1.02,0-1.53,.59-1.53,1.77v18.83c0,1.19,.51,1.8,1.53,1.84h9.46v4.77h-13.46v6.56h6.07c-.97,4.55-3.22,8.34-6.27,11.24l-.18,.17v7.51l.78-.54c5.99-4.22,9.78-10.26,11.26-18.39h1.8v19.2h6.21v-19.2h1.86c1.49,8.12,5.27,14.16,11.26,18.38l.78,.55v-7.52l-.18-.17Zm-24.66-29.12v-9.33c0-.15,.13-.35,.34-.35h15.67c.2,0,.35,.21,.35,.4v9.23c0,.24-.15,.39-.35,.39h-15.61c-.18,0-.36-.11-.39-.34"/><path class="cls-1" d="M179.9,129.29v-31.52h-6.88v33.04l-15.88,3.51v6.57l15.88-3.53v14.3h6.88v-15.82l3.46-.77v-6.54l-3.46,.77Zm-31.8-10.81h7.09v-5.95h-7.09v-7.62l6.6-.86v-6.28l-21.59,2.83v6.22l9.13-1.18v6.88h-9.91v5.95h9.26c-2.47,9.47-9.2,15.79-9.26,15.84v7.64s.3-.2,.3-.2c.09-.05,5.36-3.29,9.61-10.14v19.57h5.85v-20.95c2.15,1.16,4.64,2.94,7.13,5.58v-7.18s-3.05-2.64-7.13-4.83v-5.33Zm21.89-12.3l-11.27-5.36v7.58l11.27,5.37v-7.59Zm0,13.88l-11.27-5.37v7.58l11.27,5.37v-7.58Z"/><path class="cls-1" d="M226.55,141.65c6-6.35,8.34-13.57,8.34-18.3v-1.7c0-1.3-1.26-2.18-2.44-2.18h-8.32v-8.18h10.59v-5.96h-10.59v-7.89h-6.01v7.89h-10.11v5.96h10.11v8.18h-10.11v6.23h18.48c.26,0,.7,0,.93,.26,.13,.2,.15,.5,.07,.92-1.67,7.15-6.15,10.99-6.15,10.99-4.42-4-5.67-7.78-6.23-9.49l-.04-.16h-6.62l.11,.34c.82,2.4,3.08,7.88,7.97,13-2.96,2.31-5.66,3.03-9.17,4.36v5.92c5.55-1.19,10.6-3.31,14.26-5.93,3.54,2.47,8.38,4.54,13.83,5.69v-6.08c-3.38-1.2-6.58-2.52-8.88-3.89m-26.05-30.36h5.31v-5.96h-5.31v-7.89h-6v7.89h-6.21v5.96h6.21v13.8l-6.71,2.01v6.71l6.71-2v11.13c0,1.92-.81,2.8-2.24,2.8h-3.33v5.63s3.33,.08,5.41,.08c3.66,0,6.16-1.17,6.16-7.13v-14.31l5.31-1.59v-6.71l-5.31,1.59v-12.02Z"/></g></svg>