<?xml version="1.0" encoding="UTF-8"?><svg id="_圖層_1" xmlns="http://www.w3.org/2000/svg" viewBox="0 0 143.47 138.72"><defs><style>.cls-1{fill:#fff;}.cls-2{fill:#006fbc;}.cls-3{fill:#009fa8;}.cls-4{fill:#e60012;}.cls-5{fill:#231815;}</style></defs><g><g><path class="cls-5" d="M20.23,105.89h-7.93v-2.97h-3.39v2.97H.86c-.56,0-.85,.32-.86,.98v16.11c.01,.65,.3,.98,.86,.98H8.91v4.17h3.39v-4.17h7.93c.6,0,.9-.33,.9-1v-16.07c0-.66-.3-1-.9-1m-11.32,14.86H3.18c-.25-.02-.37-.15-.36-.41v-10.84c-.01-.26,.11-.39,.36-.41h5.73v11.65Zm9.4-.41c0,.27-.13,.41-.38,.41h-5.63v-11.65h5.63c.25,0,.38,.13,.38,.41v10.84Z"/><path class="cls-5" d="M45.86,120.64h-.97c0-3.02,0-16.15,0-16.15,0-.63-.28-.94-.85-.94l-3.64,.02v2.95h1.48c.24,0,.35,.13,.35,.38v2.06h-1.83v3.11h1.84c0,.16,0,2.59,0,2.75-.14,0-1.86-.01-1.86-.01v3.11h1.77c0,.14,0,1.76,0,2.72h-2.64c0-.18,0-12.1,0-12.1v-2.56c0-1.56-.83-2.5-2.23-2.5h-4.76c-1.4,0-2.23,.94-2.23,2.5v2.48s0,11.12,0,12.18h-2.56c0-.16,0-2.57,0-2.74h1.77v-3.11h-1.85c0-.16-.02-2.58-.02-2.74h1.84v-3.11h-1.83v-2.06c0-.25,.12-.38,.35-.38h1.48v-2.95s-3.64-.02-3.64-.02c-.56,0-.85,.32-.85,.94,0,0,0,15.38,0,16.16h-.97v2.82h3.98s-.15,.09-.18,.13c-.47,.56-1.53,1.01-2.37,1.35l-.16,.06v3.27l.31-.1c2.59-.86,5.07-2.45,5.65-4.71h7.28c.7,2.42,3.25,3.99,5.89,4.69h0s.09,.03,.2,.05l.1,.03v-3.21l-.18-.05c-.86-.25-1.99-.72-2.54-1.38-.03-.04-.12-.08-.14-.12h4v-2.82Zm-11.05-8.91c-.91,0-1.75,.32-2.4,.86v-2.51h4.99v1.43s0,1.25,0,1.25c-.68-.64-1.59-1.03-2.59-1.03m1.66,3.73c0,.91-.75,1.65-1.66,1.65s-1.67-.74-1.67-1.65,.75-1.65,1.67-1.65,1.66,.74,1.66,1.65m-3.78-9.32c.17-.2,.47-.29,.9-.29h2.61c.43,0,.73,.1,.91,.29,.28,.32,.28,.93,.28,1.53v.37s-4.98,0-4.98,0v-.36c0-.59,0-1.21,.29-1.53m-.29,14.49v-2.3c.65,.54,1.49,.86,2.4,.86,1.01,0,1.92-.39,2.6-1.04,0,1.37,0,2.42,0,2.48h-5Z"/><path class="cls-5" d="M54.49,103.8h-2.8l-.05,.18c-.96,3.95-4.16,7.59-4.16,7.59v4.21s1.47-1.31,2.42-2.64c0,.4-.1,14.77-.1,14.77h2.84s.1-19.28,.1-19.32c.02-.03,.11-.22,.11-.22,.95-1.96,1.65-4.58,1.65-4.58"/><path class="cls-5" d="M69.24,124.33c-1.39-1.33-2.43-3.06-2.87-5.14h2.79v-3h-6.2v-2.18h4.63c.46,0,.7-.28,.71-.84v-8.61c0-.54-.24-.81-.72-.81h-11.79c-.47,0-.7,.27-.7,.81v8.61c0,.54,.23,.82,.7,.84h4.33v2.18h-6.15v3h2.78c-.44,2.08-1.47,3.81-2.87,5.14l-.08,.08v3.44l.36-.25c2.74-1.93,4.47-4.69,5.15-8.41h.82v8.78h2.84v-8.78h.85c.68,3.71,2.41,6.47,5.15,8.4l.36,.25v-3.44l-.08-.08Zm-11.28-13.32v-4.27c0-.07,.06-.16,.16-.16h7.17c.09,0,.16,.1,.16,.19v4.22c0,.11-.07,.18-.16,.18h-7.14c-.08,0-.17-.05-.18-.15"/><path class="cls-5" d="M88.09,105.19c-1.02-1.11-1.97-1.67-2.81-1.67h-6.63c-.84,0-1.78,.56-2.81,1.67-1.92,2.51-4.84,2.62-4.84,2.62v2.74s.88,.13,2.15-.15c0,.67,0,2.78,0,2.78h7.23v3.96h-7.21v2.97h7.21v4.52h-8.32v2.97h19.82v-2.97h-8.32v-4.52h7.21v-2.97h-7.21v-3.96h7.18v-2.79c1.3,.3,2.2,.16,2.2,.16v-2.74s-2.58,.19-4.84-2.62m-14.23,5.01c1.19-.39,2.6-1.14,3.93-2.61,.94-1.12,1.29-1.22,2.21-1.22h3.92c.92,0,1.27,.1,2.21,1.22,1.33,1.47,2.74,2.22,3.93,2.61h-16.21Z"/><path class="cls-5" d="M116.95,117.99v-14.41h-3.15v15.11l-7.26,1.6v3.01l7.26-1.61v6.54h3.15v-7.24l1.58-.35v-2.99l-1.58,.35Zm-14.54-4.95h3.24v-2.72h-3.24v-3.48l3.02-.39v-2.87l-9.87,1.3v2.84l4.18-.54v3.15h-4.53v2.72h4.23c-1.13,4.33-4.21,7.22-4.23,7.24v3.5s.14-.09,.14-.09c.04-.02,2.45-1.5,4.4-4.64v8.95h2.68v-9.58c.98,.53,2.12,1.34,3.26,2.55v-3.28s-1.4-1.21-3.26-2.21v-2.44Zm10.01-5.62l-5.15-2.45v3.47l5.15,2.46v-3.47Zm0,6.35l-5.15-2.45v3.47l5.15,2.45v-3.46Z"/><path class="cls-5" d="M138.53,123.64c2.74-2.9,3.81-6.21,3.81-8.37v-.78c0-.6-.58-1-1.12-1h-3.8v-3.74h4.85v-2.72h-4.85v-3.61h-2.75v3.61h-4.63v2.72h4.63v3.74h-4.63v2.85h8.45c.12,0,.32,0,.42,.12,.06,.09,.07,.23,.03,.42-.77,3.27-2.81,5.03-2.81,5.03-2.02-1.83-2.6-3.56-2.85-4.34l-.02-.07h-3.03l.05,.16c.38,1.1,1.41,3.6,3.65,5.95-1.35,1.06-2.59,1.39-4.19,2v2.71c2.53-.55,4.85-1.51,6.52-2.71,1.62,1.13,3.83,2.08,6.32,2.6v-2.78c-1.54-.55-3.01-1.15-4.06-1.78m-11.91-13.88h2.43v-2.72h-2.43v-3.61h-2.74v3.61h-2.84v2.72h2.84v6.31l-3.07,.92v3.07l3.07-.92v5.09c0,.88-.37,1.28-1.02,1.28h-1.52v2.57s1.52,.04,2.48,.04c1.67,0,2.82-.54,2.82-3.26v-6.54l2.43-.73v-3.07l-2.43,.73v-5.5Z"/></g><g><polygon class="cls-5" points="5.4 133.88 3.38 133.88 3.38 138.6 2.01 138.6 2.01 133.88 0 133.88 0 132.91 5.4 132.91 5.4 133.88"/><path class="cls-5" d="M11.95,138.6h-1.43l-.59-1.38h-2.76l-.55,1.38h-1.35l2.64-5.72h1.37l2.68,5.72Zm-2.45-2.38l-.96-2.26-.95,2.26h1.91Z"/><rect class="cls-5" x="12.42" y="132.88" width="1.35" height="5.72"/><polygon class="cls-5" points="24.18 132.88 22.26 138.6 20.66 138.6 19.33 134.34 19.29 134.34 18.11 138.6 16.53 138.6 14.45 132.88 15.82 132.88 17.27 137.3 17.3 137.3 18.53 132.88 20.08 132.88 21.51 137.35 22.87 132.88 24.18 132.88"/><path class="cls-5" d="M30.7,138.6h-1.43l-.59-1.38h-2.76l-.55,1.38h-1.36l2.64-5.72h1.37l2.68,5.72Zm-2.44-2.38l-.96-2.26-.95,2.26h1.91Z"/><polygon class="cls-5" points="36.68 138.6 35.19 138.6 32.45 134.26 32.45 138.6 31.18 138.6 31.18 132.88 32.83 132.89 35.44 137.03 35.44 132.88 36.68 132.88 36.68 138.6"/><path class="cls-5" d="M46.33,136.89c0,.5-.12,.88-.36,1.14-.34,.38-.95,.57-1.84,.57h-3.5v-1h3.3c.34,0,.6-.04,.75-.12,.19-.1,.29-.28,.29-.52s-.08-.43-.23-.54c-.15-.1-.4-.16-.73-.16h-1.55c-.69,0-1.2-.13-1.54-.38-.36-.27-.55-.69-.55-1.28s.18-1.03,.53-1.31c.35-.28,.91-.42,1.66-.42h3.46v1h-3.26c-.7,0-1.06,.26-1.06,.77,0,.21,.08,.37,.24,.48,.16,.11,.37,.16,.63,.16h1.74c.62,0,1.07,.07,1.35,.22,.44,.23,.66,.7,.66,1.39"/><path class="cls-5" d="M52.1,138.6h-2.22c-.91,0-1.61-.21-2.11-.64-.55-.46-.82-1.17-.82-2.12,0-1.1,.26-1.89,.79-2.35,.46-.41,1.18-.61,2.17-.61h2.18v.97h-2.16c-.48,0-.84,.11-1.1,.34-.25,.22-.38,.57-.38,1.03h3.64v.97h-3.66c0,.53,.14,.91,.42,1.14,.24,.19,.6,.29,1.08,.29h2.16v.98Z"/><path class="cls-5" d="M58.03,138.6h-2.22c-.91,0-1.61-.21-2.11-.64-.55-.46-.82-1.17-.82-2.12s.21-1.62,.62-2.1c.49-.57,1.27-.86,2.35-.86h2.18v.95h-2.17c-.61,0-1.04,.2-1.29,.59-.19,.3-.28,.74-.28,1.32v.28c0,.46,.08,.8,.23,1.04,.24,.38,.69,.57,1.35,.57h2.17v.98Z"/><path class="cls-5" d="M64.9,135.73c0,1.08-.32,1.87-.96,2.37-.53,.41-1.25,.62-2.17,.62-.48,0-.89-.05-1.24-.15-.55-.15-.98-.42-1.3-.82-.4-.5-.6-1.18-.6-2.03s.16-1.46,.49-1.93c.27-.39,.67-.67,1.2-.84,.39-.13,.87-.19,1.43-.19,.9,0,1.59,.15,2.09,.47,.42,.26,.71,.64,.88,1.14,.12,.36,.18,.82,.18,1.37m-1.4,.02c0-.75-.17-1.28-.5-1.61-.28-.27-.69-.41-1.23-.41s-.96,.17-1.27,.5c-.31,.33-.46,.83-.46,1.49s.08,1.08,.26,1.37c.26,.45,.75,.67,1.48,.67,.64,0,1.09-.19,1.37-.56,.24-.32,.36-.81,.36-1.46"/><polygon class="cls-5" points="72.87 138.6 71.7 138.6 71.7 134.15 70.07 138.6 68.69 138.6 67 134.1 67 138.6 65.81 138.6 65.81 132.88 67.73 132.88 69.34 137.34 70.97 132.88 72.87 132.88 72.87 138.6"/><path class="cls-5" d="M81.67,138.6h-2.22c-.91,0-1.61-.21-2.11-.64-.55-.46-.82-1.17-.82-2.12s.21-1.62,.62-2.1c.48-.57,1.27-.86,2.34-.86h2.18v.95h-2.17c-.61,0-1.04,.2-1.29,.59-.19,.3-.28,.74-.28,1.32v.28c0,.46,.08,.8,.23,1.04,.24,.38,.69,.57,1.35,.57h2.17v.98Z"/><path class="cls-5" d="M88.54,135.73c0,1.08-.32,1.87-.96,2.37-.53,.41-1.25,.62-2.17,.62-.48,0-.89-.05-1.24-.15-.55-.15-.98-.42-1.3-.82-.4-.5-.6-1.18-.6-2.03s.16-1.46,.49-1.93c.27-.39,.67-.67,1.2-.84,.39-.13,.87-.19,1.43-.19,.9,0,1.59,.15,2.09,.47,.42,.26,.71,.64,.88,1.14,.12,.36,.18,.82,.18,1.37m-1.4,.02c0-.75-.17-1.28-.5-1.61-.28-.27-.69-.41-1.23-.41s-.96,.17-1.27,.5c-.31,.33-.46,.83-.46,1.49s.09,1.08,.25,1.37c.26,.45,.75,.67,1.48,.67,.64,0,1.09-.19,1.37-.56,.24-.32,.36-.81,.36-1.46"/><polygon class="cls-5" points="96.51 138.6 95.34 138.6 95.34 134.15 93.71 138.6 92.33 138.6 90.64 134.1 90.64 138.6 89.45 138.6 89.45 132.88 91.37 132.88 92.98 137.34 94.61 132.88 96.51 132.88 96.51 138.6"/><path class="cls-5" d="M103.41,134.74c0,.75-.32,1.28-.94,1.58-.39,.18-.87,.28-1.45,.28h-1.87v2.01h-1.3v-5.72h2.86c.99,0,1.69,.15,2.09,.44,.41,.29,.61,.77,.61,1.41m-1.44,0c0-.32-.1-.54-.31-.67-.21-.12-.54-.18-.98-.18h-1.53v1.69h1.6c.82,0,1.22-.28,1.22-.85"/><path class="cls-5" d="M110.23,138.6h-1.43l-.59-1.38h-2.76l-.55,1.38h-1.35l2.64-5.72h1.37l2.68,5.72Zm-2.45-2.38l-.96-2.26-.95,2.26h1.91Z"/><polygon class="cls-5" points="116.2 138.6 114.71 138.6 111.98 134.26 111.98 138.6 110.7 138.6 110.7 132.88 112.35 132.89 114.96 137.03 114.96 132.88 116.2 132.88 116.2 138.6"/><polygon class="cls-5" points="122.63 132.88 120.22 136.08 120.22 138.6 118.92 138.6 118.91 136.08 116.54 132.88 118 132.88 119.55 135.08 121.13 132.88 122.63 132.88"/><path class="cls-5" d="M129.84,138.6h-1.88c-.89,0-1.52-.19-1.9-.58-.34-.35-.52-.93-.52-1.73v-3.41h1.28v3.47c0,.42,.07,.72,.21,.9,.22,.29,.64,.44,1.25,.44h1.56v.91Z"/><polygon class="cls-5" points="135.33 133.88 133.3 133.88 133.3 138.6 131.93 138.6 131.93 133.88 129.92 133.88 129.92 132.91 135.33 132.91 135.33 133.88"/><path class="cls-5" d="M141.81,135.5c0,1.25-.27,2.11-.8,2.56-.41,.36-1.12,.53-2.11,.53h-2.9v-5.72h2.86c1.14,0,1.95,.28,2.42,.84,.35,.42,.53,1.01,.53,1.78m-1.4,.24c0-.82-.16-1.36-.48-1.63-.21-.17-.57-.26-1.08-.26h-1.54v3.77h1.52c.61-.01,1.03-.13,1.25-.39,.22-.25,.33-.75,.33-1.5"/><rect class="cls-5" x="142.46" y="137.64" width="1.01" height=".97"/></g></g><g><g><rect class="cls-1" x="30.71" width="82.15" height="93.89"/><rect class="cls-1" x="34.33" y="3.62" width="74.81" height="86.57"/><path class="cls-2" d="M47.41,68.01l-3.45-.26s-1.25,.18-1.25-1.24c0-1.32,1.06-1.23,1.06-1.23h6.19v-3.1h-6.9c-.79,0-3.53,.62-3.53,4.6s3.27,4.07,3.27,4.07h3.09s1.41,0,1.41,1.75-1.5,1.77-1.5,1.77h-6.09v2.91h7.42c.54,0,3.44-.53,3.44-4.95s-3.17-4.33-3.17-4.33"/><rect class="cls-2" x="51.38" y="62.18" width="10.07" height="3.01"/><polygon class="cls-2" points="100.32 62.18 100.23 62.18 96.43 70.05 92.55 62.18 89.2 62.18 96.35 76.94 96.43 76.94 100.93 67.75 100.93 77.2 103.93 77.2 103.93 62.18 100.32 62.18"/><polygon class="cls-2" points="51.38 77.29 61.45 77.29 61.45 74.29 54.39 74.29 54.39 70.85 61.45 70.85 61.45 67.84 51.38 67.84 51.38 77.29"/><path class="cls-2" d="M82.74,61.65c4.5,0,8.04,3.54,8.04,8.04s-3.54,8.13-8.04,8.13v-3.36c2.65,0,4.76-2.13,4.76-4.77s-2.11-4.77-4.76-4.77v-3.27Zm0,0c-4.41,0-8.13,3.54-8.13,8.04s3.72,8.13,8.13,8.13v-3.36c-2.65,0-4.78-2.13-4.78-4.77s2.13-4.77,4.78-4.77v-3.27Z"/><path class="cls-3" d="M70.11,74.47c-2.57,0-4.69-2.13-4.69-4.77s2.11-4.77,4.69-4.77c1.67,0,3.27,.7,4.24,1.68l1.59-2.56c-1.42-1.59-3.45-2.39-5.83-2.39-4.42,0-8.04,3.54-8.04,8.04s3.62,8.13,8.04,8.13c2.29,0,4.41-.97,5.83-2.48l-1.51-2.56c-1.14,.97-2.65,1.68-4.32,1.68"/><rect class="cls-2" x="34.33" y="81.53" width="74.81" height="8.66"/><path class="cls-4" d="M34.33,3.62V50.43c9.45,3.98,22.7,6.45,37.35,6.45s28.01-2.47,37.46-6.45V3.62H34.33Z"/></g><g><path class="cls-1" d="M53.36,31.99h-5.4v-2.02h-2.31v2.02h-5.48c-.38,0-.58,.22-.58,.67v10.96c0,.44,.2,.66,.58,.66h5.48v2.84h2.31v-2.84h5.4c.41,0,.61-.23,.61-.68v-10.93c0-.45-.2-.68-.61-.68m-7.7,10.11h-3.9c-.17-.01-.25-.1-.24-.28v-7.37c0-.17,.07-.27,.24-.28h3.9v7.93Zm6.4-.28c0,.19-.09,.28-.26,.28h-3.83v-7.93h3.83c.17,0,.26,.09,.26,.28v7.37Z"/><path class="cls-1" d="M60.16,30.57h-1.9l-.04,.13c-.65,2.69-2.83,5.16-2.83,5.16v2.87s1-.89,1.65-1.79c0,.27-.07,10.05-.07,10.05h1.93s.07-13.11,.07-13.14c.01-.02,.07-.15,.07-.15,.64-1.33,1.12-3.12,1.12-3.12"/><path class="cls-1" d="M70.19,44.54c-.95-.9-1.65-2.08-1.95-3.49h1.9v-2.04h-4.22v-1.49h3.15c.31,0,.48-.19,.49-.57v-5.86c0-.37-.16-.55-.49-.55h-8.02c-.32,0-.48,.18-.48,.55v5.86c0,.37,.16,.56,.48,.57h2.94v1.49h-4.19v2.04h1.89c-.3,1.42-1,2.59-1.95,3.5l-.06,.05v2.34l.24-.17c1.86-1.31,3.04-3.19,3.5-5.72h.56v5.97h1.93v-5.97h.58c.46,2.53,1.64,4.4,3.5,5.72l.24,.17v-2.34l-.06-.05Zm-7.67-9.06v-2.9s.04-.11,.11-.11h4.87c.06,0,.11,.07,.11,.13v2.87c0,.07-.05,.12-.11,.12h-4.86c-.06,0-.11-.03-.12-.11"/><path class="cls-1" d="M86.7,40.22v-9.81h-2.14v10.28l-4.94,1.09v2.05l4.94-1.1v4.45h2.14v-4.92l1.08-.24v-2.03l-1.08,.24Zm-9.89-3.36h2.21v-1.85h-2.21v-2.37l2.05-.27v-1.95l-6.72,.88v1.93l2.84-.37v2.14h-3.08v1.85h2.88c-.77,2.95-2.86,4.91-2.88,4.93v2.38s.09-.06,.09-.06c.03-.02,1.67-1.02,2.99-3.15v6.09h1.82v-6.52c.67,.36,1.44,.91,2.22,1.74v-2.23s-.95-.82-2.22-1.5v-1.66Zm6.81-3.83l-3.51-1.67v2.36l3.51,1.67v-2.36Zm0,4.32l-3.51-1.67v2.36l3.51,1.67v-2.36Z"/><path class="cls-1" d="M101.21,44.07c1.87-1.97,2.59-4.22,2.59-5.69v-.53c0-.41-.39-.68-.76-.68h-2.59v-2.55h3.3v-1.85h-3.3v-2.46h-1.87v2.46h-3.15v1.85h3.15v2.55h-3.15v1.94h5.75c.08,0,.22,0,.29,.08,.04,.06,.05,.15,.02,.29-.52,2.22-1.91,3.42-1.91,3.42-1.38-1.24-1.76-2.42-1.94-2.95v-.05h-2.07l.03,.11c.26,.75,.96,2.45,2.48,4.05-.92,.72-1.76,.94-2.85,1.36v1.84c1.73-.37,3.3-1.03,4.44-1.85,1.1,.77,2.61,1.41,4.3,1.77v-1.89c-1.05-.37-2.05-.78-2.76-1.21m-8.11-9.45h1.65v-1.85h-1.65v-2.46h-1.87v2.46h-1.93v1.85h1.93v4.29l-2.09,.62v2.09l2.09-.62v3.46c0,.6-.25,.87-.7,.87h-1.04v1.75s1.04,.03,1.68,.03c1.14,0,1.92-.36,1.92-2.22v-4.45l1.65-.49v-2.09l-1.65,.5v-3.74Z"/></g></g></svg>