<?xml version="1.0" encoding="UTF-8"?><svg id="_圖層_1" xmlns="http://www.w3.org/2000/svg" viewBox="0 0 213.94 56.69"><defs><style>.cls-1{fill:#fff;}.cls-2{fill:#d01126;}.cls-3{fill:#231815;}</style></defs><g><circle class="cls-2" cx="28.35" cy="28.35" r="28.35" transform="translate(-11.74 28.35) rotate(-45)"/><polygon class="cls-1" points="48.96 28.35 48.96 28.35 48.96 28.35 28.35 7.73 7.73 28.35 7.73 28.35 7.73 28.35 7.73 28.35 7.73 28.35 28.35 48.96 48.96 28.35 48.96 28.35 48.96 28.35"/><polygon class="cls-2" points="34.79 28.35 34.79 28.35 34.79 28.35 28.35 21.9 21.9 28.35 21.9 28.35 21.9 28.35 21.9 28.35 21.9 28.35 28.35 34.79 34.79 28.35 34.79 28.35 34.79 28.35"/></g><g><path class="cls-3" d="M119.59,26.08h38.35c.62,0,.63-.63,.63-.63V8.38c-.01-.73-.65-.67-.65-.67h-3.14s-.62-.09-.62,.45v15.43s-.01,.43-.43,.43h-3.4s-.43,.03-.43-.43v-2.42s0-.5,.42-.5h1.69s.62,.01,.62-.63v-.67s0-.66-.64-.66h-1.67s-.43,0-.43-.46v-.9s-.02-.46,.43-.46h1.69s.62,.03,.62-.66v-.67s0-.69-.64-.69h-1.67s-.43,0-.43-.43v-1.12s.03-.46,.43-.46h1.69s.62,.01,.62-.65v-.46s0-.67-.64-.67h-1.67s-.43,.03-.43-.45v-2.24s.03-.67-.61-.67h-3.43c-.63,0-.61,.67-.61,.67v2.24c0,.48-.44,.45-.44,.45h-1.67c-.63,0-.63,.67-.63,.67v.46c0,.66,.61,.65,.61,.65h1.69c.41,0,.44,.46,.44,.46v1.12c0,.43-.44,.43-.44,.43h-1.67c-.63,0-.63,.69-.63,.69v.67c0,.69,.61,.66,.61,.66h1.69c.45,0,.44,.46,.44,.46v.9c0,.46-.44,.46-.44,.46h-1.67c-.63,0-.63,.66-.63,.66v.67c0,.64,.61,.63,.61,.63h1.69c.42,0,.44,.5,.44,.5v2.42c.01,.46-.43,.43-.43,.43h-3.31c-.42,0-.45-.43-.45-.43V8.16c-.01-.55-.63-.45-.63-.45h-3.09s-.62-.09-.62,.45v15.43s-.01,.43-.43,.43h-3.76s-.43,.03-.43-.43v-2.42s0-.5,.42-.5h1.69s.62,.01,.62-.63v-.67s0-.66-.63-.66h-1.68s-.43,0-.43-.46v-.9s-.01-.46,.43-.46h1.69s.62,.03,.62-.66v-.67s0-.69-.63-.69h-1.68s-.43,0-.43-.43v-1.12s.03-.46,.43-.46h1.69s.62,.01,.62-.65v-.46s0-.67-.63-.67h-1.68s-.43,.03-.43-.45v-2.24s.03-.67-.61-.67h-3.43c-.63,0-.61,.67-.61,.67v2.24c0,.48-.44,.45-.44,.45h-1.67c-.64,0-.64,.67-.64,.67v.46c0,.66,.62,.65,.62,.65h1.69c.41,0,.44,.46,.44,.46v1.12c0,.43-.44,.43-.44,.43h-1.67c-.64,0-.64,.69-.64,.69v.67c0,.69,.62,.66,.62,.66h1.69c.45,0,.44,.46,.44,.46v.9c0,.46-.44,.46-.44,.46h-1.67c-.64,0-.64,.66-.64,.66v.67c0,.64,.62,.63,.62,.63h1.69c.42,0,.44,.5,.44,.5v2.42c.01,.46-.42,.43-.42,.43h-3.21c-.42,0-.45-.43-.45-.43V8.16c-.01-.55-.63-.45-.63-.45h-3.14s-.63-.05-.63,.67V25.45s.02,.63,.65,.63Z"/><path class="cls-3" d="M118.46,30.51h40.89c.33,0,.6-.28,.6-.63v-1.11c0-.35-.27-.63-.6-.63h-40.89c-.33,0-.6,.28-.6,.63v1.11c0,.35,.27,.63,.6,.63Z"/><path class="cls-3" d="M160.14,46.7h-5.6c-.31,0-.56-.25-.56-.56v-3.51h.02c0-.3,.25-.55,.56-.55h0s2.78,0,2.78,0c.33,0,.6-.28,.6-.64v-8.24c0-.35-.27-.63-.6-.63h-36.99c-.33,0-.6,.28-.6,.63v8.24c0,.35,.27,.64,.6,.64h2.86c.31,0,.56,.26,.56,.57h0s.02,3.5,.02,3.5h0c0,.31-.25,.56-.56,.56h0s-5.63,0-5.63,0c-.33,0-.6,.29-.6,.64v.96c0,.35,.27,.63,.6,.63h42.53c.33,0,.6-.28,.6-.63v-.96c0-.35-.27-.64-.6-.64Zm-11.17-.56h0c0,.31-.25,.56-.56,.56h0s-19.03,0-19.03,0h0c-.3,0-.54-.24-.55-.53v-3.56c.02-.29,.26-.53,.55-.53h0s19.03,0,19.03,0h0c.31,0,.56,.26,.56,.57h0s0,3.5,0,3.5Zm4.33-7c0,.35-.27,.63-.6,.63h-27.65c-.33,0-.6-.28-.6-.63v-3.8c0-.35,.27-.63,.6-.63h27.65c.33,0,.6,.28,.6,.63v3.8Z"/></g><g><path class="cls-3" d="M178.21,10.65c.26-.32,.75-.03,.75-.03,6,6.79,8.1,7.44,8.1,7.44,1.25,.73,1.25-.92,1.25-.92-4.61-4.28-7.31-9.16-7.31-9.16-.4-.92-1.19-.96-1.19-.96h-2.96c-.58,0-1.39,1.89-1.39,1.89-3.08,5.58-9.41,9.95-9.41,9.95-.69,.55-.33,1.6,.76,1.34,.16-.04,.23-.09,.23-.09,.89-.32,1.8-.81,2.71-1.4v.94c0,.29,.23,.53,.52,.53h15.94c.29,0,.52-.23,.52-.53v-1.39c0-.29-.23-.53-.52-.53h-15.09c3.81-2.92,7.08-7.09,7.08-7.09Z"/><path class="cls-3" d="M185.15,22.81h-14.75c-.73,0-1.32,.59-1.32,1.32v23.77c.09,.97,.99,.93,.99,.93h15.5c.35,0,.41-.44,.41-.44,0,0,.03-1.22,0-1.6-.03-.38-.44-.47-.44-.47h-11.33c-.37,0-.52-.46-.52-.46v-2.4c0-.43,.52-.5,.52-.5,0,0,11.01,.03,11.35,0,.35-.03,.47-.49,.47-.49,0,0,.03-1.09,0-1.52-.03-.44-.47-.4-.47-.4h-11.32c-.32,0-.56-.49-.56-.49v-2c0-.26,.56-.49,.56-.49h10.91c.73,0,1.32-.59,1.32-1.32v-12.12c0-.73-.59-1.32-1.32-1.32Zm-3.1,11.85c0,.29-.23,.53-.53,.53h-7.58c-.29,0-.53-.24-.53-.53v-2.83c0-.29,.24-.53,.53-.53h7.58c.29,0,.53,.24,.53,.53v2.83Zm0-6.19c0,.29-.23,.52-.53,.52h-7.58c-.29,0-.53-.24-.53-.52v-2.83c0-.29,.24-.53,.53-.53h7.58c.29,0,.53,.24,.53,.53v2.83Z"/><path class="cls-3" d="M203.59,8.02c-.25-.4-.35-.97-1.09-1h-3.33c-1.01,0-1.7,1.73-1.7,1.73-2.02,4.3-9.61,11.88-9.61,11.88-.49,.77-.55,1.05-.28,1.31,.4,.38,1.26-.05,1.26-.05,6.94-4.56,10.97-9.47,10.97-9.47,0,0-.61,.49-.09,.03,.52-.46,1.62-.23,1.62-.23,8.48,9.75,11.22,9.59,11.22,9.59,1.63,.58,1.54-.96,1.14-1.33-7.9-7.33-9.54-11.53-10.1-12.44Z"/><path class="cls-3" d="M213.15,31.9v-1.36c0-.29-.24-.53-.53-.53h-9.21c-.29,0-.52-.29-.52-.49v-4.61c.09-.32,.49-.43,.49-.43h7.06c.29,0,.53,.05,.53-.24v-1.35c0-.29-.24-.52-.53-.52h-19.88c-.29,0-.52,.23-.52,.52v1.07c0,.29,.23,.53,.52,.53h7.54c.26,.08,.37,.43,.37,.43v4.61c0,.35-.44,.49-.44,.49h-9.05c-.29,0-.52,.24-.52,.53v1.36c0,.29,.23,.53,.52,.53h9.03c.35,0,.46,.46,.46,.46v12.45c0,.41-.7,.73-.7,.73h-5.99c-.56,0-.53,.44-.53,.44v1.68c-.03,.9,1.19,.73,1.19,.73h7.64c2.59,0,2.79-2.09,2.79-2.09v-13.94c0-.32,.5-.46,.5-.46h9.25c.29,0,.53-.24,.53-.53Z"/><path class="cls-3" d="M196.83,35.73c.29-.72-.49-.93-.49-.93h-2.9c-.52,.06-.93,.73-.93,.73-1.16,3.92-5.1,9.01-5.1,9.01-.24,1.14,.96,.9,1.29,.64,5.69-4.44,8.13-9.44,8.13-9.44Z"/><path class="cls-3" d="M213.75,43.54c0-.35-.25-.68-.5-.79-5.14-2.38-7.09-6.34-7.31-6.97-.23-.67-.89-.79-.89-.79l-.39,.05c-.4,.35-.25,.94-.25,.94,1.8,6.85,7.81,10,7.81,10,1.62,.7,1.54,0,1.54,0v-2.44Z"/></g><g><path class="cls-3" d="M74.08,5.64c.03,.61,.69,.79,.69,.79,5.8,.73,15.89,4.18,18.81,6.04,.86,.55,1.22,.07,1.22,.07l1.3-1.31c.5-.57,.28-1.2-.15-1.42-8.99-4.64-21.36-5.29-21.36-5.29-.76,0-.56,.67-.56,.67l.05,.44Z"/><path class="cls-3" d="M110.35,41.56c-8.2-3.4-14.05-10.35-14.05-10.35-.26-.36-.38-.67-.38-.67,13.73-9.32,14.11-11.59,14.11-11.59,.09-.09-.04-.2-.19-.35-.13-.13-.67-.11-.67-.11h-3.77s-.43-.05-.71,.08c-.27,.13-.34,.29-.5,.47-4.56,5.02-9.66,8.46-9.66,8.46-.61,0-2.5-3.06-2.5-3.06V15.5c0-1.12-1.07-1.04-1.07-1.04h-21.44c-.55,0-.49,.43-.49,.43v1.09c0,.38,.46,.46,.46,.46h16.77c1.02-.03,1.22,1.16,1.22,1.16v27.31c0,1.13-1.22,1.13-1.22,1.13h-8.16s-.45-.04-.61,.18c-.16,.22-.05,.56-.05,.56l.65,1.48s.09,.49,.31,.59c.22,.1,.71,.07,.71,.07h7.84c5.4,0,5.41-3.54,5.41-3.54v-12.3s.05-.24,.24-.25c.2-.01,.31,.23,.31,.23,9.29,12.06,17.48,13.05,17.48,13.05,.49,0,.45-.45,.45-.45v-3.25c0-.7-.5-.87-.5-.87Z"/><path class="cls-3" d="M85.44,23.2c0-.73-.7-.7-.7-.7h-17.29c-.46,0-.46,.46-.46,.46v1.17c0,.44,.46,.47,.46,.47,0,0,12.72-.04,12.92,0,.66,.13,.26,1.16,.26,1.16-5.01,10.77-14.59,17.81-15.09,18.21-.66,.53,.07,1.78,.07,1.78,.39,.59,1.18,.13,1.18,.13,11.07-6.52,19.43-18.98,18.65-22.69Z"/></g></svg>